<svg width="222" height="347" viewBox="0 0 222 347" fill="none" xmlns="http://www.w3.org/2000/svg">
<path d="M177.47 324.113C176.055 321.4 172.806 320.827 169.977 320.903C169.633 320.024 170.091 318.61 168.983 318.228C167.874 317.846 166.689 317.884 165.58 317.999C165.427 317.426 164.318 317.082 164.242 316.509C163.745 313.49 160.801 312.076 159.692 309.402C160.381 307.72 161.069 306.803 161.91 306.841C161.183 306.841 179.879 319.871 181.408 321.018C182.746 322.011 180.605 324.418 179.649 323.998C179.152 323.769 178.311 324.227 177.47 324.151V324.113Z" fill="#393A3A"/>
<path d="M158.354 309.516C157.322 313.184 160.916 315.668 164.203 316.509C164.624 317.044 165.083 317.54 165.542 317.999C166.115 320.024 167.912 320.98 169.938 320.941C171.123 323.845 174.297 324.877 177.126 325.718C177.202 328.851 175.826 329.806 173.723 329.386C172.461 329.118 171.162 328.927 169.785 328.469C166.574 325.144 162.904 321.667 158.278 320.865C157.781 320.521 157.36 319.68 156.748 319.489C156.595 316.623 155.181 315.783 153.881 314.866C151.931 313.528 149.676 310.93 150.822 309.21C153.155 307.797 156.175 309.784 158.354 309.554V309.516Z" fill="#393A3A"/>
<path d="M142.336 320.559C144.592 324.189 145.471 332.175 153.232 334.048C150.938 327.896 144.783 326.023 143.598 320.521C144.324 319.336 145.662 318.61 146.694 319.031C148.032 319.604 148.759 320.406 149.6 321.171C152.009 325.106 154.991 329.309 159.311 331.105C159.349 332.939 161.528 332.977 160.84 331.029C158.47 327.055 153.385 325.603 151.817 320.941C152.353 320.292 152.926 319.718 153.538 319.145L156.787 319.375C156.979 319.718 157.629 319.986 158.317 320.75C159.961 324.609 163.86 326.94 168.601 328.621C169.174 329.691 171.048 333.207 169.289 333.398L163.707 334.086C162.637 334.239 162.025 336.493 160.955 338.327C158.087 337.869 156.673 335.347 154.302 335.194C152.123 349.485 137.939 323.196 134.001 320.483C133.352 322.814 130.14 329.5 132.74 331.525C136.334 334.315 141.533 337.066 144.209 341.04L185.882 341.728C187.602 341.728 188.367 342.759 188.711 343.524C189.093 344.517 187.793 346.466 185.805 346.466L26.3416 346.275C24.6594 346.275 23.1684 346.39 22.8243 345.549C19.4982 337.792 39.4932 343.524 47.0248 340.925C44.0046 338.251 40.2579 338.556 36.9317 336.569C36.2818 332.252 38.4228 328.966 40.7549 327.17C44.0046 324.686 48.2865 325.832 52.6831 324.953L63.9996 188.312C48.4776 187.739 35.2495 185.981 22.4037 180.67C8.37279 174.9 1.33821 161.259 4.85551 146.51C8.60219 130.882 24.5065 114.91 41.2519 114.566C40.2579 108.261 37.5052 100.198 42.6665 95.1929L39.0345 86.9776C37.2376 82.9273 39.7608 79.1445 43.4311 78.2656C53.4477 75.8583 48.5159 88.8499 59.4501 92.9766C66.4082 95.6131 63.5409 106.083 69.3138 108.834C76.4631 100.81 83.383 93.5881 90.9146 86.137C92.9408 84.15 93.2467 81.1314 97.1463 80.711C97.9874 80.6346 98.8285 79.5647 99.2491 79.1061C102.69 75.3233 83.6124 68.3308 76.9983 33.7884C76.0808 29.0121 73.4046 25.9171 74.0928 19.9944C74.5133 16.5555 69.5049 12.8872 71.3783 8.64586C77.8776 -6.21808 98.4462 2.68495 105.443 2.26463C112.018 1.84431 116.721 -1.17427 122.226 4.82479C133.543 17.1668 132.166 32.5657 124.635 46.8565C119.55 56.5238 115.689 66.6495 109.228 76.1257C107.201 79.1061 114.503 81.5517 116.377 83.1566L143.483 106.656C161.184 121.979 196.663 162.52 181.6 187.548C172.386 202.87 155.488 209.71 137.71 208.87C137.901 227.784 137.519 245.246 136.487 263.587C135.951 273.254 148.224 264.313 157.093 279.139C166.537 294.958 169.404 304.511 186.34 312.802C191.119 315.171 179.765 324.609 159.999 294.729C149.982 296.525 140.807 300.881 132.09 304.74C132.052 312.344 139.239 315.515 142.26 320.406L142.336 320.559ZM114.924 21.1789C117.409 29.1267 116.339 35.6225 121.538 41.4688C132.816 24.7707 119.244 3.48742 112.401 5.89469C111.368 6.27679 110.107 8.18724 108.73 9.75388C102.231 6.65882 78.0688 1.1947 76.5778 9.75388C76.2337 11.7408 76.2719 13.9571 77.9159 15.6383C83.4977 21.4082 76.616 24.7707 80.248 28.5536C86.6709 35.2022 105.328 28.2097 114.886 21.1789H114.924ZM119.129 46.6654C114.465 40.8191 113.242 35.9281 111.483 29.2031C101.925 34.4761 92.9791 36.2721 82.6184 35.6225C84.4917 51.5946 92.9409 63.5162 104.066 74.2152C110.757 65.3885 115.23 56.9058 119.129 46.6654ZM110.107 87.3979C111.827 85.0288 107.698 83.7679 106.704 82.6598C105.634 81.4371 102.155 81.6281 101.467 84.3792C100.664 87.4743 107.316 91.219 110.107 87.3979ZM87.9708 161.183C95.1201 184.3 93.3997 168.596 107.125 180.708C110.833 172.875 115.497 166.761 123.182 162.444C119.932 164.278 144.286 154.19 144.745 159.119C145.203 164.048 134.231 161.641 120.85 170.2C116.53 172.952 115.956 175.664 114.045 180.02C111.942 184.873 110.604 190.834 116.836 195.649C135.378 209.901 165.313 206.042 177.547 184.797C183.397 174.633 180.262 160.915 172.883 152.127C166.804 133.786 139.048 108.261 122.379 94.9636L118.632 102.988C113.548 102.835 111.177 97.218 106.742 96.7977C102.575 96.4156 99.6314 102.95 95.1965 102.262C92.0616 101.803 92.9791 96.6831 91.641 93.397C82.8095 100.733 75.4691 109.178 67.7081 118.769L87.9325 161.144L87.9708 161.183ZM59.7177 103.064C57.4238 101.154 54.6711 103.064 53.0654 101.498C51.3832 99.8928 54.0977 98.0205 55.6269 96.492C51.345 94.6197 47.7895 96.7213 45.8397 99.5107C41.9401 105.089 46.6808 116.591 51.0009 118.119C53.9448 119.151 56.5827 118.119 57.959 115.903C59.3354 113.687 61.247 110.324 58.4943 108.299C57.1562 107.344 55.0917 107.611 55.1682 106.121C55.2446 104.745 55.6269 104.325 56.6974 104.172C57.3856 104.096 58.6472 104.631 59.6795 103.064H59.7177ZM88.6207 179.142L63.6556 120.832C51.0009 106.274 88.9266 184.835 88.6207 179.142ZM11.5842 144.714C4.16732 156.444 11.7754 171.882 25.4241 176.925C42.0548 183.077 60.7117 184.797 77.8777 182.313C82.8095 176.62 76.4249 170.697 74.4751 165.5C70.1932 153.999 65.1848 142.803 58.8384 130.538C53.3713 133.786 50.3892 144.102 46.1455 141.848C42.8576 140.09 50.351 132.983 45.4956 125.226C43.737 122.437 39.1874 118.96 34.332 120.641C23.6272 124.386 15.0251 133.518 11.5078 144.676L11.5842 144.714ZM87.3973 194.235C92.0615 198.132 98.3315 193.814 100.855 190.184C102.881 187.204 101.849 180.746 97.9492 180.746C95.6553 182.313 92.9791 186.287 87.7414 184.3C88.6207 187.395 85.4858 192.63 87.4356 194.273L87.3973 194.235ZM131.287 271.65C122.417 246.201 111.063 221.746 97.3375 198.247C106.59 224.154 117.6 247.577 131.287 271.65ZM109.228 341.46C110.68 334.735 109.572 330.876 106.857 326.596L98.408 234.05L75.0103 327.208C71.6077 331.296 70.499 335.996 70.7666 341.499L109.228 341.422V341.46ZM151.856 280.553C147.077 273.369 139.583 272.299 132.855 275.432C127.999 277.687 124.023 283.724 125.514 290.411L151.817 280.553H151.856ZM156.787 290.564C160.687 279.559 130.905 293.353 128.611 294.423C127.005 295.187 127.12 297.06 127.464 297.9C129.987 304.09 146.312 291.634 156.787 290.526V290.564ZM65.0701 340.543C66.37 336.646 68.0522 332.825 66.8288 329.844C64.8025 324.8 58.3796 326.329 54.9388 328.965C50.9627 331.946 45.8015 328.01 41.5578 332.978C49.4717 336.187 56.468 338.098 65.0701 340.543ZM137.519 340.964C130.943 336.455 127.12 335.882 125.476 329.921C122.417 330.074 117.371 328.163 115.192 330.417C112.859 332.863 114.618 337.754 114.618 341.499C122.876 341.193 130.369 342.645 137.519 340.964Z" fill="#393A3A"/>
<path d="M221.054 317.235C228.547 323.463 189.169 335.958 185.498 328.545C185.078 327.705 185.193 324.686 186.607 324.915C210.158 328.736 217.154 314.025 221.054 317.235Z" fill="#393A3A"/>
<path d="M14.528 52.7408H15.9808C20.0716 51.4416 18.2364 64.3951 17.4336 66.6495C11.0871 66.8788 5.65826 65.847 0 64.4715L0.191169 52.3969C0.191169 50.6774 3.40261 50.9067 4.54956 51.9001C5.19949 52.4733 5.46712 53.8489 5.27596 55.4919C4.89365 59.313 6.07883 61.109 9.40497 61.0708C17.3954 60.9179 9.67256 54.3457 14.5662 52.779L14.528 52.7408Z" fill="#393A3A"/>
<path d="M15.9811 52.779H14.5282C12.8461 46.9328 5.84971 44.9458 0.497296 42.3857C0.0385186 40.4752 1.26193 38.259 2.40887 38.3354C3.63228 38.4118 7.14958 37.4566 8.1436 38.7175C20.3012 54.3074 32.6882 38.5646 34.2175 43.5702C36.9319 52.4733 15.0252 50.066 15.9428 52.779H15.9811Z" fill="#AEE2E6"/>
<path d="M57.6145 57.8992C53.4091 68.7893 45.5334 51.5945 25.9971 58.8163C28.635 43.341 48.8978 54.8424 57.6145 57.8992Z" fill="#AEE2E6"/>
<path d="M63.8858 56.1416C58.9157 52.0913 45.1141 46.5508 51.3076 44.9459C57.5011 43.3411 72.832 54.04 78.6432 59.9244C72.6791 63.2869 67.7854 59.3131 63.8858 56.1416Z" fill="#AEE2E6"/>
<path d="M206.908 294.499C209.967 300.307 182.134 306.498 180.567 302.409C178.273 296.372 189.781 301.568 202.626 293.812C204.041 292.971 206.259 293.315 206.908 294.499Z" fill="#393A3A"/>
<path d="M50.0833 37.6094C50.1598 33.3298 46.2601 46.8564 41.6341 45.7483C39.7225 45.2897 39.5696 43.9141 40.0284 41.3922L42.0929 30.1965C46.0308 29.5087 50.1598 33.6736 50.0833 37.5711V37.6094Z" fill="#393A3A"/>
<path d="M169.786 328.43L168.563 328.698C163.784 327.017 159.922 324.648 158.278 320.827C162.943 321.591 166.575 325.106 169.786 328.43Z" fill="#AEE2E6"/>
<path d="M158.278 320.827C157.59 320.062 156.94 319.795 156.749 319.451C157.322 319.642 157.743 320.483 158.278 320.827Z" fill="#AEE2E6"/>
<path d="M156.75 319.451L153.5 319.222L153.882 314.827C155.182 315.745 156.597 316.585 156.75 319.451Z" fill="#AEE2E6"/>
<path d="M169.939 320.903C167.912 320.941 166.077 319.986 165.542 317.961C166.651 317.884 167.759 317.808 168.945 318.19C170.13 318.572 169.595 319.986 169.939 320.865V320.903Z" fill="#AEE2E6"/>
<path d="M164.204 316.471C160.916 315.63 157.322 313.146 158.354 309.478L159.654 309.363C160.763 312.038 163.707 313.452 164.204 316.471Z" fill="#AEE2E6"/>
<path d="M165.541 317.999C165.044 317.54 164.585 317.044 164.203 316.509C164.28 317.082 165.388 317.426 165.541 317.999Z" fill="#AEE2E6"/>
<path d="M177.471 324.113C177.28 325.03 177.127 325.488 177.127 325.679C174.336 324.839 171.125 323.807 169.939 320.903C172.807 320.827 176.056 321.361 177.433 324.113H177.471Z" fill="#AEE2E6"/>
<path d="M151.779 320.979C153.308 325.603 158.431 327.055 160.802 331.067L159.272 331.143C154.952 329.348 151.97 325.106 149.562 321.209L151.779 321.018V320.979Z" fill="#AEE2E6"/>
<path d="M143.598 320.521C144.783 326.023 150.938 327.934 153.232 334.048C145.471 332.213 144.592 324.227 142.336 320.559L143.598 320.483V320.521Z" fill="#AEE2E6"/>
<path d="M172.883 152.165C171.239 152.203 169.748 153.388 168.906 155.68C164.701 166.761 156.252 177.231 144.285 180.594C134.078 183.498 123.793 180.937 114.083 180.059C115.994 175.664 116.568 172.99 120.888 170.238C134.307 161.679 145.241 164.048 144.782 159.157C144.324 154.266 119.932 164.316 123.22 162.482C123.449 155.604 93.1316 157.591 88.0086 161.221L67.7842 118.845C75.5452 109.254 82.9238 100.848 91.7171 93.4733C93.0552 96.7594 92.1376 101.88 95.2726 102.338C99.7074 103.026 102.651 96.492 106.819 96.8741C111.215 97.2562 113.585 102.911 118.708 103.064L122.455 95.04C139.124 108.337 166.88 133.862 172.959 152.203L172.883 152.165Z" fill="#FDFDFD"/>
<path d="M74.5138 165.5C54.5952 169.742 29.4007 168.29 16.9372 148.306C15.5991 146.166 13.7258 144.714 11.623 144.676C15.1403 133.518 23.7424 124.386 34.4473 120.641C39.3027 118.96 43.8522 122.399 45.6108 125.226C50.4662 132.983 42.9729 140.09 46.2608 141.848C50.5045 144.102 53.4483 133.786 58.9536 130.538C65.2618 142.803 70.3084 153.999 74.5903 165.5H74.5138Z" fill="#FDFDFD"/>
<path d="M172.883 152.165C180.261 160.953 183.396 174.671 177.547 184.835C165.313 206.08 135.416 209.901 116.835 195.687C110.604 190.91 111.942 184.911 114.044 180.059C123.755 180.937 134.039 183.498 144.247 180.594C156.214 177.231 164.663 166.761 168.868 155.68C169.748 153.388 171.2 152.203 172.844 152.165H172.883Z" fill="#AEE2E6"/>
<path d="M74.5133 165.5C76.4631 170.735 82.8095 176.62 77.9159 182.313C60.75 184.797 42.0548 183.039 25.4623 176.925C11.7754 171.882 4.2056 156.444 11.6225 144.714C13.7252 144.714 15.5986 146.204 16.9367 148.344C29.4384 168.328 54.5947 169.78 74.5133 165.539V165.5Z" fill="#AEE2E6"/>
<path d="M114.925 21.1789C105.367 28.2097 86.7099 35.2022 80.287 28.5535C76.655 24.7707 83.5367 21.4081 77.9549 15.6383C76.3109 13.9188 76.2727 11.7408 76.6168 9.75386C78.0696 1.19468 102.27 6.6588 108.77 9.75386C110.146 8.18722 111.369 6.27677 112.44 5.89466C119.245 3.48739 132.855 24.7325 121.577 41.4687C116.339 35.6225 117.448 29.1267 114.963 21.1789H114.925Z" fill="#FDFDFD"/>
<path d="M119.13 46.6653C115.231 56.8676 110.758 65.3503 104.067 74.2151C92.9416 63.5162 84.4925 51.5945 82.6191 35.6225C92.9799 36.3103 101.926 34.5143 111.484 29.203C113.243 35.9281 114.466 40.7809 119.13 46.6653ZM95.809 59.2749C97.3383 61.109 99.8233 58.8163 100.626 57.6317C101.391 56.4854 101.429 54.3075 100.206 53.0083C99.4793 52.2441 97.9117 51.2506 96.2295 52.5498C94.5474 53.8489 94.5474 57.8228 95.809 59.313V59.2749Z" fill="#FDFDFD"/>
<path d="M123.182 162.444C115.497 166.761 110.833 172.875 107.125 180.708C93.3996 168.595 95.12 184.3 87.9707 161.183C93.0937 157.591 123.411 155.566 123.182 162.444Z" fill="#AEE2E6"/>
<path d="M131.286 271.649C117.6 247.577 106.589 224.154 97.3369 198.247C111.024 221.746 122.417 246.201 131.286 271.649Z" fill="#AEE2E6"/>
<path d="M59.7173 103.064C58.685 104.631 57.4234 104.096 56.7352 104.172C55.6648 104.325 55.2824 104.745 55.2059 106.121C55.1295 107.611 57.194 107.344 58.5321 108.299C61.323 110.324 59.3349 113.763 57.9968 115.903C56.6587 118.043 53.9825 119.151 51.0387 118.119C46.7186 116.629 41.9778 105.089 45.8774 99.5106C47.8273 96.7213 51.3445 94.6196 55.6647 96.492C54.1354 98.0204 51.421 99.8927 53.1032 101.498C54.7854 103.102 57.4616 101.154 59.7555 103.064H59.7173Z" fill="#FDFDFD"/>
<path d="M151.856 280.553L125.553 290.411C124.023 283.724 128.038 277.725 132.893 275.432C139.622 272.299 147.115 273.369 151.894 280.553H151.856Z" fill="#FDFDFD"/>
<path d="M88.6207 179.142C88.9266 184.835 51.0392 106.274 63.6556 120.832L88.6207 179.142Z" fill="#AEE2E6"/>
<path d="M65.07 340.543C56.4296 338.098 49.4715 336.187 41.5576 332.977C45.8395 328.01 50.9626 331.946 54.9386 328.965C58.4177 326.367 64.8406 324.8 66.8286 329.844C68.0138 332.825 66.3316 336.646 65.07 340.543Z" fill="#FDFDFD"/>
<path d="M137.519 340.964C130.37 342.645 122.876 341.193 114.618 341.499C114.618 337.754 112.821 332.863 115.192 330.417C117.371 328.125 122.417 330.074 125.476 329.921C127.12 335.882 130.943 336.455 137.519 340.964Z" fill="#FDFDFD"/>
<path d="M156.788 290.564C146.312 291.672 129.987 304.129 127.464 297.938C127.12 297.098 127.005 295.187 128.611 294.461C130.905 293.391 160.687 279.597 156.788 290.602V290.564Z" fill="#AEE2E6"/>
<path d="M87.3974 194.235C85.4476 192.592 88.5826 187.357 87.7032 184.262C92.9409 186.249 95.6171 182.275 97.911 180.708C101.811 180.708 102.881 187.166 100.817 190.146C98.3316 193.814 92.0234 198.132 87.3592 194.197L87.3974 194.235Z" fill="#FDFDFD"/>
<path d="M110.106 87.3979C107.316 91.219 100.663 87.4743 101.466 84.3792C102.193 81.6281 105.633 81.4371 106.704 82.6598C107.66 83.7679 111.827 85.0671 110.106 87.3979Z" fill="#FDFDFD"/>
<path d="M159.271 331.143L160.801 331.067C161.489 332.977 159.31 332.978 159.271 331.143Z" fill="#FDFDFD"/>
<path d="M95.8084 59.2748C94.5468 57.7846 94.6615 53.7342 96.2289 52.5115C97.7964 51.2887 99.4404 52.2058 100.205 52.97C101.428 54.2692 101.39 56.4472 100.626 57.5936C99.8227 58.7781 97.3377 61.0707 95.8084 59.2366V59.2748Z" fill="#393A3A"/>
</svg>
