<svg width="232" height="398" viewBox="0 0 232 398" fill="none" xmlns="http://www.w3.org/2000/svg">
<path d="M73.9948 313.929C74.7193 317.751 76.4502 320.527 79.6303 320.93C92.1492 322.499 88.8081 302.906 96.094 297.233L111.189 379.949C108.17 383.168 100.884 381.72 98.3482 386.548C97.5029 388.157 96.2953 393.387 98.3885 393.99C110.465 397.45 122.138 398.577 135.301 397.732C131.88 390.812 136.267 384.938 136.187 379.547L134.536 288.543C138.28 294.055 138.562 300.492 141.983 306.165C146.331 313.366 154.945 314.935 162.553 310.349C179.782 299.969 196.245 286.531 212.629 274.864C218.144 278.927 225.148 283.232 231.91 277.439C227.321 267.019 220.84 257.444 213.474 248.351C208.724 251.489 204.014 251.087 199.868 253.059L166.78 268.99C158.769 232.822 162.835 192.59 120.609 182.09C120.005 169.497 117.71 158.554 110.344 148.134C115.577 141.657 120.327 134.898 127.21 129.989C131.155 127.173 137.153 130.553 141.621 128.018C142.024 125.081 139.608 122.506 139.447 118.041C151.524 115.305 163.197 110.718 171.369 102.712C183.324 90.9646 174.71 77.0442 174.508 64.8137C174.347 55.0374 184.33 44.9796 176.682 32.7894C169.759 21.7659 158.568 12.9149 143.352 14.6851C136.71 1.56952 123.024 -1.60896 109.78 0.684249C95.3293 3.13839 87.2785 12.8344 87.8421 29.0076C83.6959 19.0301 79.1473 11.4263 71.2575 8.16755C61.8784 4.3053 51.4526 6.88013 44.8912 14.2023C35.9549 24.1396 36.5185 38.3816 44.4082 49.6465C26.4148 75.3546 48.8361 100.218 69.6876 113.816C67.9969 116.029 64.0923 117.96 65.1389 120.454C66.8295 124.558 73.9545 121.862 76.893 124.196C83.0921 129.185 85.7086 136.829 91.0222 144.03C74.4778 152.479 67.4736 167.003 57.2492 182.17C55.0352 163.14 61.5161 136.306 51.4929 122.305C48.4336 118.041 42.3553 120.937 38.7727 118.765C28.9508 112.891 19.2093 106.494 7.53574 111.603C3.06757 113.575 1.13547 117.236 0.813431 121.299C0.410889 125.926 6.65015 129.185 5.64381 133.208L3.30914 142.582C2.66508 145.237 9.66922 147.007 10.8366 149.663C13.8154 158.272 12.1649 167.606 17.8407 175.572C25.7707 186.636 36.1562 194.722 50.2048 199.027L33.258 244.972C27.3407 235.598 27.0186 210.413 15.2242 213.913C13.5738 214.396 11.2794 216.126 10.6354 219.022C5.7244 240.868 3.42989 263.881 7.81755 285.767C9.50821 294.175 16.0293 300.21 22.4297 302.383C42.1138 309.021 55.8404 279.249 67.6347 266.777C69.7682 283.474 71.016 298.4 73.9948 313.889V313.929ZM123.306 59.2217C121.937 62.8426 119.683 65.9807 115.295 68.7969C101.891 58.8999 84.0582 25.5073 98.469 12.7538C104.064 3.09816 130.551 0.603972 138.24 16.2139C114.248 32.8699 131.598 52.9053 123.306 59.2217ZM60.2279 37.3759C56.8466 40.3933 52.6603 42.0428 47.5883 44.6578C42.1138 36.531 41.51 27.3178 47.6286 20.599C50.8086 17.1391 52.298 12.9148 57.692 11.8688C63.086 10.8228 68.1982 11.3458 72.9884 15.1678C79.8718 20.5991 83.6959 28.9673 82.4078 38.5425C74.9206 37.0137 68.2385 36.7322 60.1877 37.3759H60.2279ZM148.062 55.6008C143.755 56.4054 140.615 58.5376 135.422 61.0319C131.638 53.1867 127.17 43.9336 131.356 35.5251C131.155 26.3925 139.769 18.8691 149.752 19.8749C160.259 20.9612 168.792 27.6397 172.898 37.4964C175.716 44.2152 174.911 56.3652 167.665 59.6642C161.788 59.2619 154.462 53.7501 148.062 55.6008ZM83.0519 97.643C80.9587 101.706 77.9799 105.046 73.4714 109.391C58.2555 100.741 41.4294 85.694 43.6434 65.2965C45.4548 48.4796 63.2471 37.5769 79.8316 43.5312C90.8209 47.4739 96.6174 57.9342 95.5305 69.6416C94.6047 79.9812 89.8145 89.315 83.0519 97.643ZM151.644 108.023C147.941 111.04 143.151 112.287 137.354 112.931C133.369 102.672 130.793 92.6543 132.604 82.0733C133.892 74.4695 134.255 66.906 142.708 62.7621C149.913 59.2217 159.091 59.7848 165.773 66.1415C172.455 72.4981 174.549 82.0734 171.771 91.9302C169.598 99.6145 161.386 105.689 151.644 108.023ZM110.827 85.2113L99.0729 140.852C96.5369 126.61 89.6938 112.006 90.4988 98.3672C94.967 86.4183 103.219 75.596 100.321 61.7161C106.117 65.9002 108.653 69.2796 111.713 73.7453C108.17 75.9179 105.03 76.7226 104.749 80.6251C106.117 82.3953 110.384 82.7169 110.827 85.2113ZM115.818 86.5793C116.141 85.0102 121.695 84.608 120.488 82.355C115.698 73.3028 121.856 71.1302 127.452 63.3252C128.176 62.2792 132.202 63.647 131.558 65.0551C126.808 75.5959 124.674 85.8149 127.854 96.9189L105.715 137.231C108.13 119.65 112.075 103.798 115.818 86.539V86.5793ZM114.41 134.737C117.992 123.874 124.03 115.747 128.861 105.247C137.193 117.88 124.795 122.788 114.41 134.737ZM76.893 112.891C80.6366 109.431 81.6832 107.419 85.3061 104.965C87.4395 114.42 90.4989 122.708 90.9014 133.168C85.0243 126.771 81.6027 120.133 76.8527 112.891H76.893ZM34.9084 144.232C28.0652 145.841 8.01881 147.49 8.8239 139.967C9.14592 136.869 15.8683 136.668 15.5865 133.771C15.4657 132.443 0.612122 123.351 7.81755 117.88C17.3174 110.638 28.3067 124.035 36.277 124.357L45.8976 124.759C50.3255 124.92 53.1433 142.501 51.4929 146.404C49.6412 150.065 42.5968 149.462 38.7324 150.226C36.9612 148.617 37.0418 144.956 34.9084 144.272V144.232ZM90.5793 291.963C87.198 299.607 87.9628 308.659 80.5561 316.866C74.9609 295.704 73.3104 275.065 72.4651 253.42C72.3846 250.886 70.4525 226.626 69.3656 225.379C68.8826 224.816 66.1452 224.695 66.1452 225.54L66.3063 256.478C66.3465 265.651 55.9208 271.203 50.6878 278.284C45.6963 285.043 42.5968 293.733 32.6139 297.313C24.6436 300.17 14.701 294.779 12.7688 284.841C9.06546 265.852 9.42767 244.771 15.345 225.741C15.989 223.649 14.9827 220.471 18.2433 219.264C24.2008 227.994 28.7495 257.645 30.8024 260.179C31.2855 260.783 33.2982 261.065 33.7813 259.737L49.3998 216.367C54.1095 216.93 57.853 219.143 62.1198 218.338C63.6495 215.241 61.6369 210.815 63.9313 207.918C66.105 205.183 70.694 205.665 72.9884 202.407C71.66 196.251 66.5881 193.274 60.1474 190.297C63.4483 179.193 89.251 138.639 103.702 149.864C110.666 155.255 113.121 164.548 114.571 173.198C121.293 214.194 104.266 254.265 90.5793 292.043V291.963ZM50.6073 193.435C31.6478 189.009 13.8154 168.934 17.559 150.95C22.1077 151.312 28.0249 148.617 31.5672 150.829C41.9125 160.405 46.4209 150.588 52.3382 154.249L50.6476 193.435H50.6073ZM214.883 269.835C209.73 268.709 207.315 267.622 206.993 262.473C206.872 260.582 205.947 258.007 207.637 256.76C208.644 255.995 211.18 254.225 212.347 255.593C217.298 261.427 221.605 267.582 224.423 274.623C219.834 276.151 218.586 270.68 214.883 269.875V269.835ZM102.978 389.283C109.418 385.421 114.812 386.186 117.831 380.593C121.937 380.553 125.278 380.271 128.74 382.001C129.384 386.065 129.787 389.203 128.901 393.226C120.005 392.421 111.431 393.065 102.937 389.324L102.978 389.283Z" fill="#393A3A"/>
<path d="M82.2875 346.436C81.9655 342.614 80.8787 338.712 82.4889 334.89C84.3003 338.873 82.8108 342.212 85.0248 344.666C89.2112 341.126 88.4867 335.091 86.5143 329.861C81.563 333.401 76.3702 336.7 70.8152 333.482C66.9508 331.229 76.9741 321.774 70.7347 320.004C65.5822 323.907 60.2687 337.022 64.2941 339.275L69.7687 342.373C71.3386 343.258 69.7686 355.368 72.8279 357.741L78.9062 352.149C81.0799 350.138 83.2133 348.931 82.368 346.436H82.2875ZM77.4572 348.206C74.0758 345.189 75.4444 341.971 76.4105 339.798C76.9741 343.178 80.1542 345.511 77.4572 348.206Z" fill="#393A3A"/>
<path d="M4.43659 211.056C5.96623 204.297 7.77768 198.705 13.7755 196.452C19.25 200.958 16.3517 208.119 19.2499 209.769C28.1058 214.798 19.0487 179.313 4.43659 183.417C-0.715891 184.865 9.14627 189.291 1.77983 200.717C-0.232861 203.855 -1.80274 209.165 4.43659 211.056Z" fill="#393A3A"/>
<path d="M82.2864 346.436C83.4135 346.275 84.3796 345.632 85.0236 344.706C82.8097 342.252 84.2992 338.913 82.4878 334.93C80.8776 338.752 81.9644 342.655 82.2864 346.477V346.436Z" fill="#AEE2E6"/>
<path d="M15.3849 225.661C23.6772 243.081 16.1497 253.943 23.5967 274.26C27.7026 285.445 43.643 277.318 50.7277 278.244C55.9607 271.163 66.3864 265.611 66.3462 256.438L66.1851 225.5C66.1851 224.655 68.9627 224.775 69.4055 225.339C70.4521 226.586 72.3842 250.846 72.505 253.38C74.7995 253.259 75.4838 255.15 76.2889 257.444L85.829 284.439C86.9158 287.537 88.1637 290.434 90.5789 291.922C104.265 254.145 121.293 214.034 114.57 173.078C113.161 164.428 110.706 155.175 103.702 149.743C89.2506 138.559 63.4479 179.112 60.1471 190.176C66.6279 193.113 71.6597 196.09 72.988 202.286C70.6936 205.505 66.1046 205.062 63.9309 207.798C61.6365 210.694 63.6894 215.12 62.1195 218.218C57.8526 219.062 54.0688 216.85 49.3994 216.246L33.7809 259.616C33.2979 260.944 31.2851 260.662 30.802 260.059C28.7491 257.524 24.2004 227.873 18.2429 219.143C14.9421 220.39 15.9887 223.528 15.3446 225.62L15.3849 225.661Z" fill="#FDFDFD"/>
<path d="M43.6427 65.2968C47.3863 65.6589 48.8757 69.28 51.4922 72.056C64.8564 86.1773 65.2992 88.5107 83.0511 97.6433C89.8138 89.3153 94.604 79.9815 95.5298 69.6419C96.6167 57.9344 90.8202 47.4742 79.8309 43.5315C63.2463 37.5772 45.4541 48.4799 43.6427 65.2968Z" fill="#FDFDFD"/>
<path d="M132.645 82.0734C136.911 84.1252 138.683 89.154 141.822 93.2174C145.646 98.166 151 102.109 151.644 108.023C161.426 105.69 169.597 99.5743 171.771 91.9302C174.549 82.0735 172.737 72.7798 165.773 66.1415C158.809 59.5033 149.913 59.2218 142.708 62.7622C134.295 66.9061 133.933 74.4696 132.604 82.0734H132.645Z" fill="#FDFDFD"/>
<path d="M98.4697 12.7142C101.086 24.4216 110.506 55.5208 123.306 59.1819C131.599 52.8252 114.249 32.7898 138.24 16.1741C130.552 0.564122 104.065 3.05855 98.4697 12.7142Z" fill="#FDFDFD"/>
<path d="M131.357 35.4849C136.55 37.577 137.516 44.2151 142.386 47.7153C145.365 49.8878 147.941 52.1409 148.062 55.5606C154.463 53.7099 161.789 59.2217 167.666 59.624C174.952 56.325 175.717 44.175 172.899 37.4562C168.753 27.5995 160.259 20.921 149.753 19.8347C139.77 18.7887 131.156 26.3121 131.357 35.4849Z" fill="#FDFDFD"/>
<path d="M50.6083 193.435L52.299 154.249C46.422 150.588 41.8733 160.405 31.5281 150.829C27.9857 148.617 22.0684 151.312 17.5197 150.95C13.7761 168.934 31.6085 189.009 50.568 193.435H50.6083Z" fill="#FDFDFD"/>
<path d="M34.9076 144.232C37.0411 144.915 36.9203 148.577 38.7317 150.186C42.596 149.421 49.6405 150.025 51.4922 146.364C53.1828 142.461 50.3248 124.88 45.8968 124.719L36.2763 124.317C28.306 123.995 17.3167 110.598 7.81681 117.84C0.651638 123.311 15.465 132.403 15.5858 133.731C15.8675 136.628 9.14518 136.829 8.82315 139.927C8.05833 147.45 28.0645 145.801 34.9076 144.191V144.232Z" fill="#FDFDFD"/>
<path d="M50.7277 278.244C43.6431 277.359 27.7026 285.485 23.5967 274.26C16.1095 253.943 23.6772 243.081 15.3849 225.661C9.46762 244.69 9.10528 265.772 12.8086 284.761C14.7408 294.698 24.6836 300.089 32.6538 297.233C42.6368 293.652 45.7363 284.962 50.7277 278.203V278.244Z" fill="#AEE2E6"/>
<path d="M47.6284 20.6394C51.6538 26.3524 57.5307 30.9389 60.2277 37.376C68.2382 36.7725 74.9204 37.0138 82.4479 38.5426C83.6957 28.9675 79.9119 20.6395 73.0285 15.168C68.2383 11.346 63.0455 10.8632 57.732 11.8689C52.4185 12.8747 50.8083 17.1392 47.6685 20.5992L47.6284 20.6394Z" fill="#FDFDFD"/>
<path d="M43.6435 65.2966C41.4295 85.6942 58.2959 100.741 73.4715 109.391C77.9397 105.086 80.9588 101.747 83.052 97.6432C65.2598 88.5105 64.8573 86.1772 51.493 72.0558C48.8765 69.2798 47.4273 65.6587 43.6435 65.2966Z" fill="#AEE2E6"/>
<path d="M123.305 59.2216C110.504 55.5203 101.044 24.4209 98.4683 12.7537C84.0977 25.5071 101.89 58.8998 115.294 68.7968C119.682 65.9805 121.936 62.8827 123.305 59.2216Z" fill="#AEE2E6"/>
<path d="M72.4661 253.421C73.3114 275.065 74.9216 295.745 80.5571 316.866C87.9638 308.619 87.199 299.607 90.5803 291.963C88.1651 290.474 86.9172 287.578 85.8304 284.48L76.2902 257.484C75.4852 255.191 74.8008 253.3 72.5064 253.421H72.4661Z" fill="#AEE2E6"/>
<path d="M151.645 108.023C151.001 102.109 145.647 98.166 141.823 93.2175C138.683 89.1541 136.912 84.1253 132.645 82.0735C130.833 92.6544 133.369 102.672 137.395 112.931C143.191 112.287 147.981 111.04 151.685 108.023H151.645Z" fill="#AEE2E6"/>
<path d="M131.356 35.4849C127.17 43.9335 131.638 53.187 135.422 60.9919C140.615 58.4976 143.755 56.3651 148.062 55.5605C147.941 52.1408 145.365 49.8878 142.386 47.7152C137.555 44.2151 136.549 37.5769 131.356 35.4849Z" fill="#AEE2E6"/>
<path d="M60.2287 37.376C57.5317 30.8987 51.6548 26.3523 47.6294 20.6394C41.5108 27.3581 42.1146 36.5711 47.5891 44.6979C52.7013 42.0829 56.8877 40.4334 60.2287 37.416V37.376Z" fill="#AEE2E6"/>
<path d="M102.978 389.283C111.471 393.025 120.045 392.381 128.941 393.186C129.787 389.163 129.384 386.025 128.78 381.961C125.319 380.231 121.937 380.513 117.872 380.553C114.853 386.145 109.459 385.381 103.018 389.243L102.978 389.283Z" fill="#FDFDFD"/>
<path d="M214.884 269.835C218.547 270.64 219.795 276.111 224.424 274.583C221.606 267.582 217.339 261.387 212.348 255.553C211.181 254.185 208.645 255.995 207.638 256.72C205.948 257.967 206.873 260.542 206.994 262.433C207.316 267.622 209.731 268.668 214.884 269.795V269.835Z" fill="#FDFDFD"/>
<path d="M77.4564 348.207C80.1534 345.511 77.0135 343.178 76.4097 339.798C75.4034 341.971 74.075 345.189 77.4564 348.207Z" fill="#FDFDFD"/>
</svg>
