<svg width="197" height="384" viewBox="0 0 197 384" fill="none" xmlns="http://www.w3.org/2000/svg">
<path d="M162.555 366.112C162.672 372.762 155.24 368.796 151.35 378.75L38.7519 378.906C36.6898 378.906 35.1335 379.8 35.0946 380.967C35.0946 381.861 35.7171 383.845 37.5846 383.845L136.954 384L194.615 383.845C195.86 383.845 196.793 381.511 196.443 380.889C194.692 377.623 190.335 379.645 186.522 378.595C180.686 374.473 185.005 367.551 184.149 362.029C177.184 316.96 172.087 272.63 171.192 226.472C209.01 200.341 169.947 143.412 152.478 115.803C151.466 114.208 145.942 110.981 148.899 108.687C164.345 96.6707 178.351 82.5551 186.366 64.8619C192.358 51.6407 184.187 41.9192 173.605 35.9307C167.496 32.4698 164.734 24.7315 156.252 23.9926C150.027 23.4094 147.459 26.598 142.829 28.6201C138.705 30.4477 131.351 25.7037 125.943 30.72C123.687 26.5981 126.177 24.3038 125.087 20.4152L17.1973 0L9.37685 40.4415L19.3372 44.5245L6.03087 118.952C4.59129 127.041 17.3529 117.514 15.2908 129.685C8.67659 168.26 3.26849 206.213 0.000274658 245.371L62.0574 255.326C65.7147 256.687 68.2047 261.47 73.6906 262.364C70.8115 285.229 75.636 306.578 81.4721 328.548C82.6782 333.059 82.7561 336.364 89.3704 338.231C84.5459 340.797 81.1608 340.448 79.5267 342.664C78.2039 344.492 76.3753 350.675 78.7486 351.724C88.5144 355.885 99.175 357.402 109.991 358.802C111.975 359.074 112.52 354.524 111.859 353.086C109.602 348.225 112.676 342.936 112.831 338.231C113.882 308.289 98.747 272.786 127.227 257.27L158.042 363.235C158.431 364.518 162.399 364.596 162.438 365.996L162.555 366.112ZM15.2129 36.7473L21.3604 5.48295L44.5491 10.2271L37.04 41.1803C29.5698 39.7804 22.9555 39.5471 15.2129 36.7473ZM119.329 31.5755L114.699 55.3737L41.67 41.9581L50.035 10.9659L83.4174 17.4987C84.7792 20.3374 84.4679 23.1372 85.2461 26.4425C95.4398 28.8534 108.396 36.1641 110.73 25.8981C111.586 22.204 115.788 22.9816 117.812 24.0316C120.185 25.2759 119.951 28.2702 119.29 31.5755H119.329ZM89.7594 22.9428C88.6311 22.4372 89.1368 18.9764 90.732 19.0542C94.7395 19.2097 106.567 20.3374 106.1 24.3038C105.634 28.2702 91.3546 23.6427 89.7594 22.9428ZM142.868 53.4294C140.183 51.4462 124.309 54.6737 123.609 43.669C123.336 39.3915 126.254 36.203 130.301 34.1809C142.051 28.3091 149.093 45.38 150.805 29.9811C159.092 26.1703 164.773 35.503 169.636 39.8582C174.733 44.4468 182.67 45.5744 183.059 53.2739C183.37 59.2234 182.398 66.8451 176.912 70.1893C173.41 64.9008 174.5 60.04 172.749 54.3627C165.201 59.0679 149.288 67.9729 143.879 59.9235C142.946 58.5236 144.658 54.7905 142.868 53.4684V53.4294ZM68.2436 59.1068L57.4663 123.385L11.2055 117.864C15.2908 98.0318 16.8471 79.522 22.1774 60.8567C23.6169 55.8404 21.5938 49.5797 25.6012 44.1745L68.1658 52.185C69.9945 52.535 68.8272 57.5513 68.2436 59.1068ZM133.102 113.042C119.913 121.636 112.209 135.946 100.653 126.73L112.131 61.44C112.403 59.9623 118.24 61.1678 118.706 59.6901C119.251 57.9403 119.99 55.9959 120.613 52.224C124.037 53.0017 126.682 55.7237 130.923 57.2014C127.772 70.6171 133.608 92.1211 139.055 105.692C140.611 109.62 135.826 111.253 133.102 113.042ZM89.0201 63.3454C84.7792 62.5677 82.6783 57.7458 80.4606 55.0238C87.8919 54.7516 93.8836 56.2682 101.354 58.4847C97.5409 59.5735 93.8446 64.2398 89.0201 63.3454ZM173.021 77.461C165.551 89.4768 155.552 97.1763 144.424 105.265C138.199 89.3991 132.596 74.2723 136.176 56.8125C140.456 63.3065 143.179 68.245 150.688 67.8951C156.952 67.584 162.166 65.6397 168.858 62.9566C169.558 67.5451 174.577 72.6391 173.021 77.461ZM79.5267 108.142C73.3405 111.914 69.9167 116.386 63.4581 119.225L73.8463 56.8514C79.2155 60.4678 81.6666 64.3954 85.5185 68.5562L79.4879 108.103L79.5267 108.142ZM85.0127 107.948L90.2262 69.7227C95.5176 66.7285 99.992 64.0843 106.334 62.2566L95.9456 123.035C91.4713 118.252 86.569 113.431 85.0516 107.948H85.0127ZM137.071 117.903C136.915 115.997 141.35 112.964 142.907 113.547C146.72 115.025 146.798 118.875 143.685 120.314C141 121.558 137.576 123.619 137.071 117.903ZM67.8935 124.047C72.9125 118.33 76.4531 115.997 81.7834 113.431C85.5963 118.486 88.9813 122.063 90.9267 127.313C82.6005 126.185 75.4415 126.613 67.8935 124.047ZM68.555 130.813C82.795 132.99 97.3074 131.318 112.365 135.362C109.563 148.467 112.092 163.283 106.918 175.337L84.2346 228.145C81.3944 234.755 84.3902 242.105 90.732 244.438C93.4556 245.449 97.035 243.31 99.4862 245.177C100.07 248.91 99.2139 254.12 95.6344 252.254C93.6112 251.204 93.4167 245.799 90.0317 247.043C89.4481 249.221 89.1369 251.437 87.5028 253.732C85.9854 255.87 82.6394 253.654 79.9548 254.548C76.7644 255.598 73.8074 258.398 71.2396 255.131C74.43 253.693 78.7098 254.004 78.0483 250.699C77.776 249.415 74.819 248.871 75.0136 248.015C75.3248 246.654 86.6079 238.76 80.4216 238.722C71.2395 238.644 68.4771 252.954 63.6136 249.882C62.4853 249.182 65.3256 247.588 65.4812 246.732L82.7171 138.512C83.0673 136.257 82.4059 134.662 81.1609 134.468C79.6435 134.235 78.2429 135.012 77.9316 137.19L62.0184 238.838C60.7734 242.377 61.5517 245.138 62.4854 249.726C43.1096 248.326 24.9787 245.332 5.1749 241.483C8.83218 210.646 11.2834 180.781 17.5086 151.695C19.2983 143.373 17.7809 132.951 22.1774 124.63C38.285 125.135 53.809 128.518 68.5938 130.774L68.555 130.813ZM180.024 207.263C174.538 228.728 150.299 224.489 130.884 221.534C137.888 214.301 145.202 209.013 153.139 202.946C155.668 201.002 160.221 196.841 159.365 193.458C159.17 192.642 156.641 192.486 155.863 193.264C148.587 201.235 139.172 206.057 130.884 213.251C124.581 218.734 101.821 242.377 92.2884 239.577C81.4333 236.388 96.4515 212.979 95.401 216.012C103.961 190.619 117.928 167.21 130.612 142.751C131.235 141.584 131.429 140.262 131.001 139.562C130.651 139.018 130.145 138.434 127.889 138.201C122.831 145.356 120.768 153.017 114.932 159.666C116.333 146.834 114.154 129.374 124.971 126.419C124.737 129.957 123.259 132.64 125.593 135.479C130.029 135.246 132.596 131.202 137.304 130.229L144.619 140.184C149.132 137.112 149.404 132.601 153.139 127.041C166.679 146.6 187.884 181.637 180.024 207.263ZM82.4837 347.797C85.4407 343.286 88.5921 344.803 91.8214 343.481C94.0392 338.542 101.821 337.764 105.089 342.159C107.268 345.075 106.217 349.469 106.879 353.28C98.3191 352.386 90.6153 351.102 82.4448 347.797H82.4837ZM157.847 378.595C160.143 374.084 164.5 374.356 166.562 370.934C167.73 368.99 167.807 365.762 169.442 365.296C171.504 364.712 175.122 364.207 176.834 366.074C179.752 369.301 179.285 374.395 179.013 378.789C171.543 378.789 165.395 379.372 157.886 378.595H157.847Z" fill="#393A3A"/>
<path d="M68.5553 130.813L68.2829 135.362C77.8931 135.907 70.6174 150.683 69.4891 162.505C59.6455 162.621 50.5412 160.872 40.8144 159.744C39.4526 155.194 40.6198 151.189 40.1529 145.978L30.9708 148.584C26.1074 149.983 22.061 152.589 17.4311 151.656C11.2059 180.742 8.71588 210.607 5.0975 241.444C24.9013 245.293 43.0321 248.287 62.4079 249.687C61.4741 245.099 60.696 242.338 61.941 238.799L77.8541 137.151C78.2043 134.973 79.605 134.196 81.0835 134.429C82.3285 134.624 82.9899 136.218 82.6398 138.473L65.4038 246.693C65.2482 247.549 62.4079 249.104 63.5362 249.843C68.3997 252.915 71.1621 238.605 80.3442 238.683C86.5305 238.722 75.2473 246.654 74.9361 247.976C74.7415 248.832 77.6985 249.376 77.9708 250.66C78.6323 253.965 74.3524 253.615 71.162 255.093C73.7688 258.32 76.7259 255.559 79.8774 254.509C82.6009 253.615 85.908 255.792 87.4254 253.693C89.0595 251.437 89.3707 249.182 89.9543 247.004L90.6547 244.36C84.3128 242.027 81.3168 234.677 84.1571 228.067L106.84 175.259C112.015 163.205 109.525 148.35 112.287 135.285C97.23 131.24 82.7175 132.912 68.4774 130.735L68.5553 130.813ZM16.9252 220.639C19.6098 220.717 20.3491 242.843 15.33 238.527C13.5792 237.011 12.4898 220.523 16.9252 220.639ZM23.734 220.873C26.3019 222.234 27.3525 244.438 21.9833 239.305C20.8549 238.255 19.6877 219.784 23.734 220.873Z" fill="#FDFDFD"/>
<path d="M95.401 216.012C113.454 217.49 115.594 214.534 130.845 213.251C139.133 206.018 148.548 201.235 155.824 193.264C156.641 192.525 159.131 192.642 159.326 193.458C160.182 196.841 155.629 201.002 153.1 202.946C151.272 207.846 177.301 207.34 179.985 207.263C187.845 181.598 166.679 146.561 153.1 127.041C149.365 132.562 149.093 137.112 144.58 140.184L137.265 130.229C132.519 131.201 129.99 135.285 125.554 135.479C123.259 132.601 124.737 129.957 124.932 126.419C114.115 129.413 116.294 146.834 114.894 159.666C120.73 153.017 122.831 145.356 127.85 138.201C130.106 138.434 130.612 139.018 130.962 139.562C131.39 140.262 131.196 141.545 130.573 142.751C117.889 167.249 103.922 190.619 95.362 216.012H95.401Z" fill="#FDFDFD"/>
<path d="M22.1779 60.8565C16.8476 79.5218 15.2913 98.0705 11.206 117.864L57.4669 123.385L68.2441 59.1066C56.8832 58.6399 31.9825 64.2396 22.1779 60.8565Z" fill="#FDFDFD"/>
<path d="M119.329 31.5754C119.99 28.2701 120.224 25.2758 117.85 24.0315C115.827 22.9816 111.586 22.165 110.769 25.8981C108.435 36.164 95.4788 28.8533 85.2851 26.4424C84.5069 23.0982 84.7793 20.3373 83.4564 17.4987L50.074 10.9658L41.709 41.958L114.738 55.3737L119.368 31.5754H119.329Z" fill="#FDFDFD"/>
<path d="M142.868 53.4294C144.658 54.7516 142.946 58.4846 143.88 59.8845C149.288 67.9339 165.201 59.0291 172.749 54.3238C174.5 60.0012 173.372 64.862 176.912 70.1505C182.398 66.8063 183.371 59.1846 183.059 53.235C182.67 45.5356 174.772 44.4467 169.636 39.8193C164.773 35.4641 159.093 26.1314 150.805 29.9422C149.093 45.3411 142.051 28.2313 130.301 34.142C126.255 36.164 123.337 39.3527 123.609 43.6302C124.309 54.6349 140.184 51.4462 142.868 53.3905V53.4294Z" fill="#FDFDFD"/>
<path d="M173.021 77.461C174.577 72.6391 169.558 67.5451 168.858 62.9566C162.166 65.6397 156.952 67.584 150.688 67.8951C143.179 68.245 140.455 63.3065 136.175 56.8125C132.596 74.2723 138.199 89.3991 144.424 105.265C155.551 97.1763 165.55 89.4768 173.021 77.461ZM143.334 82.8273C143.723 79.4442 148.12 77.5 149.91 75.8668C153.022 79.0165 150.999 81.4663 149.248 83.1773C147.809 84.5772 142.984 86.016 143.334 82.8273Z" fill="#FDFDFD"/>
<path d="M15.2127 36.7472C22.9163 39.547 29.5695 39.8193 37.0397 41.1803L44.5488 10.227L21.3601 5.48291L15.2127 36.7472Z" fill="#AEE2E6"/>
<path d="M85.0126 107.948C86.53 113.47 91.4713 118.252 95.9067 123.035L106.295 62.2566C99.953 64.1231 95.5177 66.7284 90.1874 69.7227L84.9738 107.948H85.0126Z" fill="#FDFDFD"/>
<path d="M79.5269 108.142L85.5576 68.5949C81.6669 64.3952 79.2546 60.5067 73.8854 56.8903L63.4971 119.263C69.9557 116.425 73.3796 111.914 79.5659 108.181L79.5269 108.142Z" fill="#FDFDFD"/>
<path d="M17.4694 151.695C22.0993 152.628 26.1457 150.022 31.0091 148.623L40.1912 146.017L43.226 132.446C51.9023 132.446 59.5282 134.896 68.2823 135.401L68.5547 130.852C53.7699 128.596 38.2458 125.174 22.1382 124.708C17.7805 132.99 19.2591 143.451 17.4694 151.772V151.695Z" fill="#AEE2E6"/>
<path d="M180.024 207.263C177.34 207.301 151.311 207.846 153.139 202.946C145.202 209.013 137.888 214.34 130.884 221.534C150.299 224.489 174.538 228.728 180.024 207.263Z" fill="#AEE2E6"/>
<path d="M22.1775 60.8567C31.9821 64.2398 56.8828 58.6402 68.2437 59.1068C68.8273 57.5514 69.9946 52.5351 68.1659 52.1851L25.6013 44.1746C21.555 49.5797 23.617 55.8404 22.1775 60.8567Z" fill="#AEE2E6"/>
<path d="M95.4013 216.012C96.4129 212.979 81.3947 236.388 92.2888 239.577C101.821 242.377 124.543 218.734 130.885 213.251C115.633 214.534 113.493 217.49 95.4403 216.012H95.4013Z" fill="#AEE2E6"/>
<path d="M82.4842 347.797C90.6158 351.102 98.3584 352.386 106.918 353.28C106.257 349.469 107.307 345.075 105.128 342.158C101.821 337.764 94.0786 338.542 91.8609 343.481C88.6315 344.803 85.4801 343.286 82.5231 347.797H82.4842Z" fill="#FDFDFD"/>
<path d="M157.847 378.595C165.356 379.333 171.504 378.789 178.974 378.789C179.246 374.395 179.713 369.301 176.795 366.073C175.122 364.207 171.465 364.673 169.403 365.296C167.769 365.762 167.73 368.99 166.524 370.934C164.462 374.356 160.104 374.084 157.809 378.595H157.847Z" fill="#FDFDFD"/>
<path d="M67.8936 124.046C75.4416 126.613 82.6006 126.185 90.9268 127.313C88.9425 122.024 85.5964 118.486 81.7835 113.431C76.4921 115.997 72.9126 118.33 67.8936 124.046Z" fill="#FDFDFD"/>
<path d="M89.0208 63.3452C93.8842 64.2396 97.5416 59.5733 101.354 58.4845C93.8454 56.2291 87.8926 54.7514 80.4613 55.0236C82.679 57.7456 84.7799 62.6064 89.0208 63.3452Z" fill="#FDFDFD"/>
<path d="M89.7604 22.9427C91.3556 23.6427 105.596 28.4257 106.102 24.3038C106.607 20.1819 94.7405 19.2097 90.7331 19.0541C89.1379 18.9764 88.6321 22.4761 89.7604 22.9427Z" fill="#AEE2E6"/>
<path d="M90.6928 244.477L89.9924 247.121C93.4162 245.838 93.6108 251.282 95.595 252.332C99.1745 254.159 99.9916 248.949 99.4469 245.255C96.9958 243.388 93.4163 245.488 90.6928 244.516V244.477Z" fill="#AEE2E6"/>
<path d="M137.071 117.903C137.577 123.658 141.001 121.558 143.685 120.313C146.798 118.875 146.72 115.025 142.907 113.547C141.351 112.925 136.877 115.997 137.071 117.903Z" fill="#FDFDFD"/>
<path d="M40.191 146.017C40.6579 151.228 39.4518 155.233 40.8525 159.783C50.5793 160.872 59.6836 162.622 69.5272 162.544C70.6166 150.722 77.9311 135.946 68.321 135.401C59.528 134.896 51.9021 132.446 43.2647 132.446L40.23 146.017H40.191ZM44.7043 155L46.8441 137.501L68.2431 140.457L65.8309 157.333C58.6331 157.605 51.9022 156.478 44.7432 154.961L44.7043 155Z" fill="#393A3A"/>
<path d="M16.9242 220.64C12.4887 220.523 13.5781 237.011 15.3289 238.527C20.348 242.844 19.6088 220.717 16.9242 220.64Z" fill="#393A3A"/>
<path d="M23.7334 220.873C19.687 219.823 20.8543 238.255 21.9826 239.305C27.3518 244.399 26.3402 222.195 23.7334 220.873Z" fill="#393A3A"/>
<path d="M143.335 82.8272C142.984 85.977 147.809 84.5382 149.249 83.1772C150.999 81.4662 153.023 79.0165 149.91 75.8667C148.12 77.4999 143.724 79.4441 143.335 82.8272Z" fill="#393A3A"/>
<path d="M44.7041 155C51.863 156.516 58.5939 157.644 65.7917 157.372L68.2041 140.495L46.8051 137.54L44.6651 155.039L44.7041 155ZM50.7736 150.839C49.9176 148.156 54.4698 148.35 56.1428 147.106C54.0807 146.523 49.4896 146.406 49.8009 142.323C53.1469 140.457 59.9557 141.467 63.4574 143.684C65.6362 145.084 61.7065 147.612 59.411 147.884C60.6171 148.739 64.2355 151.422 61.8622 152.628C58.7885 154.183 53.2247 153.756 50.7346 150.839H50.7736Z" fill="#AEE2E6"/>
<path d="M50.7746 150.839C53.2646 153.755 58.8283 154.183 61.902 152.628C64.2365 151.422 60.6571 148.739 59.451 147.884C61.7465 147.611 65.676 145.084 63.4972 143.684C59.9956 141.429 53.1869 140.456 49.8408 142.323C49.4907 146.406 54.1205 146.523 56.1826 147.106C54.5096 148.35 49.9576 148.156 50.8135 150.839H50.7746Z" fill="#393A3A"/>
</svg>
