<svg width="221" height="478" viewBox="0 0 221 478" fill="none" xmlns="http://www.w3.org/2000/svg">
<path d="M136.642 458.09C144.517 459.445 148.742 466.222 154.427 469.141C160.268 474.51 194.43 466.118 194.274 474.51C194.274 476.7 192.135 477.429 189.528 477.429H29.7227C26.9584 477.429 25.2372 476.178 24.9765 474.771C23.5161 466.013 47.612 474.197 61.5376 469.402C66.3359 467.733 68.6308 460.019 75.5675 459.914C77.5494 459.914 78.3317 456.161 77.9145 454.962C77.5494 453.816 75.2546 452.565 74.7852 450.636C65.2928 414.095 59.7643 377.605 56.1656 339.709L50.2719 277.104C43.4395 278.199 38.3283 281.743 31.9653 280.753C16.788 278.355 5.83528 266.575 2.28869 251.354C-4.85664 220.651 4.94865 188.28 28.6273 166.647C51.5759 145.692 76.6627 130.105 103.158 111.496L68.0049 67.4484C62.6329 60.6719 55.4875 57.7527 54.7052 49.7772C53.7664 40.2901 55.5397 34.0869 60.7031 26.2678C64.7712 20.1689 68.0571 12.2978 72.1252 6.82441C79.1141 -2.50636 85.9465 3.12344 93.822 2.6543C106.287 1.97664 120.265 -4.9041 131.061 6.61602C132.939 8.64898 132.052 14.4871 134.399 16.6244C139.615 21.3679 142.014 25.1734 143.266 30.8031C144.778 37.5276 137.894 42.5836 135.025 47.4314C136.433 70.8366 131.009 91.6356 113.902 110.923C136.85 125.623 159.277 139.697 177.636 159.505L196.412 179.783C203.401 172.954 183.895 150.539 200.48 134.901C203.923 131.669 209.556 131.982 212.789 133.65C216.753 135.735 218.422 141.573 215.866 146.265C205.435 165.135 223.377 175.873 208.304 195.525L216.231 212.884C223.377 228.574 220.195 246.87 210.025 262.3C201.732 274.863 186.868 283.829 168.352 286.539C164.336 342.785 159.955 406.119 136.694 457.986L136.642 458.09ZM86.7288 33.5657C93.822 36.0678 108.843 49.3602 128.193 42.6358C134.451 40.4465 137.633 34.9731 135.964 28.6657C134.869 24.4956 129.914 22.2541 123.499 21.5243C122.768 17.7712 125.376 15.2691 126.211 11.0989C115.154 2.44576 101.75 6.98096 90.6405 14.4873C88.5543 11.2033 87.3547 8.9094 85.9465 8.02324C77.3408 2.65413 68.2135 28.4573 66.5967 30.6988C62.9458 35.8594 59.4514 41.6453 60.9639 48.1091C61.9027 52.1229 65.8144 59.8378 70.8213 59.5772C84.2775 51.9666 79.1663 30.9072 86.6767 33.5657H86.7288ZM108.686 107.222C122.664 89.8632 131.583 70.8888 127.984 50.1421C113.745 52.5921 101.645 49.5689 88.8672 42.1147C82.7128 63.3826 71.7079 61.6624 81.4089 74.0165C90.2232 85.276 97.8379 95.128 108.686 107.169V107.222ZM105.296 124.788C108.843 127.655 110.877 127.238 113.015 125.779C115.727 123.954 116.823 121.609 114.319 119.784C108.634 115.718 103.523 118.95 102.323 120.931C101.332 122.547 103.471 123.277 105.296 124.788ZM9.85126 251.718C14.0237 264.958 24.4028 277.991 40.884 272.83C52.3061 269.285 59.7643 258.078 65.9187 247.392C58.0953 244.056 52.619 239.364 50.5327 232.066C55.3311 222.423 57.626 210.277 54.4966 199.33C39.215 204.282 23.9855 226.28 20.5432 226.28C19.2393 226.28 16.5794 224.352 18.0919 222.006C27.5321 207.567 41.0404 197.766 56.7914 191.146C60.8595 182.024 71.6558 162.789 82.9215 172.485C84.434 173.788 85.6336 175.091 86.9375 175.456C91.9444 176.864 100.446 161.382 109.886 173.319C111.972 175.925 115.258 176.551 117.866 173.423L108.06 165.5C125.115 157.472 136.12 166.49 145.926 177.02C154.166 185.882 167.049 190.677 166.997 206.368C166.997 210.955 171.273 214.76 174.298 220.755L95.1259 228.835C93.9263 235.194 98.3073 238.061 99.7155 241.762C110.877 270.119 139.98 285.392 170.804 279.137C185.46 276.166 198.499 268.659 205.07 257.244C213.154 243.221 215.762 226.749 207.782 213.874C206.896 210.799 206.896 206.472 204.34 202.719C184.416 173.371 159.695 149.288 128.819 129.323C126.106 134.901 129.757 140.948 125.689 146.421C118.961 144.962 115.571 137.351 109.573 137.56C104.253 137.768 101.385 145.118 95.2302 146.421C90.2233 142.46 92.831 136.309 90.6926 128.542C70.6127 141.365 51.941 154.709 34.2602 170.295C10.6858 191.094 0.567575 222.996 9.64267 251.718H9.85126ZM209.869 144.388C211.642 141.417 210.181 140.062 208.147 138.967C204.653 137.091 195.526 148.611 202.619 164.666C206.009 172.276 204.601 179.053 201.106 186.142C200.324 187.758 203.975 189.27 204.705 188.488C214.406 178.063 199.385 161.642 209.816 144.44L209.869 144.388ZM95.0216 222.11L161.207 216.376C163.033 203.865 156.461 190.469 144.465 185.308C132.469 180.147 120.265 181.086 107.643 182.233C104.253 180.2 104.41 175.977 99.9764 174.83C97.0035 180.981 92.6224 181.242 88.6064 182.493C83.9646 183.953 79.3749 177.333 75.411 177.281C64.7713 182.702 59.5557 199.174 63.0502 210.277C62.1635 212.988 90.8491 224.873 89.9103 225.238C91.1099 224.769 92.4138 222.423 95.0216 222.214V222.11ZM83.5994 238.217C83.7559 250.519 73.5334 238.269 67.7441 258.964C79.8964 261.101 89.9103 261.622 102.01 260.371C96.4297 252.083 94.8651 243.274 88.137 238.686C88.6586 235.611 89.5452 231.545 87.8762 228.574C88.1892 229.199 62.8415 218.982 59.9729 225.133C62.7372 228.209 64.7713 229.147 65.5015 230.972C66.2317 232.796 63.2066 234.777 62.1113 236.601C68.6308 245.776 76.0369 237.123 83.5473 238.217H83.5994ZM104.305 470.601C105.088 463.928 105.14 459.967 104.305 454.858C98.203 453.555 92.831 453.92 86.0508 454.493C85.2163 463.511 78.0188 465.336 70.6648 469.923C82.3999 472.06 92.9354 470.601 104.357 470.548L104.305 470.601ZM144.935 469.923C137.528 465.701 130.957 463.355 129.497 454.545C123.759 455.067 116.823 452.095 112.285 455.379C108.686 457.986 110.981 466.43 111.711 470.757C123.446 470.757 133.565 471.8 144.935 469.923Z" fill="#393A3A"/>
<path d="M207.938 213.926C204.757 214.604 201.888 216.272 198.915 219.087C176.645 240.459 145.925 249.998 115.466 243.951C109.885 242.857 104.931 240.511 99.8193 241.814C98.359 238.113 94.03 235.298 95.2296 228.887L174.402 220.807C171.377 214.812 167.1 211.007 167.1 206.42C167.1 190.729 154.27 185.882 146.029 177.072C136.224 166.543 125.219 157.525 108.164 165.552L117.969 173.476C115.362 176.551 112.076 175.978 109.99 173.371C100.549 161.434 92.1002 176.916 87.0411 175.508C85.7372 175.143 84.5377 173.84 83.0252 172.537C71.7595 162.893 60.9632 182.076 56.8951 191.199C41.0919 197.819 27.6358 207.671 18.1956 222.058C16.6831 224.351 19.2908 226.332 20.6469 226.332C24.0892 226.332 39.3186 204.335 54.6002 199.383C57.6774 210.381 55.4348 222.475 50.6364 232.119C29.5655 238.947 44.7428 247.288 9.90283 251.77C0.827737 223.048 10.946 191.146 34.5203 170.348C52.2011 154.762 70.8728 141.417 90.9528 128.594C93.0912 136.361 90.4834 142.512 95.4904 146.473C101.593 145.17 104.513 137.82 109.833 137.612C115.779 137.403 119.221 144.962 125.949 146.473C130.07 141.052 126.366 135.006 129.079 129.376C159.955 149.393 184.677 173.423 204.6 202.771C207.156 206.524 207.156 210.851 208.042 213.926H207.938Z" fill="#FDFDFD"/>
<path d="M99.8193 241.815C104.931 240.511 109.833 242.857 115.466 243.952C145.977 249.998 176.645 240.511 198.915 219.087C201.836 216.272 204.704 214.604 207.938 213.926C215.918 226.802 213.31 243.274 205.226 257.296C198.654 268.712 185.615 276.218 170.96 279.19C140.136 285.445 111.033 270.172 99.8714 241.815H99.8193Z" fill="#AEE2E6"/>
<path d="M95.0207 222.11C92.4129 222.319 91.1612 224.717 89.9095 225.134C90.9004 224.769 62.2148 212.884 63.0493 210.173C59.5027 199.122 64.7704 182.65 75.4102 177.177C79.374 177.177 83.9116 183.901 88.6056 182.389C92.6216 181.138 96.9505 180.878 99.9756 174.727C104.357 175.874 104.2 180.096 107.642 182.129C120.316 181.034 132.729 180.148 144.464 185.204C156.199 190.261 163.084 203.814 161.206 216.272L95.0207 222.006V222.11ZM95.0207 208.662C96.4289 203.032 91.9436 196.829 86.9888 196.255C82.5555 195.734 76.5054 204.491 79.6869 208.61C84.6417 206.264 88.5013 205.586 95.0207 208.662Z" fill="#FDFDFD"/>
<path d="M86.7292 33.5662C79.2188 30.9077 84.3301 52.0192 70.8739 59.5776C65.867 59.8382 61.9553 52.1234 61.0165 48.1096C59.504 41.6458 62.9462 35.8598 66.6492 30.6992C68.2661 28.4056 77.3933 2.65459 85.999 8.02369C87.4072 8.90986 88.6068 11.2037 90.693 14.4877C101.802 6.92929 115.206 2.39409 126.263 11.0993C125.377 15.2695 122.821 17.7716 123.551 21.5248C129.914 22.2546 134.869 24.496 136.016 28.6662C137.685 34.9736 134.504 40.4469 128.245 42.6363C108.895 49.3607 93.8745 36.0683 86.7813 33.5662H86.7292Z" fill="#FDFDFD"/>
<path d="M108.686 107.222C97.8379 95.1805 90.2231 85.3286 81.4088 74.0691C71.7079 61.6628 82.7128 63.383 88.8671 42.1672C101.645 49.6214 113.745 52.6447 127.984 50.1947C131.583 70.9414 122.664 89.9157 108.686 107.274V107.222ZM120.213 65.1552C111.659 63.5914 103.262 61.6628 97.0555 65.6245C92.8309 68.3351 96.9512 76.571 98.9331 79.6986C101.228 83.2954 108.373 86.7882 112.807 82.5659C116.979 78.6042 117.031 71.5147 120.213 65.1552Z" fill="#FDFDFD"/>
<path d="M9.85059 251.718C44.6906 247.235 29.5134 238.895 50.5843 232.067C52.6705 239.364 58.0947 244.056 65.9702 247.392C59.7637 258.078 52.3575 269.286 40.9354 272.83C24.4542 277.991 14.0752 264.959 9.90279 251.718H9.85059Z" fill="#AEE2E6"/>
<path d="M88.137 238.738C94.8651 243.326 96.4297 252.135 102.01 260.424C89.8581 261.623 79.8964 261.153 67.7441 259.016C73.5334 238.322 83.7038 250.572 83.5994 238.27C85.112 238.478 86.6245 238.843 88.137 238.738Z" fill="#AEE2E6"/>
<path d="M104.305 470.601C92.8827 470.601 82.3473 472.061 70.6123 469.975C77.9663 465.388 85.1637 463.616 85.9982 454.546C92.7785 453.92 98.1506 453.555 104.253 454.911C105.139 460.019 105.087 463.981 104.253 470.653L104.305 470.601Z" fill="#AEE2E6"/>
<path d="M144.934 469.923C133.564 471.8 123.498 470.757 111.711 470.757C110.981 466.431 108.686 457.986 112.285 455.38C116.822 452.096 123.759 455.067 129.496 454.546C130.957 463.355 137.58 465.753 144.934 469.923Z" fill="#AEE2E6"/>
<path d="M88.1363 238.739C86.5717 238.843 85.1113 238.478 83.5987 238.27C76.0362 237.175 68.6823 245.828 62.1628 236.654C63.2581 234.829 66.2831 232.901 65.5529 231.024C64.8227 229.147 62.7887 228.209 60.0244 225.186C62.9451 219.087 88.2928 229.252 87.9277 228.626C89.5967 231.597 88.71 235.663 88.1885 238.739H88.1363Z" fill="#FDFDFD"/>
<path d="M209.868 144.389C199.385 161.643 214.458 178.063 204.757 188.436C204.027 189.218 200.324 187.759 201.158 186.09C204.6 179.001 206.061 172.225 202.671 164.614C195.577 148.559 204.705 137.039 208.199 138.915C210.285 140.01 211.746 141.417 209.92 144.337L209.868 144.389Z" fill="#AEE2E6"/>
<path d="M105.296 124.789C103.419 123.277 101.333 122.599 102.324 120.931C103.523 118.951 108.635 115.771 114.319 119.784C116.875 121.609 115.728 123.903 113.016 125.779C110.929 127.187 108.843 127.604 105.296 124.789Z" fill="#AEE2E6"/>
<path d="M95.0214 208.662C88.5019 205.586 84.6424 206.264 79.6876 208.61C76.4539 204.492 82.5562 195.734 86.9895 196.255C91.9442 196.829 96.4296 203.032 95.0214 208.662Z" fill="#393A3A"/>
<path d="M120.213 65.1549C117.032 71.5144 116.98 78.656 112.807 82.5655C108.374 86.7878 101.229 83.295 98.9339 79.6983C96.8998 76.5185 92.7795 68.2827 97.0562 65.6242C103.263 61.6625 111.712 63.5911 120.213 65.1549Z" fill="#393A3A"/>
</svg>
