<svg width="236" height="343" viewBox="0 0 236 343" fill="none" xmlns="http://www.w3.org/2000/svg">
<path d="M106.43 342.265L214.624 342.826C216.671 342.826 217.595 341.836 217.793 341.044C218.916 335.731 205.676 340.219 200.856 337.876C195.607 328.339 180.023 330.781 190.291 326.723L193.725 201.429C204.059 204.894 212.742 207.171 222.052 201.693C228.656 197.832 234.4 189.814 235.259 179.98C238.197 146.619 199.535 128.404 174.113 112.367C189.697 105.569 203.497 99.7948 213.105 87.0245C216.638 82.3058 220.27 75.3102 216.539 70.0305C214.261 66.7967 211.157 65.0478 210.629 60.3951C209.308 48.6147 196.234 51.1556 194.979 50.4296C189.895 47.5258 184.942 44.358 180.089 48.8457C176.721 51.9476 180.353 57.1942 178.933 60.3951C176.391 66.1037 162.359 71.2184 166.783 108.704L132.744 92.3372L84.4743 69.7335C81.3378 68.2816 78.1682 69.0076 76.0882 70.8554C74.0082 72.7033 72.9847 75.9042 73.9422 79.27C83.6489 113.621 104.614 160.148 130.565 185.161C135.418 233.932 139.776 283.297 154.997 329.428C148.46 329.395 145.884 334.081 143.375 337.909C132.777 339.163 120.66 338.8 109.732 338.14C107.387 337.975 105.274 342.364 106.43 342.397V342.265ZM208.483 83.5597C201.979 83.0977 203.365 75.7392 201.549 72.5384C183.655 69.7995 180.419 52.3765 183.919 51.0236C191.38 48.1858 185.999 56.6003 200.658 55.0824C204.488 54.6864 207.228 60.824 207.492 63.9918C207.888 68.5456 209.407 69.5026 212.61 72.1754C215.515 74.5843 212.874 83.8897 208.516 83.5927L208.483 83.5597ZM171.274 108.407C168.698 96.693 169.623 71.6474 181.806 64.9818C185.669 71.6144 192.041 73.1323 197.753 76.4651C198.974 79.6329 201.648 84.2527 203.53 87.4205C207.393 93.9211 177.91 106.823 171.274 108.407ZM138.753 156.848C143.342 165.692 134.494 165.923 136.079 174.832C136.376 176.746 166.354 189.286 165.331 184.732C167.939 181.465 141.328 176.119 140.932 172.292C138.918 169.355 142.748 162.788 145.884 162.656C144.2 159.092 142.748 156.881 144.002 154.11C144.729 152.427 147.007 150.843 149.351 148.929L156.449 155.265C158.331 155.792 159.058 153.516 158.43 152.559C156.02 148.863 154.105 148.137 153.808 145.992C153.676 145.002 159.718 131.341 162.954 129.526C173.354 133.09 182.895 138.403 190.654 146.355C185.14 151.041 180.914 154.77 179.693 161.105L165.463 159.026C161.105 158.399 157.407 161.039 156.02 164.339C154.501 167.969 155.591 172.028 158.761 174.898L169.425 184.6C172.759 187.636 178.24 188.461 181.013 194.004C144.96 192.42 133.14 186.712 114.288 158.3C98.077 133.882 87.0826 107.219 78.1683 79.3029C77.574 77.4551 78.6965 76.4981 79.1918 75.6732C79.654 74.9142 79.1917 73.6933 80.2483 73.3963C81.3048 73.0993 82.2623 73.1653 83.6159 73.8253L157.176 108.77C154.204 113.885 150.242 118.109 151.563 123.817L165.958 123.619C164.703 126.523 161.534 124.246 160.246 126.292C154.799 129.394 154.7 138.139 150.275 141.372C144.597 145.53 139.809 149.424 138.786 156.782L138.753 156.848ZM164.373 113.093C167.279 113.489 170.052 115.205 173.057 117.482C169.953 118.868 165.859 119.627 164.373 113.093ZM159.553 115.04C161.237 116.063 162.161 117.614 161.501 118.967C161.138 119.759 159.157 119.363 157.308 119.561C155.327 119.759 157.572 113.819 159.553 115.04ZM230.967 178.363C230.967 186.217 226.708 193.773 220.402 197.799C213.303 202.32 204.587 201.561 196.96 197.469C184.15 190.54 172.792 181.564 161.666 172.127C159.454 170.246 158.595 166.352 161.534 164.636C163.482 163.514 166.387 163.283 169.227 163.712L212.313 170.444C213.699 170.675 214.327 170.576 214.789 169.982C215.515 169.058 215.383 167.078 213.897 166.781L195.441 163.316C195.375 159.455 204.851 157.574 202.012 155.034C201.384 154.473 199.833 154.605 199.007 153.648C198.38 152.889 198.908 151.8 198.875 151.239C198.776 150.249 197.753 149.358 196.795 149.16C192.932 152.097 187.055 155.562 187.22 160.775C188.904 161.864 190.885 159.95 191.579 159.752C192.503 159.455 192.635 161.633 194.517 162.788C190.984 163.448 187.551 162.722 183.027 161.534C185.669 155.265 190.72 150.909 196.564 148.236C194.781 141.273 184.513 136.258 176.985 131.11C177.877 128.041 179.065 125.764 181.145 121.772C201.615 133.684 231.924 150.909 230.967 178.363ZM174.476 338.734C174.311 335.434 172.429 330.847 174.41 328.537C175.863 326.821 180.155 327.778 181.905 328.141C183.192 328.438 183.457 331.078 184.876 332.464C187.947 335.434 192.602 333.718 195.573 338.239L174.476 338.701V338.734ZM159.718 331.177C162.359 328.405 164.869 326.492 169.095 328.306C170.052 331.54 170.547 334.873 169.59 338.305C162.623 338.767 156.053 338.965 149.285 338.503C141.889 338.008 158.992 331.969 159.751 331.177H159.718Z" fill="#393A3A"/>
<path d="M46.241 70.6243C38.02 67.9845 31.2847 61.9788 23.2288 57.2271C28.1152 47.6246 33.86 40.1011 41.2226 32.9075C42.2131 29.4427 45.7788 27.5948 47.8588 24.295C49.7077 21.3581 52.5801 19.3453 55.9478 21.5892C63.9377 26.9018 71.5644 31.0266 81.073 35.3164C76.3187 39.0452 72.918 43.9288 67.7015 46.6347C65.9186 47.5586 62.7491 45.0508 61.3294 47.1627C58.1928 51.8484 62.617 62.2098 66.1497 60.9229C69.6825 59.6359 64.9942 55.7091 64.9942 52.1454C67.7675 52.7393 72.1917 56.3031 72.7199 59.7679C73.8755 67.0605 66.0837 69.5023 59.3484 71.5812C63.4094 77.2239 69.6164 73.0661 72.885 69.8323C75.9225 66.7965 77.3752 64.1896 77.4412 60.2299C77.4743 56.7321 73.5123 53.8942 71.5644 50.5944C71.7625 46.0407 94.8077 34.6894 87.313 32.5445C70.0456 27.5618 55.5846 14.7585 50.9954 15.1875C49.2125 15.3525 17.8142 50.5945 18.4415 59.6359L52.1839 80.1937C54.8913 73.2311 63.4094 63.5297 60.1738 61.7478C56.344 59.6689 54.429 70.1953 49.5096 72.8352C47.8918 73.6931 47.8258 71.2513 46.175 70.7233L46.241 70.6243Z" fill="#393A3A"/>
<path d="M46.2414 70.6245C46.0103 67.0937 45.0198 63.53 42.8738 60.0652C39.242 47.8889 42.3785 41.5862 41.256 32.9077C33.8604 40.0683 28.1486 47.6249 23.2622 57.2273C31.2851 61.9791 38.0534 68.0177 46.2744 70.6245H46.2414Z" fill="#AEE2E6"/>
<path d="M101.412 32.8414C100.553 36.2732 110.26 36.3062 110.326 32.6764C110.359 30.3666 102.303 29.3766 101.412 32.8414Z" fill="#AEE2E6"/>
<path d="M0.414956 31.9507C-1.03775 33.5346 1.70257 35.2505 2.82512 35.0525C4.27783 34.8216 8.60297 35.3825 8.07471 32.7097C7.57947 30.2678 2.16481 30.0368 0.414956 31.9177V31.9507Z" fill="#AEE2E6"/>
<path d="M30.493 6.24517C31.5495 3.47333 27.9507 -1.24536 25.6726 0.305553C23.8898 1.52648 25.4415 4.39729 26.0688 5.48622C26.6961 6.57516 29.4695 8.81903 30.46 6.21219L30.493 6.24517Z" fill="#AEE2E6"/>
<path d="M22.0408 86.4636C25.2104 86.9585 27.4885 81.1508 25.0453 79.9299C21.5786 78.214 18.8713 85.9356 22.0408 86.4636Z" fill="#AEE2E6"/>
<path d="M82.6579 6.608C83.0211 9.54483 85.5963 8.15892 86.6528 7.59795C88.2376 6.773 90.5157 4.85909 88.6998 3.0442C86.884 1.2293 82.2947 3.57217 82.6579 6.608Z" fill="#AEE2E6"/>
<path d="M79.1255 75.739C80.4792 75.97 82.163 76.3659 83.3186 78.3788C98.9021 106.196 117.061 133.981 138.753 156.815C139.776 149.457 144.563 145.563 150.242 141.405C154.666 138.171 154.765 129.427 160.213 126.325C161.501 124.279 164.67 126.556 165.925 123.652L151.53 123.85C150.209 118.108 154.204 113.918 157.143 108.803L83.5827 73.8581C82.229 73.1981 81.3376 73.0991 80.215 73.4291C79.0925 73.759 79.6207 74.98 79.1585 75.7059L79.1255 75.739Z" fill="#FDFDFD"/>
<path d="M79.1257 75.739C78.6304 76.531 77.5079 77.4879 78.1021 79.3688C87.0165 107.285 98.0109 133.948 114.222 158.366C133.107 186.778 144.894 192.486 180.947 194.07C178.174 188.559 172.693 187.701 169.359 184.666L165.298 184.732C166.321 189.252 136.376 176.746 136.045 174.832C134.461 165.956 143.276 165.725 138.72 156.848C117.028 134.014 98.8693 106.196 83.2857 78.4118C82.1631 76.399 80.4793 76.003 79.0926 75.772L79.1257 75.739Z" fill="#AEE2E6"/>
<path d="M196.563 148.203L196.795 149.127C197.752 149.325 198.809 150.183 198.875 151.206C198.941 151.767 198.379 152.856 199.007 153.615C199.832 154.572 201.384 154.44 202.011 155.001C204.817 157.541 195.342 159.422 195.441 163.283L213.897 166.748C215.383 167.012 215.482 168.992 214.788 169.949C214.326 170.543 213.699 170.642 212.312 170.411L169.226 163.679C166.387 163.25 163.481 163.481 161.533 164.603C160.906 166.088 162.788 165.956 164.142 165.659C189.003 178.396 204.355 178.561 230.966 178.363C231.924 150.909 201.582 133.684 181.145 121.771C179.065 125.764 177.876 128.041 176.985 131.11C184.513 136.258 194.781 141.273 196.563 148.236V148.203Z" fill="#FDFDFD"/>
<path d="M230.967 178.363C204.356 178.561 189.003 178.363 164.142 165.659C162.789 165.956 160.907 166.121 161.534 164.603C158.629 166.286 159.454 170.179 161.666 172.093C172.792 181.564 184.15 190.539 196.96 197.436C204.587 201.561 213.303 202.287 220.402 197.766C226.708 193.74 230.967 186.184 230.967 178.33V178.363Z" fill="#AEE2E6"/>
<path d="M165.331 184.732L169.392 184.666L158.728 174.964C155.558 172.094 154.469 168.035 155.987 164.405C157.374 161.105 161.039 158.465 165.43 159.092L179.66 161.171C180.881 154.836 185.107 151.107 190.621 146.421C182.862 138.436 173.321 133.156 162.921 129.592C159.718 131.374 153.643 145.035 153.775 146.058C154.072 148.203 155.987 148.929 158.397 152.625C159.025 153.582 158.298 155.859 156.416 155.331L149.318 148.995C146.974 150.909 144.696 152.493 143.969 154.176C142.748 156.98 144.167 159.191 145.851 162.722C142.715 162.854 138.885 169.421 140.899 172.358C141.262 176.185 167.906 181.531 165.298 184.798L165.331 184.732Z" fill="#FDFDFD"/>
<path d="M171.274 108.407C177.877 106.823 207.394 93.921 203.531 87.4204C201.649 84.2526 198.975 79.6328 197.753 76.465C192.041 73.1322 185.636 71.6143 181.806 64.9817C169.623 71.6473 168.699 96.6929 171.274 108.407ZM187.947 89.8292C187.221 96.7918 181.179 98.1448 176.887 96.6599C173.684 95.5379 169.689 88.0144 173.948 86.0345C177.811 84.3186 183.952 88.7733 187.947 89.8292Z" fill="#FDFDFD"/>
<path d="M208.483 83.5595C212.841 83.8565 215.483 74.551 212.577 72.1422C209.375 69.4693 207.889 68.5124 207.46 63.9587C207.163 60.7909 204.455 54.6532 200.625 55.0492C185.966 56.5671 191.348 48.1526 183.886 50.9905C180.353 52.3434 183.622 69.7663 201.517 72.5052C203.333 75.706 201.979 83.0645 208.45 83.5265L208.483 83.5595Z" fill="#FDFDFD"/>
<path d="M159.718 331.177C158.959 331.969 141.856 338.008 149.252 338.503C156.02 338.965 162.623 338.767 169.557 338.305C170.547 334.873 170.019 331.507 169.062 328.306C164.836 326.491 162.326 328.405 159.685 331.177H159.718Z" fill="#FDFDFD"/>
<path d="M174.476 338.734L195.573 338.272C192.602 333.718 187.947 335.467 184.876 332.497C183.456 331.111 183.192 328.438 181.905 328.175C180.155 327.779 175.863 326.855 174.41 328.57C172.429 330.88 174.311 335.5 174.476 338.767V338.734Z" fill="#FDFDFD"/>
<path d="M196.795 149.16L196.564 148.236C190.72 150.909 185.669 155.265 183.027 161.534C187.583 162.722 190.984 163.415 194.517 162.788C192.602 161.633 192.47 159.488 191.578 159.752C190.885 159.983 188.904 161.897 187.22 160.775C187.088 155.562 192.932 152.064 196.795 149.16Z" fill="#AEE2E6"/>
<path d="M164.373 113.093C165.859 119.627 169.953 118.868 173.057 117.482C170.052 115.205 167.279 113.522 164.373 113.093Z" fill="#AEE2E6"/>
<path d="M159.553 115.04C157.572 113.852 155.327 119.792 157.308 119.561C159.157 119.363 161.138 119.759 161.501 118.967C162.162 117.614 161.237 116.063 159.553 115.04Z" fill="#AEE2E6"/>
<path d="M187.946 89.8295C183.951 88.7735 177.81 84.3188 173.948 86.0347C169.688 88.0146 173.683 95.5382 176.886 96.6601C181.178 98.145 187.22 96.7921 187.946 89.8295Z" fill="#393A3A"/>
</svg>
