<svg width="214" height="427" viewBox="0 0 214 427" fill="none" xmlns="http://www.w3.org/2000/svg">
<path d="M83.6624 37.0518C84.9583 36.6818 87.6427 37.4682 87.8741 35.6179L92.8725 36.2192C104.027 49.9114 104.952 58.4689 100.37 76.2317C95.1866 80.9962 90.651 86.4546 81.9499 86.5934L83.3847 98.4815L76.0258 141.316C81.1169 135.256 85.0508 129.104 89.4939 122.258C90.8361 120.222 89.4939 115.92 92.2708 114.255C95.5569 112.359 101.481 109.999 99.9074 104.726C98.3338 99.4528 87.874 92.2829 89.8179 87.9348C92.6874 81.5513 102.453 100.1 105.184 100.655L117.773 87.4723C118.837 86.3621 120.364 88.2124 120.735 88.7212C123.188 91.9129 112.543 100.054 110.738 104.772C108.794 109.722 115.967 110.786 117.587 113.376C123.419 122.859 128.51 132.295 137.443 140.02C134.573 120.962 130.824 104.495 131.148 86.4083C121.845 87.5185 116.245 82.8928 110.738 78.3596C109.951 77.712 106.85 79.6548 105.924 79.7473C104.489 79.9323 102.175 79.7472 101.99 76.2317C103.841 74.9365 106.063 74.5665 108.794 74.7053C104.906 61.2907 106.433 48.3386 114.44 37.9307C110.136 35.2941 106.295 34.9703 102.037 33.2126C100.093 32.3799 101.481 28.9568 102.731 28.4018C103.425 28.078 104.675 28.3556 105.647 28.2168C123.095 33.0276 104.073 32.9812 129.76 38.0695C130.963 32.8424 135.082 29.2808 133.555 25.6264C131.333 20.2606 122.725 23.0359 119.577 21.1856C117.911 16.8837 119.855 9.25135 113.977 7.07726C100.555 2.08148 91.0675 11.2404 83.616 20.9544C79.1729 23.8686 70.8884 23.4523 67.8337 29.512C64.7791 35.5717 62.5113 40.7988 65.1494 48.2924C65.7048 49.8652 63.0204 51.5305 61.9559 51.2067C61.1228 50.9291 59.5954 50.0039 59.1326 48.3386C55.0134 33.5826 64.4089 17.994 80.33 15.7736C88.0129 2.86788 102.592 -3.28433 116.523 1.75771C120.596 3.23794 123.465 6.61468 124.437 10.6853C126.612 19.7517 137.905 14.4784 139.942 24.5162C140.821 28.7256 140.22 34.4615 135.175 35.988C133.694 36.4506 130.778 36.358 129.389 38.3933C128.742 39.3647 132.028 40.6599 132.259 42.0014C139.016 60.1342 146.653 39.8736 141.608 78.6372C154.706 81.9677 164.24 90.0164 174.145 98.2965C201.775 121.471 217.465 155.146 213.068 191.181C209.412 221.156 184.373 229.574 155.863 228.048C155.585 289.616 144.802 347.577 131.565 407.757C139.479 409.422 142.904 415.621 146.977 419.784C148.828 423.438 186.641 416.361 172.663 426.722L41.8693 427C39.7866 427 38.4907 425.427 38.213 424.548C35.2972 416.546 56.3557 423.993 63.6683 419.506C68.528 416.5 71.5363 410.533 78.2473 409.006C65.6121 348.964 59.9194 288.737 58.1607 227.03C46.7752 226.568 36.7782 227.493 26.3647 226.198C11.8782 224.347 2.66804 213.569 0.770461 198.721C-5.33882 151.076 25.5316 97.8801 70.3793 82.3377C58.7161 45.1469 74.3596 53.2419 75.7481 46.072C76.5812 41.5851 80.1912 38.1159 83.8475 37.1907L83.6624 37.0518ZM92.5485 75.6766C98.8892 67.7666 98.8893 57.2663 93.6131 48.4312C93.6131 53.3345 92.8262 55.7398 92.6874 57.1737C92.5485 58.3764 89.3087 59.0241 88.3368 57.6826C85.6987 53.9821 89.7717 49.2638 86.717 45.9333C84.7269 48.5699 86.9947 52.9182 85.1434 54.676C84.0327 55.7399 80.5615 54.1207 79.3581 56.5724C78.6176 58.1451 78.8027 61.5683 76.72 62.3084C75.6092 62.7247 74.9613 61.6607 72.2306 61.707C71.7215 67.7667 71.814 74.5203 76.396 78.6372C80.978 82.754 88.7996 80.3487 92.5485 75.6305V75.6766ZM136.424 63.0022C134.99 62.4009 132.768 63.6961 131.889 62.9097C130.408 61.6145 131.148 58.284 130.084 56.8037C127.214 52.9181 122.077 56.8037 118.189 59.0703C115.042 55.3697 117.356 51.6229 115.134 47.5523C112.219 54.8609 110.876 63.141 113.977 71.236C116.615 78.2208 125.317 83.4016 132.074 79.4234C137.443 76.278 137.581 67.8129 136.424 63.0022ZM5.86156 189.608C5.53758 198.906 7.71284 209.221 15.6734 215.79C21.7827 220.832 30.021 221.433 37.8428 221.109L103.564 218.658L165.675 222.127C180.994 222.96 196.916 217.131 203.441 202.699C210.569 186.972 209.18 168.885 202.979 152.556C198.304 125.958 170.673 99.4529 146.792 86.4083C144.663 85.2519 141.793 85.1132 140.266 85.437C130.315 87.5185 145.311 146.08 148.689 156.673C149.291 158.477 148.55 159.865 147.856 160.559C146.792 161.623 145.172 161.53 143.876 159.818L123.234 133.359C121.336 133.544 119.485 135.811 118.235 136.089C113.977 136.967 111.895 130.677 106.248 130.399C100.602 130.121 98.8893 137.43 94.2148 136.736C92.6874 136.505 91.4841 134.747 89.5402 133.082C83.7549 137.846 68.7131 169.394 64.5477 165.601C59.2715 160.836 95.5569 74.104 64.2237 90.5253C28.3548 109.259 5.44502 148.347 5.86156 189.608ZM104.906 111.619C101.851 113.654 100.093 116.614 101.25 118.233C102.592 120.084 104.906 120.639 107.313 120.13C108.979 119.76 110.691 116.476 109.21 114.81C108.238 113.7 106.526 110.601 104.906 111.619ZM101.388 420.524C102.083 414.233 102.268 411.087 101.018 406.462C76.7663 403.039 88.7997 416.083 73.8042 415.945C72.8323 415.945 71.9992 419.275 72.0918 420.663L101.388 420.524ZM107.822 406.462C106.85 411.643 106.896 415.436 107.775 420.57C109.904 420.339 143.876 422.374 138.229 418.72C117.171 405.12 129.945 405.444 107.822 406.462Z" fill="#393A3A"/>
<path d="M105.6 28.1245C104.628 28.2633 103.425 28.0321 102.684 28.3096C101.481 28.8647 100.046 32.334 101.99 33.1204C106.248 34.8782 110.043 35.2019 114.394 37.8386C106.387 48.2464 104.813 61.1985 108.747 74.6131C106.017 74.4743 103.795 74.8443 101.944 76.1395H100.37C104.952 58.3768 104.027 49.8193 92.8726 36.1734C97.362 36.0346 103.98 16.3753 105.6 28.0784V28.1245Z" fill="#AEE2E6"/>
<path d="M87.8743 35.618C87.6429 37.4682 84.9585 36.6819 83.6626 37.0519C84.0791 36.2655 83.894 34.2303 85.2362 33.814C86.3932 33.4439 87.4578 34.6003 87.8743 35.618Z" fill="#AEE2E6"/>
<path d="M203.025 152.556C199.091 152.972 197.563 158.014 196.406 161.668C188.168 187.156 165.073 200.802 139.016 195.529C115.643 190.811 93.7054 194.742 71.8138 202.144C51.4958 208.99 30.0669 205.613 13.7292 192.8C10.9985 190.672 8.77697 189.192 5.90745 189.608C5.49091 148.346 28.3545 109.305 64.2697 90.525C95.6029 74.15 59.3175 160.836 64.5937 165.6C68.7591 169.393 83.8009 137.846 89.5862 133.082C91.5301 134.747 92.7335 136.505 94.2608 136.736C98.9353 137.43 100.925 130.121 106.294 130.399C111.663 130.676 114.023 136.967 118.281 136.088C119.485 135.857 121.382 133.544 123.28 133.359L143.922 159.818C145.218 161.483 146.838 161.622 147.902 160.558C148.596 159.911 149.291 158.523 148.735 156.673C145.357 146.08 130.361 87.5183 140.312 85.4367C141.839 85.1129 144.709 85.2517 146.838 86.4081C170.766 99.4989 198.35 125.958 203.025 152.556Z" fill="#FDFDFD"/>
<path d="M203.025 152.556C209.227 168.885 210.569 186.971 203.488 202.699C196.962 217.085 181.041 222.959 165.721 222.127L103.61 218.657L37.8893 221.109C30.0676 221.387 21.8294 220.785 15.7201 215.79C7.75951 209.267 5.58412 198.952 5.9081 189.608C8.77761 189.192 10.9992 190.672 13.7298 192.8C30.0676 205.613 51.4964 208.99 71.8144 202.144C93.706 194.742 115.644 190.811 139.017 195.529C165.027 200.802 188.168 187.156 196.407 161.669C197.61 157.968 199.137 152.972 203.025 152.556Z" fill="#AEE2E6"/>
<path d="M92.5482 75.6768C88.7993 80.395 80.9313 82.8004 76.3957 78.6835C71.86 74.5666 71.7212 67.8132 72.2303 61.7535C74.9609 61.7535 75.6552 62.771 76.7197 62.3547C78.8024 61.6146 78.6173 58.1453 79.3578 56.6188C80.5612 54.1672 83.9861 55.7862 85.1431 54.7223C86.9944 52.9645 84.7266 48.6164 86.7167 45.9797C89.8176 49.3103 85.7447 53.9821 88.3365 57.729C89.2621 59.0704 92.5482 58.4229 92.687 57.2202C92.8722 55.74 93.6127 53.3808 93.6127 48.4775C98.8427 57.3126 98.8889 67.7668 92.5482 75.7231V75.6768Z" fill="#FDFDFD"/>
<path d="M136.425 63.0024C137.582 67.8131 137.443 76.2781 132.074 79.4236C125.317 83.4017 116.616 78.221 113.978 71.2362C110.923 63.1874 112.219 54.8611 115.135 47.5525C117.356 51.6231 115.042 55.3699 118.189 59.0705C122.077 56.8501 127.215 52.9183 130.084 56.8039C131.195 58.2842 130.408 61.6147 131.889 62.9099C132.768 63.6963 134.99 62.401 136.425 63.0024Z" fill="#FDFDFD"/>
<path d="M107.822 406.462C129.945 405.444 117.171 405.121 138.229 418.72C143.876 422.328 109.905 420.339 107.776 420.571C106.942 415.482 106.896 411.689 107.822 406.462Z" fill="#FDFDFD"/>
<path d="M101.389 420.524L72.092 420.663C71.9994 419.275 72.8325 415.945 73.8044 415.945C88.7537 416.083 76.7665 403.039 101.019 406.462C102.268 411.087 102.037 414.233 101.389 420.524Z" fill="#FDFDFD"/>
<path d="M104.906 111.619C106.479 110.555 108.238 113.7 109.21 114.81C110.691 116.522 108.979 119.806 107.312 120.13C104.952 120.639 102.592 120.037 101.249 118.233C100.092 116.614 101.805 113.654 104.906 111.619Z" fill="#AEE2E6"/>
</svg>
