<svg width="242" height="439" viewBox="0 0 242 439" fill="none" xmlns="http://www.w3.org/2000/svg">
<path d="M20.8897 283.732C17.56 286.917 15.2768 291.053 10.0444 293.573C11.4714 287.44 16.2281 285.586 19.2724 282.068C19.6529 282.496 20.3188 283.399 20.842 283.684L20.8897 283.732Z" fill="#AEE2E6"/>
<path d="M13.8501 278.264V280.071C12.7561 280.451 11.3291 279.786 10.1875 280.071C11.2815 279.263 12.2328 278.074 13.8501 278.264Z" fill="#AEE2E6"/>
<path d="M6.57314 283.779C6.478 281.64 8.80887 281.165 10.2359 280.119L9.76017 282.638C9.42721 284.397 7.90501 283.827 6.57314 283.732V283.779Z" fill="#AEE2E6"/>
<path d="M6.57202 283.779C4.90719 284.873 4.24129 285.015 4.38399 284.825C4.52669 284.635 5.33529 284.065 6.57202 283.779Z" fill="#AEE2E6"/>
<path d="M177.765 431.964C180.81 436.338 208.922 428.969 204.022 437.289C203.594 438.049 201.644 439 199.836 439H66.8872C64.1283 439 62.9391 437.811 62.844 436.1C62.6061 429.825 85.3906 435.91 93.6197 432.059C99.0423 429.539 101.944 420.935 110.506 419.936C105.987 360.272 102.657 302.178 102.182 240.802C83.6306 247.363 68.7898 256.681 53.4257 266.474C46.3858 270.943 34.4941 275.269 29.1666 269.232C26.8358 266.617 25.5992 262.053 26.8835 258.107C34.6369 234.289 46.8615 213.561 58.9435 191.788C72.833 166.829 87.9117 144.104 105.797 121.808C108.603 118.337 108.556 113.678 113.931 111.824C115.358 111.301 116.261 108.639 116.594 107.498C117.688 103.505 92.8586 90.8111 79.207 72.7456C61.5597 49.3555 59.8472 18.2638 82.9646 3.33603C91.6218 -2.27378 98.7092 0.00817764 106.891 4.19177C109.935 5.71307 115.12 2.4803 117.879 5.47537C127.582 15.9819 119.353 17.3606 127.868 28.913C141.852 47.8342 134.527 81.398 127.63 103.6C131.673 107.831 136.24 103.6 138.523 100.89C144.516 93.5209 135.145 86.3423 137.524 81.3505C142.233 71.5096 157.882 97.2291 161.022 99.5586C162.924 99.0832 164.827 96.9439 166.016 97.0865C167.967 97.2767 169.346 99.4635 169.869 101.698L173.342 117.196C192.796 125.278 210.681 135.404 224.19 151.521C236.891 167.209 244.644 186.463 240.696 206.193C236.796 225.875 222.193 240.184 201.786 241.896C196.649 299.325 185.091 354.14 167.11 408.241C165.636 412.758 164.589 415.087 159.88 419.366C168.965 421.41 172.105 427.78 177.718 431.916L177.765 431.964ZM118.83 26.9638C116.547 31.2425 118.592 13.177 114.216 10.6098C108.889 7.51963 106.177 15.7442 102.229 14.1278C100.66 13.4622 101.23 8.99339 99.613 7.80487C93.1915 3.09833 84.582 8.37536 79.7777 14.1753C69.5509 26.5835 69.2178 44.3162 77.7799 58.7686C83.6306 53.4441 82.489 46.408 84.1538 38.849C95.6174 38.3736 112.266 39.3244 118.782 27.0114L118.83 26.9638ZM121.827 100.652C129.485 83.9652 134.099 45.0293 123.444 33.2392C113.217 41.5113 102.134 44.7916 89.5289 44.7916C88.4824 52.9686 85.0577 59.1489 81.8707 66.6604C92.9062 80.6849 106.177 91.3816 121.779 100.652H121.827ZM34.1612 263.717C37.2055 267.901 42.628 266.142 47.5749 262.909C80.9193 240.85 117.498 223.783 158.311 217.84C155.932 207.619 149.511 198.491 148.987 188.888C148.464 179.285 148.226 130.08 158.596 125.088C162.068 123.424 166.016 123.947 169.584 126.324C191.036 140.491 205.164 160.458 217.912 181.567C218.007 183.421 217.341 185.512 217.816 187.319C215.058 187.842 212.584 186.606 211.062 183.516C200.693 162.312 185.519 144.485 166.016 131.173C163.638 129.557 159.309 130.46 158.786 133.503C153.696 163.026 149.32 200.012 171.153 222.024C180.714 231.675 193.653 238.473 208.16 234.717C221.336 231.294 232.134 219.979 234.798 204.957C237.699 188.603 232.848 169.253 220.528 159.175C219.529 156.322 217.626 153.042 214.82 150.285C191.607 127.513 165.255 121.332 166.777 122.711C164.922 121 167.586 114.534 165.35 109.875C164.637 108.401 160.831 109.209 159.071 107.593C154.41 103.267 153.268 96.9914 147.18 93.8062C150.842 104.836 140.283 102.031 138.618 111.729C137.429 118.432 147.037 121.332 147.18 124.042C147.608 131.981 136.002 121.618 129.247 123.947C126.441 128.939 125.489 137.401 119.876 138.97C115.072 138.399 113.693 131.696 109.887 127.322C84.5819 155.609 47.1469 220.835 34.1136 255.065C32.5915 259.106 32.1634 261.055 34.1612 263.812V263.717ZM119.924 129.604C122.54 127.18 123.825 122.378 122.635 121.095C121.684 120.096 117.118 119.668 116.024 120.952C114.216 123.091 117.403 130.793 119.924 129.604ZM134.004 433.105L135.526 417.179C110.553 413.043 120.923 424.5 107.842 427.495C105.559 428.018 103.181 430.062 103.276 433.057H133.956L134.004 433.105ZM168.87 432.487C165.303 426.354 160.165 427.257 156.979 423.549C154.79 420.982 153.982 416.703 151.366 416.941C148.75 417.179 143.803 415.753 142.328 418.082C139.617 422.266 140.711 427.733 140.187 432.962C150.319 433.057 159.404 434.151 168.87 432.487Z" fill="#393A3A"/>
<path d="M13.8502 278.264C12.2329 278.074 11.3292 279.263 10.1876 280.071C8.80819 281.069 6.42991 281.592 6.52504 283.731C3.19537 285.966 3.95643 284.302 6.52504 283.731C7.85691 283.779 9.37897 284.349 9.71193 282.638L10.1876 280.118C11.3292 279.833 12.7562 280.499 13.8502 280.118C16.0859 279.31 18.5594 279.595 19.3205 282.115C16.2762 285.633 11.5196 287.487 10.0925 293.62C15.3249 291.053 17.5605 286.964 20.9378 283.779C25.409 286.204 28.9765 289.769 33.9234 293.097C38.5374 286.631 36.5396 274.223 42.1049 275.649C47.147 276.933 40.773 304.412 30.8316 300.228C27.2641 298.754 26.7884 294.951 24.9808 290.149L8.76068 304.602C6.52505 304.602 5.47853 301.131 6.33473 300.085C7.3812 298.802 8.38014 296.995 10.0925 295.189C7.61908 291.718 1.53045 288.2 0.0558832 283.541C-0.895452 280.594 10.5681 267.663 13.9929 273.415C14.8015 274.794 16.0859 277.076 13.9929 278.264H13.8502Z" fill="#393A3A"/>
<path d="M220.576 159.128C214.963 162.313 224.334 175.387 217.864 181.567C205.117 160.459 190.989 140.492 169.537 126.324C165.969 123.995 162.021 123.424 158.549 125.088C148.179 130.08 148.417 178.905 148.94 188.888C104.941 190.267 60.3233 231.009 34.1616 263.717C32.1638 261.008 32.5918 259.011 34.114 254.97C47.1473 220.74 84.6298 155.514 109.888 127.228C113.693 131.554 115.073 138.257 119.877 138.875C125.49 137.306 126.441 128.844 129.248 123.852C135.954 121.523 147.608 131.887 147.18 123.947C147.037 121.19 137.429 118.338 138.618 111.634C140.331 101.936 150.89 104.741 147.18 93.7114C153.221 96.9442 154.41 103.22 159.072 107.498C160.784 109.115 164.637 108.306 165.351 109.78C167.634 114.487 164.923 120.952 166.778 122.616C165.256 121.238 191.655 127.418 214.82 150.19C217.627 152.947 219.529 156.228 220.528 159.08L220.576 159.128Z" fill="#FDFDFD"/>
<path d="M217.769 187.319C219.481 193.88 207.97 208.284 201.025 212.04C191.321 217.27 181.237 219.837 171.153 221.976C149.32 199.965 153.649 162.93 158.786 133.455C159.309 130.46 163.638 129.509 166.016 131.126C185.518 144.437 200.74 162.312 211.062 183.468C212.584 186.558 215.057 187.794 217.816 187.271L217.769 187.319Z" fill="#FDFDFD"/>
<path d="M148.94 188.888C149.463 198.491 155.932 207.619 158.263 217.84C117.45 223.783 80.8715 240.85 47.5271 262.909C42.5802 266.189 37.1576 267.948 34.1133 263.717C60.275 231.009 104.893 190.266 148.892 188.888H148.94Z" fill="#AEE2E6"/>
<path d="M121.827 100.652C106.225 91.3336 92.9059 80.637 81.918 66.66C85.1049 59.1485 88.5298 52.9682 89.5763 44.7912C102.181 44.7912 113.265 41.5584 123.491 33.2388C134.146 44.9813 129.532 83.9648 121.874 100.652H121.827Z" fill="#FDFDFD"/>
<path d="M171.153 222.024C181.237 219.837 191.322 217.318 201.025 212.088C208.018 208.332 219.481 193.88 217.769 187.367C217.293 185.513 217.911 183.469 217.864 181.615C224.285 175.482 214.962 162.361 220.575 159.175C232.895 169.254 237.699 188.651 234.845 204.957C232.182 219.98 221.336 231.295 208.208 234.718C193.7 238.521 180.762 231.675 171.201 222.024H171.153Z" fill="#AEE2E6"/>
<path d="M118.83 26.9643C112.314 39.2773 95.6655 38.3265 84.2019 38.8019C82.537 46.4085 83.6787 53.4445 77.8279 58.7215C69.2659 44.2691 69.599 26.584 79.8258 14.1283C84.6301 8.28074 93.2396 3.05125 99.6611 7.75779C101.278 8.94631 100.66 13.4152 102.277 14.0807C106.225 15.6971 108.937 7.47255 114.264 10.5627C118.688 13.1299 116.595 31.243 118.878 26.9167L118.83 26.9643Z" fill="#FDFDFD"/>
<path d="M134.004 433.105H103.324C103.228 430.062 105.607 428.065 107.89 427.495C120.971 424.5 110.554 413.042 135.574 417.178L134.052 433.105H134.004Z" fill="#FDFDFD"/>
<path d="M168.87 432.487C159.404 434.151 150.319 433.057 140.188 432.962C140.663 427.733 139.617 422.266 142.328 418.082C143.85 415.753 148.654 417.226 151.366 416.941C154.077 416.656 154.79 420.982 156.979 423.549C160.166 427.257 165.255 426.354 168.87 432.487Z" fill="#FDFDFD"/>
<path d="M119.924 129.604C117.403 130.793 114.216 123.091 116.024 120.952C117.118 119.621 121.684 120.049 122.636 121.094C123.825 122.378 122.493 127.18 119.924 129.604Z" fill="#AEE2E6"/>
</svg>
