<svg width="435" height="465" viewBox="0 0 435 465" fill="none" xmlns="http://www.w3.org/2000/svg">
<path d="M419.891 464.329L34.3351 464.48C31.6161 464.48 30.9111 459.649 32.321 459.095C41.1832 455.673 50.4986 458.642 59.3608 455.874C49.2901 455.321 27.9906 452.603 22.3511 446.061C18.776 441.934 17.4668 435.794 19.632 430.309L39.8237 379.228C52.1099 348.077 83.4297 351.297 111.577 355.072C116.512 344.402 121.446 334.388 125.223 323.467C126.331 320.297 120.49 318.133 119.181 316.321C113.893 309.074 115.958 300.82 119.986 294.53C124.719 287.182 132.675 285.32 142.696 285.27C138.013 276.312 139.12 267.454 144.206 259.604C165.103 227.546 250.955 154.926 283.987 127.75C286.706 125.535 286.404 120.503 289.325 119.597C294.209 118.087 298.237 118.691 302.064 112.249C287.663 102.083 280.009 86.4826 268.428 74.0521C259.163 64.0372 250.703 54.3748 254.43 39.579C257.35 28.004 268.075 25.538 276.484 19.3983C280.311 16.6304 304.682 -10.3949 321.702 4.40096C325.881 8.02442 323.766 15.0703 327.09 19.0963C330.06 22.7701 335.801 23.2228 336.355 27.9534C336.908 32.6841 334.794 35.754 331.118 39.6794C327.996 43.0513 330.413 48.9394 330.211 53.4687C327.996 97.3528 294.964 127.901 320.04 121.962C323.867 129.813 323.867 141.187 321.651 150.044C320.695 152.107 317.673 152.46 315.81 154.372C318.681 165.243 326.586 174.905 337.362 179.133C351.108 184.467 365.509 178.579 369.537 164.588L375.177 144.961C376.738 139.526 380.968 135.601 384.946 134.846C391.089 133.688 397.03 135.349 400.706 140.583C426.588 177.572 443.507 228.804 397.534 258.345C381.522 268.662 363.394 270.172 343.454 270.172C364.351 324.222 384.845 374.296 409.82 423.465C403.476 437.153 416.668 427.44 426.94 431.517C429.005 432.322 432.63 435.895 430.616 438.864C425.631 446.413 416.316 449.634 410.173 456.579C411.784 459.297 424.423 455.975 422.711 461.662C422.509 462.367 422.157 464.178 419.79 464.178L419.891 464.329ZM329.406 30.0673C330.262 26.2929 321.601 25.5882 318.882 25.8398C315.609 21.2602 321.802 16.429 318.127 10.1886C316.515 7.42063 313.192 7.57157 310.725 7.31994C295.619 5.65919 289.929 18.3415 280.513 25.0851C272.96 30.5203 262.234 31.879 260.371 41.9442C259.062 48.8388 262.738 65.6476 271.651 64.4901C281.872 62.628 279.556 44.9134 279.455 36.6096C290.986 38.7233 325.629 47.0272 329.406 30.1177V30.0673ZM306.696 107.167C316.465 91.5656 327.543 58.2499 322.91 44.9135C309.617 48.6376 299.597 47.2284 286.303 43.8062C288.015 54.5256 280.764 64.3391 277.34 72.6932C283.383 85.8786 294.863 98.007 306.747 107.217L306.696 107.167ZM148.385 279.08C152.011 291.812 183.28 272.839 192.394 268.058C234.389 245.965 280.916 243.55 325.378 258.798C347.432 266.398 371.552 265.391 391.139 254.722C413.496 242.543 424.523 219.041 418.934 194.683C415.661 180.441 410.827 166.752 401.26 155.731C397.635 151.554 398.037 141.539 389.326 140.784C377.09 139.677 381.471 165.595 368.128 178.931C356.043 191.009 336.808 189.349 323.917 178.579C313.192 169.621 309.214 156.989 305.186 143.804C300.755 147.125 297.431 154.02 293.051 151.705C288.871 147.226 291.188 139.224 287.31 133.437C250.301 163.582 175.274 227.445 150.097 262.17C146.522 267.102 144.559 273.745 148.436 278.979L148.385 279.08ZM88.2636 458.24L187.208 457.686C187.107 450.64 171.145 431.869 183.28 429.202C190.179 427.692 189.373 421.653 192.394 417.878C201.508 406.605 213.694 398.654 223.714 387.783C260.17 348.177 245.87 307.715 236.252 258.899C203.623 262.774 172.354 294.127 148.083 289.195C151.558 295.637 154.73 300.015 152.817 306.306C148.335 320.85 133.984 318.837 132.272 323.719C127.892 336.25 120.49 347.674 117.972 360.306C116.965 365.489 119.181 370.522 116.864 376.108C107.499 398.855 97.9818 420.646 87.4076 442.84C85.3431 447.168 85.4438 454.063 88.3139 458.24H88.2636ZM137.006 302.481C139.976 306.054 137.61 308.923 138.466 312.446C144.005 311.087 146.774 306.809 146.724 301.626C146.724 297.549 143.199 293.926 138.667 292.215C133.028 290.101 123.712 296.14 122.353 305.601C121.95 308.42 123.863 315.616 128.546 313.754C132.272 312.244 130.963 303.79 136.955 302.532L137.006 302.481ZM209.363 448.628C212.133 453.459 214.147 455.975 216.614 458.139L393.052 458.29C392.499 451.043 387.01 446.816 380.061 445.759L304.078 322.511L295.518 369.062C292.144 387.381 282.476 403.183 266.917 413.551L223.764 442.286C219.082 445.407 215.154 447.973 209.363 448.628ZM49.7936 439.367C56.541 431.768 61.9791 422.307 64.95 412.544C72.9058 407.813 84.336 362.973 89.2203 366.798C95.162 371.478 74.0136 408.971 72.4526 416.52L53.3687 447.621C63.8422 453.157 60.67 442.337 71.0427 438.965C75.071 438.16 80.4588 441.28 82.7751 437.203C84.6382 433.882 88.6161 428.799 85.6956 425.075C83.3793 422.055 79.5524 421.602 77.0851 420.546C76.9844 418.885 76.1788 416.218 76.8838 414.658C78.9986 410.279 81.617 405.75 84.9403 400.919C89.7238 400.466 92.8458 403.536 98.0825 404.039C100.298 396.54 119.13 364.281 108.405 361.765C91.6373 357.84 61.0224 355.525 50.8511 373.34C57.0445 375.051 61.1735 373.089 67.4173 373.592C70.086 380.939 70.6399 389.293 69.079 397.345L37.7592 402.831C34.1337 411.236 22.2503 434.134 26.2786 440.575C29.4005 445.558 42.9959 447.47 45.6646 446.564C48.7362 445.507 48.0816 441.33 49.7936 439.418V439.367ZM63.1373 392.464C63.9429 387.129 63.7919 384.361 62.6337 380.234C57.397 380.084 51.5056 379.631 46.6214 382.499C42.6938 384.814 41.2839 390.853 41.9385 395.232C49.6929 395.031 55.6346 393.621 63.1876 392.464H63.1373ZM92.9464 416.167C95.2123 411.94 93.3996 409.675 90.6302 408.82C88.1629 408.065 86.8034 409.675 85.3431 412.091C83.6311 414.859 84.5374 416.671 86.1488 417.828C88.5657 419.489 91.0834 419.589 92.9464 416.167ZM205.889 457.586C196.473 440.777 216.262 449.231 196.221 428.497C192.848 430.51 185.798 432.926 186.654 437.556C187.963 444.35 191.236 451.194 194.811 456.579C196.876 459.699 203.422 458.29 205.889 457.586ZM401.21 455.271C409.518 447.973 416.668 444.853 423.315 437.002C414.956 437.405 407.202 438.109 401.21 434.134C398.289 434.234 392.146 438.864 392.297 441.582C392.65 446.866 397.232 451.396 401.159 455.321L401.21 455.271ZM69.6329 447.017C66.0578 450.54 67.6187 455.271 70.2874 456.831C73.2079 458.592 76.2291 458.189 77.8908 456.831C81.0631 454.214 81.2645 449.282 79.2503 447.369C76.8334 445.105 72.503 444.249 69.6329 447.067V447.017Z" fill="#393A3A"/>
<path d="M403.023 122.667C403.224 121.711 403.98 120.654 405.541 120.151L420.344 115.672C417.827 101.832 413.798 88.7474 408.662 74.7065C397.937 77.0718 388.42 79.0345 377.997 82.507C378.954 88.1938 380.213 93.3271 383.184 97.7055C388.974 91.9683 400.908 87.0867 405.289 94.8369C409.418 102.184 399.297 107.871 397.031 113.659C396.024 114.363 392.7 113.458 391.542 112.552C390.787 111.998 390.837 111.092 391.291 109.23C394.715 105.858 398.441 102.939 399.095 97.8059C391.089 96.9 385.953 103.593 385.651 110.387C385.349 116.376 389.025 122.214 395.168 125.083C396.527 125.737 396.88 130.971 395.168 130.82C382.529 129.914 382.378 115.622 378.853 105.607L371.804 85.4259C371.049 83.3123 369.79 80.7454 371.099 78.6318C371.854 77.3736 375.379 76.3168 375.631 74.8573C374.674 63.7353 365.107 58.4511 359.518 47.782C369.085 45.7186 380.314 38.4216 389.176 41.1392C398.743 44.1085 402.066 58.6526 408.662 64.9936C413.597 69.7243 417.374 73.3979 417.223 81.5004C422.006 83.7147 426.538 82.7082 430.868 85.5768C430.012 98.0576 442.953 116.628 426.941 109.783C425.531 112.199 429.559 117.936 426.991 120.302C424.876 121.711 401.16 130.417 403.124 122.717L403.023 122.667ZM402.016 68.4158C397.585 59.961 394.211 52.0598 387.011 48.1847C382.378 45.6684 376.084 49.3423 370.545 51.5064L383.637 72.9449C388.974 74.1527 397.081 71.4856 402.066 68.4158H402.016Z" fill="#393A3A"/>
<path d="M403.022 122.667C399.799 122.013 395.62 117.232 397.03 113.659C399.296 107.871 409.417 102.184 405.288 94.8369C400.907 87.0867 388.973 91.9684 383.182 97.7055C380.212 93.3775 378.953 88.2441 377.996 82.507C388.419 79.0345 397.936 77.1222 408.661 74.7065C413.797 88.7475 417.826 101.832 420.343 115.672L405.539 120.151C403.978 120.604 403.173 121.711 403.022 122.667Z" fill="#AEE2E6"/>
<path d="M8.80601 438.613C6.18764 440.827 3.01539 438.411 1.65585 436.65C0.598426 435.241 -1.16394 431.919 1.10196 429.906C3.2168 428.044 6.238 429.453 7.29542 430.812C8.80602 432.775 11.8272 436.046 8.80601 438.613Z" fill="#AEE2E6"/>
<path d="M14.1937 452.603C16.3086 457.132 11.0718 457.233 8.40309 456.629C6.74143 456.277 3.66988 455.925 4.7273 451.748C5.4826 448.829 12.2803 448.476 14.2441 452.603H14.1937Z" fill="#AEE2E6"/>
<path d="M401.21 155.731C396.829 163.381 401.059 173.899 394.161 192.872C384.392 219.695 358.863 231.22 331.269 225.734C310.222 221.557 289.426 218.991 267.472 221.859C225.275 227.345 180.008 252.659 148.386 279.029C144.509 273.796 146.472 267.153 150.048 262.221C175.224 227.496 250.251 163.632 287.26 133.487C291.138 139.275 288.821 147.276 293.001 151.755C297.381 154.07 300.705 147.176 305.136 143.854C309.164 156.989 313.142 169.621 323.867 178.629C336.758 189.399 355.993 191.06 368.078 178.982C381.371 165.645 377.04 139.728 389.276 140.835C397.987 141.59 397.534 151.604 401.21 155.781V155.731Z" fill="#FDFDFD"/>
<path d="M148.385 279.08C180.058 252.709 225.275 227.395 267.471 221.91C289.425 219.041 310.221 221.557 331.269 225.785C358.862 231.321 384.392 219.745 394.16 192.922C401.058 173.949 396.829 163.431 401.21 155.781C410.777 166.803 415.611 180.491 418.884 194.733C424.473 219.091 413.445 242.543 391.089 254.772C371.501 265.441 347.382 266.448 325.327 258.849C280.865 243.6 234.339 246.016 192.344 268.109C183.23 272.89 152.011 291.862 148.335 279.13L148.385 279.08Z" fill="#AEE2E6"/>
<path d="M76.9342 414.657L72.4528 416.52C73.9634 408.971 95.1622 371.478 89.2205 366.798C84.3362 362.973 72.9563 407.813 64.9502 412.544C57.7496 408.467 48.5853 412.141 45.3123 418.784C41.4855 426.484 43.8521 434.385 49.7938 439.367C48.0818 441.28 48.7364 445.457 45.6648 446.514C42.9961 447.42 29.451 445.507 26.2788 440.525C22.2505 434.083 34.1339 411.185 37.7593 402.781L69.0791 397.295C70.6401 389.243 70.1365 380.889 67.4175 373.541C61.1736 373.038 57.0447 375.001 50.8512 373.29C61.0226 355.525 91.6374 357.789 108.405 361.715C119.13 364.231 100.298 396.49 98.0827 403.988C92.8459 403.485 89.724 400.415 84.9404 400.868C81.6171 405.7 79.0491 410.229 76.8839 414.607L76.9342 414.657Z" fill="#FDFDFD"/>
<path d="M306.696 107.167C294.813 97.957 283.332 85.8786 277.29 72.6429C280.714 64.2888 288.015 54.4753 286.253 43.7559C299.546 47.178 309.617 48.5873 322.86 44.8632C327.492 58.1995 316.415 91.5152 306.646 107.116L306.696 107.167ZM296.021 67.1071C295.367 67.4091 293.302 67.4593 293.151 68.8684C292.648 74.1526 296.273 77.6251 299.999 78.3297C304.531 79.1349 309.718 78.7827 310.523 72.4417C292.849 72.4417 300.503 65.2451 295.971 67.1575L296.021 67.1071Z" fill="#FDFDFD"/>
<path d="M329.406 30.0678C325.629 47.0276 290.986 38.6734 279.455 36.5597C279.556 44.8131 281.872 62.5781 271.65 64.4401C262.788 65.6479 259.112 48.7889 260.371 41.8942C262.234 31.8794 272.96 30.4704 280.513 25.0352C289.929 18.2915 295.619 5.60925 310.725 7.27C313.192 7.52163 316.515 7.42102 318.126 10.1386C321.802 16.4293 315.609 21.2102 318.882 25.7899C321.601 25.5383 330.262 26.243 329.406 30.0174V30.0678Z" fill="#FDFDFD"/>
<path d="M205.889 457.586C203.422 458.341 196.876 459.75 194.812 456.579C191.237 451.195 187.964 444.35 186.654 437.556C185.798 432.976 192.848 430.511 196.222 428.498C216.313 449.232 196.473 440.777 205.889 457.586Z" fill="#FDFDFD"/>
<path d="M64.8992 412.544C61.9284 422.307 56.4902 431.768 49.7429 439.368C43.8515 434.385 41.4849 426.535 45.2614 418.785C48.5344 412.142 57.6987 408.468 64.8992 412.544Z" fill="#AEE2E6"/>
<path d="M137.006 302.481C130.964 303.74 132.273 312.245 128.597 313.704C123.914 315.566 122.001 308.37 122.404 305.551C123.763 296.14 133.079 290.051 138.718 292.164C143.25 293.876 146.725 297.55 146.775 301.576C146.775 306.759 144.056 311.037 138.517 312.396C137.661 308.923 139.977 306.004 137.057 302.431L137.006 302.481Z" fill="#FDFDFD"/>
<path d="M401.21 455.271C397.282 451.345 392.7 446.816 392.348 441.532C392.146 438.814 398.289 434.234 401.26 434.083C407.202 438.059 414.956 437.354 423.365 436.952C416.719 444.803 409.568 447.923 401.26 455.22L401.21 455.271Z" fill="#FDFDFD"/>
<path d="M77.0851 420.546C77.488 427.088 73.0065 432.976 70.9924 439.015C60.5692 442.387 63.7919 453.207 53.3184 447.671L72.4023 416.57L76.8838 414.708C76.1285 416.218 76.9844 418.935 77.0851 420.596V420.546Z" fill="#AEE2E6"/>
<path d="M63.1374 392.464C55.5844 393.571 49.6427 395.031 41.8883 395.232C41.2337 390.904 42.6436 384.814 46.5711 382.499C51.4554 379.631 57.3468 380.084 62.5835 380.235C63.7416 384.361 63.8927 387.13 63.087 392.464H63.1374Z" fill="#AEE2E6"/>
<path d="M71.043 439.015C73.0067 432.976 77.5385 427.138 77.1357 420.546C79.603 421.602 83.3795 422.106 85.7461 425.075C88.6666 428.799 84.6887 433.882 82.8257 437.204C80.5094 441.28 75.1216 438.21 71.0933 438.965L71.043 439.015Z" fill="#FDFDFD"/>
<path d="M69.6325 447.017C72.5027 444.199 76.8331 445.055 79.25 447.319C81.2641 449.232 81.0124 454.164 77.8905 456.78C76.1785 458.19 73.1573 458.542 70.2871 456.78C67.6687 455.22 66.0575 450.439 69.6325 446.967V447.017Z" fill="#AEE2E6"/>
<path d="M92.9466 416.167C91.1339 419.589 88.5659 419.489 86.1489 417.828C84.5376 416.721 83.6313 414.909 85.3433 412.091C86.8539 409.675 88.2134 408.065 90.6304 408.82C93.3998 409.675 95.2125 411.94 92.9466 416.167Z" fill="#AEE2E6"/>
<path d="M402.014 68.4158C397.029 71.4857 388.922 74.1528 383.585 72.945L370.493 51.5064C376.082 49.3927 382.377 45.7188 386.959 48.1847C394.159 52.0598 397.533 59.9611 401.964 68.4158H402.014Z" fill="#FDFDFD"/>
<path d="M296.021 67.1074C300.553 65.195 292.899 72.3412 310.573 72.3915C309.767 78.7829 304.581 79.1351 300.049 78.2796C296.323 77.575 292.647 74.1531 293.201 68.8186C293.352 67.4094 295.417 67.3589 296.071 67.057L296.021 67.1074Z" fill="#393A3A"/>
</svg>
