<svg width="222" height="347" viewBox="0 0 222 347" fill="none" xmlns="http://www.w3.org/2000/svg">
<path d="M177.47 324.113C176.056 321.4 172.806 320.827 169.977 320.903C169.633 320.024 170.092 318.61 168.983 318.228C167.874 317.846 166.689 317.884 165.58 317.999C165.427 317.426 164.319 317.082 164.242 316.509C163.745 313.49 160.801 312.076 159.693 309.402C160.381 307.72 161.069 306.803 161.91 306.841C161.184 306.841 179.879 319.871 181.408 321.018C182.746 322.011 180.605 324.418 179.649 323.998C179.152 323.769 178.311 324.227 177.47 324.151V324.113Z" fill="#393A3A"/>
<path d="M158.354 309.516C157.322 313.184 160.916 315.668 164.204 316.509C164.624 317.044 165.083 317.541 165.542 317.999C166.115 320.024 167.912 320.98 169.938 320.941C171.124 323.845 174.297 324.877 177.126 325.718C177.202 328.851 175.826 329.806 173.723 329.386C172.462 329.118 171.162 328.927 169.785 328.469C166.574 325.144 162.904 321.667 158.278 320.865C157.781 320.521 157.36 319.68 156.749 319.489C156.596 316.623 155.181 315.783 153.881 314.866C151.931 313.528 149.676 310.93 150.823 309.211C153.155 307.797 156.175 309.784 158.354 309.555V309.516Z" fill="#393A3A"/>
<path d="M142.336 320.559C144.592 324.189 145.471 332.175 153.232 334.048C150.938 327.896 144.783 326.023 143.598 320.521C144.324 319.336 145.662 318.61 146.695 319.031C148.033 319.604 148.759 320.406 149.6 321.171C152.009 325.106 154.991 329.309 159.311 331.105C159.349 332.939 161.528 332.977 160.84 331.029C158.47 327.055 153.385 325.603 151.818 320.941C152.353 320.292 152.926 319.718 153.538 319.145L156.788 319.375C156.979 319.718 157.629 319.986 158.317 320.75C159.961 324.609 163.861 326.94 168.601 328.621C169.175 329.691 171.048 333.207 169.289 333.398L163.708 334.086C162.637 334.239 162.025 336.493 160.955 338.327C158.088 337.869 156.673 335.347 154.303 335.194C152.123 349.485 137.94 323.196 134.002 320.483C133.352 322.814 130.14 329.5 132.74 331.525C136.334 334.315 141.533 337.066 144.21 341.04L185.882 341.728C187.602 341.728 188.367 342.759 188.711 343.524C189.093 344.517 187.793 346.466 185.805 346.466L26.3418 346.275C24.6596 346.275 23.1686 346.39 22.8245 345.549C19.4984 337.792 39.4935 343.524 47.0251 340.925C44.0048 338.251 40.2581 338.556 36.932 336.569C36.282 332.252 38.423 328.966 40.7551 327.17C44.0048 324.686 48.2867 325.832 52.6833 324.953L63.9999 188.312C48.4779 187.739 35.2498 185.981 22.404 180.67C8.37303 174.9 1.33845 161.259 4.85575 146.51C8.60244 130.882 24.5068 114.91 41.2521 114.566C40.2581 108.261 37.5054 100.198 42.6667 95.1929L39.0347 86.9776C37.2378 82.9273 39.7611 79.1444 43.4313 78.2656C53.448 75.8583 48.5161 88.8499 59.4503 92.9766C66.4085 95.6131 63.5411 106.083 69.3141 108.834C76.4633 100.81 83.3832 93.5881 90.9148 86.137C92.9411 84.15 93.247 81.1313 97.1466 80.711C97.9877 80.6346 98.8288 79.5647 99.2493 79.1061C102.69 75.3233 83.6126 68.3308 76.9986 33.7884C76.081 29.0121 73.4048 25.917 74.093 19.9944C74.5135 16.5554 69.5052 12.8872 71.3785 8.64584C77.8779 -6.21809 98.4464 2.68493 105.443 2.26461C112.019 1.8443 116.721 -1.17429 122.226 4.82478C133.543 17.1668 132.167 32.5657 124.635 46.8565C119.55 56.5238 115.689 66.6495 109.228 76.1257C107.201 79.1061 114.504 81.5517 116.377 83.1566L143.483 106.656C161.184 121.979 196.663 162.52 181.6 187.548C172.386 202.87 155.488 209.71 137.71 208.869C137.901 227.784 137.519 245.246 136.487 263.587C135.952 273.254 148.224 264.313 157.094 279.139C166.537 294.958 169.404 304.511 186.341 312.802C191.12 315.171 179.765 324.609 159.999 294.729C149.983 296.525 140.807 300.881 132.09 304.74C132.052 312.344 139.239 315.515 142.26 320.406L142.336 320.559ZM114.924 21.1789C117.409 29.1267 116.339 35.6225 121.538 41.4688C132.817 24.7707 119.244 3.4874 112.401 5.89467C111.369 6.27678 110.107 8.18723 108.731 9.75386C102.231 6.6588 78.069 1.19469 76.578 9.75386C76.2339 11.7408 76.2722 13.9571 77.9161 15.6383C83.4979 21.4081 76.6163 24.7707 80.2483 28.5535C86.6712 35.2022 105.328 28.2097 114.886 21.1789H114.924ZM119.13 46.6653C114.465 40.8191 113.242 35.9281 111.483 29.2031C101.926 34.4761 92.9793 36.2721 82.6186 35.6225C84.4919 51.5946 92.9411 63.5162 104.066 74.2152C110.757 65.3885 115.23 56.9058 119.13 46.6653ZM110.107 87.3979C111.827 85.0288 107.698 83.7679 106.704 82.6598C105.634 81.4371 102.155 81.628 101.467 84.3792C100.664 87.4743 107.316 91.2189 110.107 87.3979ZM87.971 161.183C95.1203 184.3 93.3999 168.596 107.125 180.708C110.833 172.875 115.498 166.761 123.182 162.444C119.933 164.278 144.286 154.19 144.745 159.119C145.204 164.048 134.231 161.641 120.85 170.2C116.53 172.952 115.956 175.664 114.045 180.02C111.942 184.873 110.604 190.834 116.836 195.649C135.378 209.901 165.313 206.042 177.547 184.797C183.397 174.633 180.262 160.915 172.883 152.127C166.804 133.786 139.048 108.261 122.379 94.9636L118.633 102.988C113.548 102.835 111.178 97.218 106.743 96.7977C102.575 96.4156 99.6316 102.95 95.1968 102.262C92.0618 101.803 92.9793 96.6831 91.6412 93.397C82.8098 100.733 75.4693 109.178 67.7083 118.769L87.9328 161.144L87.971 161.183ZM59.718 103.064C57.4241 101.154 54.6714 103.064 53.0657 101.498C51.3835 99.8928 54.0979 98.0205 55.6272 96.492C51.3452 94.6197 47.7897 96.7213 45.8399 99.5107C41.9403 105.089 46.681 116.591 51.0012 118.119C53.945 119.151 56.583 118.119 57.9593 115.903C59.3356 113.687 61.2472 110.324 58.4945 108.299C57.1564 107.344 55.0919 107.611 55.1684 106.121C55.2449 104.745 55.6272 104.325 56.6976 104.172C57.3858 104.096 58.6474 104.631 59.6797 103.064H59.718ZM88.621 179.142L63.6558 120.832C51.0012 106.274 88.9268 184.835 88.621 179.142ZM11.5845 144.714C4.16756 156.444 11.7757 171.882 25.4243 176.925C42.055 183.077 60.712 184.797 77.8779 182.313C82.8098 176.62 76.4251 170.697 74.4753 165.5C70.1934 153.999 65.185 142.803 58.8386 130.538C53.3715 133.786 50.3895 144.102 46.1458 141.848C42.8579 140.09 50.3512 132.983 45.4958 125.226C43.7372 122.437 39.1877 118.96 34.3323 120.641C23.6274 124.386 15.0253 133.518 11.5081 144.676L11.5845 144.714ZM87.3975 194.235C92.0618 198.132 98.3318 193.814 100.855 190.184C102.881 187.204 101.849 180.746 97.9495 180.746C95.6556 182.313 92.9794 186.287 87.7417 184.3C88.621 187.395 85.486 192.63 87.4358 194.273L87.3975 194.235ZM131.287 271.65C122.418 246.201 111.063 221.746 97.3377 198.247C106.59 224.154 117.6 247.577 131.287 271.65ZM109.228 341.46C110.681 334.735 109.572 330.876 106.857 326.596L98.4082 234.05L75.0106 327.208C71.608 331.296 70.4993 335.996 70.7669 341.499L109.228 341.422V341.46ZM151.856 280.553C147.077 273.369 139.584 272.299 132.855 275.432C127.999 277.687 124.023 283.724 125.514 290.411L151.818 280.553H151.856ZM156.788 290.564C160.687 279.559 130.905 293.353 128.611 294.423C127.005 295.187 127.12 297.06 127.464 297.9C129.987 304.09 146.312 291.634 156.788 290.526V290.564ZM65.0704 340.543C66.3702 336.646 68.0524 332.825 66.829 329.844C64.8028 324.8 58.3799 326.329 54.939 328.965C50.963 331.946 45.8017 328.01 41.558 332.978C49.4719 336.187 56.4683 338.098 65.0704 340.543ZM137.519 340.964C130.943 336.455 127.12 335.882 125.476 329.921C122.418 330.074 117.371 328.163 115.192 330.417C112.86 332.863 114.618 337.754 114.618 341.499C122.876 341.193 130.37 342.645 137.519 340.964Z" fill="#393A3A"/>
<path d="M221.054 317.235C228.548 323.463 189.169 335.958 185.499 328.545C185.078 327.704 185.193 324.686 186.608 324.915C210.158 328.736 217.155 314.025 221.054 317.235Z" fill="#393A3A"/>
<path d="M14.528 52.7408H15.9808C20.0716 51.4416 18.2364 64.3951 17.4336 66.6495C11.0871 66.8788 5.65826 65.847 0 64.4715L0.191169 52.3969C0.191169 50.6774 3.40261 50.9067 4.54956 51.9001C5.19949 52.4733 5.46712 53.8489 5.27596 55.4919C4.89365 59.313 6.07883 61.109 9.40497 61.0708C17.3954 60.9179 9.67256 54.3457 14.5662 52.779L14.528 52.7408Z" fill="#393A3A"/>
<path d="M15.9811 52.7791H14.5282C12.8461 46.9328 5.84971 44.9459 0.497296 42.3858C0.0385186 40.4752 1.26193 38.259 2.40887 38.3355C3.63228 38.4119 7.14958 37.4566 8.1436 38.7176C20.3012 54.3075 32.6882 38.5647 34.2175 43.5703C36.9319 52.4734 15.0252 50.0661 15.9428 52.7791H15.9811Z" fill="#AEE2E6"/>
<path d="M57.6148 57.8993C53.4093 68.7893 45.5336 51.5945 25.9973 58.8163C28.6353 43.341 48.898 54.8425 57.6148 57.8993Z" fill="#AEE2E6"/>
<path d="M63.8853 56.1417C58.9152 52.0914 45.1136 46.5509 51.3071 44.946C57.5006 43.3412 72.8315 54.0401 78.6427 59.9245C72.6786 63.2871 67.7849 59.3132 63.8853 56.1417Z" fill="#AEE2E6"/>
<path d="M206.908 294.499C209.967 300.307 182.134 306.497 180.567 302.409C178.273 296.372 189.781 301.568 202.626 293.812C204.041 292.971 206.259 293.315 206.908 294.499Z" fill="#393A3A"/>
<path d="M50.0835 37.6093C50.16 33.3297 46.2604 46.8562 41.6344 45.7481C39.7228 45.2896 39.5699 43.914 40.0286 41.3921L42.0932 30.1964C46.031 29.5086 50.16 33.6735 50.0835 37.571V37.6093Z" fill="#393A3A"/>
<path d="M169.786 328.431L168.563 328.698C163.784 327.017 159.923 324.648 158.279 320.827C162.943 321.591 166.575 325.106 169.786 328.431Z" fill="#AEE2E6"/>
<path d="M158.278 320.826C157.59 320.062 156.94 319.795 156.749 319.451C157.322 319.642 157.743 320.483 158.278 320.826Z" fill="#AEE2E6"/>
<path d="M156.75 319.451L153.5 319.222L153.883 314.827C155.182 315.744 156.597 316.585 156.75 319.451Z" fill="#AEE2E6"/>
<path d="M169.939 320.903C167.913 320.941 166.078 319.986 165.542 317.961C166.651 317.884 167.76 317.808 168.945 318.19C170.13 318.572 169.595 319.986 169.939 320.865V320.903Z" fill="#AEE2E6"/>
<path d="M164.204 316.471C160.916 315.63 157.322 313.146 158.354 309.478L159.654 309.363C160.763 312.038 163.707 313.452 164.204 316.471Z" fill="#AEE2E6"/>
<path d="M165.542 317.999C165.045 317.541 164.586 317.044 164.204 316.509C164.28 317.082 165.389 317.426 165.542 317.999Z" fill="#AEE2E6"/>
<path d="M177.471 324.113C177.28 325.03 177.127 325.488 177.127 325.679C174.336 324.839 171.124 323.807 169.939 320.903C172.807 320.827 176.056 321.361 177.433 324.113H177.471Z" fill="#AEE2E6"/>
<path d="M151.779 320.979C153.308 325.603 158.431 327.055 160.802 331.067L159.273 331.143C154.952 329.348 151.97 325.106 149.562 321.209L151.779 321.017V320.979Z" fill="#AEE2E6"/>
<path d="M143.597 320.521C144.782 326.023 150.938 327.934 153.231 334.048C145.47 332.214 144.591 324.227 142.335 320.559L143.597 320.483V320.521Z" fill="#AEE2E6"/>
<path d="M172.883 152.165C171.239 152.203 169.748 153.388 168.907 155.68C164.701 166.761 156.252 177.231 144.286 180.594C134.078 183.498 123.794 180.938 114.083 180.059C115.994 175.664 116.568 172.99 120.888 170.239C134.307 161.679 145.241 164.048 144.783 159.157C144.324 154.266 119.932 164.316 123.22 162.482C123.449 155.604 93.1319 157.591 88.0089 161.221L67.7844 118.845C75.5454 109.254 82.9241 100.848 91.7173 93.4734C93.0554 96.7595 92.1378 101.88 95.2728 102.338C99.7077 103.026 102.652 96.4921 106.819 96.8742C111.215 97.2563 113.586 102.911 118.709 103.064L122.455 95.04C139.124 108.337 166.88 133.862 172.959 152.203L172.883 152.165Z" fill="#FDFDFD"/>
<path d="M74.5138 165.5C54.5952 169.742 29.4007 168.29 16.9372 148.306C15.5991 146.166 13.7258 144.714 11.623 144.676C15.1403 133.518 23.7424 124.386 34.4473 120.641C39.3027 118.96 43.8522 122.399 45.6108 125.226C50.4662 132.983 42.9729 140.09 46.2608 141.848C50.5045 144.103 53.4483 133.786 58.9536 130.538C65.2618 142.803 70.3084 153.999 74.5903 165.5H74.5138Z" fill="#FDFDFD"/>
<path d="M172.882 152.165C180.261 160.953 183.396 174.671 177.547 184.835C165.313 206.08 135.416 209.901 116.835 195.687C110.603 190.911 111.941 184.911 114.044 180.059C123.755 180.938 134.039 183.498 144.247 180.594C156.213 177.231 164.663 166.761 168.868 155.68C169.747 153.388 171.2 152.203 172.844 152.165H172.882Z" fill="#AEE2E6"/>
<path d="M74.5138 165.5C76.4636 170.735 82.81 176.62 77.9164 182.313C60.7505 184.797 42.0552 183.039 25.4628 176.925C11.7759 171.882 4.20608 156.445 11.623 144.714C13.7257 144.714 15.5991 146.204 16.9372 148.344C29.4389 168.328 54.5952 169.78 74.5138 165.539V165.5Z" fill="#AEE2E6"/>
<path d="M114.924 21.1789C105.366 28.2097 86.7094 35.2022 80.2865 28.5536C76.6545 24.7707 83.5362 21.4081 77.9544 15.6383C76.3104 13.9189 76.2722 11.7408 76.6163 9.75387C78.0691 1.19469 102.27 6.65881 108.769 9.75387C110.145 8.18724 111.369 6.27679 112.439 5.89468C119.244 3.48741 132.855 24.7325 121.577 41.4688C116.339 35.6225 117.448 29.1267 114.962 21.1789H114.924Z" fill="#FDFDFD"/>
<path d="M119.13 46.6654C115.23 56.8676 110.757 65.3504 104.067 74.2152C92.9412 63.5163 84.492 51.5946 82.6187 35.6226C92.9794 36.3104 101.926 34.5144 111.483 29.2031C113.242 35.9282 114.465 40.781 119.13 46.6654ZM95.8085 59.275C97.3378 61.1091 99.8229 58.8164 100.626 57.6318C101.39 56.4855 101.429 54.3075 100.205 53.0084C99.4788 52.2442 97.9112 51.2507 96.2291 52.5499C94.5469 53.849 94.5469 57.8229 95.8085 59.3131V59.275Z" fill="#FDFDFD"/>
<path d="M123.182 162.443C115.498 166.761 110.834 172.875 107.125 180.708C93.4 168.595 95.1205 184.3 87.9712 161.182C93.0942 157.591 123.412 155.566 123.182 162.443Z" fill="#AEE2E6"/>
<path d="M131.287 271.649C117.6 247.577 106.589 224.154 97.3372 198.247C111.024 221.746 122.417 246.201 131.287 271.649Z" fill="#AEE2E6"/>
<path d="M59.717 103.064C58.6848 104.631 57.4232 104.096 56.735 104.172C55.6645 104.325 55.2822 104.745 55.2057 106.121C55.1292 107.611 57.1937 107.344 58.5318 108.299C61.3227 110.324 59.3347 113.763 57.9966 115.903C56.6585 118.043 53.9823 119.151 51.0385 118.119C46.7183 116.629 41.9776 105.089 45.8772 99.5107C47.827 96.7213 51.3443 94.6197 55.6645 96.492C54.1352 98.0204 51.4208 99.8927 53.103 101.498C54.7851 103.102 57.4614 101.154 59.7553 103.064H59.717Z" fill="#FDFDFD"/>
<path d="M151.855 280.552L125.552 290.411C124.023 283.724 128.037 277.725 132.893 275.432C139.621 272.299 147.115 273.369 151.894 280.552H151.855Z" fill="#FDFDFD"/>
<path d="M88.6207 179.142C88.9266 184.835 51.0392 106.274 63.6556 120.832L88.6207 179.142Z" fill="#AEE2E6"/>
<path d="M65.0697 340.543C56.4294 338.098 49.4713 336.187 41.5574 332.977C45.8393 328.01 50.9623 331.946 54.9384 328.965C58.4175 326.367 64.8404 324.8 66.8284 329.844C68.0136 332.825 66.3314 336.646 65.0697 340.543Z" fill="#FDFDFD"/>
<path d="M137.519 340.964C130.369 342.645 122.876 341.193 114.618 341.499C114.618 337.754 112.821 332.863 115.191 330.417C117.371 328.125 122.417 330.073 125.476 329.921C127.12 335.881 130.943 336.455 137.519 340.964Z" fill="#FDFDFD"/>
<path d="M156.787 290.564C146.312 291.672 129.987 304.128 127.464 297.938C127.12 297.098 127.005 295.187 128.611 294.461C130.905 293.391 160.687 279.597 156.787 290.602V290.564Z" fill="#AEE2E6"/>
<path d="M87.3979 194.235C85.4481 192.592 88.583 187.357 87.7037 184.262C92.9414 186.249 95.6176 182.275 97.9115 180.708C101.811 180.708 102.882 187.166 100.817 190.146C98.3321 193.814 92.0239 198.132 87.3597 194.197L87.3979 194.235Z" fill="#FDFDFD"/>
<path d="M110.107 87.398C107.316 91.219 100.664 87.4743 101.466 84.3793C102.193 81.6281 105.634 81.4371 106.704 82.6599C107.66 83.768 111.827 85.0671 110.107 87.398Z" fill="#FDFDFD"/>
<path d="M159.272 331.143L160.801 331.067C161.489 332.977 159.31 332.978 159.272 331.143Z" fill="#FDFDFD"/>
<path d="M95.8081 59.275C94.5465 57.7847 94.6612 53.7343 96.2287 52.5116C97.7962 51.2889 99.4402 52.2059 100.205 52.9701C101.428 54.2693 101.39 56.4474 100.625 57.5937C99.8225 58.7782 97.3374 61.0708 95.8081 59.2367V59.275Z" fill="#393A3A"/>
</svg>
