<svg width="232" height="398" viewBox="0 0 232 398" fill="none" xmlns="http://www.w3.org/2000/svg">
<path d="M73.9948 313.929C74.7194 317.751 76.4503 320.527 79.6303 320.93C92.1492 322.499 88.8082 302.906 96.0941 297.233L111.189 379.949C108.17 383.168 100.884 381.72 98.3483 386.548C97.503 388.157 96.2954 393.387 98.3886 393.99C110.465 397.45 122.138 398.577 135.301 397.732C131.88 390.812 136.267 384.938 136.187 379.547L134.537 288.543C138.28 294.055 138.562 300.492 141.983 306.165C146.331 313.366 154.945 314.935 162.553 310.349C179.782 299.969 196.246 286.531 212.629 274.864C218.144 278.927 225.148 283.232 231.91 277.439C227.321 267.019 220.841 257.444 213.474 248.351C208.724 251.489 204.014 251.087 199.868 253.059L166.78 268.99C158.769 232.822 162.835 192.59 120.609 182.09C120.005 169.497 117.71 158.554 110.344 148.134C115.577 141.657 120.327 134.898 127.21 129.989C131.155 127.173 137.153 130.553 141.621 128.018C142.024 125.081 139.608 122.506 139.447 118.041C151.524 115.305 163.197 110.718 171.369 102.712C183.324 90.9646 174.71 77.0442 174.508 64.8137C174.347 55.0374 184.33 44.9796 176.682 32.7894C169.759 21.7659 158.568 12.9149 143.352 14.6851C136.71 1.56952 123.024 -1.60896 109.78 0.684249C95.3294 3.13839 87.2786 12.8344 87.8421 29.0076C83.696 19.0301 79.1473 11.4263 71.2576 8.16755C61.8784 4.3053 51.4527 6.88013 44.8913 14.2023C35.9549 24.1396 36.5185 38.3816 44.4083 49.6465C26.4148 75.3546 48.8362 100.218 69.6876 113.816C67.997 116.029 64.0923 117.96 65.1389 120.454C66.8296 124.558 73.9546 121.862 76.8931 124.196C83.0922 129.185 85.7087 136.829 91.0222 144.03C74.4779 152.479 67.4737 167.003 57.2492 182.17C55.0353 163.14 61.5161 136.306 51.493 122.305C48.4337 118.041 42.3553 120.937 38.7728 118.765C28.9508 112.891 19.2094 106.494 7.53578 111.603C3.06761 113.575 1.13551 117.236 0.813477 121.299C0.410934 125.926 6.65019 129.185 5.64386 133.208L3.30919 142.582C2.66513 145.237 9.66927 147.007 10.8366 149.663C13.8154 158.272 12.165 167.606 17.8407 175.572C25.7707 186.636 36.1562 194.722 50.2048 199.027L33.258 244.972C27.3407 235.598 27.0186 210.413 15.2243 213.913C13.5739 214.396 11.2795 216.126 10.6354 219.022C5.72444 240.868 3.42993 263.881 7.8176 285.767C9.50826 294.175 16.0294 300.21 22.4297 302.383C42.1138 309.021 55.8404 279.249 67.6348 266.777C69.7682 283.474 71.016 298.4 73.9948 313.889V313.929ZM123.306 59.2217C121.937 62.8426 119.683 65.9807 115.295 68.7969C101.891 58.8999 84.0582 25.5073 98.469 12.7538C104.064 3.09816 130.551 0.603972 138.24 16.2139C114.249 32.8699 131.598 52.9053 123.306 59.2217ZM60.228 37.3759C56.8466 40.3933 52.6603 42.0428 47.5883 44.6578C42.1138 36.531 41.5101 27.3178 47.6286 20.599C50.8087 17.1391 52.2981 12.9148 57.6921 11.8688C63.0861 10.8228 68.1983 11.3458 72.9885 15.1678C79.8719 20.5991 83.696 28.9673 82.4078 38.5425C74.9206 37.0137 68.2385 36.7322 60.1878 37.3759H60.228ZM148.062 55.6008C143.755 56.4054 140.615 58.5376 135.422 61.0319C131.638 53.1867 127.17 43.9336 131.356 35.5251C131.155 26.3925 139.77 18.8691 149.752 19.8749C160.259 20.9612 168.792 27.6397 172.898 37.4964C175.716 44.2152 174.911 56.3652 167.665 59.6642C161.788 59.2619 154.462 53.7501 148.062 55.6008ZM83.0519 97.643C80.9587 101.706 77.9799 105.046 73.4715 109.391C58.2556 100.741 41.4295 85.694 43.6434 65.2965C45.4548 48.4796 63.2471 37.5769 79.8316 43.5312C90.8209 47.4739 96.6174 57.9342 95.5306 69.6416C94.6048 79.9812 89.8145 89.315 83.0519 97.643ZM151.644 108.023C147.941 111.04 143.151 112.287 137.354 112.931C133.369 102.672 130.793 92.6543 132.604 82.0733C133.892 74.4695 134.255 66.906 142.708 62.7621C149.913 59.2217 159.091 59.7848 165.773 66.1415C172.455 72.4981 174.549 82.0734 171.771 91.9302C169.598 99.6145 161.386 105.689 151.644 108.023ZM110.827 85.2113L99.073 140.852C96.537 126.61 89.6938 112.006 90.4989 98.3672C94.967 86.4183 103.219 75.596 100.321 61.7161C106.117 65.9002 108.653 69.2796 111.713 73.7453C108.17 75.9179 105.031 76.7226 104.749 80.6251C106.117 82.3953 110.384 82.7169 110.827 85.2113ZM115.819 86.5793C116.141 85.0102 121.695 84.608 120.488 82.355C115.698 73.3028 121.857 71.1302 127.452 63.3252C128.176 62.2792 132.202 63.647 131.558 65.0551C126.808 75.5959 124.674 85.8149 127.854 96.9189L105.715 137.231C108.13 119.65 112.075 103.798 115.819 86.539V86.5793ZM114.41 134.737C117.992 123.874 124.03 115.747 128.861 105.247C137.193 117.88 124.795 122.788 114.41 134.737ZM76.8931 112.891C80.6367 109.431 81.6833 107.419 85.3061 104.965C87.4396 114.42 90.4989 122.708 90.9014 133.168C85.0244 126.771 81.6027 120.133 76.8528 112.891H76.8931ZM34.9084 144.232C28.0653 145.841 8.01886 147.49 8.82394 139.967C9.14597 136.869 15.8683 136.668 15.5865 133.771C15.4658 132.443 0.612167 123.351 7.8176 117.88C17.3175 110.638 28.3068 124.035 36.277 124.357L45.8976 124.759C50.3255 124.92 53.1434 142.501 51.493 146.404C49.6413 150.065 42.5968 149.462 38.7325 150.226C36.9613 148.617 37.0419 144.956 34.9084 144.272V144.232ZM90.5793 291.963C87.198 299.607 87.9629 308.659 80.5562 316.866C74.9609 295.704 73.3105 275.065 72.4651 253.42C72.3846 250.886 70.4525 226.626 69.3656 225.379C68.8826 224.816 66.1453 224.695 66.1453 225.54L66.3063 256.478C66.3466 265.651 55.9208 271.203 50.6878 278.284C45.6964 285.043 42.5969 293.733 32.6139 297.313C24.6437 300.17 14.701 294.779 12.7688 284.841C9.06551 265.852 9.42772 244.771 15.345 225.741C15.9891 223.649 14.9828 220.471 18.2433 219.264C24.2009 227.994 28.7495 257.645 30.8025 260.179C31.2855 260.783 33.2983 261.065 33.7813 259.737L49.3998 216.367C54.1095 216.93 57.853 219.143 62.1199 218.338C63.6495 215.241 61.6369 210.815 63.9314 207.918C66.1051 205.183 70.694 205.665 72.9885 202.407C71.6601 196.251 66.5881 193.274 60.1475 190.297C63.4483 179.193 89.251 138.639 103.702 149.864C110.666 155.255 113.121 164.548 114.571 173.198C121.293 214.194 104.266 254.265 90.5793 292.043V291.963ZM50.6074 193.435C31.6478 189.009 13.8155 168.934 17.5591 150.95C22.1077 151.312 28.025 148.617 31.5673 150.829C41.9125 160.405 46.4209 150.588 52.3383 154.249L50.6477 193.435H50.6074ZM214.883 269.835C209.731 268.709 207.315 267.622 206.993 262.473C206.873 260.582 205.947 258.007 207.637 256.76C208.644 255.995 211.18 254.225 212.347 255.593C217.298 261.427 221.605 267.582 224.423 274.623C219.834 276.151 218.586 270.68 214.883 269.875V269.835ZM102.978 389.283C109.418 385.421 114.812 386.186 117.831 380.593C121.937 380.553 125.278 380.271 128.74 382.001C129.384 386.065 129.787 389.203 128.901 393.226C120.005 392.421 111.431 393.065 102.937 389.324L102.978 389.283Z" fill="#393A3A"/>
<path d="M82.2873 346.436C81.9653 342.614 80.8785 338.712 82.4887 334.89C84.3001 338.873 82.8106 342.212 85.0246 344.666C89.211 341.126 88.4865 335.091 86.5141 329.861C81.5628 333.401 76.37 336.7 70.815 333.482C66.9506 331.229 76.9739 321.774 70.7345 320.004C65.582 323.907 60.2685 337.022 64.2939 339.275L69.7685 342.373C71.3384 343.258 69.7684 355.368 72.8277 357.741L78.906 352.149C81.0797 350.138 83.2131 348.931 82.3678 346.436H82.2873ZM77.457 348.206C74.0756 345.189 75.4442 341.971 76.4103 339.798C76.9739 343.178 80.154 345.511 77.457 348.206Z" fill="#393A3A"/>
<path d="M4.43664 211.056C5.96628 204.297 7.77773 198.705 13.7755 196.452C19.2501 200.958 16.3517 208.119 19.25 209.769C28.1058 214.798 19.0488 179.313 4.43664 183.417C-0.715845 184.865 9.14631 189.291 1.77987 200.717C-0.232815 203.855 -1.8027 209.165 4.43664 211.056Z" fill="#393A3A"/>
<path d="M82.2865 346.436C83.4136 346.276 84.3796 345.632 85.0237 344.707C82.8097 342.252 84.2992 338.913 82.4878 334.93C80.8776 338.752 81.9644 342.655 82.2865 346.477V346.436Z" fill="#AEE2E6"/>
<path d="M15.3849 225.661C23.6772 243.081 16.1498 253.944 23.5967 274.261C27.7026 285.445 43.6431 277.318 50.7277 278.244C55.9607 271.163 66.3865 265.611 66.3462 256.438L66.1852 225.5C66.1852 224.655 68.9628 224.776 69.4056 225.339C70.4522 226.586 72.3843 250.846 72.5051 253.38C74.7995 253.26 75.4838 255.151 76.2889 257.444L85.829 284.439C86.9159 287.537 88.1637 290.434 90.579 291.922C104.265 254.145 121.293 214.034 114.57 173.078C113.161 164.428 110.706 155.175 103.702 149.743C89.2506 138.559 63.4479 179.113 60.1471 190.176C66.628 193.113 71.6597 196.09 72.9881 202.286C70.6936 205.505 66.1047 205.062 63.931 207.798C61.6365 210.695 63.6894 215.12 62.1195 218.218C57.8526 219.063 54.0689 216.85 49.3994 216.246L33.7809 259.616C33.2979 260.944 31.2851 260.662 30.8021 260.059C28.7491 257.524 24.2005 227.874 18.2429 219.143C14.9421 220.39 15.9887 223.528 15.3446 225.621L15.3849 225.661Z" fill="#FDFDFD"/>
<path d="M43.643 65.2967C47.3866 65.6588 48.876 69.2799 51.4925 72.0559C64.8567 86.1773 65.2995 88.5106 83.0514 97.6433C89.8141 89.3153 94.6043 79.9814 95.5301 69.6418C96.617 57.9344 90.8205 47.4742 79.8312 43.5314C63.2466 37.5771 45.4544 48.4798 43.643 65.2967Z" fill="#FDFDFD"/>
<path d="M132.645 82.0735C136.912 84.1253 138.683 89.1542 141.823 93.2176C145.647 98.1661 151.001 102.109 151.645 108.023C161.426 105.69 169.598 99.5744 171.771 91.9304C174.549 82.0736 172.737 72.7799 165.774 66.1416C158.81 59.5034 149.914 59.2219 142.708 62.7623C134.295 66.9062 133.933 74.4697 132.604 82.0735H132.645Z" fill="#FDFDFD"/>
<path d="M98.4695 12.7141C101.086 24.4215 110.505 55.5206 123.306 59.1817C131.598 52.8251 114.249 32.7897 138.24 16.1739C130.552 0.564 104.065 3.05843 98.4695 12.7141Z" fill="#FDFDFD"/>
<path d="M131.357 35.4849C136.549 37.577 137.515 44.2151 142.386 47.7153C145.365 49.8878 147.941 52.1409 148.062 55.5606C154.462 53.7099 161.788 59.2217 167.666 59.624C174.951 56.325 175.716 44.175 172.899 37.4562C168.752 27.5995 160.259 20.921 149.753 19.8347C139.77 18.7887 131.155 26.3121 131.357 35.4849Z" fill="#FDFDFD"/>
<path d="M50.6079 193.435L52.2986 154.249C46.4215 150.588 41.8728 160.405 31.5276 150.829C27.9853 148.617 22.0679 151.312 17.5193 150.95C13.7757 168.934 31.6081 189.01 50.5676 193.435H50.6079Z" fill="#FDFDFD"/>
<path d="M34.9077 144.232C37.0411 144.916 36.9203 148.577 38.7317 150.186C42.5961 149.422 49.6405 150.025 51.4922 146.364C53.1829 142.461 50.3248 124.88 45.8969 124.719L36.2763 124.317C28.3061 123.995 17.3167 110.598 7.81686 117.84C0.651684 123.311 15.465 132.403 15.5858 133.731C15.8676 136.628 9.14523 136.829 8.8232 139.927C8.05838 147.45 28.0645 145.801 34.9077 144.191V144.232Z" fill="#FDFDFD"/>
<path d="M50.7275 278.244C43.6429 277.359 27.7024 285.485 23.5965 274.26C16.1093 253.943 23.677 243.081 15.3847 225.661C9.46743 244.69 9.10508 265.772 12.8084 284.761C14.7406 294.698 24.6834 300.089 32.6536 297.233C42.6366 293.652 45.7361 284.962 50.7275 278.203V278.244Z" fill="#AEE2E6"/>
<path d="M47.6287 20.6394C51.654 26.3523 57.531 30.9389 60.228 37.376C68.2385 36.7725 74.9207 37.0138 82.4482 38.5426C83.696 28.9674 79.9122 20.6394 73.0288 15.1679C68.2386 11.3459 63.0458 10.8631 57.7323 11.8689C52.4188 12.8747 50.8086 17.1392 47.6688 20.5991L47.6287 20.6394Z" fill="#FDFDFD"/>
<path d="M43.6438 65.2966C41.4298 85.6942 58.2962 100.741 73.4718 109.391C77.94 105.086 80.959 101.747 83.0522 97.6432C65.2601 88.5105 64.8576 86.1772 51.4933 72.0558C48.8768 69.2798 47.4276 65.6587 43.6438 65.2966Z" fill="#AEE2E6"/>
<path d="M123.305 59.2216C110.504 55.5203 101.045 24.4209 98.4683 12.7537C84.0977 25.5072 101.89 58.8998 115.294 68.7968C119.682 65.9806 121.936 62.8827 123.305 59.2216Z" fill="#AEE2E6"/>
<path d="M72.4656 253.421C73.311 275.065 74.9212 295.745 80.5567 316.866C87.9634 308.619 87.1985 299.607 90.5798 291.963C88.1646 290.474 86.9168 287.578 85.8299 284.48L76.2898 257.484C75.4847 255.191 74.8004 253.3 72.5059 253.421H72.4656Z" fill="#AEE2E6"/>
<path d="M151.645 108.023C151.001 102.109 145.647 98.166 141.823 93.2175C138.683 89.1541 136.912 84.1253 132.645 82.0735C130.834 92.6544 133.37 102.672 137.395 112.931C143.192 112.287 147.982 111.04 151.685 108.023H151.645Z" fill="#AEE2E6"/>
<path d="M131.357 35.4848C127.17 43.9335 131.639 53.1869 135.422 60.9919C140.615 58.4975 143.755 56.3651 148.062 55.5604C147.941 52.1407 145.365 49.8877 142.386 47.7152C137.556 44.215 136.549 37.5769 131.357 35.4848Z" fill="#AEE2E6"/>
<path d="M60.2283 37.376C57.5313 30.8987 51.6543 26.3523 47.6289 20.6394C41.5104 27.3581 42.1141 36.5711 47.5887 44.6979C52.7009 42.0829 56.8872 40.4334 60.2283 37.416V37.376Z" fill="#AEE2E6"/>
<path d="M102.978 389.283C111.472 393.025 120.046 392.381 128.942 393.186C129.787 389.163 129.385 386.025 128.781 381.961C125.319 380.231 121.938 380.513 117.872 380.553C114.853 386.145 109.459 385.381 103.018 389.243L102.978 389.283Z" fill="#FDFDFD"/>
<path d="M214.883 269.835C218.547 270.64 219.794 276.111 224.424 274.582C221.606 267.582 217.339 261.387 212.347 255.553C211.18 254.185 208.644 255.995 207.638 256.72C205.947 257.967 206.873 260.541 206.994 262.432C207.316 267.622 209.731 268.668 214.883 269.795V269.835Z" fill="#FDFDFD"/>
<path d="M77.4564 348.207C80.1534 345.511 77.0136 343.178 76.4098 339.798C75.4034 341.971 74.0751 345.189 77.4564 348.207Z" fill="#FDFDFD"/>
</svg>
