<svg width="221" height="478" viewBox="0 0 221 478" fill="none" xmlns="http://www.w3.org/2000/svg">
<path d="M136.642 458.09C144.517 459.445 148.742 466.222 154.427 469.141C160.268 474.51 194.43 466.118 194.274 474.51C194.274 476.7 192.135 477.429 189.528 477.429H29.7227C26.9584 477.429 25.2372 476.178 24.9765 474.771C23.5161 466.014 47.612 474.197 61.5376 469.402C66.3359 467.734 68.6308 460.019 75.5675 459.914C77.5494 459.914 78.3317 456.162 77.9145 454.963C77.5494 453.816 75.2546 452.565 74.7852 450.636C65.2928 414.095 59.7643 377.606 56.1656 339.709L50.2719 277.104C43.4395 278.199 38.3283 281.744 31.9653 280.753C16.788 278.355 5.83528 266.575 2.28869 251.354C-4.85664 220.651 4.94865 188.28 28.6273 166.647C51.5759 145.692 76.6627 130.106 103.158 111.496L68.0049 67.4485C62.6329 60.672 55.4875 57.7528 54.7052 49.7773C53.7664 40.2901 55.5397 34.0869 60.7031 26.2679C64.7712 20.169 68.0571 12.2979 72.1252 6.8245C79.1141 -2.50628 85.9465 3.12353 93.822 2.65438C106.287 1.97673 120.265 -4.90402 131.061 6.6161C132.939 8.64907 132.052 14.4872 134.399 16.6244C139.615 21.368 142.014 25.1735 143.266 30.8032C144.778 37.5276 137.894 42.5837 135.025 47.4315C136.433 70.8366 131.009 91.6357 113.902 110.923C136.85 125.623 159.277 139.697 177.636 159.505L196.412 179.783C203.401 172.954 183.895 150.539 200.48 134.901C203.923 131.669 209.556 131.982 212.789 133.65C216.753 135.735 218.422 141.573 215.866 146.265C205.435 165.135 223.377 175.873 208.304 195.525L216.231 212.884C223.377 228.574 220.195 246.871 210.025 262.3C201.732 274.863 186.868 283.829 168.352 286.539C164.336 342.785 159.955 406.119 136.694 457.986L136.642 458.09ZM86.7288 33.5658C93.822 36.0679 108.843 49.3603 128.193 42.6359C134.451 40.4465 137.633 34.9732 135.964 28.6658C134.869 24.4956 129.914 22.2542 123.499 21.5244C122.768 17.7713 125.376 15.2692 126.211 11.099C115.154 2.44585 101.75 6.98105 90.6405 14.4874C88.5543 11.2034 87.3547 8.90949 85.9465 8.02332C77.3408 2.65422 68.2135 28.4574 66.5967 30.6989C62.9458 35.8595 59.4514 41.6454 60.9639 48.1092C61.9027 52.123 65.8144 59.8379 70.8213 59.5772C84.2775 51.9667 79.1663 30.9073 86.6767 33.5658H86.7288ZM108.686 107.222C122.664 89.8633 131.583 70.8889 127.984 50.1422C113.745 52.5922 101.645 49.5689 88.8672 42.1147C82.7128 63.3827 71.7079 61.6624 81.4089 74.0166C90.2232 85.2761 97.8379 95.1281 108.686 107.169V107.222ZM105.296 124.788C108.843 127.655 110.877 127.238 113.015 125.779C115.727 123.954 116.823 121.609 114.319 119.784C108.634 115.718 103.523 118.95 102.323 120.931C101.332 122.547 103.471 123.277 105.296 124.788ZM9.85126 251.718C14.0237 264.959 24.4028 277.991 40.884 272.83C52.3061 269.285 59.7643 258.078 65.9187 247.392C58.0953 244.056 52.619 239.364 50.5327 232.066C55.3311 222.423 57.626 210.277 54.4966 199.33C39.215 204.282 23.9855 226.28 20.5432 226.28C19.2393 226.28 16.5794 224.352 18.0919 222.006C27.5321 207.567 41.0404 197.767 56.7914 191.146C60.8595 182.024 71.6558 162.789 82.9215 172.485C84.434 173.788 85.6336 175.091 86.9375 175.456C91.9444 176.864 100.446 161.382 109.886 173.319C111.972 175.925 115.258 176.551 117.866 173.423L108.06 165.5C125.115 157.472 136.12 166.49 145.926 177.02C154.166 185.882 167.049 190.677 166.997 206.368C166.997 210.955 171.273 214.76 174.298 220.755L95.1259 228.835C93.9263 235.194 98.3073 238.061 99.7155 241.762C110.877 270.119 139.98 285.392 170.804 279.137C185.46 276.166 198.499 268.66 205.07 257.244C213.154 243.221 215.762 226.75 207.782 213.874C206.896 210.799 206.896 206.472 204.34 202.719C184.416 173.371 159.695 149.288 128.819 129.324C126.106 134.901 129.757 140.948 125.689 146.421C118.961 144.962 115.571 137.351 109.573 137.56C104.253 137.768 101.385 145.118 95.2302 146.421C90.2233 142.46 92.831 136.309 90.6926 128.542C70.6127 141.365 51.941 154.709 34.2602 170.295C10.6858 191.094 0.567575 222.996 9.64267 251.718H9.85126ZM209.869 144.388C211.642 141.417 210.181 140.062 208.147 138.967C204.653 137.091 195.526 148.611 202.619 164.666C206.009 172.277 204.601 179.053 201.106 186.142C200.324 187.758 203.975 189.27 204.705 188.488C214.406 178.063 199.385 161.643 209.816 144.441L209.869 144.388ZM95.0216 222.11L161.207 216.376C163.033 203.866 156.461 190.469 144.465 185.308C132.469 180.148 120.265 181.086 107.643 182.233C104.253 180.2 104.41 175.977 99.9764 174.831C97.0035 180.982 92.6224 181.242 88.6064 182.493C83.9646 183.953 79.3749 177.333 75.411 177.281C64.7713 182.702 59.5557 199.174 63.0502 210.277C62.1635 212.988 90.8491 224.873 89.9103 225.238C91.1099 224.769 92.4138 222.423 95.0216 222.214V222.11ZM83.5994 238.217C83.7559 250.519 73.5334 238.269 67.7441 258.964C79.8964 261.101 89.9103 261.623 102.01 260.372C96.4297 252.083 94.8651 243.274 88.137 238.686C88.6586 235.611 89.5452 231.545 87.8762 228.574C88.1892 229.199 62.8415 218.982 59.9729 225.133C62.7372 228.209 64.7713 229.147 65.5015 230.972C66.2317 232.796 63.2066 234.777 62.1113 236.601C68.6308 245.776 76.0369 237.123 83.5473 238.217H83.5994ZM104.305 470.601C105.088 463.928 105.14 459.967 104.305 454.858C98.203 453.555 92.831 453.92 86.0508 454.493C85.2163 463.511 78.0188 465.336 70.6648 469.923C82.3999 472.06 92.9354 470.601 104.357 470.549L104.305 470.601ZM144.935 469.923C137.528 465.701 130.957 463.355 129.497 454.545C123.759 455.067 116.823 452.095 112.285 455.379C108.686 457.986 110.981 466.43 111.711 470.757C123.446 470.757 133.565 471.8 144.935 469.923Z" fill="#393A3A"/>
<path d="M207.938 213.926C204.756 214.604 201.888 216.272 198.915 219.087C176.644 240.459 145.925 249.998 115.466 243.951C109.885 242.857 104.93 240.511 99.8191 241.814C98.3587 238.113 94.0298 235.299 95.2293 228.887L174.402 220.807C171.377 214.812 167.1 211.007 167.1 206.42C167.1 190.729 154.27 185.882 146.029 177.072C136.224 166.543 125.219 157.525 108.164 165.552L117.969 173.476C115.361 176.551 112.076 175.978 109.989 173.371C100.549 161.434 92.1 176.916 87.0409 175.508C85.737 175.143 84.5374 173.84 83.0249 172.537C71.7593 162.893 60.963 182.076 56.8949 191.199C41.0917 197.819 27.6355 207.671 18.1953 222.058C16.6828 224.351 19.2906 226.332 20.6467 226.332C24.0889 226.332 39.3184 204.335 54.6 199.383C57.6772 210.382 55.4345 222.475 50.6362 232.119C29.5653 238.947 44.7426 247.288 9.90259 251.77C0.827493 223.048 10.9457 191.147 34.5201 170.348C52.2009 154.762 70.8726 141.417 90.9525 128.594C93.0909 136.361 90.4832 142.512 95.4901 146.473C101.592 145.17 104.513 137.821 109.833 137.612C115.779 137.403 119.221 144.962 125.949 146.473C130.069 141.052 126.366 135.006 129.078 129.376C159.955 149.393 184.676 173.423 204.6 202.771C207.156 206.524 207.156 210.851 208.042 213.926H207.938Z" fill="#FDFDFD"/>
<path d="M99.8196 241.814C104.931 240.511 109.833 242.857 115.466 243.952C145.977 249.998 176.645 240.511 198.915 219.087C201.836 216.272 204.705 214.604 207.938 213.926C215.918 226.802 213.31 243.274 205.226 257.296C198.655 268.712 185.616 276.218 170.96 279.19C140.136 285.445 111.033 270.172 99.8716 241.814H99.8196Z" fill="#AEE2E6"/>
<path d="M95.0212 222.11C92.4134 222.319 91.1617 224.717 89.91 225.134C90.9009 224.769 62.2153 212.884 63.0498 210.173C59.5032 199.122 64.7709 182.65 75.4107 177.177C79.3745 177.177 83.9121 183.901 88.6061 182.389C92.6221 181.138 96.951 180.878 99.9761 174.727C104.357 175.874 104.201 180.096 107.643 182.129C120.317 181.034 132.73 180.148 144.465 185.204C156.2 190.261 163.084 203.814 161.207 216.272L95.0212 222.006V222.11ZM95.0212 208.662C96.4294 203.032 91.9441 196.829 86.9893 196.255C82.556 195.734 76.5059 204.491 79.6874 208.609C84.6422 206.264 88.5017 205.586 95.0212 208.662Z" fill="#FDFDFD"/>
<path d="M86.7294 33.5661C79.219 30.9076 84.3303 52.0191 70.8741 59.5775C65.8672 59.8382 61.9555 52.1233 61.0167 48.1095C59.5042 41.6457 62.9464 35.8597 66.6495 30.6992C68.2663 28.4056 77.3936 2.65451 85.9993 8.02361C87.4075 8.90977 88.607 11.2036 90.6933 14.4877C101.802 6.92921 115.206 2.39401 126.263 11.0993C125.377 15.2694 122.821 17.7715 123.551 21.5247C129.914 22.2545 134.869 24.4959 136.017 28.6661C137.686 34.9735 134.504 40.4468 128.245 42.6362C108.896 49.3606 93.8748 36.0682 86.7816 33.5661H86.7294Z" fill="#FDFDFD"/>
<path d="M108.686 107.222C97.8379 95.1805 90.2231 85.3285 81.4088 74.069C71.7079 61.6627 82.7128 63.3829 88.8671 42.1672C101.645 49.6213 113.745 52.6446 127.984 50.1946C131.583 70.9413 122.664 89.9157 108.686 107.274V107.222ZM120.213 65.1551C111.659 63.5913 103.262 61.6627 97.0555 65.6244C92.8309 68.335 96.9512 76.5709 98.9331 79.6985C101.228 83.2953 108.373 86.7881 112.807 82.5658C116.979 78.6041 117.031 71.5147 120.213 65.1551Z" fill="#FDFDFD"/>
<path d="M9.85034 251.718C44.6904 247.236 29.5131 238.895 50.584 232.067C52.6702 239.365 58.0944 244.056 65.9699 247.392C59.7634 258.078 52.3573 269.286 40.9352 272.83C24.454 277.991 14.075 264.959 9.90255 251.718H9.85034Z" fill="#AEE2E6"/>
<path d="M88.1373 238.739C94.8654 243.326 96.43 252.135 102.011 260.424C89.8584 261.623 79.8967 261.153 67.7444 259.016C73.5337 238.322 83.704 250.572 83.5997 238.27C85.1122 238.478 86.6248 238.843 88.1373 238.739Z" fill="#AEE2E6"/>
<path d="M104.305 470.601C92.8827 470.601 82.3473 472.061 70.6123 469.976C77.9663 465.388 85.1637 463.616 85.9982 454.546C92.7785 453.92 98.1506 453.555 104.253 454.911C105.139 460.019 105.087 463.981 104.253 470.653L104.305 470.601Z" fill="#AEE2E6"/>
<path d="M144.934 469.923C133.564 471.8 123.498 470.757 111.711 470.757C110.981 466.431 108.686 457.986 112.285 455.38C116.822 452.096 123.759 455.067 129.496 454.546C130.957 463.355 137.58 465.753 144.934 469.923Z" fill="#AEE2E6"/>
<path d="M88.1363 238.739C86.5717 238.843 85.1113 238.478 83.5987 238.27C76.0362 237.175 68.6823 245.828 62.1628 236.654C63.2581 234.829 66.2831 232.901 65.5529 231.024C64.8227 229.147 62.7887 228.209 60.0244 225.186C62.9451 219.087 88.2928 229.252 87.9277 228.626C89.5967 231.597 88.71 235.663 88.1885 238.739H88.1363Z" fill="#FDFDFD"/>
<path d="M209.868 144.389C199.385 161.643 214.458 178.063 204.757 188.436C204.027 189.218 200.324 187.759 201.158 186.09C204.601 179.001 206.061 172.225 202.671 164.614C195.578 148.559 204.705 137.039 208.199 138.915C210.286 140.01 211.746 141.417 209.92 144.336L209.868 144.389Z" fill="#AEE2E6"/>
<path d="M105.296 124.789C103.418 123.277 101.332 122.6 102.323 120.931C103.523 118.951 108.634 115.771 114.319 119.785C116.875 121.609 115.727 123.903 113.015 125.779C110.929 127.187 108.843 127.604 105.296 124.789Z" fill="#AEE2E6"/>
<path d="M95.0209 208.662C88.5014 205.586 84.6419 206.264 79.6871 208.61C76.4535 204.492 82.5557 195.734 86.989 196.255C91.9438 196.829 96.4291 203.032 95.0209 208.662Z" fill="#393A3A"/>
<path d="M120.213 65.1549C117.032 71.5144 116.98 78.656 112.807 82.5656C108.374 86.7879 101.228 83.2951 98.9336 79.6983C96.8995 76.5185 92.7792 68.2827 97.056 65.6242C103.263 61.6625 111.712 63.5911 120.213 65.1549Z" fill="#393A3A"/>
</svg>
