<svg width="236" height="313" viewBox="0 0 236 313" fill="none" xmlns="http://www.w3.org/2000/svg">
<path d="M65.9439 273.491C63.6161 277.666 59.3752 279.259 59.1201 284.645C59.0882 285.442 58.0678 286.685 57.6852 287.258C57.0475 288.214 54.911 288.438 53.4442 287.768L32.3989 278.175C30.6132 277.347 32.7177 273.554 33.5149 272.216C35.747 268.519 42.0287 270.846 44.3246 268.774C45.6 267.627 44.8348 265.81 45.5044 263.962C58.6737 227.216 73.246 192 89.8272 155.701C82.0787 143.463 75.2868 131.831 68.5268 118.955L33.196 51.8062C30.3262 46.3246 31.2509 40.3013 33.77 35.4571C26.3722 34.8516 30.5494 23.9841 22.6415 20.5103C18.5599 18.7256 17.5077 27.8084 16.0409 29.0195C14.9248 29.9437 12.8841 28.7008 11.6086 30.8361C11.5767 31.7284 13.9682 31.824 14.8291 32.2064C15.4988 32.4933 16.1046 33.6406 15.2118 35.0747C11.1303 36.0945 6.34724 35.999 2.64835 36.0308C1.94684 34.4055 2.74399 32.9076 3.57305 32.5889C4.88042 32.1108 6.31535 31.5371 8.32422 31.6646C11.1622 32.0789 10.7157 29.4656 8.06912 29.5931C6.44289 29.9118 2.23383 29.9437 3.25421 27.7447C4.94422 24.1753 10.0461 27.1073 13.2986 25.227C10.7476 21.1477 -0.157704 24.749 0.00173033 20.9884C0.193052 16.9091 12.2782 19.3949 17.2526 21.2752L18.8788 12.1924C27.9985 16.3036 33.4511 24.7171 33.3554 35.3934C37.4689 32.0471 41.8055 30.5811 46.748 32.1427C68.0804 38.8672 85.3631 54.1645 101.785 69.7169C98.8831 49.0335 89.4127 52.2842 99.9354 34.0548C102.008 30.4854 103.092 27.1392 105.452 25.5138C109.788 22.4543 114.285 25.7688 117.952 24.7171C123.085 23.2511 127.868 18.9168 133.289 22.9961C137.466 26.1512 138.263 31.6647 135.999 37.1144C133.736 42.5641 134.947 48.3961 135.362 53.8777C136.223 65.9881 129.335 76.537 132.077 77.9073C133.289 78.5129 134.246 77.8755 135.362 76.7919C150.954 61.8132 179.43 33.545 198.498 25.227C201.75 23.7929 205.609 24.4622 208.319 26.1513C216.355 31.1866 206.82 54.4195 203.472 62.2913C189.187 95.5631 172.191 127.178 153.697 157.741C167.982 194.263 180.514 230.084 191.451 267.181C191.802 268.423 191.291 269.316 191.834 269.953C193.46 271.897 198.243 269.698 201.463 272.503C202.771 273.65 205.162 277.602 203.249 279.004C199.805 281.49 181.343 289.872 179.047 289.011C179.493 289.17 168.524 270.909 170.852 275.722C156.248 245.414 140.974 216.157 121.268 186.232C100.031 213.958 82.844 243.087 65.912 273.523L65.9439 273.491ZM109.852 42.9784C117.059 45.3367 128.155 46.8983 131.057 42.4684C131.886 41.2255 130.132 39.1221 130.547 37.4968C131.312 34.5967 134.341 32.7163 133.162 29.5931C132.428 27.6491 131.025 25.8007 128.41 25.3226C123.277 24.3665 121.746 30.0712 118.653 30.3581C114.731 30.7405 115.496 25.3864 107.238 29.5294C104.527 30.8998 105.484 35.0109 103.762 36.8594C99.1382 41.831 97.0975 47.7906 102.008 54.292C106.153 50.882 107.142 47.0895 109.788 42.9784H109.852ZM198.944 30.103C190.781 32.9076 183.989 38.8991 176.687 44.6674C158.002 59.4549 141.771 76.1545 124.999 93.1091C129.622 94.5113 132.492 92.4398 136.829 92.4398C139.124 97.9214 137.084 105.188 131.95 108.598L121.65 99.0688L109.597 108.789C105.197 104.423 103.985 98.0489 105.962 92.6949L117.346 93.2048C105.005 78.0349 91.5172 64.4584 76.0202 52.6029C69.3877 47.5357 43.3361 29.4975 37.3413 38.0704C35.6194 40.5244 34.4396 45.1136 36.1934 48.5236L73.8519 120.581C74.7766 122.365 76.9449 123.608 77.6464 125.489C80.9946 134.412 86.1921 143.24 92.5057 150.984C98.8193 158.728 107.684 160.736 116.804 161.278C131.121 162.139 146.809 162.521 155.259 147.67C158.639 141.742 231.15 15.9848 198.944 30.103ZM130.515 48.1412C123.946 50.4677 118.111 48.3962 111.989 48.3643C109.214 50.882 107.333 56.2042 103.252 58.5944C106.664 70.1949 111.797 80.68 120.534 89.954C126.816 78.8953 134.628 58.7219 130.483 48.1412H130.515ZM131.376 80.2339C131.376 79.6602 130.898 79.1821 130.324 79.1821C129.75 79.1821 129.271 79.6602 129.271 80.2339C129.271 80.8075 129.75 81.2855 130.324 81.2855C130.898 81.2855 131.376 80.8075 131.376 80.2339ZM127.039 98.6544C129.431 100.439 130.611 102.543 131.95 102.128C133.002 101.778 134.66 98.4314 133.449 97.3797C132.046 96.2005 127.613 97.1247 127.039 98.6544ZM54.5922 283.657C56.9199 279.96 57.9722 277.283 58.8331 274.001C55.8676 272.057 53.221 270.463 49.6178 269.666C43.9738 276.2 38.8719 272.025 37.437 274.287C37.15 274.734 36.7674 276.04 37.6602 276.423L54.5922 283.657ZM182.012 284.804C188.517 280.757 194.48 280.534 199.933 275.69C194.225 274.16 189.697 274.861 186.094 271.164L177.325 275.116C178.409 278.59 178.856 281.841 182.012 284.804Z" fill="#393A3A"/>
<path d="M163.837 312.594L65.6255 312.69C63.8398 312.69 62.7556 312.084 62.7556 310.746C62.7556 309.567 63.6485 308.834 65.5298 308.834H163.423C164.858 308.834 165.4 309.121 165.75 309.694C166.324 310.682 166.42 312.594 163.837 312.594Z" fill="#393A3A"/>
<path d="M221.042 9.32401C223.433 8.20857 226.176 7.37998 227.77 4.25676C222.668 3.36441 221.807 7.25249 219.798 9.2284C217.789 11.2043 215.143 13.5945 211.922 13.3714C212.177 17.9606 214.951 20.2553 214.537 24.1752C214.377 25.5775 211.922 24.9719 211.284 24.3664C209.881 22.996 203.791 7.41184 210.934 4.25676C213.357 3.20507 218.491 6.83812 220.946 1.99395C221.584 0.751042 225.155 -0.587408 226.303 0.273069C227.611 1.22916 227.77 3.20503 228.886 3.52373C231.756 4.2886 234.849 1.3566 235.837 3.42812C237.304 6.4876 228.344 8.46354 228.886 10.5351C231.82 11.1087 234.052 8.97344 235.933 11.8098C232.617 14.7737 229.651 15.921 225.538 17.6101L221.074 9.2921L221.042 9.32401Z" fill="#393A3A"/>
<path d="M221.042 9.32399C220.723 9.48334 220.149 9.16465 219.798 9.22839C221.807 7.25247 222.668 3.33253 227.77 4.25675C226.176 7.41183 223.433 8.24043 221.042 9.32399Z" fill="#AEE2E6"/>
<path d="M198.945 30.103C190.59 65.1276 171.235 97.5709 145.247 123.066C129.272 138.746 104.209 137.599 84.8533 127.974C82.2705 126.7 80.1978 125.106 77.5831 125.489C76.8816 123.608 74.7133 122.365 73.7885 120.581L36.1301 48.5236C34.3444 45.1454 35.5561 40.5244 37.278 38.0704C43.3046 29.4975 69.3243 47.5038 75.9568 52.6029C91.4539 64.4584 104.942 78.0349 117.282 93.2048L105.899 92.6948C103.954 98.0808 105.133 104.423 109.534 108.789L121.587 99.0687L131.887 108.598C137.02 105.156 139.061 97.8895 136.765 92.4398C132.461 92.4398 129.559 94.4794 124.935 93.1091C141.676 76.1545 157.906 59.4549 176.624 44.6674C183.926 38.899 190.718 32.9075 198.881 30.103H198.945Z" fill="#FDFDFD"/>
<path d="M77.647 125.457C80.2617 125.074 82.3343 126.668 84.9172 127.942C104.241 137.599 129.304 138.714 145.311 123.035C171.299 97.5707 190.622 65.0957 199.009 30.071C231.214 15.9528 158.704 141.71 155.324 147.638C146.842 162.457 131.153 162.075 116.868 161.246C107.748 160.704 98.5648 158.314 92.57 150.952C86.2564 143.208 81.0588 134.38 77.7107 125.457H77.647Z" fill="#AEE2E6"/>
<path d="M130.514 48.1411C134.66 58.7218 126.847 78.8952 120.566 89.9539C111.829 80.7118 106.695 70.2267 103.283 58.5943C107.333 56.2041 109.246 50.8819 112.02 48.3642C118.142 48.3642 123.978 50.4676 130.546 48.1411H130.514ZM122.224 65.1913C121.427 67.9002 119.641 69.3981 117.6 68.0277C115.241 66.4661 116.357 61.6857 114.89 60.8252C113.869 60.2197 112.562 60.6658 112.243 61.367C111.956 62.0362 111.988 63.3747 111.988 64.2671C111.988 68.92 114.635 72.3301 118.78 72.6169C122.925 72.9037 125.636 69.8761 126.273 65.3506C126.465 64.0759 126.465 62.9924 125.699 62.4187C124.775 61.7176 123.659 61.7494 123.117 62.6736C122.83 63.1835 122.575 63.9802 122.224 65.2231V65.1913Z" fill="#FDFDFD"/>
<path d="M109.852 42.9782C107.206 47.0575 106.217 50.8818 102.072 54.2919C97.1612 47.7905 99.202 41.8628 103.826 36.8593C105.548 35.0108 104.591 30.8997 107.301 29.5293C115.56 25.3863 114.795 30.7404 118.717 30.3579C121.81 30.0711 123.34 24.3664 128.474 25.3225C131.089 25.8005 132.492 27.649 133.225 29.593C134.405 32.7162 131.344 34.5966 130.611 37.4967C130.196 39.122 131.95 41.2254 131.121 42.4683C128.219 46.8663 117.122 45.3047 109.916 42.9782H109.852Z" fill="#FDFDFD"/>
<path d="M54.5924 283.657L37.6605 276.423C36.7677 276.04 37.1503 274.733 37.4373 274.287C38.8722 271.993 43.9741 276.2 49.6181 269.666C53.2213 270.463 55.8998 272.056 58.8334 274C57.9725 277.283 56.9202 279.992 54.5924 283.657Z" fill="#FDFDFD"/>
<path d="M182.012 284.804C178.855 281.872 178.409 278.622 177.324 275.116L186.093 271.164C189.697 274.861 194.225 274.16 199.932 275.689C194.48 280.502 188.517 280.757 182.012 284.804Z" fill="#FDFDFD"/>
<path d="M127.039 98.6543C127.613 97.1245 132.045 96.2003 133.448 97.3795C134.66 98.4312 133.002 101.777 131.95 102.128C130.642 102.542 129.462 100.439 127.039 98.6543Z" fill="#AEE2E6"/>
<path d="M130.323 81.2853C130.904 81.2853 131.376 80.8145 131.376 80.2336C131.376 79.6528 130.904 79.1819 130.323 79.1819C129.742 79.1819 129.271 79.6528 129.271 80.2336C129.271 80.8145 129.742 81.2853 130.323 81.2853Z" fill="#FDFDFD"/>
<path d="M122.08 70.4737C122.431 71.7166 122.686 72.5134 122.973 73.0234C123.515 73.9476 124.631 73.9475 125.556 73.2783C126.289 72.7046 126.289 71.6529 126.13 70.3462C125.492 65.7889 122.59 62.7932 118.636 63.08C114.491 63.3668 111.813 66.7451 111.845 71.4299C111.845 72.3222 111.845 73.6607 112.1 74.3299C112.387 75.0311 113.726 75.4773 114.746 74.8717C116.245 73.9794 115.097 69.2308 117.457 67.6692C119.497 66.2988 121.315 67.7967 122.08 70.5056V70.4737Z" fill="#393A3A"/>
</svg>
