<svg width="227" height="532" viewBox="0 0 227 532" fill="none" xmlns="http://www.w3.org/2000/svg">
<path d="M180.587 531.321L42.9774 531.467C41.5082 531.467 39.5004 531.125 38.7169 530.733C37.8354 530.244 37.5905 528.237 38.423 527.16C41.6552 523.147 59.7256 527.992 67.1693 523.832C71.4788 521.434 73.2418 515.707 79.4122 515.267C81.0772 515.169 81.9587 512.477 82.4484 511.645C83.232 510.372 78.1389 509.785 77.992 508.708C70.6952 452.617 63.8392 397.114 60.6071 338.821C48.2173 336.765 35.4358 335.444 26.1802 326.242C9.92162 310.139 7.76687 285.275 17.2673 264.669C26.474 244.749 41.7531 229.674 60.5092 218.661L86.7579 203.293C88.9127 202.02 89.5983 198.692 92.4386 198.202C96.6991 197.468 100.715 197.321 103.849 193.063C93.9567 182.981 86.3172 171.723 81.2241 159.536C73.8784 141.916 80.0978 126.841 85.2888 110.983C87.3946 104.473 81.469 96.2504 91.9978 91.7964C102.527 87.3425 113.007 90.5729 124.172 93.2159C132.938 95.2716 140.431 94.2927 146.356 102.613C156.004 116.171 152.184 129.386 147.581 144.021C141.41 163.55 133.673 181.561 115.945 193.797C150.47 211.858 183.624 227.569 201.939 260.901C213.986 282.828 211.341 310.726 192.389 327.025C183.281 334.856 171.283 335.541 159.774 338.038L157.718 373.523L142.879 508.61C140.333 509.687 138.913 510.274 138.619 511.302C138.227 512.673 139.892 515.609 141.655 515.658C148.07 515.854 150.078 522.706 154.681 524.517C162.076 527.405 179.167 523.245 182.35 527.111C182.938 527.797 183.575 531.272 180.685 531.272L180.587 531.321ZM145.72 128.603C148.462 117.297 143.516 104.914 132.546 99.8235C129.167 99.9213 125.935 103.837 122.556 102.026C114.084 94.782 97.7765 91.1602 90.9695 102.124C87.7373 107.312 97.7765 112.989 102.674 112.108C104.094 116.22 101.253 118.325 100.813 121.702C118.638 130.12 128.139 113.185 131.665 114.605C134.995 115.926 136.513 128.799 145.72 128.652V128.603ZM140.235 133.644C134.064 130.61 132.791 127.281 129.265 123.366C121.381 129.337 112.517 130.61 103.212 129.239C96.3074 128.211 93.5649 123.366 92.5365 115.877C72.9969 139.664 89.1086 169.912 109.579 190.029C128.678 177.597 141.459 156.991 140.235 133.595V133.644ZM116.386 202.314C111.44 197.37 106.444 198.349 102.723 202.461C106.787 207.404 112.321 207.013 116.386 202.314ZM42.7325 328.2C65.945 339.8 98.0214 324.774 119.177 311.216C129.51 304.608 138.913 297.903 150.274 293.204C148.952 289.778 146.993 289.142 144.446 287.527C113.79 267.998 69.373 283.464 36.856 301.525C34.8971 292.911 40.5288 285.911 44.2996 278.863C43.8099 278.619 38.0802 275.486 39.5004 273.92C51.2046 263.446 67.659 266.627 78.4817 276.465C107.277 269.956 134.064 269.27 157.914 289.68C159.285 290.855 159.138 292.96 159.579 294.379C160.313 296.679 156.493 298.099 153.947 298.931C140.578 303.336 130.147 311.607 118.051 319.83C141.214 334.024 185.631 338.821 198.511 308.867C205.073 293.596 205.122 273.333 193.124 260.754C186.366 240.687 149.637 217.291 130.147 209.068C129.069 215.04 130.783 219.836 127.845 223.605C119.912 222.724 115.406 214.941 108.599 214.746C102.723 214.599 97.9234 221.353 91.3123 222.039C88.4719 218.319 89.7452 214.158 88.276 209.802L64.28 223.752C34.7012 240.931 4.09398 278.423 23.7805 313.272C27.8941 320.515 34.3094 326.095 42.7815 328.2H42.7325ZM70.5973 279.01C64.1331 273.039 56.7873 272.011 49.6375 275.486C55.8079 280.576 63.3985 283.905 70.5973 279.01ZM144.838 524.273C136.954 519.917 131.812 517.959 130.245 509.932C125.103 510.372 118.002 507.876 114.427 510.911C111.342 513.896 112.958 521.238 114.182 525.398C125.152 524.958 134.309 527.209 144.789 524.273H144.838ZM106.738 525.496C107.62 518.693 107.963 515.609 106.444 510.323C77.5023 507.631 99.2946 514.826 75.5924 524.175C86.513 527.16 95.8176 524.909 106.689 525.496H106.738Z" fill="#393A3A"/>
<path d="M217.463 262.614C226.229 233.687 211.342 207.404 208.306 176.324C207.571 168.542 210.167 160.906 206.836 153.516C197.091 158.802 197.189 170.842 192.145 173.975C191.019 174.709 188.031 172.653 188.031 170.5C187.884 133.595 169.569 105.746 171.577 81.6648C173.34 60.8632 161.244 89.1045 154.143 87.2935C150.274 86.3146 151.058 78.6792 149.687 75.5957L129.461 31.7902C127.16 26.7978 128.237 19.8965 121.577 17.7429C112.86 29.6365 108.11 42.2643 104.143 54.941C103.898 55.822 101.009 56.1157 100.323 55.7241C99.6378 55.3325 98.9522 53.9621 99.0992 52.2491C101.009 33.7969 110.558 19.4071 122.067 5.5557C124.417 2.7169 132.057 -3.15653 133.624 2.1295C133.869 11.478 131.861 20.9243 136.318 30.2728L153.653 66.8835C161.342 83.1821 164.133 59.1503 181.175 58.6608C182.645 67.9114 177.698 75.6446 178.237 84.3078C179.217 100.068 183.722 114.898 188.864 129.631C191.508 137.119 190.333 145.146 194.741 152.341C201.988 147.104 208.844 138.49 217.806 139.713C224.172 140.594 218.002 149.649 217.023 153.32C207.424 190.812 235.975 225.758 224.025 265.452C223.34 267.704 221.283 268.291 220.108 268.389C218.051 268.536 216.582 265.257 217.365 262.614H217.463Z" fill="#C28455"/>
<path d="M30.6856 164.528C26.2292 191.35 14.525 207.453 8.89327 230.848C3.80023 252.09 11.7336 261.684 7.86487 264.033C0.421205 268.585 -0.166446 243.721 0.0294405 242.057C1.69447 225.856 7.52207 210.781 14.1332 196C28.4329 163.99 19.3242 150.971 24.2214 147.691C31.2733 142.895 43.2223 169.814 46.2096 177.156C55.4652 163.158 54.6327 147.3 51.7923 132.029C47.0421 106.627 46.0137 80.3433 56.4936 56.7029C58.5994 51.9553 64.5739 41.0405 68.3447 37.957C69.3241 37.1739 72.8501 39.2295 72.5562 41.2852C69.3731 66.8344 90.7247 77.1618 81.1263 80.0985C74.9558 82.0074 68.9324 63.1147 65.2595 57.2902C56.2487 70.3585 56.0528 84.1609 54.8775 98.6975C52.8207 123.806 71.283 155.278 48.903 186.309C47.238 188.609 44.4466 189.735 42.096 189.196C36.1215 187.875 39.6964 168.444 30.6856 164.577V164.528Z" fill="#C28455"/>
<path d="M193.124 260.803C190.626 261.537 189.353 264.621 188.716 267.655C185.141 284.982 171.674 287.184 157.864 289.68C134.064 269.27 107.228 269.956 78.4323 276.465C67.6096 266.578 51.1552 263.397 39.451 273.92C38.0308 275.486 43.8094 278.619 44.2502 278.864C40.4304 285.912 34.8477 292.911 36.8065 301.525C69.3236 283.464 113.741 267.998 144.397 287.527C144.838 288.114 143.564 290.317 141.948 290.268C106.738 289.142 79.8525 316.257 44.8378 324.774C43.2708 325.165 42.879 327.662 42.6831 328.2C34.162 326.144 27.7468 320.564 23.6821 313.272C4.04457 278.472 34.6028 240.98 64.1816 223.752L88.1776 209.803C89.6468 214.159 88.3735 218.319 91.2139 222.039C97.825 221.402 102.624 214.599 108.501 214.746C115.308 214.942 119.813 222.724 127.747 223.605C130.685 219.836 128.971 215.04 130.048 209.068C149.539 217.291 186.268 240.638 193.026 260.754L193.124 260.803Z" fill="#FDFDFD"/>
<path d="M157.864 289.68C171.625 287.184 185.141 284.981 188.716 267.655C189.353 264.62 190.626 261.537 193.123 260.803C205.121 273.43 205.072 293.645 198.51 308.916C185.631 338.87 141.214 334.073 118.05 319.879C130.146 311.607 140.577 303.385 153.946 298.98C156.493 298.148 160.312 296.728 159.578 294.428C159.137 293.008 159.284 290.904 157.913 289.729L157.864 289.68Z" fill="#C28455"/>
<path d="M140.235 133.644C141.46 157.04 128.678 177.596 109.579 190.077C89.1091 169.961 72.9975 139.713 92.5371 115.926C93.5655 123.414 96.3079 128.26 103.213 129.288C112.517 130.658 121.381 129.386 129.266 123.414C132.792 127.33 134.065 130.658 140.235 133.693V133.644ZM106.837 144.607C101.793 138.049 93.4186 136.238 89.5498 141.72C95.1816 145.489 101.646 147.985 106.837 144.607ZM133.037 142.062C128.678 136.678 116.974 138.489 116.484 144.069C119.178 147.74 129.706 146.272 133.037 142.062ZM117.121 164.822C116.386 158.997 105.221 160.27 105.661 165.115C105.955 168.444 117.611 168.493 117.121 164.822Z" fill="#FDFDFD"/>
<path d="M42.7334 328.199C42.9293 327.661 43.3211 325.165 44.8882 324.773C79.9028 316.208 106.788 289.142 141.999 290.267C143.615 290.316 144.839 288.163 144.447 287.526C146.994 289.142 148.953 289.778 150.275 293.204C138.962 297.903 129.511 304.608 119.178 311.216C98.0712 324.773 65.9459 339.799 42.7334 328.199Z" fill="#C28455"/>
<path d="M145.719 128.603C136.513 128.75 134.945 115.877 131.664 114.556C128.089 113.137 118.589 130.072 100.812 121.653C101.253 118.276 104.093 116.22 102.673 112.06C97.7761 112.941 87.7369 107.312 90.9691 102.075C97.7761 91.0625 114.084 94.7334 122.556 101.977C125.935 103.788 129.167 99.8236 132.546 99.7747C143.515 104.914 148.462 117.248 145.719 128.554V128.603Z" fill="#FDFDFD"/>
<path d="M144.838 524.272C134.358 527.16 125.2 524.958 114.231 525.398C113.006 521.238 111.39 513.847 114.475 510.91C118.001 507.876 125.102 510.372 130.293 509.931C131.86 517.958 137.002 519.965 144.887 524.272H144.838Z" fill="#FDFDFD"/>
<path d="M106.738 525.496C95.8176 524.909 86.513 527.16 75.6414 524.174C99.2946 514.826 77.5512 507.631 106.493 510.323C107.963 515.609 107.669 518.693 106.787 525.496H106.738Z" fill="#FDFDFD"/>
<path d="M70.5975 279.01C63.3498 283.856 55.7591 280.577 49.6377 275.486C56.7875 272.06 64.1333 273.039 70.5975 279.01Z" fill="#C28455"/>
<path d="M116.386 202.314C112.321 207.012 106.739 207.404 102.723 202.461C106.445 198.349 111.44 197.37 116.386 202.314Z" fill="#C28455"/>
<path d="M133.036 142.063C129.705 146.272 119.177 147.789 116.483 144.069C116.924 138.49 128.628 136.63 133.036 142.063Z" fill="#393A3A"/>
<path d="M106.837 144.608C101.597 147.985 95.1815 145.489 89.5498 141.72C93.4675 136.239 101.793 138.05 106.837 144.608Z" fill="#393A3A"/>
<path d="M117.121 164.822C117.611 168.493 105.906 168.444 105.661 165.116C105.27 160.27 116.386 158.998 117.121 164.822Z" fill="#393A3A"/>
</svg>
