<svg width="297" height="420" viewBox="0 0 297 420" fill="none" xmlns="http://www.w3.org/2000/svg">
<path d="M96.1336 420H275.109C277.264 420 277.86 418.35 277.86 417.571C277.998 409.78 239.25 417.571 229.757 412.988C211.415 395.435 216.184 411.934 216.734 395.572L219.348 320.547C234.297 320.914 247.962 320.639 262.132 319.035C263.416 315.093 262.315 311.198 264.608 307.623C275.522 304.69 285.839 302.765 296.661 298.09C294.46 276.687 287.398 256.43 280.245 235.76L261.031 238.098C258.738 231.91 256.904 226.136 255.345 219.719C269.514 207.666 277.539 190.938 274.788 172.422C269.377 140.203 216.047 112.063 187.891 96.3429C212.103 77.0482 220.907 45.5165 207.517 18.3389C200.822 4.72711 185.277 -4.20989 171.566 2.0231C167.715 3.8105 166.247 8.02685 160.79 7.38522C156.296 6.83525 151.803 10.1811 150.84 13.5725C148.042 23.2428 160.102 28.4218 161.432 31.0799C164.23 36.7171 150.748 50.6038 175.143 91.4849C177.069 94.7389 178.216 97.122 176.473 100.284C175.189 102.576 172.805 108.213 168.723 105.188C166.293 103.355 162.304 98.4971 159.919 102.439C155.517 109.542 160.423 120.587 156.984 128.012C144.328 146.298 117.686 147.032 99.8938 135.482C92.4193 130.624 81.9641 123.658 73.7101 130.258C60.7329 140.569 80.6802 171.735 89.1635 182.642C100.398 197.079 115.439 205.649 132.864 210.507C134.79 274.991 143.136 336.634 161.341 396.993C161.983 399.147 164.275 400.109 163.45 401.805C160.24 408.359 156.113 402.355 150.014 413.309C142.035 416.333 93.2905 411.567 92.4193 416.059C91.9149 418.533 92.7861 419.954 96.1794 419.954L96.1336 420ZM157.305 15.8641C158.222 9.53944 166.614 14.8098 169.778 13.9849C172.942 13.1599 172.575 6.8353 175.556 6.28533C178.903 5.68953 182.251 5.00225 186.103 6.46883C200.41 11.9685 209.122 27.8259 206.554 42.4918C200.41 39.5586 201.648 33.8755 198.209 28.055C190.367 34.9754 181.15 38.3212 173.171 34.4714C180.417 25.3511 155.609 27.5968 157.305 15.8641ZM182.526 92.0348C171.566 75.2149 164.688 58.9449 166.385 39.2377C175.923 42.8125 184.773 42.3084 194.907 38.1378C197.292 43.5 203.39 47.2122 207.105 51.1995C206.279 67.4694 196.695 83.602 182.48 92.0348H182.526ZM266.075 193.504C265.25 201.479 259.426 208.033 253.052 213.257C249.338 209.728 249.705 205.924 247.366 202.304C242.918 195.429 238.333 188.921 232.05 181.222C235.948 178.014 245.165 182.184 245.578 177.051C245.99 171.918 231.087 175.814 226.548 174.255C218.11 171.322 180.554 190.617 185.644 186.538L163.771 204.137C122.317 214.953 85.8619 182.23 75.4526 143.411C74.1228 138.416 75.9112 136.857 79.9924 134.887C84.3945 132.778 88.3381 134.657 92.9695 138.049C118.878 156.977 153.637 150.973 169.228 122.696C170.282 120.817 172.713 119.167 174.226 119.167C178.491 119.121 183.672 130.487 186.653 127.737C192.385 122.421 189.267 115.042 190.963 105.371C217.285 118.846 284.418 155.052 266.121 193.504H266.075ZM240.304 205.741C243.423 207.849 247.595 213.074 246.495 217.336C245.578 221.003 240.029 221.919 237.37 223.019C235.489 217.703 234.068 213.395 233.518 207.529C229.299 199.416 225.951 191.167 222.237 181.038C230.904 187.592 236.957 195.475 240.258 205.741H240.304ZM226.318 210.782C229.528 214.586 230.583 219.307 231.546 225.861C214.533 231.544 195.274 232.598 179.729 222.744C174.914 219.72 168.586 214.999 171.383 209.362C168.494 199.325 206.05 184.063 215.45 182.872C221.045 191.396 224.346 200.425 226.318 210.828V210.782ZM241.359 242.727C240.671 238.006 237.874 233.194 239.616 229.665C241.634 226.594 246.357 225.586 250.163 224.073C251.172 228.886 255.391 234.019 253.786 239.61C252.777 243.185 244.523 242.818 241.359 242.772V242.727ZM223.521 244.789C222.879 239.198 223.429 235.531 225.08 234.11C226.548 232.827 230.583 231.085 232.646 232.827C234.893 234.752 235.765 240.847 234.114 243.872C232.692 246.485 223.796 247.585 223.475 244.789H223.521ZM279.052 297.219C274.421 299.74 269.377 301.757 263.186 300.657C262.82 289.245 261.306 279.07 261.581 267.2C261.673 262.571 259.655 257.347 259.151 251.984L246.953 248.684L276.026 242.039C282.354 258.355 287.215 274.533 289.92 292.224C290.562 296.303 282.492 296.99 279.007 297.174L279.052 297.219ZM169.09 306.202L174.685 253.405C202.106 252.534 227.556 253.405 254.199 256.247L257.638 313.672C227.74 316.881 198.163 314.727 169.09 306.202ZM193.073 414.225C192.889 408.817 191.147 403.272 193.531 400.201C197.337 397.451 203.345 399.193 208.389 399.33C209.489 407.259 214.992 409.413 221.779 413.446C211.736 415.325 203.161 413.95 193.073 414.179V414.225ZM157.214 413.629C164.55 408.726 170.007 407.534 170.558 399.422C176.198 398.505 181.013 398.597 186.286 399.422C187.203 404.738 187.341 408.863 186.194 414.179C176.244 413.996 167.118 415.509 157.214 413.629Z" fill="#393A3A"/>
<path d="M57.202 109.267C60.2743 108.717 64.3555 107.755 67.5654 109.817C70.9129 112.017 69.3538 116.967 68.5284 119.35C66.098 126.408 56.881 122.1 56.6058 125.766C56.4683 127.508 57.0185 128.883 59.1279 129.295C63.7135 130.258 67.2444 129.524 70.4543 126.683C80.3133 117.838 71.9675 106.013 72.8388 98.7263C76.3238 98.0388 79.121 98.1303 81.0011 96.5721C87.4668 91.1182 80.5426 66.3237 74.994 61.5573C60.2743 54.9118 42.2071 57.1119 26.5703 59.1743C13.5472 60.9158 23.6355 83.9686 26.7537 90.8432C29.5968 97.2137 36.4293 98.6345 43.9038 99.7344C44.2706 106.38 36.9795 107.847 39.2265 115.638C39.5475 116.738 42.1612 117.013 43.0784 116.463C44.133 115.821 44.8667 113.346 45.8297 111.055C49.4065 112.521 52.4788 116.692 57.6605 115.5C59.1279 115.134 57.9815 111.101 57.3854 109.267H57.202ZM70.225 65.5904C76.0946 71.7776 77.9288 81.8605 77.5619 90.935C77.4702 93.5015 72.3344 93.1348 70.6836 92.9057C66.2356 92.3557 66.0521 85.2976 61.2373 82.7311C58.8986 81.4478 56.4224 83.0062 56.239 84.2895L55.4594 91.3932C55.0926 94.8763 47.8932 92.2641 44.9126 92.7224C40.6939 93.3641 36.2459 93.3638 33.1277 90.1557C29.7802 86.6267 29.7343 81.7687 28.8631 77.3231C28.3128 74.4357 22.856 70.1277 26.7537 66.1862C31.0183 61.8323 38.0342 64.4905 42.895 64.1697C52.0203 63.528 61.3748 62.5656 70.1792 65.5904H70.225Z" fill="#393A3A"/>
<path d="M12.2175 42.4001L16.2528 44.7834C17.1699 45.3334 19.5544 44.3709 19.5544 42.4919C19.5544 38.7337 16.7114 35.7088 13.318 35.5255C10.6584 35.388 9.74129 36.9463 9.14517 37.9088C7.81535 40.1545 9.64957 40.9794 12.2175 42.446V42.4001Z" fill="#AEE2E6"/>
<path d="M98.9767 59.4951C97.2341 61.42 98.3805 63.7572 99.0684 64.4446C98.7015 64.1238 111.037 64.8113 109.569 59.6325C108.515 55.966 101.315 57.02 98.9767 59.5407V59.4951Z" fill="#AEE2E6"/>
<path d="M70.0415 42.1251C73.9392 42.675 75.6818 34.0131 73.1138 32.2257C70.0415 30.1175 67.7028 33.6007 67.7028 35.434C67.7028 37.2672 66.0979 41.5751 70.0415 42.1251Z" fill="#AEE2E6"/>
<path d="M0.0194798 102.026C0.202903 104.546 4.78849 103.538 6.16416 102.622C7.76911 101.522 10.2912 100.192 9.5575 96.5718C5.88903 94.3719 -0.393223 96.9843 0.0194798 102.026Z" fill="#AEE2E6"/>
<path d="M79.9457 134.887C86.5948 143.365 91.8224 154.777 101.315 161.331C124.518 177.464 152.581 183.238 180.232 183.192C183.305 183.192 185.368 184.384 185.643 186.538C180.553 190.617 218.109 171.322 226.547 174.255C231.087 175.814 245.99 171.735 245.577 177.051C245.164 182.367 235.947 178.014 232.05 181.222C238.286 188.876 242.871 195.429 247.365 202.304C253.923 199.921 258.967 194.238 266.075 193.504C284.371 155.098 217.284 118.846 190.917 105.372C189.22 115.042 192.338 122.421 186.606 127.737C183.626 130.487 178.444 119.075 174.179 119.167C172.666 119.167 170.236 120.817 169.181 122.696C153.59 150.973 118.831 156.977 92.9229 138.049C88.2915 134.657 84.3479 132.778 79.9457 134.887Z" fill="#FDFDFD"/>
<path d="M169.09 306.202C198.208 314.772 227.785 316.881 257.637 313.672L254.198 256.247C227.556 253.359 202.06 252.534 174.684 253.405L169.09 306.202ZM230.399 303.315L231.5 263.717C231.545 261.425 236.544 261.471 236.544 263.625L236.223 304.231C236.223 307.21 234.526 308.081 232.371 307.531C231.5 307.302 230.307 306.248 230.399 303.269V303.315Z" fill="#FDFDFD"/>
<path d="M185.644 186.538C185.415 184.384 183.351 183.192 180.233 183.192C152.582 183.284 124.518 177.463 101.315 161.331C91.8691 154.777 86.5957 143.365 79.9466 134.886C75.8654 136.857 74.0771 138.416 75.4069 143.411C85.862 182.23 122.272 214.953 163.725 204.137L185.598 186.538H185.644Z" fill="#AEE2E6"/>
<path d="M182.527 92.0349C196.696 83.602 206.28 67.5152 207.151 51.1995C203.437 47.1664 197.338 43.5 194.953 38.1378C184.819 42.3084 175.923 42.8125 166.431 39.2377C164.734 58.945 171.613 75.215 182.572 92.0349H182.527ZM191.652 58.9449C193.073 59.5407 193.073 61.099 192.661 63.253C191.789 68.2944 187.433 70.1278 183.031 69.9903C179.775 69.8986 175.969 68.0196 175.694 63.4824C195.091 64.4448 184.773 56.0576 191.652 58.9449Z" fill="#FDFDFD"/>
<path d="M171.383 209.316C177.344 208.536 183.214 211.424 189.725 211.974C202.473 213.074 214.396 210.416 226.318 210.782C224.301 200.379 220.999 191.35 215.451 182.826C206.05 184.017 168.494 199.279 171.383 209.316Z" fill="#FDFDFD"/>
<path d="M157.306 15.8642C155.609 27.5969 180.417 25.3512 173.172 34.4715C181.151 38.3213 190.368 34.9756 198.209 28.0551C201.649 33.8756 200.411 39.5588 206.555 42.4919C209.123 27.7802 200.411 11.9229 186.104 6.46899C182.252 5.0024 178.904 5.68969 175.557 6.28549C172.576 6.83546 173.035 13.1142 169.779 13.985C166.523 14.8558 158.223 9.5396 157.306 15.8642Z" fill="#FDFDFD"/>
<path d="M261.582 267.2C265.617 262.984 280.612 293.782 279.053 297.219C282.492 296.99 290.563 296.303 289.966 292.27C287.261 274.579 282.354 258.401 276.072 242.085L247 248.73L259.197 252.03C259.656 257.392 261.719 262.617 261.628 267.246L261.582 267.2Z" fill="#FDFDFD"/>
<path d="M171.382 209.315C168.585 214.953 174.913 219.673 179.728 222.698C195.273 232.552 214.533 231.498 231.545 225.815C230.628 219.307 229.573 214.54 226.318 210.736C214.395 210.37 202.473 213.028 189.725 211.928C183.167 211.378 177.344 208.491 171.382 209.27V209.315Z" fill="#AEE2E6"/>
<path d="M261.582 267.2C261.306 279.07 262.82 289.245 263.186 300.657C269.377 301.711 274.421 299.74 279.053 297.22C280.566 293.782 265.571 262.984 261.582 267.2Z" fill="#AEE2E6"/>
<path d="M157.213 413.63C167.118 415.554 176.289 413.996 186.194 414.179C187.34 408.863 187.203 404.738 186.286 399.422C181.012 398.597 176.197 398.505 170.557 399.422C170.007 407.534 164.504 408.726 157.213 413.63Z" fill="#FDFDFD"/>
<path d="M193.073 414.225C203.161 413.996 211.69 415.371 221.779 413.492C214.992 409.459 209.489 407.305 208.389 399.376C203.345 399.239 197.337 397.451 193.531 400.247C191.193 403.318 192.889 408.863 193.073 414.271V414.225Z" fill="#FDFDFD"/>
<path d="M247.367 202.258C249.751 205.924 249.384 209.682 253.053 213.211C259.427 207.987 265.25 201.433 266.076 193.458C258.968 194.192 253.924 199.874 247.367 202.258Z" fill="#AEE2E6"/>
<path d="M233.517 207.528C235.718 206.749 237.965 206.153 240.258 205.741C236.956 195.475 230.858 187.592 222.237 181.038C225.951 191.167 229.299 199.416 233.517 207.528Z" fill="#FDFDFD"/>
<path d="M233.519 207.528C234.069 213.395 235.491 217.703 237.371 223.019C240.03 221.873 245.579 220.957 246.496 217.336C247.597 213.074 243.424 207.849 240.306 205.741C238.013 206.153 235.766 206.749 233.565 207.528H233.519Z" fill="#AEE2E6"/>
<path d="M42.9408 64.1697C44.8209 67.4695 23.1311 81.3105 40.3729 76.04C42.1154 75.49 41.7486 81.4481 39.9602 80.9439C35.5122 79.7523 32.6233 77.369 28.909 77.369C29.7802 81.8146 29.8261 86.6726 33.1735 90.2016C36.2459 93.4097 40.7398 93.4097 44.9585 92.7681C44.4082 86.2143 59.9075 78.1023 62.3379 72.7859C61.008 73.7484 59.9992 72.1444 59.4489 71.2278C58.7152 70.0362 59.6324 68.2029 61.329 67.9737C64.4931 67.5613 67.1986 67.6528 69.7665 67.607C71.2339 67.2404 71.509 66.5987 70.2709 65.5904C61.4666 62.5656 52.112 63.5281 42.9867 64.1697H42.9408Z" fill="#FDFDFD"/>
<path d="M69.7207 67.6069C69.5373 69.3943 69.3997 71.2277 68.1616 71.7777C66.0064 72.6943 64.1263 72.6942 62.2921 72.7858C59.9076 78.1022 44.3624 86.2142 44.9127 92.768C47.8933 92.3097 55.0927 94.9221 55.4595 91.439L56.2391 84.3353C56.3767 83.0062 58.8529 81.4936 61.2374 82.7769C66.0522 85.3434 66.2356 92.4015 70.6837 92.9515C72.3345 93.1806 77.4703 93.5473 77.562 90.9808C77.883 81.9063 76.0488 71.7776 70.2251 65.6362C71.4632 66.6445 71.1881 67.2862 69.7207 67.6528V67.6069Z" fill="#AEE2E6"/>
<path d="M28.908 77.3232C32.5764 77.3232 35.5112 79.7065 39.9592 80.8981C41.7476 81.4022 42.1144 75.4442 40.3719 75.9942C23.1301 81.2647 44.8199 67.4695 42.9398 64.1239C38.0791 64.4447 31.0632 61.7865 26.7986 66.1404C22.9467 70.0819 28.3577 74.3899 28.908 77.2773V77.3232Z" fill="#AEE2E6"/>
<path d="M230.4 303.315C230.309 306.294 231.501 307.348 232.372 307.577C234.573 308.127 236.224 307.256 236.224 304.277L236.545 263.671C236.545 261.517 231.547 261.471 231.501 263.763L230.4 303.361V303.315Z" fill="#393A3A"/>
<path d="M191.651 58.9449C184.727 56.0575 195.09 64.4448 175.693 63.4824C175.969 67.9738 179.775 69.8986 183.03 69.9903C187.433 70.1277 191.789 68.2944 192.66 63.253C193.027 61.0989 193.027 59.5407 191.651 58.9449Z" fill="#393A3A"/>
<path d="M62.3377 72.7399C64.172 72.6483 66.0062 72.6942 68.2073 71.7318C69.4454 71.2277 69.5829 69.3484 69.7664 67.561C67.1984 67.561 64.5388 67.5611 61.3289 67.9278C59.6322 68.1569 58.7151 69.9444 59.4488 71.1818C59.9991 72.0985 61.0079 73.7024 62.3377 72.7399Z" fill="#393A3A"/>
</svg>
