<svg width="158" height="432" viewBox="0 0 158 432" fill="none" xmlns="http://www.w3.org/2000/svg">
<path d="M95.0749 67.4571L103.689 65.2355C99.5207 56.9504 100.447 47.6471 100.91 39.3621C99.5671 37.8347 95.538 38.0197 94.2877 39.8711C89.1009 47.5545 96.0938 54.1733 90.3976 58.6629C84.6551 57.9224 87.3874 48.9431 85.2108 45.1014C82.4322 40.1489 83.4047 51.4425 81.3207 53.5253C80.5334 54.3122 79.422 53.9419 78.1716 53.1088C77.4306 52.5997 77.4306 50.9796 75.6245 47.8322C71.5955 53.1087 73.8647 61.4401 76.9212 66.9944C83.0342 78.1028 103.503 73.3817 94.6119 79.4913C93.5004 80.2782 92.4352 81.2039 90.3976 80.8336L78.7736 78.7045C76.1802 86.0176 75.1614 93.3306 71.7344 100.32C68.4464 107.077 63.5837 113.141 65.112 121.565C73.4016 111.937 79.3293 88.4707 89.7029 86.897C102.253 84.9993 100.91 97.1724 107.44 102.865C110.774 96.1541 112.534 84.0272 119.805 83.5181C122.676 83.333 125.269 84.2587 127.4 87.0358C151.666 119.112 162.549 159.843 155.186 199.648C151.713 218.347 137.912 230.057 119.481 232.927C117.397 293.375 100.725 352.621 81.2744 406.635C80.5797 408.579 74.9762 412.236 78.079 413.208C84.1456 415.06 88.7304 421.539 92.6668 425.011C99.7523 429.084 140.783 421.539 137.958 430.056C137.681 430.843 136.43 431.907 134.485 431.907L3.56532 432C1.2498 432 -0.417384 429.778 0.0920324 428.529C1.75921 424.178 10.5119 427.695 12.7811 424.78C23.6641 410.709 26.0723 417.466 28.4804 410.801C29.0361 409.274 27.2763 407.931 27.1837 405.756L21.9043 230.89C4.9546 222.05 0.0457021 205.711 4.63045 188.308C13.1516 156.093 32.9725 129.572 59.138 107.54C46.0321 98.9311 35.1491 89.6741 27.8784 76.5291C16.9954 56.9042 3.2411 49.3134 22.0432 21.9588C28.7582 12.1926 34.3155 2.14862 47.7919 0.20464C57.9802 -1.2302 61.7777 5.11096 67.8444 12.0075C70.4378 14.9234 79.0052 13.3035 80.3482 17.7931C85.0719 34.1318 73.0311 27.9295 78.079 37.6957C79.1441 39.7323 80.4871 36.6775 82.2932 36.909C90.0271 37.8347 93.593 32.4655 96.5105 24.8284C100.956 25.2913 108.551 21.8661 111.932 23.625C116.378 28.1609 137.912 30.7067 142.821 32.8358C156.575 38.7603 157.131 59.1258 147.313 68.1052C140.876 74.0297 134.856 66.624 129.298 67.3646C120.731 68.4754 113.043 73.5206 103.179 71.3452C101.466 70.9749 98.9187 72.9651 96.7885 71.5766C95.677 70.8823 94.5655 69.5399 94.8897 67.4571H95.0749ZM37.372 36.4461C51.3578 39.8712 79.5146 29.5495 75.4856 21.9588C72.2902 15.8954 61.6387 21.681 60.342 17.2839C59.2769 13.6274 59.9252 10.0635 57.6097 8.25837C55.4794 6.54582 52.4229 6.12924 49.9221 6.22181C36.9552 6.77723 32.8799 16.8674 27.23 25.7079C18.2458 39.8712 12.5032 44.7774 30.2402 68.1977C38.9465 59.4035 37.1404 48.7117 37.3257 36.4461H37.372ZM58.4433 42.0002C53.9975 42.0002 49.9222 41.8152 43.5313 42.8335C45.1522 54.3122 39.5486 65.328 34.5934 74.1685C38.6224 87.4524 52.2377 95.3209 63.8153 103.236C69.141 92.5901 73.4942 82.6387 73.0774 71.3914C67.9833 70.836 62.2408 71.808 59.5085 67.92C54.368 60.6532 55.7573 51.3036 58.397 43.8054C62.5186 41.9077 67.2886 41.9077 71.7344 38.0198C66.6866 36.8626 61.8239 39.3157 58.4433 42.0466V42.0002ZM107.949 45.6568C103.596 51.7202 106.189 63.6617 115.405 64.8652C117.721 65.1429 120.685 64.2172 122.167 61.3938C126.288 53.5715 124.806 43.5739 117.767 38.1123C115.266 36.1683 111.932 36.261 109.941 37.6495C107.949 39.0381 107.394 41.8615 107.949 45.7031V45.6568ZM132.679 46.0272C129.206 51.9517 131.012 63.5692 140.089 63.8469C143.516 63.9394 146.804 60.2829 147.73 56.6264C150.509 45.6568 141.71 35.4277 136.013 37.5105C133.142 38.5751 132.494 41.9077 132.633 46.0733L132.679 46.0272ZM68.3074 47.0916C66.2235 46.0733 62.9354 47.5546 62.3334 49.2208C60.9904 53.1551 61.7777 58.9869 63.2596 63.2915C63.769 64.7726 66.7329 66.0223 68.6316 64.6338C68.2149 59.5887 67.3349 53.155 68.2612 47.0916H68.3074ZM118.74 152.483C117.119 173.265 124.714 208.164 112.534 227.558C131.984 228.576 147.591 214.691 150.231 196.084C153.611 172.34 151.944 148.04 141.756 125.777C137.773 112.632 131.012 100.227 120.499 88.4707C103.735 118.926 115.868 121.842 118.74 152.483ZM9.2615 198.398C8.01112 205.619 10.5582 213.256 16.5786 219.18C36.631 238.851 67.2423 244.128 93.2225 233.899C119.249 223.716 112.58 198.768 113.182 184.096C114.34 157.158 110.126 121.842 96.7885 96.6632C95.7696 94.7193 94.5192 92.9604 92.8057 92.5438C91.0923 92.1272 88.1283 93.3307 86.8316 95.645L53.9049 155.121C53.0713 156.603 51.7283 156.973 50.4316 156.741C49.0886 156.51 48.4402 154.797 48.7181 152.668L58.397 116.52C35.0565 135.728 12.7348 168.59 9.21521 198.398H9.2615ZM50.8947 425.844C51.2652 419.549 53.4881 413.764 50.6631 411.125C48.0697 409.228 39.1781 408.672 37.0941 411.218C32.5094 417.003 27.1374 420.243 19.6351 424.872C30.8885 427.418 40.1507 425.798 50.8947 425.89V425.844ZM85.1645 425.057C78.3568 418.624 71.5029 418.716 69.8357 410.616C66.5013 410.94 60.5736 409.228 58.6286 412.005C56.0352 415.708 57.6097 421.03 57.1003 425.983C66.9181 425.566 75.9487 427.556 85.1182 425.103L85.1645 425.057Z" fill="#393A3A"/>
<path d="M95.0747 67.4574C92.2961 66.5317 89.5174 61.4866 90.4436 58.6632C96.1398 54.1735 89.1469 47.5547 94.3337 39.8714C95.5841 38.02 99.5668 37.8349 100.956 39.3623C100.493 47.6474 99.5669 56.9507 103.735 65.2358L95.1211 67.4574H95.0747Z" fill="#AEE2E6"/>
<path d="M113.228 184.142C110.681 183.818 107.949 184.975 105.448 187.012C81.3665 206.59 50.1069 210.941 20.5608 201.129C16.5318 199.786 13.0121 197.935 9.26099 198.398C12.7806 168.59 35.1022 135.728 58.4428 116.519L48.7639 152.668C48.5323 154.843 49.1344 156.51 50.4774 156.741C51.8204 156.973 53.1171 156.602 53.9507 155.121L86.8774 95.6448C88.1741 93.3305 91.1843 92.1733 92.8515 92.5436C94.5187 92.9139 95.8154 94.6728 96.8342 96.663C110.172 121.842 114.386 157.158 113.228 184.096V184.142Z" fill="#FDFDFD"/>
<path d="M113.229 184.142C112.627 198.815 119.295 223.763 93.2689 233.945C67.2424 244.128 36.6774 238.852 16.6249 219.227C10.5582 213.302 8.05746 205.665 9.30784 198.445C13.059 197.982 16.5786 199.833 20.6076 201.175C50.1538 210.988 81.4134 206.637 105.495 187.058C107.996 185.022 110.774 183.818 113.275 184.189L113.229 184.142Z" fill="#AEE2E6"/>
<path d="M141.756 125.777C151.944 148.04 153.658 172.293 150.231 196.084C147.591 214.691 131.985 228.576 112.534 227.558C124.714 208.164 117.073 173.312 118.74 152.483C130.734 150.215 134.81 123.092 141.756 125.777Z" fill="#AEE2E6"/>
<path d="M37.372 36.4463C37.1868 48.7119 38.9929 59.4037 30.2865 68.1979C12.5496 44.7776 18.2921 39.8714 27.2763 25.7081C32.9262 16.8676 37.0016 6.77747 49.9685 6.22205C52.4693 6.12948 55.5257 6.54606 57.656 8.25861C59.9252 10.11 59.3232 13.6276 60.3884 17.2842C61.6388 21.6813 72.2901 15.8494 75.5319 21.959C79.5609 29.5498 51.4041 39.8714 37.4183 36.4463H37.372Z" fill="#FDFDFD"/>
<path d="M58.4438 41.9998C58.3048 42.5552 58.5827 43.2495 58.4438 43.7587C55.8041 51.2569 54.4148 60.6066 59.5552 67.8734C62.2876 71.7613 68.0301 70.7894 73.1243 71.3448C73.541 82.5921 69.1879 92.5433 63.8621 103.189C52.2845 95.3204 38.6692 87.4057 34.6401 74.1218C39.5954 65.2813 45.199 54.2655 43.5781 42.7867C49.969 41.7684 54.0443 41.9999 58.4901 41.9536L58.4438 41.9998Z" fill="#FDFDFD"/>
<path d="M141.756 125.777C134.81 123.092 130.734 150.215 118.74 152.483C115.869 121.842 103.782 118.926 120.5 88.4707C131.012 100.227 137.774 112.632 141.756 125.777Z" fill="#FDFDFD"/>
<path d="M50.8949 425.844C40.1508 425.751 30.8887 427.371 19.6353 424.826C27.1376 420.197 32.5095 417.004 37.0943 411.172C39.1783 408.626 48.0699 409.181 50.6633 411.079C53.4419 413.717 51.219 419.549 50.8949 425.798V425.844Z" fill="#FDFDFD"/>
<path d="M85.1644 425.057C75.9949 427.51 66.9644 425.566 57.1465 425.937C57.6097 420.984 56.0814 415.661 58.6748 411.958C60.6198 409.181 66.5476 410.894 69.8819 410.57C71.5491 418.67 78.3568 418.577 85.2108 425.011L85.1644 425.057Z" fill="#FDFDFD"/>
<path d="M115.405 64.8189C119.388 57.9224 114.248 49.5909 107.949 45.6104C107.394 41.815 107.949 38.9454 109.941 37.5568C111.932 36.1682 115.266 36.0757 117.767 38.0197C124.853 43.4813 126.288 53.479 122.167 61.3012C120.685 64.1246 117.721 65.0966 115.405 64.7726V64.8189Z" fill="#FDFDFD"/>
<path d="M140.089 63.8466C143.655 57.5981 138.653 49.128 132.679 46.0269C132.54 41.9075 133.188 38.5287 136.059 37.4641C141.756 35.3813 150.555 45.6103 147.776 56.5799C146.85 60.2365 143.562 63.893 140.135 63.8004L140.089 63.8466Z" fill="#FDFDFD"/>
<path d="M115.406 64.8188C106.19 63.6617 103.596 51.72 107.95 45.6104C114.248 49.5446 119.388 57.8761 115.406 64.8188Z" fill="#AEE2E6"/>
<path d="M140.089 63.8466C131.012 63.5689 129.206 51.9514 132.679 46.0269C138.653 49.128 143.654 57.5981 140.089 63.8466Z" fill="#AEE2E6"/>
<path d="M68.3073 47.0915C67.3811 53.1548 68.261 59.5885 68.6778 64.6336C66.7791 66.0222 63.8152 64.8187 63.3058 63.2913C61.8239 58.9868 60.9903 53.1549 62.3796 49.2207C62.9816 47.5544 66.2697 46.0732 68.3536 47.0915H68.3073Z" fill="#AEE2E6"/>
<path d="M58.3969 43.759C58.5821 43.2498 58.3042 42.5555 58.3969 42.0001C61.7775 39.3156 66.6401 36.8162 71.688 37.9733C67.2422 41.8613 62.4722 41.8613 58.3506 43.759H58.3969Z" fill="#AEE2E6"/>
</svg>
