<svg width="758" height="692" viewBox="0 0 758 692" fill="none" xmlns="http://www.w3.org/2000/svg">
<path d="M20.8897 536.732C17.56 539.917 15.2768 544.053 10.0444 546.573C11.4714 540.44 16.2281 538.586 19.2724 535.068C19.6529 535.496 20.3188 536.399 20.842 536.684L20.8897 536.732Z" fill="#AEE2E6"/>
<path d="M13.8501 531.264V533.071C12.7561 533.451 11.3291 532.786 10.1875 533.071C11.2815 532.263 12.2328 531.074 13.8501 531.264Z" fill="#AEE2E6"/>
<path d="M6.57289 536.779C6.47776 534.64 8.80862 534.165 10.2356 533.119L9.75993 535.638C9.42696 537.397 7.90476 536.827 6.57289 536.732V536.779Z" fill="#AEE2E6"/>
<path d="M6.57202 536.779C4.90719 537.873 4.24129 538.015 4.38399 537.825C4.52669 537.635 5.33529 537.065 6.57202 536.779Z" fill="#AEE2E6"/>
<path d="M177.765 684.964C180.81 689.338 208.922 681.969 204.022 690.289C203.594 691.049 201.644 692 199.836 692H66.8872C64.1283 692 62.9391 690.811 62.844 689.1C62.6061 682.825 85.3906 688.91 93.6197 685.059C99.0423 682.539 101.944 673.935 110.506 672.936C105.987 613.272 102.657 555.178 102.182 493.802C83.6306 500.363 68.7898 509.681 53.4257 519.474C46.3858 523.943 34.4941 528.269 29.1666 522.232C26.8358 519.617 25.5992 515.053 26.8835 511.107C34.6369 487.289 46.8615 466.561 58.9435 444.788C72.833 419.829 87.9117 397.104 105.797 374.808C108.603 371.337 108.556 366.678 113.931 364.824C115.358 364.301 116.261 361.639 116.594 360.498C117.688 356.505 92.8586 343.811 79.207 325.746C61.5597 302.356 59.8472 271.264 82.9646 256.336C91.6218 250.726 98.7092 253.008 106.891 257.192C109.935 258.713 115.12 255.48 117.879 258.475C127.582 268.982 119.353 270.361 127.868 281.913C141.852 300.834 134.527 334.398 127.63 356.6C131.673 360.831 136.24 356.6 138.523 353.89C144.516 346.521 135.145 339.342 137.524 334.351C142.233 324.51 157.882 350.229 161.022 352.559C162.924 352.083 164.827 349.944 166.016 350.087C167.967 350.277 169.346 352.464 169.869 354.698L173.342 370.196C192.796 378.278 210.681 388.404 224.19 404.521C236.891 420.209 244.644 439.463 240.696 459.193C236.796 478.875 222.193 493.184 201.786 494.896C196.649 552.325 185.091 607.14 167.11 661.241C165.636 665.758 164.589 668.087 159.88 672.366C168.965 674.41 172.105 680.78 177.718 684.916L177.765 684.964ZM118.83 279.964C116.547 284.242 118.592 266.177 114.216 263.61C108.889 260.52 106.177 268.744 102.229 267.128C100.66 266.462 101.23 261.993 99.613 260.805C93.1915 256.098 84.582 261.375 79.7777 267.175C69.5509 279.583 69.2178 297.316 77.7799 311.769C83.6306 306.444 82.489 299.408 84.1538 291.849C95.6174 291.374 112.266 292.324 118.782 280.011L118.83 279.964ZM121.827 353.652C129.485 336.965 134.099 298.029 123.444 286.239C113.217 294.511 102.134 297.792 89.5289 297.792C88.4824 305.969 85.0577 312.149 81.8707 319.66C92.9062 333.685 106.177 344.382 121.779 353.652H121.827ZM34.1612 516.717C37.2055 520.901 42.628 519.142 47.5749 515.909C80.9193 493.85 117.498 476.783 158.311 470.84C155.932 460.619 149.511 451.491 148.987 441.888C148.464 432.285 148.226 383.08 158.596 378.088C162.068 376.424 166.016 376.947 169.584 379.324C191.036 393.491 205.164 413.458 217.912 434.567C218.007 436.421 217.341 438.512 217.816 440.319C215.058 440.842 212.584 439.606 211.062 436.516C200.693 415.312 185.519 397.485 166.016 384.173C163.638 382.557 159.309 383.46 158.786 386.503C153.696 416.026 149.32 453.012 171.153 475.024C180.714 484.675 193.653 491.473 208.16 487.717C221.336 484.294 232.134 472.979 234.798 457.957C237.699 441.603 232.848 422.253 220.528 412.175C219.529 409.322 217.626 406.042 214.82 403.285C191.607 380.513 165.255 374.332 166.777 375.711C164.922 374 167.586 367.534 165.35 362.875C164.637 361.401 160.831 362.209 159.071 360.593C154.41 356.267 153.268 349.991 147.18 346.806C150.842 357.836 140.283 355.031 138.618 364.729C137.429 371.432 147.037 374.332 147.18 377.042C147.608 384.981 136.002 374.618 129.247 376.947C126.441 381.939 125.489 390.401 119.876 391.97C115.072 391.399 113.693 384.696 109.887 380.322C84.5819 408.609 47.1469 473.835 34.1136 508.065C32.5915 512.106 32.1634 514.055 34.1612 516.812V516.717ZM119.924 382.604C122.54 380.18 123.825 375.378 122.635 374.095C121.684 373.096 117.118 372.668 116.024 373.952C114.216 376.091 117.403 383.793 119.924 382.604ZM134.004 686.105L135.526 670.179C110.553 666.043 120.923 677.5 107.842 680.495C105.559 681.018 103.181 683.062 103.276 686.057H133.956L134.004 686.105ZM168.87 685.487C165.303 679.354 160.165 680.257 156.979 676.549C154.79 673.982 153.982 669.703 151.366 669.941C148.75 670.179 143.803 668.753 142.328 671.082C139.617 675.266 140.711 680.733 140.187 685.962C150.319 686.057 159.404 687.151 168.87 685.487Z" fill="#393A3A"/>
<path d="M13.8502 531.264C12.2329 531.074 11.3292 532.263 10.1876 533.071C8.80819 534.069 6.42991 534.592 6.52504 536.731C3.19537 538.966 3.95643 537.302 6.52504 536.731C7.85691 536.779 9.37897 537.349 9.71193 535.638L10.1876 533.118C11.3292 532.833 12.7562 533.499 13.8502 533.118C16.0859 532.31 18.5594 532.595 19.3205 535.115C16.2762 538.633 11.5196 540.487 10.0925 546.62C15.3249 544.053 17.5605 539.964 20.9378 536.779C25.409 539.204 28.9765 542.769 33.9234 546.097C38.5374 539.631 36.5396 527.223 42.1049 528.649C47.147 529.933 40.773 557.412 30.8316 553.228C27.2641 551.754 26.7884 547.951 24.9808 543.149L8.76068 557.602C6.52505 557.602 5.47853 554.131 6.33473 553.085C7.3812 551.802 8.38014 549.995 10.0925 548.189C7.61908 544.718 1.53045 541.2 0.0558832 536.541C-0.895452 533.594 10.5681 520.663 13.9929 526.415C14.8015 527.794 16.0859 530.076 13.9929 531.264H13.8502Z" fill="#393A3A"/>
<path d="M220.576 412.128C214.963 415.313 224.334 428.387 217.865 434.567C205.117 413.459 190.989 393.492 169.537 379.324C165.969 376.995 162.021 376.424 158.549 378.088C148.179 383.08 148.417 431.905 148.94 441.888C104.941 443.267 60.3235 484.009 34.1618 516.717C32.164 514.008 32.5921 512.011 34.1142 507.97C47.1475 473.74 84.6301 408.514 109.888 380.228C113.693 384.554 115.073 391.257 119.877 391.875C125.49 390.306 126.441 381.844 129.248 376.852C135.955 374.523 147.608 384.887 147.18 376.947C147.038 374.19 137.429 371.338 138.618 364.634C140.331 354.936 150.891 357.741 147.18 346.711C153.221 349.944 154.411 356.22 159.072 360.498C160.784 362.115 164.637 361.306 165.351 362.78C167.634 367.487 164.923 373.952 166.778 375.616C165.256 374.238 191.655 380.418 214.82 403.19C217.627 405.947 219.53 409.228 220.528 412.08L220.576 412.128Z" fill="#FDFDFD"/>
<path d="M217.769 440.319C219.481 446.88 207.97 461.284 201.025 465.04C191.321 470.27 181.237 472.837 171.153 474.976C149.32 452.965 153.649 415.93 158.786 386.455C159.309 383.46 163.638 382.509 166.016 384.126C185.518 397.437 200.74 415.312 211.062 436.468C212.584 439.558 215.057 440.794 217.816 440.271L217.769 440.319Z" fill="#FDFDFD"/>
<path d="M148.94 441.888C149.463 451.491 155.932 460.619 158.263 470.84C117.45 476.783 80.8715 493.85 47.5271 515.909C42.5802 519.189 37.1576 520.948 34.1133 516.717C60.275 484.009 104.893 443.266 148.892 441.888H148.94Z" fill="#AEE2E6"/>
<path d="M121.827 353.652C106.225 344.334 92.9059 333.637 81.918 319.66C85.1049 312.149 88.5298 305.968 89.5763 297.791C102.181 297.791 113.265 294.558 123.491 286.239C134.146 297.981 129.532 336.965 121.874 353.652H121.827Z" fill="#FDFDFD"/>
<path d="M171.153 475.024C181.237 472.837 191.322 470.318 201.025 465.088C208.018 461.332 219.481 446.88 217.769 440.367C217.293 438.513 217.911 436.469 217.864 434.615C224.285 428.482 214.962 415.361 220.575 412.175C232.895 422.254 237.699 441.651 234.845 457.957C232.182 472.98 221.336 484.295 208.208 487.718C193.7 491.521 180.762 484.675 171.201 475.024H171.153Z" fill="#AEE2E6"/>
<path d="M118.83 279.964C112.314 292.277 95.6655 291.327 84.2019 291.802C82.537 299.408 83.6787 306.445 77.8279 311.722C69.2659 297.269 69.599 279.584 79.8258 267.128C84.6301 261.281 93.2396 256.051 99.6611 260.758C101.278 261.946 100.66 266.415 102.277 267.081C106.225 268.697 108.937 260.473 114.264 263.563C118.688 266.13 116.595 284.243 118.878 279.917L118.83 279.964Z" fill="#FDFDFD"/>
<path d="M134.004 686.105H103.324C103.229 683.062 105.607 681.065 107.89 680.495C120.971 677.5 110.554 666.042 135.574 670.178L134.052 686.105H134.004Z" fill="#FDFDFD"/>
<path d="M168.871 685.487C159.405 687.151 150.319 686.057 140.188 685.962C140.663 680.733 139.617 675.266 142.328 671.082C143.85 668.753 148.655 670.226 151.366 669.941C154.077 669.656 154.791 673.982 156.979 676.549C160.166 680.257 165.255 679.354 168.871 685.487Z" fill="#FDFDFD"/>
<path d="M119.924 382.604C117.403 383.793 114.216 376.091 116.024 373.952C117.118 372.621 121.684 373.049 122.636 374.094C123.825 375.378 122.493 380.18 119.924 382.604Z" fill="#AEE2E6"/>
<ellipse cx="562.923" cy="139.313" rx="188.864" ry="125.503" fill="white"/>
<ellipse cx="409.395" cy="173.43" rx="35.3358" ry="34.5235" fill="white"/>
<ellipse cx="428.078" cy="207.547" rx="35.3358" ry="34.5235" fill="white"/>
<ellipse cx="480.066" cy="230.292" rx="35.3358" ry="34.5235" fill="white"/>
<ellipse cx="527.993" cy="230.292" rx="35.3358" ry="34.5235" fill="white"/>
<ellipse cx="463.82" cy="223.794" rx="35.3358" ry="34.5235" fill="white"/>
<ellipse cx="550.738" cy="242.477" rx="35.3358" ry="34.5235" fill="white"/>
<ellipse cx="514.996" cy="230.292" rx="35.3358" ry="34.5235" fill="white"/>
<ellipse cx="585.667" cy="236.791" rx="35.3358" ry="34.5235" fill="white"/>
<ellipse cx="621.409" cy="230.292" rx="35.3358" ry="34.5235" fill="white"/>
<ellipse cx="650.653" cy="230.292" rx="35.3358" ry="34.5235" fill="white"/>
<ellipse cx="672.585" cy="207.547" rx="35.3358" ry="34.5235" fill="white"/>
<ellipse cx="686.395" cy="202.673" rx="35.3358" ry="34.5235" fill="white"/>
<ellipse cx="709.14" cy="173.43" rx="35.3358" ry="34.5235" fill="white"/>
<ellipse cx="722.137" cy="133.626" rx="35.3358" ry="34.5235" fill="white"/>
<ellipse cx="716.45" cy="154.747" rx="35.3358" ry="34.5235" fill="white"/>
<ellipse cx="716.45" cy="103.571" rx="35.3358" ry="34.5235" fill="white"/>
<ellipse cx="436.201" cy="69.4532" rx="35.3358" ry="34.5235" fill="white"/>
<ellipse cx="463.007" cy="57.2681" rx="35.3358" ry="34.5235" fill="white"/>
<ellipse cx="493.063" cy="44.2715" rx="35.3358" ry="34.5235" fill="white"/>
<ellipse cx="534.491" cy="34.5235" rx="35.3358" ry="34.5235" fill="white"/>
<ellipse cx="586.48" cy="35.336" rx="35.3358" ry="34.5235" fill="white"/>
<ellipse cx="628.72" cy="35.336" rx="35.3358" ry="34.5235" fill="white"/>
<ellipse cx="656.339" cy="44.2715" rx="35.3358" ry="34.5235" fill="white"/>
<ellipse cx="663.65" cy="64.5791" rx="35.3358" ry="34.5235" fill="white"/>
<ellipse cx="691.268" cy="79.2012" rx="35.3358" ry="34.5235" fill="white"/>
<ellipse cx="680.708" cy="58.0806" rx="35.3358" ry="34.5235" fill="white"/>
<ellipse cx="707.515" cy="189.676" rx="35.3358" ry="34.5235" fill="white"/>
<ellipse cx="392.336" cy="138.5" rx="35.3358" ry="34.5235" fill="white"/>
<ellipse cx="392.336" cy="103.571" rx="35.3358" ry="34.5235" fill="white"/>
<circle cx="172.5" cy="270.5" r="15.5" fill="white"/>
<circle cx="253.5" cy="282.5" r="23.5" fill="white"/>
<circle cx="339.5" cy="237.5" r="35.5" fill="white"/>
</svg>
