<svg width="901" height="447" viewBox="0 0 901 447" fill="none" xmlns="http://www.w3.org/2000/svg">
<path d="M760.554 444.335L877.733 444.942C879.95 444.942 880.951 443.87 881.166 443.013C882.381 437.259 868.043 442.119 862.822 439.582C857.136 429.253 840.259 431.898 851.379 427.502L855.098 291.803C866.29 295.556 875.695 298.022 885.778 292.089C892.93 287.908 899.152 279.224 900.082 268.573C903.264 232.442 861.392 212.714 833.858 195.345C850.736 187.983 865.682 181.729 876.088 167.898C879.914 162.788 883.848 155.211 879.807 149.493C877.34 145.991 873.978 144.097 873.406 139.058C871.976 126.299 857.816 129.051 856.457 128.264C850.95 125.12 845.587 121.689 840.33 126.549C836.683 129.908 840.616 135.591 839.079 139.058C836.325 145.24 821.128 150.78 825.92 191.379L789.053 173.652L736.775 149.171C733.378 147.599 729.945 148.385 727.693 150.387C725.44 152.388 724.331 155.855 725.368 159.5C735.881 196.704 758.588 247.095 786.693 274.184C791.95 327.006 796.67 380.47 813.154 430.433C806.074 430.397 803.285 435.472 800.567 439.617C789.089 440.976 775.966 440.582 764.13 439.868C761.591 439.689 759.303 444.442 760.554 444.478V444.335ZM871.082 164.146C864.038 163.646 865.539 155.676 863.573 152.209C844.192 149.243 840.688 130.373 844.478 128.908C852.559 125.834 846.731 134.948 862.607 133.304C866.755 132.875 869.723 139.522 870.009 142.953C870.438 147.885 872.083 148.921 875.552 151.816C878.698 154.425 875.838 164.503 871.118 164.182L871.082 164.146ZM830.783 191.057C827.994 178.37 828.995 151.244 842.19 144.025C846.373 151.209 853.275 152.853 859.461 156.462C860.784 159.893 863.68 164.896 865.718 168.327C869.902 175.368 837.97 189.341 830.783 191.057ZM795.561 243.521C800.532 253.099 790.948 253.349 792.665 262.998C792.987 265.071 825.455 278.652 824.346 273.72C827.171 270.182 798.35 264.392 797.921 260.246C795.74 257.066 799.888 249.954 803.285 249.811C801.461 245.951 799.888 243.557 801.247 240.555C802.033 238.732 804.501 237.016 807.04 234.944L814.727 241.805C816.766 242.377 817.552 239.911 816.873 238.875C814.263 234.872 812.189 234.086 811.867 231.763C811.724 230.691 818.268 215.895 821.772 213.929C833.036 217.789 843.37 223.543 851.773 232.156C845.801 237.231 841.224 241.269 839.901 248.131L824.489 245.88C819.769 245.201 815.764 248.06 814.263 251.633C812.618 255.565 813.798 259.961 817.231 263.07L828.78 273.577C832.392 276.865 838.328 277.758 841.331 283.762C802.284 282.047 789.482 275.864 769.065 245.093C751.507 218.647 739.6 189.77 729.945 159.536C729.302 157.534 730.518 156.498 731.054 155.604C731.555 154.782 731.054 153.46 732.198 153.138C733.342 152.817 734.379 152.888 735.846 153.603L815.514 191.45C812.296 196.989 808.005 201.564 809.435 207.747L825.026 207.532C823.667 210.677 820.234 208.211 818.84 210.427C812.94 213.787 812.832 223.257 808.041 226.76C801.89 231.263 796.705 235.48 795.597 243.449L795.561 243.521ZM823.309 196.132C826.456 196.561 829.46 198.419 832.714 200.885C829.352 202.386 824.918 203.208 823.309 196.132ZM818.089 198.24C819.912 199.348 820.914 201.028 820.198 202.493C819.805 203.351 817.66 202.922 815.657 203.136C813.512 203.351 815.943 196.918 818.089 198.24ZM895.433 266.822C895.433 275.328 890.82 283.512 883.991 287.872C876.303 292.768 866.862 291.946 858.602 287.515C844.728 280.01 832.428 270.289 820.377 260.068C817.981 258.031 817.052 253.813 820.234 251.955C822.344 250.74 825.491 250.49 828.566 250.954L875.23 258.245C876.732 258.495 877.411 258.388 877.912 257.745C878.698 256.744 878.555 254.6 876.946 254.278L856.958 250.526C856.886 246.344 867.149 244.307 864.073 241.555C863.394 240.948 861.713 241.091 860.819 240.054C860.14 239.232 860.712 238.053 860.676 237.445C860.569 236.373 859.461 235.408 858.424 235.194C854.24 238.375 847.875 242.127 848.054 247.774C849.877 248.953 852.023 246.88 852.774 246.666C853.775 246.344 853.918 248.703 855.956 249.954C852.13 250.669 848.411 249.882 843.513 248.596C846.373 241.805 851.844 237.088 858.173 234.193C856.242 226.652 845.122 221.22 836.969 215.645C837.934 212.321 839.222 209.855 841.474 205.531C863.644 218.433 896.47 237.088 895.433 266.822ZM834.251 440.511C834.073 436.937 832.034 431.969 834.18 429.468C835.753 427.609 840.402 428.646 842.297 429.039C843.691 429.361 843.977 432.22 845.515 433.721C848.841 436.937 853.882 435.079 857.101 439.975L834.251 440.475V440.511ZM818.267 432.327C821.128 429.325 823.846 427.252 828.423 429.218C829.46 432.72 829.996 436.329 828.959 440.046C821.414 440.547 814.298 440.761 806.968 440.261C798.958 439.725 817.481 433.185 818.303 432.327H818.267Z" fill="#393A3A"/>
<path d="M695.367 150.136C686.463 147.277 679.169 140.773 670.444 135.627C675.736 125.227 681.958 117.078 689.932 109.287C691.004 105.535 694.866 103.533 697.119 99.9596C699.121 96.7789 702.232 94.5989 705.88 97.0291C714.533 102.783 722.793 107.25 733.091 111.896C727.942 115.935 724.259 121.224 718.61 124.155C716.679 125.155 713.246 122.439 711.708 124.726C708.311 129.801 713.103 141.023 716.929 139.629C720.755 138.235 715.677 133.983 715.677 130.123C718.681 130.766 723.473 134.626 724.045 138.378C725.296 146.277 716.857 148.921 709.563 151.173C713.961 157.284 720.683 152.781 724.224 149.279C727.513 145.991 729.087 143.167 729.158 138.879C729.194 135.09 724.903 132.017 722.793 128.443C723.008 123.511 747.967 111.217 739.85 108.894C721.148 103.498 705.486 89.6313 700.516 90.0959C698.585 90.2746 664.579 128.443 665.259 138.235L701.803 160.501C704.735 152.96 713.961 142.453 710.457 140.523C706.309 138.271 704.235 149.672 698.907 152.531C697.155 153.46 697.083 150.815 695.295 150.244L695.367 150.136Z" fill="#393A3A"/>
<path d="M695.367 150.136C695.117 146.312 694.044 142.453 691.72 138.7C687.786 125.513 691.183 118.687 689.968 109.287C681.958 117.043 675.772 125.227 670.48 135.627C679.169 140.773 686.499 147.313 695.403 150.136H695.367Z" fill="#AEE2E6"/>
<path d="M755.119 109.216C754.189 112.933 764.702 112.968 764.774 109.037C764.81 106.535 756.085 105.463 755.119 109.216Z" fill="#AEE2E6"/>
<path d="M645.735 108.251C644.162 109.966 647.13 111.825 648.345 111.61C649.919 111.36 654.603 111.968 654.031 109.073C653.495 106.428 647.63 106.178 645.735 108.215V108.251Z" fill="#AEE2E6"/>
<path d="M678.311 80.4108C679.455 77.4087 675.558 72.2982 673.09 73.9779C671.159 75.3002 672.84 78.4094 673.519 79.5888C674.199 80.7682 677.202 83.1984 678.275 80.375L678.311 80.4108Z" fill="#AEE2E6"/>
<path d="M669.157 167.291C672.59 167.827 675.057 161.537 672.411 160.215C668.656 158.356 665.724 166.719 669.157 167.291Z" fill="#AEE2E6"/>
<path d="M734.808 80.8037C735.201 83.9844 737.99 82.4834 739.135 81.8759C740.851 80.9824 743.318 78.9096 741.352 76.944C739.385 74.9783 734.415 77.5158 734.808 80.8037Z" fill="#AEE2E6"/>
<path d="M730.982 155.676C732.448 155.926 734.272 156.355 735.523 158.535C752.401 188.662 772.068 218.754 795.561 243.485C796.669 235.515 801.854 231.298 808.005 226.795C812.796 223.293 812.904 213.822 818.804 210.463C820.198 208.247 823.631 210.713 824.99 207.568L809.399 207.782C807.969 201.564 812.296 197.025 815.478 191.486L735.809 153.639C734.343 152.924 733.378 152.817 732.162 153.174C730.946 153.531 731.519 154.854 731.018 155.64L730.982 155.676Z" fill="#FDFDFD"/>
<path d="M730.982 155.676C730.446 156.534 729.23 157.57 729.874 159.607C739.528 189.842 751.436 218.718 768.993 245.165C789.447 275.935 802.212 282.118 841.26 283.834C838.256 277.865 832.32 276.936 828.709 273.648L824.311 273.72C825.419 278.616 792.987 265.071 792.629 262.998C790.913 253.385 800.46 253.134 795.525 243.521C772.032 218.79 752.366 188.662 735.488 158.571C734.272 156.391 732.448 155.962 730.947 155.712L730.982 155.676Z" fill="#AEE2E6"/>
<path d="M858.173 234.157L858.423 235.158C859.46 235.373 860.604 236.302 860.676 237.41C860.747 238.017 860.139 239.197 860.819 240.019C861.713 241.055 863.393 240.912 864.073 241.52C867.112 244.271 856.85 246.309 856.957 250.49L876.946 254.242C878.555 254.528 878.662 256.673 877.911 257.709C877.41 258.352 876.731 258.46 875.229 258.209L828.565 250.919C825.49 250.454 822.343 250.704 820.233 251.919C819.554 253.528 821.592 253.385 823.058 253.063C849.984 266.858 866.611 267.037 895.432 266.822C896.469 237.088 863.608 218.433 841.474 205.531C839.221 209.855 837.934 212.321 836.968 215.645C845.121 221.22 856.242 226.652 858.173 234.193V234.157Z" fill="#FDFDFD"/>
<path d="M895.433 266.822C866.612 267.037 849.985 266.822 823.059 253.063C821.593 253.384 819.555 253.563 820.234 251.919C817.088 253.742 817.981 257.959 820.377 260.032C832.428 270.289 844.728 280.01 858.602 287.479C866.863 291.946 876.303 292.732 883.991 287.836C890.82 283.476 895.433 275.292 895.433 266.786V266.822Z" fill="#AEE2E6"/>
<path d="M824.346 273.72L828.744 273.648L817.195 263.141C813.762 260.032 812.582 255.636 814.227 251.705C815.729 248.131 819.698 245.272 824.454 245.951L839.865 248.203C841.188 241.341 845.765 237.302 851.737 232.228C843.334 223.579 833 217.861 821.736 214.001C818.267 215.931 811.688 230.727 811.831 231.834C812.153 234.157 814.227 234.944 816.837 238.946C817.516 239.983 816.73 242.449 814.692 241.877L807.004 235.015C804.465 237.088 801.998 238.803 801.211 240.626C799.888 243.664 801.425 246.058 803.249 249.882C799.852 250.025 795.704 257.137 797.885 260.318C798.279 264.464 827.135 270.253 824.311 273.791L824.346 273.72Z" fill="#FDFDFD"/>
<path d="M830.783 191.057C837.935 189.341 869.903 175.368 865.719 168.327C863.681 164.896 860.784 159.893 859.461 156.462C853.275 152.853 846.338 151.209 842.19 144.025C828.995 151.244 827.994 178.37 830.783 191.057ZM848.841 170.936C848.054 178.477 841.511 179.942 836.862 178.334C833.394 177.119 829.067 168.971 833.68 166.826C837.863 164.968 844.514 169.793 848.841 170.936Z" fill="#FDFDFD"/>
<path d="M871.082 164.146C875.802 164.467 878.663 154.389 875.516 151.78C872.048 148.885 870.439 147.849 869.974 142.917C869.652 139.486 866.72 132.839 862.572 133.268C846.695 134.912 852.524 125.798 844.443 128.872C840.616 130.337 844.157 149.207 863.537 152.173C865.504 155.64 864.038 163.61 871.046 164.11L871.082 164.146Z" fill="#FDFDFD"/>
<path d="M818.268 432.327C817.445 433.184 798.922 439.725 806.932 440.261C814.263 440.761 821.414 440.547 828.923 440.046C829.996 436.329 829.424 432.684 828.387 429.217C823.81 427.252 821.092 429.325 818.232 432.327H818.268Z" fill="#FDFDFD"/>
<path d="M834.251 440.511L857.1 440.011C853.882 435.079 848.84 436.973 845.515 433.756C843.977 432.255 843.691 429.361 842.297 429.075C840.401 428.646 835.753 427.645 834.18 429.504C832.034 432.005 834.072 437.009 834.251 440.547V440.511Z" fill="#FDFDFD"/>
<path d="M858.423 235.194L858.173 234.193C851.844 237.088 846.373 241.805 843.512 248.596C848.447 249.882 852.13 250.633 855.956 249.954C853.882 248.703 853.739 246.38 852.774 246.666C852.023 246.916 849.877 248.989 848.054 247.774C847.911 242.127 854.24 238.339 858.423 235.194Z" fill="#AEE2E6"/>
<path d="M823.31 196.132C824.919 203.208 829.353 202.386 832.714 200.885C829.46 198.419 826.456 196.596 823.31 196.132Z" fill="#AEE2E6"/>
<path d="M818.089 198.24C815.944 196.954 813.512 203.387 815.658 203.136C817.66 202.922 819.806 203.351 820.199 202.493C820.914 201.028 819.913 199.348 818.089 198.24Z" fill="#AEE2E6"/>
<path d="M848.84 170.936C844.513 169.793 837.862 164.968 833.679 166.826C829.066 168.971 833.393 177.119 836.861 178.334C841.51 179.942 848.053 178.477 848.84 170.936Z" fill="#393A3A"/>
<rect x="488.244" y="277.26" width="249.1" height="168.955" fill="#684163"/>
<rect x="488.244" width="249.1" height="63.8997" fill="#684163"/>
<line x1="524.734" y1="278.343" x2="524.734" y2="60.6505" stroke="#684163" stroke-width="5"/>
<path d="M544.484 43.6643V17.4825H560.285V20.295H547.654V29.1416H559.467V31.9541H547.654V40.8518H560.49V43.6643H544.484ZM566 17.4825H569.784L578.681 39.2154H578.988L587.886 17.4825H591.67V43.6643H588.704V23.7723H588.448L580.267 43.6643H577.403L569.221 23.7723H568.965V43.6643H566V17.4825ZM598.027 43.6643V17.4825H606.873C608.927 17.4825 610.606 17.8532 611.91 18.5947C613.223 19.3277 614.195 20.3206 614.825 21.5734C615.456 22.8262 615.771 24.224 615.771 25.7666C615.771 27.3092 615.456 28.7112 614.825 29.9725C614.203 31.2339 613.24 32.2396 611.936 32.9896C610.632 33.7311 608.962 34.1018 606.925 34.1018H600.584V31.2893H606.822C608.229 31.2893 609.358 31.0464 610.21 30.5606C611.062 30.0748 611.68 29.4186 612.064 28.5919C612.456 27.7566 612.652 26.8149 612.652 25.7666C612.652 24.7183 612.456 23.7808 612.064 22.9541C611.68 22.1274 611.058 21.4796 610.197 21.0109C609.337 20.5336 608.195 20.295 606.771 20.295H601.197V43.6643H598.027ZM620.878 43.6643V17.4825H624.049V40.8518H636.219V43.6643H620.878ZM662.2 30.5734C662.2 33.3348 661.701 35.7211 660.704 37.7325C659.707 39.7439 658.339 41.295 656.6 42.3859C654.862 43.4768 652.876 44.0223 650.643 44.0223C648.41 44.0223 646.424 43.4768 644.686 42.3859C642.947 41.295 641.579 39.7439 640.582 37.7325C639.585 35.7211 639.086 33.3348 639.086 30.5734C639.086 27.812 639.585 25.4257 640.582 23.4143C641.579 21.4029 642.947 19.8518 644.686 18.7609C646.424 17.67 648.41 17.1245 650.643 17.1245C652.876 17.1245 654.862 17.67 656.6 18.7609C658.339 19.8518 659.707 21.4029 660.704 23.4143C661.701 25.4257 662.2 27.812 662.2 30.5734ZM659.132 30.5734C659.132 28.3064 658.752 26.393 657.994 24.8333C657.244 23.2737 656.225 22.0933 654.938 21.2921C653.66 20.491 652.228 20.0904 650.643 20.0904C649.058 20.0904 647.622 20.491 646.335 21.2921C645.056 22.0933 644.038 23.2737 643.279 24.8333C642.529 26.393 642.154 28.3064 642.154 30.5734C642.154 32.8404 642.529 34.7538 643.279 36.3135C644.038 37.8731 645.056 39.0535 646.335 39.8546C647.622 40.6558 649.058 41.0564 650.643 41.0564C652.228 41.0564 653.66 40.6558 654.938 39.8546C656.225 39.0535 657.244 37.8731 657.994 36.3135C658.752 34.7538 659.132 32.8404 659.132 30.5734ZM670.701 17.4825V43.6643H667.531V17.4825H670.701Z" fill="white"/>
<line x1="695.855" y1="280.509" x2="695.855" y2="62.8166" stroke="#684163" stroke-width="5"/>
<circle cx="330.12" cy="226.356" r="24.0346" stroke="black" stroke-width="5"/>
<line x1="332.62" y1="252.891" x2="332.62" y2="362.82" stroke="black" stroke-width="5"/>
<line x1="332.523" y1="361.886" x2="316.818" y2="416.579" stroke="black" stroke-width="5"/>
<line y1="-2.5" x2="56.9037" y2="-2.5" transform="matrix(0.275978 0.961164 0.961164 -0.275978 334.993 361.196)" stroke="black" stroke-width="5"/>
<line x1="332.181" y1="278.553" x2="364.131" y2="325.124" stroke="black" stroke-width="5"/>
<line y1="-2.5" x2="56.4769" y2="-2.5" transform="matrix(-0.565715 0.824601 0.824601 0.565715 335.535 279.967)" stroke="black" stroke-width="5"/>
<circle cx="30.6576" cy="226.356" r="24.0346" stroke="black" stroke-width="5"/>
<line x1="33.1577" y1="252.891" x2="33.1577" y2="362.82" stroke="black" stroke-width="5"/>
<line x1="33.0606" y1="361.886" x2="17.3565" y2="416.579" stroke="black" stroke-width="5"/>
<line y1="-2.5" x2="56.9037" y2="-2.5" transform="matrix(0.275978 0.961164 0.961164 -0.275978 35.5312 361.196)" stroke="black" stroke-width="5"/>
<line x1="32.7192" y1="278.553" x2="64.669" y2="325.124" stroke="black" stroke-width="5"/>
<line y1="-2.5" x2="56.4769" y2="-2.5" transform="matrix(-0.565715 0.824601 0.824601 0.565715 36.0728 279.967)" stroke="black" stroke-width="5"/>
<circle cx="134.63" cy="226.356" r="24.0346" stroke="black" stroke-width="5"/>
<line x1="137.13" y1="252.891" x2="137.13" y2="362.82" stroke="black" stroke-width="5"/>
<line x1="137.033" y1="361.886" x2="121.328" y2="416.579" stroke="black" stroke-width="5"/>
<line y1="-2.5" x2="56.9037" y2="-2.5" transform="matrix(0.275978 0.961164 0.961164 -0.275978 139.503 361.196)" stroke="black" stroke-width="5"/>
<line x1="136.691" y1="278.553" x2="168.641" y2="325.124" stroke="black" stroke-width="5"/>
<line y1="-2.5" x2="56.4769" y2="-2.5" transform="matrix(-0.565715 0.824601 0.824601 0.565715 140.045 279.967)" stroke="black" stroke-width="5"/>
<path d="M421.636 223.983C435.165 223.983 445.671 233.794 445.671 245.357C445.671 256.92 435.165 266.732 421.636 266.732C408.107 266.731 397.602 256.92 397.602 245.357C397.602 233.794 408.107 223.983 421.636 223.983Z" stroke="black" stroke-width="5"/>
<line x1="424.136" y1="269.232" x2="424.136" y2="368.14" stroke="black" stroke-width="5"/>
<line y1="-2.5" x2="51.6557" y2="-2.5" transform="matrix(-0.304016 0.952667 -0.968212 -0.250132 421.636 366.679)" stroke="black" stroke-width="5"/>
<line y1="-2.5" x2="51.6557" y2="-2.5" transform="matrix(0.304016 0.952667 0.968212 -0.250132 426.51 366.679)" stroke="black" stroke-width="5"/>
<line y1="-2.5" x2="52.6933" y2="-2.5" transform="matrix(0.606336 0.795209 -0.850941 0.525261 421.636 293.594)" stroke="black" stroke-width="5"/>
<line y1="-2.5" x2="52.6933" y2="-2.5" transform="matrix(-0.606336 0.795209 0.850941 0.525261 427.052 293.594)" stroke="black" stroke-width="5"/>
<path d="M226.147 176.87C239.166 176.87 250.182 188.761 250.182 204.03C250.182 219.3 239.166 231.19 226.147 231.19C213.127 231.19 202.113 219.299 202.113 204.03C202.113 188.761 213.128 176.87 226.147 176.87Z" stroke="black" stroke-width="5"/>
<line x1="228.647" y1="233.69" x2="228.647" y2="356.569" stroke="black" stroke-width="5"/>
<line y1="-2.5" x2="63.1211" y2="-2.5" transform="matrix(-0.248794 0.968556 -0.952161 -0.305597 226.147 354.753)" stroke="black" stroke-width="5"/>
<line y1="-2.5" x2="63.1211" y2="-2.5" transform="matrix(0.248794 0.968556 0.952161 -0.305597 231.021 354.753)" stroke="black" stroke-width="5"/>
<line y1="-2.5" x2="61.0794" y2="-2.5" transform="matrix(0.523087 0.852279 -0.793533 0.608528 226.147 263.956)" stroke="black" stroke-width="5"/>
<line y1="-2.5" x2="61.0794" y2="-2.5" transform="matrix(-0.523087 0.852279 0.793533 0.608528 231.562 263.956)" stroke="black" stroke-width="5"/>
</svg>
