<svg width="544" height="371" viewBox="0 0 544 371" fill="none" xmlns="http://www.w3.org/2000/svg">
<path d="M154.497 279.728C231.539 280.134 294.323 218.008 294.728 140.966C295.134 63.9236 233.008 1.13992 155.966 0.734352C78.9236 0.32878 16.14 62.4549 15.7344 139.497C15.3288 216.539 77.4549 279.323 154.497 279.728Z" fill="#FFF383"/>
<path d="M154.569 266.11C224.09 266.476 280.744 210.415 281.11 140.894C281.476 71.3732 225.415 14.7188 155.894 14.3528C86.3733 13.9869 29.7189 70.0479 29.353 139.569C28.987 209.089 85.048 265.744 154.569 266.11Z" fill="#FFF5AE"/>
<path d="M154.643 251.975C216.358 252.3 266.65 202.534 266.975 140.819C267.3 79.1051 217.534 28.8123 155.82 28.4874C94.1053 28.1625 43.8126 77.9286 43.4877 139.643C43.1628 201.357 92.9288 251.65 154.643 251.975Z" fill="#FFF8C5"/>
<path d="M538.728 168.752V370.876H4.85083V170.029C14.964 173.003 24.3139 180.078 34.0331 185.006C62.9437 199.669 96.6208 195.443 127.699 187.983C158.775 180.524 190.052 170.053 221.726 173.159C243.262 175.272 263.843 183.589 284.854 189.22C316.83 197.797 350.239 200.161 382.832 195.202C415.348 190.255 446.638 178.16 478.916 171.571C498.523 167.571 519.085 165.772 538.728 168.752Z" fill="#F7F4C6"/>
<path d="M538.728 120.733V168.606C519.085 165.916 498.523 167.537 478.916 171.149C446.638 177.098 415.348 188.017 382.832 192.484C350.239 196.961 316.83 194.826 284.854 187.082C263.843 181.998 243.262 174.49 221.726 172.581C190.052 169.778 158.775 179.229 127.699 185.965C96.6208 192.701 62.9437 196.515 34.0331 183.278C24.3139 178.829 14.964 172.441 4.85083 169.757V120.733C4.85083 118.119 6.96996 116 9.58376 116H533.995C536.609 116 538.728 118.119 538.728 120.733Z" fill="#0457AA"/>
<path opacity="0.9" d="M38.3904 181.916C38.3904 184.713 36.1217 186.982 33.3247 186.982H20.045C17.248 186.982 14.9792 184.713 14.9792 181.916C14.9792 179.119 17.248 176.85 20.045 176.85H33.3247C36.1217 176.85 38.3904 179.119 38.3904 181.916Z" fill="#E3E3E8"/>
<path opacity="0.9" d="M47.0347 185.205C47.0347 188.002 44.766 190.27 41.969 190.27H28.6893C25.8923 190.27 23.6235 188.002 23.6235 185.205C23.6235 182.408 25.8923 180.139 28.6893 180.139H41.969C44.766 180.139 47.0347 182.408 47.0347 185.205Z" fill="#E3E3E8"/>
<path opacity="0.9" d="M54.3052 185.205C54.3052 188.002 52.0365 190.27 49.2395 190.27H35.9598C33.1628 190.27 30.894 188.002 30.894 185.205C30.894 182.408 33.1628 180.139 35.9598 180.139H49.2395C52.0365 180.139 54.3052 182.408 54.3052 185.205Z" fill="#E3E3E8"/>
<path opacity="0.9" d="M60.1893 192.044C60.1893 194.841 57.9205 197.11 55.1235 197.11H41.8438C39.0468 197.11 36.7781 194.841 36.7781 192.044C36.7781 189.247 39.0468 186.979 41.8438 186.979H55.1235C57.9205 186.979 60.1893 189.247 60.1893 192.044Z" fill="#E3E3E8"/>
<path opacity="0.9" d="M71.93 190.27C71.93 193.067 69.6612 195.336 66.8642 195.336H53.5846C50.7876 195.336 48.5188 193.067 48.5188 190.27C48.5188 187.473 50.7876 185.205 53.5846 185.205H66.8642C69.6612 185.205 71.93 187.473 71.93 190.27Z" fill="#E3E3E8"/>
<path opacity="0.9" d="M77.7164 195.336C77.7164 198.133 75.4476 200.402 72.6506 200.402H59.3709C56.5739 200.402 54.3052 198.133 54.3052 195.336C54.3052 192.539 56.5739 190.27 59.3709 190.27H72.6506C75.4476 190.27 77.7164 192.539 77.7164 195.336Z" fill="#E3E3E8"/>
<path opacity="0.9" d="M89.2159 190.27C89.2159 193.067 86.9471 195.336 84.1501 195.336H70.8705C68.0734 195.336 65.8047 193.067 65.8047 190.27C65.8047 187.473 68.0734 185.205 70.8705 185.205H84.1501C86.9471 185.205 89.2159 187.473 89.2159 190.27Z" fill="#E3E3E8"/>
<path opacity="0.9" d="M103.76 198.234C103.76 201.031 101.491 203.299 98.6941 203.299H85.4144C82.6174 203.299 80.3486 201.031 80.3486 198.234C80.3486 195.437 82.6174 193.168 85.4144 193.168H98.6941C101.491 193.168 103.76 195.437 103.76 198.234Z" fill="#E3E3E8"/>
<path opacity="0.9" d="M105.467 190.27C105.467 193.067 103.198 195.336 100.401 195.336H87.1212C84.3242 195.336 82.0554 193.067 82.0554 190.27C82.0554 187.473 84.3242 185.205 87.1212 185.205H100.401C103.198 185.205 105.467 187.473 105.467 190.27Z" fill="#E3E3E8"/>
<path opacity="0.9" d="M120.01 192.044C120.01 194.841 117.742 197.11 114.945 197.11H101.665C98.8679 197.11 96.5991 194.841 96.5991 192.044C96.5991 189.247 98.8679 186.979 101.665 186.979H114.945C117.742 186.979 120.01 189.247 120.01 192.044Z" fill="#E3E3E8"/>
<path opacity="0.9" d="M122.432 185.205C122.432 188.002 120.163 190.27 117.366 190.27H104.086C101.289 190.27 99.0205 188.002 99.0205 185.205C99.0205 182.408 101.289 180.139 104.086 180.139H117.366C120.163 180.139 122.432 182.408 122.432 185.205Z" fill="#E3E3E8"/>
<path opacity="0.9" d="M135.586 193.168C135.586 195.965 133.317 198.234 130.52 198.234H117.241C114.444 198.234 112.175 195.965 112.175 193.168C112.175 190.371 114.444 188.102 117.241 188.102H130.52C133.317 188.102 135.586 190.371 135.586 193.168Z" fill="#E3E3E8"/>
<path opacity="0.9" d="M139.006 185.205C139.006 188.002 136.737 190.27 133.94 190.27H120.661C117.864 190.27 115.595 188.002 115.595 185.205C115.595 182.408 117.864 180.139 120.661 180.139H133.94C136.737 180.139 139.006 182.408 139.006 185.205Z" fill="#E3E3E8"/>
<path opacity="0.9" d="M157.01 181.916C157.01 184.713 154.741 186.982 151.944 186.982H138.664C135.867 186.982 133.598 184.713 133.598 181.916C133.598 179.119 135.867 176.85 138.664 176.85H151.944C154.741 176.85 157.01 179.119 157.01 181.916Z" fill="#E3E3E8"/>
<path opacity="0.9" d="M168.714 186.982C168.714 189.779 166.445 192.048 163.648 192.048H150.368C147.571 192.048 145.302 189.779 145.302 186.982C145.302 184.185 147.571 181.916 150.368 181.916H163.648C166.445 181.916 168.714 184.185 168.714 186.982Z" fill="#E3E3E8"/>
<path opacity="0.9" d="M184.675 178.624C184.675 181.421 182.406 183.69 179.609 183.69H166.329C163.532 183.69 161.263 181.421 161.263 178.624C161.263 175.827 163.532 173.559 166.329 173.559H179.609C182.406 173.559 184.675 175.827 184.675 178.624Z" fill="#E3E3E8"/>
<path opacity="0.9" d="M201.841 171.784C201.841 174.582 199.573 176.85 196.776 176.85H183.496C180.699 176.85 178.43 174.582 178.43 171.784C178.43 168.987 180.699 166.719 183.496 166.719H196.776C199.573 166.719 201.841 168.987 201.841 171.784Z" fill="#E3E3E8"/>
<path opacity="0.9" d="M213.548 180.142C213.548 182.939 211.28 185.208 208.483 185.208H195.203C192.406 185.208 190.137 182.939 190.137 180.142C190.137 177.345 192.406 175.076 195.203 175.076H208.483C211.28 175.076 213.548 177.345 213.548 180.142Z" fill="#E3E3E8"/>
<path opacity="0.9" d="M221.857 173.558C221.857 176.355 219.588 178.624 216.791 178.624H203.512C200.715 178.624 198.446 176.355 198.446 173.558C198.446 170.761 200.715 168.493 203.512 168.493H216.791C219.588 168.493 221.857 170.761 221.857 173.558Z" fill="#E3E3E8"/>
<path opacity="0.9" d="M236.957 173.558C236.957 176.355 234.688 178.624 231.891 178.624H218.611C215.814 178.624 213.545 176.355 213.545 173.558C213.545 170.761 215.814 168.493 218.611 168.493H231.891C234.688 168.493 236.957 170.761 236.957 173.558Z" fill="#E3E3E8"/>
<path opacity="0.9" d="M242.422 178.624C242.422 181.421 240.153 183.69 237.356 183.69H224.077C221.28 183.69 219.011 181.421 219.011 178.624C219.011 175.827 221.28 173.559 224.077 173.559H237.356C240.153 173.559 242.422 175.827 242.422 178.624Z" fill="#E3E3E8"/>
<path opacity="0.9" d="M256.444 181.916C256.444 184.713 254.175 186.982 251.378 186.982H238.099C235.302 186.982 233.033 184.713 233.033 181.916C233.033 179.119 235.302 176.85 238.099 176.85H251.378C254.175 176.85 256.444 179.119 256.444 181.916Z" fill="#E3E3E8"/>
<path opacity="0.9" d="M258.001 175.076C258.001 177.873 255.733 180.142 252.936 180.142H239.656C236.859 180.142 234.59 177.873 234.59 175.076C234.59 172.279 236.859 170.01 239.656 170.01H252.936C255.733 170.01 258.001 172.279 258.001 175.076Z" fill="#E3E3E8"/>
<path opacity="0.9" d="M271.791 181.916C271.791 184.713 269.522 186.982 266.725 186.982H253.445C250.648 186.982 248.38 184.713 248.38 181.916C248.38 179.119 250.648 176.85 253.445 176.85H266.725C269.522 176.85 271.791 179.119 271.791 181.916Z" fill="#E3E3E8"/>
<path opacity="0.9" d="M286.704 186.982C286.704 189.779 284.435 192.048 281.638 192.048H268.359C265.562 192.048 263.293 189.779 263.293 186.982C263.293 184.185 265.562 181.916 268.359 181.916H281.638C284.435 181.916 286.704 184.185 286.704 186.982Z" fill="#E3E3E8"/>
<path opacity="0.9" d="M301.16 186.2C301.16 188.997 298.891 191.266 296.094 191.266H282.814C280.017 191.266 277.748 188.997 277.748 186.2C277.748 183.403 280.017 181.134 282.814 181.134H296.094C298.891 181.134 301.16 183.403 301.16 186.2Z" fill="#E3E3E8"/>
<path opacity="0.9" d="M305.315 191.266C305.315 194.063 303.046 196.331 300.249 196.331H286.97C284.173 196.331 281.904 194.063 281.904 191.266C281.904 188.469 284.173 186.2 286.97 186.2H300.249C303.046 186.2 305.315 188.469 305.315 191.266Z" fill="#E3E3E8"/>
<path opacity="0.9" d="M317.019 190.27C317.019 193.067 314.751 195.336 311.954 195.336H298.674C295.877 195.336 293.608 193.067 293.608 190.27C293.608 187.473 295.877 185.205 298.674 185.205H311.954C314.751 185.205 317.019 187.473 317.019 190.27Z" fill="#E3E3E8"/>
<path opacity="0.9" d="M324.571 194.799C324.571 197.596 322.302 199.864 319.505 199.864H306.225C303.428 199.864 301.159 197.596 301.159 194.799C301.159 192.002 303.428 189.733 306.225 189.733H319.505C322.302 189.733 324.571 192.002 324.571 194.799Z" fill="#E3E3E8"/>
<path opacity="0.9" d="M334.437 192.044C334.437 194.841 332.168 197.11 329.371 197.11H316.091C313.294 197.11 311.025 194.841 311.025 192.044C311.025 189.247 313.294 186.979 316.091 186.979H329.371C332.168 186.979 334.437 189.247 334.437 192.044Z" fill="#E3E3E8"/>
<path opacity="0.9" d="M346.144 198.234C346.144 201.031 343.875 203.299 341.078 203.299H327.798C325.001 203.299 322.732 201.031 322.732 198.234C322.732 195.437 325.001 193.168 327.798 193.168H341.078C343.875 193.168 346.144 195.437 346.144 198.234Z" fill="#E3E3E8"/>
<path opacity="0.9" d="M357.848 194.799C357.848 197.596 355.579 199.864 352.782 199.864H339.502C336.705 199.864 334.437 197.596 334.437 194.799C334.437 192.002 336.705 189.733 339.502 189.733H352.782C355.579 189.733 357.848 192.002 357.848 194.799Z" fill="#E3E3E8"/>
<path opacity="0.9" d="M376.285 192.044C376.285 194.841 374.016 197.11 371.219 197.11H357.939C355.142 197.11 352.874 194.841 352.874 192.044C352.874 189.247 355.142 186.979 357.939 186.979H371.219C374.016 186.979 376.285 189.247 376.285 192.044Z" fill="#E3E3E8"/>
<path opacity="0.9" d="M378.88 198.234C378.88 201.031 376.611 203.299 373.814 203.299H360.535C357.738 203.299 355.469 201.031 355.469 198.234C355.469 195.437 357.738 193.168 360.535 193.168H373.814C376.611 193.168 378.88 195.437 378.88 198.234Z" fill="#E3E3E8"/>
<path opacity="0.9" d="M386.969 192.044C386.969 194.841 384.7 197.11 381.903 197.11H368.623C365.826 197.11 363.558 194.841 363.558 192.044C363.558 189.247 365.826 186.979 368.623 186.979H381.903C384.7 186.979 386.969 189.247 386.969 192.044Z" fill="#E3E3E8"/>
<path opacity="0.9" d="M399.693 190.27C399.693 193.067 397.424 195.336 394.627 195.336H381.347C378.55 195.336 376.282 193.067 376.282 190.27C376.282 187.473 378.55 185.205 381.347 185.205H394.627C397.424 185.205 399.693 187.473 399.693 190.27Z" fill="#E3E3E8"/>
<path opacity="0.9" d="M408.524 193.168C408.524 195.965 406.255 198.234 403.458 198.234H390.178C387.381 198.234 385.113 195.965 385.113 193.168C385.113 190.371 387.381 188.102 390.178 188.102H403.458C406.255 188.102 408.524 190.371 408.524 193.168Z" fill="#E3E3E8"/>
<path opacity="0.9" d="M420.228 186.2C420.228 188.997 417.959 191.266 415.162 191.266H401.882C399.085 191.266 396.817 188.997 396.817 186.2C396.817 183.403 399.085 181.134 401.882 181.134H415.162C417.959 181.134 420.228 183.403 420.228 186.2Z" fill="#E3E3E8"/>
<path opacity="0.9" d="M440.762 189.733C440.762 192.53 438.494 194.799 435.697 194.799H422.417C419.62 194.799 417.351 192.53 417.351 189.733C417.351 186.936 419.62 184.667 422.417 184.667H435.697C438.494 184.667 440.762 186.936 440.762 189.733Z" fill="#E3E3E8"/>
<path opacity="0.9" d="M443.639 183.69C443.639 186.487 441.37 188.756 438.573 188.756H425.294C422.497 188.756 420.228 186.487 420.228 183.69C420.228 180.893 422.497 178.624 425.294 178.624H438.573C441.37 178.624 443.639 180.893 443.639 183.69Z" fill="#E3E3E8"/>
<path opacity="0.9" d="M464.17 181.137C464.17 183.934 461.902 186.203 459.105 186.203H445.825C443.028 186.203 440.759 183.934 440.759 181.137C440.759 178.34 443.028 176.072 445.825 176.072H459.105C461.902 176.072 464.17 178.34 464.17 181.137Z" fill="#E3E3E8"/>
<path opacity="0.9" d="M470.904 188.756C470.904 191.553 468.635 193.821 465.838 193.821H452.558C449.761 193.821 447.492 191.553 447.492 188.756C447.492 185.959 449.761 183.69 452.558 183.69H465.838C468.635 183.69 470.904 185.959 470.904 188.756Z" fill="#E3E3E8"/>
<path opacity="0.9" d="M481.829 178.624C481.829 181.421 479.56 183.69 476.763 183.69H463.483C460.686 183.69 458.418 181.421 458.418 178.624C458.418 175.827 460.686 173.559 463.483 173.559H476.763C479.56 173.559 481.829 175.827 481.829 178.624Z" fill="#E3E3E8"/>
<path opacity="0.9" d="M473.001 171.784C473.001 174.582 470.733 176.85 467.936 176.85H454.656C451.859 176.85 449.59 174.582 449.59 171.784C449.59 168.987 451.859 166.719 454.656 166.719H467.936C470.733 166.719 473.001 168.987 473.001 171.784Z" fill="#E3E3E8"/>
<path opacity="0.9" d="M485.985 170.01C485.985 172.807 483.716 175.076 480.919 175.076H467.639C464.842 175.076 462.574 172.807 462.574 170.01C462.574 167.213 464.842 164.945 467.639 164.945H480.919C483.716 164.945 485.985 167.213 485.985 170.01Z" fill="#E3E3E8"/>
<path opacity="0.9" d="M496.409 175.076C496.409 177.873 494.14 180.142 491.343 180.142H478.064C475.267 180.142 472.998 177.873 472.998 175.076C472.998 172.279 475.267 170.01 478.064 170.01H491.343C494.14 170.01 496.409 172.279 496.409 175.076Z" fill="#E3E3E8"/>
<path opacity="0.9" d="M507.057 168.606C507.057 171.403 504.788 173.672 501.991 173.672H488.712C485.914 173.672 483.646 171.403 483.646 168.606C483.646 165.809 485.914 163.54 488.712 163.54H501.991C504.788 163.54 507.057 165.809 507.057 168.606Z" fill="#E3E3E8"/>
<path opacity="0.9" d="M521.986 171.784C521.986 174.582 519.717 176.85 516.92 176.85H503.64C500.843 176.85 498.574 174.582 498.574 171.784C498.574 168.987 500.843 166.719 503.64 166.719H516.92C519.717 166.719 521.986 168.987 521.986 171.784Z" fill="#E3E3E8"/>
<path opacity="0.9" d="M529.274 166.719C529.274 169.516 527.006 171.784 524.209 171.784H510.929C508.132 171.784 505.863 169.516 505.863 166.719C505.863 163.922 508.132 161.653 510.929 161.653H524.209C527.006 161.653 529.274 163.922 529.274 166.719Z" fill="#E3E3E8"/>
<path opacity="0.9" d="M540.982 171.784C540.982 174.582 538.713 176.85 535.916 176.85H522.636C519.839 176.85 517.57 174.582 517.57 171.784C517.57 168.987 519.839 166.719 522.636 166.719H535.916C538.713 166.719 540.982 168.987 540.982 171.784Z" fill="#E3E3E8"/>
<path opacity="0.9" d="M172.971 176.85C172.971 179.647 170.702 181.916 167.905 181.916H154.625C151.828 181.916 149.559 179.647 149.559 176.85C149.559 174.053 151.828 171.784 154.625 171.784H167.905C170.702 171.784 172.971 174.053 172.971 176.85Z" fill="#E3E3E8"/>
<path opacity="0.9" d="M28.262 186.982C28.262 189.779 25.9933 192.048 23.1963 192.048H9.91659C7.11958 192.048 4.85083 189.779 4.85083 186.982C4.85083 184.185 7.11958 181.916 9.91659 181.916H23.1963C25.9933 181.916 28.262 184.185 28.262 186.982Z" fill="#E3E3E8"/>
<path opacity="0.9" d="M26.6863 173.558C26.6863 176.355 24.4176 178.624 21.6206 178.624H8.34091C5.5439 178.624 3.27515 176.355 3.27515 173.558C3.27515 170.761 5.5439 168.493 8.34091 168.493H21.6206C24.4176 168.493 26.6863 170.761 26.6863 173.558Z" fill="#E3E3E8"/>
<path d="M541.106 303.528H518.727C512.217 268.919 518.727 230.25 518.727 230.25C518.727 224.069 523.738 219.062 529.915 219.062C536.092 219.062 541.106 224.069 541.106 230.25C541.106 230.25 547.616 268.919 541.106 303.528Z" fill="#353319"/>
<path d="M520.764 297.79H498.385C491.875 263.182 498.385 224.512 498.385 224.512C498.385 218.332 503.395 213.324 509.573 213.324C515.75 213.324 520.764 218.332 520.764 224.512C520.764 224.512 527.274 263.182 520.764 297.79Z" fill="#353319"/>
<path d="M496.864 303.528H474.485C467.975 268.919 474.485 230.25 474.485 230.25C474.485 224.069 479.496 219.062 485.673 219.062C491.85 219.062 496.864 224.069 496.864 230.25C496.864 230.25 503.374 268.919 496.864 303.528Z" fill="#353319"/>
<path d="M480.357 293.5H457.978C451.468 258.891 457.978 220.222 457.978 220.222C457.978 214.042 462.988 209.034 469.166 209.034C475.343 209.034 480.357 214.042 480.357 220.222C480.357 220.222 486.867 258.891 480.357 293.5Z" fill="#353319"/>
<path d="M459.043 303.528H436.664C430.154 268.919 436.664 230.25 436.664 230.25C436.664 224.069 441.675 219.062 447.852 219.062C454.03 219.062 459.043 224.069 459.043 230.25C459.043 230.25 465.554 268.919 459.043 303.528Z" fill="#353319"/>
<path d="M435.819 297.79H413.44C406.929 263.182 413.44 224.512 413.44 224.512C413.44 218.332 418.45 213.324 424.628 213.324C430.805 213.324 435.819 218.332 435.819 224.512C435.819 224.512 442.329 263.182 435.819 297.79Z" fill="#353319"/>
<path d="M415.476 292.053H393.097C386.587 257.444 393.097 218.775 393.097 218.775C393.097 212.594 398.108 207.587 404.285 207.587C410.462 207.587 415.476 212.594 415.476 218.775C415.476 218.775 421.986 257.444 415.476 292.053Z" fill="#353319"/>
<path d="M391.576 297.79H369.197C362.687 263.182 369.197 224.512 369.197 224.512C369.197 218.332 374.208 213.324 380.385 213.324C386.562 213.324 391.576 218.332 391.576 224.512C391.576 224.512 398.086 263.182 391.576 297.79Z" fill="#353319"/>
<path d="M375.066 287.766H352.687C346.177 253.157 352.687 214.488 352.687 214.488C352.687 208.307 357.698 203.3 363.875 203.3C370.052 203.3 375.066 208.307 375.066 214.488C375.066 214.488 381.576 253.157 375.066 287.766Z" fill="#353319"/>
<path d="M353.756 297.79H331.377C324.866 263.182 331.377 224.512 331.377 224.512C331.377 218.332 336.387 213.324 342.565 213.324C348.742 213.324 353.756 218.332 353.756 224.512C353.756 224.512 360.266 263.182 353.756 297.79Z" fill="#353319"/>
<path d="M336.283 308.538H313.904C307.394 273.93 313.904 235.261 313.904 235.261C313.904 229.08 318.915 224.073 325.092 224.073C331.27 224.073 336.283 229.08 336.283 235.261C336.283 235.261 342.794 273.93 336.283 308.538Z" fill="#353319"/>
<path d="M315.941 302.804H293.562C287.052 268.196 293.562 229.526 293.562 229.526C293.562 223.346 298.573 218.338 304.75 218.338C310.927 218.338 315.941 223.346 315.941 229.526C315.941 229.526 322.451 268.196 315.941 302.804Z" fill="#353319"/>
<path d="M292.041 308.538H269.662C263.152 273.93 269.662 235.261 269.662 235.261C269.662 229.08 274.673 224.073 280.85 224.073C287.027 224.073 292.041 229.08 292.041 235.261C292.041 235.261 298.551 273.93 292.041 308.538Z" fill="#353319"/>
<path d="M275.531 298.514H253.152C246.642 263.905 253.152 225.236 253.152 225.236C253.152 219.056 258.163 214.048 264.34 214.048C270.517 214.048 275.531 219.056 275.531 225.236C275.531 225.236 282.041 263.905 275.531 298.514Z" fill="#353319"/>
<path d="M254.22 308.538H231.841C225.331 273.93 231.841 235.261 231.841 235.261C231.841 229.08 236.852 224.073 243.029 224.073C249.207 224.073 254.22 229.08 254.22 235.261C254.22 235.261 260.731 273.93 254.22 308.538Z" fill="#353319"/>
<path d="M235.6 298.514H213.221C206.711 263.905 213.221 225.236 213.221 225.236C213.221 219.056 218.232 214.048 224.409 214.048C230.586 214.048 235.6 219.056 235.6 225.236C235.6 225.236 242.11 263.905 235.6 298.514Z" fill="#353319"/>
<path d="M215.258 292.776H192.879C186.369 258.168 192.879 219.498 192.879 219.498C192.879 213.318 197.889 208.31 204.067 208.31C210.244 208.31 215.258 213.318 215.258 219.498C215.258 219.498 221.768 258.168 215.258 292.776Z" fill="#353319"/>
<path d="M191.358 298.514H168.979C162.469 263.905 168.979 225.236 168.979 225.236C168.979 219.056 173.99 214.048 180.167 214.048C186.345 214.048 191.358 219.056 191.358 225.236C191.358 225.236 197.868 263.905 191.358 298.514Z" fill="#353319"/>
<path d="M174.851 288.489H152.472C145.962 253.881 152.472 215.211 152.472 215.211C152.472 209.031 157.483 204.023 163.66 204.023C169.837 204.023 174.851 209.031 174.851 215.211C174.851 215.211 181.361 253.881 174.851 288.489Z" fill="#353319"/>
<path d="M153.541 298.514H131.161C124.651 263.905 131.161 225.236 131.161 225.236C131.161 219.056 136.172 214.048 142.349 214.048C148.527 214.048 153.541 219.056 153.541 225.236C153.541 225.236 160.051 263.905 153.541 298.514Z" fill="#353319"/>
<path d="M131.907 298.514H109.527C103.017 263.905 109.527 225.236 109.527 225.236C109.527 219.056 114.538 214.048 120.715 214.048C126.893 214.048 131.907 219.056 131.907 225.236C131.907 225.236 138.417 263.905 131.907 298.514Z" fill="#353319"/>
<path d="M111.561 292.776H89.1819C82.6719 258.168 89.1819 219.498 89.1819 219.498C89.1819 213.318 94.1927 208.31 100.37 208.31C106.547 208.31 111.561 213.318 111.561 219.498C111.561 219.498 118.071 258.168 111.561 292.776Z" fill="#353319"/>
<path d="M87.6612 298.514H65.282C58.772 263.905 65.282 225.236 65.282 225.236C65.282 219.056 70.2928 214.048 76.4701 214.048C82.6473 214.048 87.6612 219.056 87.6612 225.236C87.6612 225.236 94.1712 263.905 87.6612 298.514Z" fill="#353319"/>
<path d="M71.1541 288.489H48.775C42.2649 253.881 48.775 215.211 48.775 215.211C48.775 209.031 53.7858 204.023 59.963 204.023C66.1402 204.023 71.1541 209.031 71.1541 215.211C71.1541 215.211 77.6641 253.881 71.1541 288.489Z" fill="#353319"/>
<path d="M49.8438 298.514H27.4647C20.9546 263.905 27.4647 225.236 27.4647 225.236C27.4647 219.056 32.4754 214.048 38.6527 214.048C44.8299 214.048 49.8438 219.056 49.8438 225.236C49.8438 225.236 56.3538 263.905 49.8438 298.514Z" fill="#353319"/>
<path d="M31.208 293.5H8.82891C2.31884 258.891 8.82891 220.222 8.82891 220.222C8.82891 214.042 13.8397 209.034 20.0169 209.034C26.1942 209.034 31.208 214.042 31.208 220.222C31.208 220.222 37.7181 258.891 31.208 293.5Z" fill="#353319"/>
<path d="M2.89336 333.15H25.2725C31.7825 298.541 25.2725 259.872 25.2725 259.872C25.2725 253.692 20.2617 248.684 14.0844 248.684C7.90721 248.684 2.89336 253.692 2.89336 259.872C2.89336 259.872 -3.6167 298.541 2.89336 333.15Z" fill="#23220D"/>
<path d="M23.2359 327.415H45.615C52.1251 292.807 45.615 254.137 45.615 254.137C45.615 247.957 40.6042 242.949 34.427 242.949C28.2497 242.949 23.2359 247.957 23.2359 254.137C23.2359 254.137 16.7258 292.807 23.2359 327.415Z" fill="#23220D"/>
<path d="M47.1356 333.15H69.5147C76.0247 298.541 69.5147 259.872 69.5147 259.872C69.5147 253.692 64.5039 248.684 58.3266 248.684C52.1494 248.684 47.1356 253.692 47.1356 259.872C47.1356 259.872 40.6255 298.541 47.1356 333.15Z" fill="#23220D"/>
<path d="M63.6429 323.125H86.022C92.5321 288.517 86.022 249.847 86.022 249.847C86.022 243.667 81.0112 238.659 74.834 238.659C68.6567 238.659 63.6429 243.667 63.6429 249.847C63.6429 249.847 57.1328 288.517 63.6429 323.125Z" fill="#23220D"/>
<path d="M84.9564 333.15H107.335C113.846 298.541 107.335 259.872 107.335 259.872C107.335 253.692 102.325 248.684 96.1474 248.684C89.9702 248.684 84.9564 253.692 84.9564 259.872C84.9564 259.872 78.4463 298.541 84.9564 333.15Z" fill="#23220D"/>
<path d="M108.181 327.415H130.56C137.07 292.807 130.56 254.137 130.56 254.137C130.56 247.957 125.549 242.949 119.372 242.949C113.195 242.949 108.181 247.957 108.181 254.137C108.181 254.137 101.671 292.807 108.181 327.415Z" fill="#23220D"/>
<path d="M128.523 321.678H150.903C157.413 287.069 150.903 248.4 150.903 248.4C150.903 242.22 145.892 237.212 139.715 237.212C133.537 237.212 128.523 242.22 128.523 248.4C128.523 248.4 122.013 287.069 128.523 321.678Z" fill="#23220D"/>
<path d="M152.423 327.415H174.803C181.313 292.807 174.803 254.137 174.803 254.137C174.803 247.957 169.792 242.949 163.614 242.949C157.437 242.949 152.423 247.957 152.423 254.137C152.423 254.137 145.913 292.807 152.423 327.415Z" fill="#23220D"/>
<path d="M168.93 317.388H191.31C197.82 282.779 191.31 244.11 191.31 244.11C191.31 237.929 186.299 232.922 180.122 232.922C173.944 232.922 168.93 237.929 168.93 244.11C168.93 244.11 162.42 282.779 168.93 317.388Z" fill="#23220D"/>
<path d="M190.244 327.415H212.623C219.133 292.807 212.623 254.137 212.623 254.137C212.623 247.957 207.612 242.949 201.435 242.949C195.258 242.949 190.244 247.957 190.244 254.137C190.244 254.137 183.734 292.807 190.244 327.415Z" fill="#23220D"/>
<path d="M207.716 338.164H230.095C236.606 303.555 230.095 264.886 230.095 264.886C230.095 258.706 225.085 253.698 218.907 253.698C212.73 253.698 207.716 258.706 207.716 264.886C207.716 264.886 201.206 303.555 207.716 338.164Z" fill="#23220D"/>
<path d="M228.059 332.426H250.438C256.948 297.818 250.438 259.148 250.438 259.148C250.438 252.968 245.427 247.96 239.25 247.96C233.073 247.96 228.059 252.968 228.059 259.148C228.059 259.148 221.549 297.818 228.059 332.426Z" fill="#23220D"/>
<path d="M251.958 338.164H274.337C280.847 303.555 274.337 264.886 274.337 264.886C274.337 258.706 269.327 253.698 263.149 253.698C256.972 253.698 251.958 258.706 251.958 264.886C251.958 264.886 245.448 303.555 251.958 338.164Z" fill="#23220D"/>
<path d="M268.466 328.139H290.845C297.355 293.531 290.845 254.861 290.845 254.861C290.845 248.681 285.834 243.673 279.657 243.673C273.479 243.673 268.466 248.681 268.466 254.861C268.466 254.861 261.956 293.531 268.466 328.139Z" fill="#23220D"/>
<path d="M289.779 338.164H312.158C318.668 303.555 312.158 264.886 312.158 264.886C312.158 258.706 307.147 253.698 300.97 253.698C294.793 253.698 289.779 258.706 289.779 264.886C289.779 264.886 283.269 303.555 289.779 338.164Z" fill="#23220D"/>
<path d="M308.399 328.139H330.778C337.288 293.531 330.778 254.861 330.778 254.861C330.778 248.681 325.768 243.673 319.59 243.673C313.413 243.673 308.399 248.681 308.399 254.861C308.399 254.861 301.889 293.531 308.399 328.139Z" fill="#23220D"/>
<path d="M328.742 322.402H351.121C357.631 287.793 351.121 249.124 351.121 249.124C351.121 242.943 346.11 237.936 339.933 237.936C333.756 237.936 328.742 242.943 328.742 249.124C328.742 249.124 322.232 287.793 328.742 322.402Z" fill="#23220D"/>
<path d="M352.642 328.139H375.021C381.531 293.531 375.021 254.861 375.021 254.861C375.021 248.681 370.01 243.673 363.833 243.673C357.656 243.673 352.642 248.681 352.642 254.861C352.642 254.861 346.132 293.531 352.642 328.139Z" fill="#23220D"/>
<path d="M369.149 318.111H391.528C398.038 283.503 391.528 244.833 391.528 244.833C391.528 238.653 386.517 233.645 380.34 233.645C374.163 233.645 369.149 238.653 369.149 244.833C369.149 244.833 362.639 283.503 369.149 318.111Z" fill="#23220D"/>
<path d="M390.459 328.139H412.838C419.348 293.531 412.838 254.861 412.838 254.861C412.838 248.681 407.827 243.673 401.65 243.673C395.473 243.673 390.459 248.681 390.459 254.861C390.459 254.861 383.949 293.531 390.459 328.139Z" fill="#23220D"/>
<path d="M412.093 328.139H434.472C440.982 293.531 434.472 254.861 434.472 254.861C434.472 248.681 429.461 243.673 423.284 243.673C417.107 243.673 412.093 248.681 412.093 254.861C412.093 254.861 405.583 293.531 412.093 328.139Z" fill="#23220D"/>
<path d="M432.436 322.402H454.815C461.325 287.793 454.815 249.124 454.815 249.124C454.815 242.943 449.804 237.936 443.627 237.936C437.449 237.936 432.436 242.943 432.436 249.124C432.436 249.124 425.926 287.793 432.436 322.402Z" fill="#23220D"/>
<path d="M456.338 328.139H478.718C485.228 293.531 478.718 254.861 478.718 254.861C478.718 248.681 473.707 243.673 467.53 243.673C461.352 243.673 456.338 248.681 456.338 254.861C456.338 254.861 449.828 293.531 456.338 328.139Z" fill="#23220D"/>
<path d="M472.846 318.111H495.225C501.735 283.503 495.225 244.833 495.225 244.833C495.225 238.653 490.214 233.645 484.037 233.645C477.859 233.645 472.846 238.653 472.846 244.833C472.846 244.833 466.335 283.503 472.846 318.111Z" fill="#23220D"/>
<path d="M494.156 328.139H516.535C523.045 293.531 516.535 254.861 516.535 254.861C516.535 248.681 511.524 243.673 505.347 243.673C499.17 243.673 494.156 248.681 494.156 254.861C494.156 254.861 487.646 293.531 494.156 328.139Z" fill="#23220D"/>
<path d="M512.792 323.125H535.171C541.681 288.517 535.171 249.847 535.171 249.847C535.171 243.667 530.16 238.659 523.983 238.659C517.805 238.659 512.792 243.667 512.792 249.847C512.792 249.847 506.281 288.517 512.792 323.125Z" fill="#23220D"/>
<path d="M535.943 364.995H513.564C507.054 330.386 513.564 291.717 513.564 291.717C513.564 285.537 518.575 280.529 524.752 280.529C530.93 280.529 535.943 285.537 535.943 291.717C535.943 291.717 542.453 330.386 535.943 364.995Z" fill="black"/>
<path d="M515.601 359.26H493.222C486.712 324.652 493.222 285.982 493.222 285.982C493.222 279.802 498.233 274.794 504.41 274.794C510.587 274.794 515.601 279.802 515.601 285.982C515.601 285.982 522.111 324.652 515.601 359.26Z" fill="black"/>
<path d="M491.701 364.995H469.322C462.812 330.386 469.322 291.717 469.322 291.717C469.322 285.537 474.333 280.529 480.51 280.529C486.688 280.529 491.701 285.537 491.701 291.717C491.701 291.717 498.212 330.386 491.701 364.995Z" fill="black"/>
<path d="M475.194 354.97H452.815C446.305 320.362 452.815 281.692 452.815 281.692C452.815 275.512 457.826 270.504 464.003 270.504C470.18 270.504 475.194 275.512 475.194 281.692C475.194 281.692 481.704 320.362 475.194 354.97Z" fill="black"/>
<path d="M453.881 364.995H431.502C424.991 330.386 431.502 291.717 431.502 291.717C431.502 285.537 436.512 280.529 442.69 280.529C448.867 280.529 453.881 285.537 453.881 291.717C453.881 291.717 460.391 330.386 453.881 364.995Z" fill="black"/>
<path d="M430.656 359.26H408.277C401.767 324.652 408.277 285.982 408.277 285.982C408.277 279.802 413.287 274.794 419.465 274.794C425.642 274.794 430.656 279.802 430.656 285.982C430.656 285.982 437.166 324.652 430.656 359.26Z" fill="black"/>
<path d="M410.313 353.523H387.934C381.424 318.914 387.934 280.245 387.934 280.245C387.934 274.065 392.945 269.057 399.122 269.057C405.299 269.057 410.313 274.065 410.313 280.245C410.313 280.245 416.823 318.914 410.313 353.523Z" fill="black"/>
<path d="M386.413 359.26H364.034C357.524 324.652 364.034 285.982 364.034 285.982C364.034 279.802 369.045 274.794 375.222 274.794C381.399 274.794 386.413 279.802 386.413 285.982C386.413 285.982 392.923 324.652 386.413 359.26Z" fill="black"/>
<path d="M369.903 349.233H347.524C341.014 314.624 347.524 275.955 347.524 275.955C347.524 269.774 352.535 264.767 358.712 264.767C364.889 264.767 369.903 269.774 369.903 275.955C369.903 275.955 376.413 314.624 369.903 349.233Z" fill="black"/>
<path d="M348.593 359.26H326.214C319.704 324.652 326.214 285.982 326.214 285.982C326.214 279.802 331.225 274.794 337.402 274.794C343.579 274.794 348.593 279.802 348.593 285.982C348.593 285.982 355.103 324.652 348.593 359.26Z" fill="black"/>
<path d="M331.121 370.009H308.742C302.231 335.4 308.742 296.731 308.742 296.731C308.742 290.55 313.752 285.543 319.93 285.543C326.107 285.543 331.121 290.55 331.121 296.731C331.121 296.731 337.631 335.4 331.121 370.009Z" fill="black"/>
<path d="M310.778 364.271H288.399C281.889 329.663 288.399 290.993 288.399 290.993C288.399 284.813 293.41 279.805 299.587 279.805C305.764 279.805 310.778 284.813 310.778 290.993C310.778 290.993 317.288 329.663 310.778 364.271Z" fill="black"/>
<path d="M286.878 370.009H264.499C257.989 335.4 264.499 296.731 264.499 296.731C264.499 290.55 269.51 285.543 275.687 285.543C281.865 285.543 286.878 290.55 286.878 296.731C286.878 296.731 293.388 335.4 286.878 370.009Z" fill="black"/>
<path d="M270.368 359.984H247.989C241.479 325.376 247.989 286.706 247.989 286.706C247.989 280.526 253 275.518 259.177 275.518C265.354 275.518 270.368 280.526 270.368 286.706C270.368 286.706 276.878 325.376 270.368 359.984Z" fill="black"/>
<path d="M249.058 370.009H226.679C220.168 335.4 226.679 296.731 226.679 296.731C226.679 290.55 231.689 285.543 237.867 285.543C244.044 285.543 249.058 290.55 249.058 296.731C249.058 296.731 255.568 335.4 249.058 370.009Z" fill="black"/>
<path d="M230.438 359.984H208.058C201.548 325.376 208.058 286.706 208.058 286.706C208.058 280.526 213.069 275.518 219.246 275.518C225.424 275.518 230.438 280.526 230.438 286.706C230.438 286.706 236.948 325.376 230.438 359.984Z" fill="black"/>
<path d="M210.095 354.246H187.716C181.206 319.638 187.716 280.969 187.716 280.969C187.716 274.788 192.727 269.781 198.904 269.781C205.081 269.781 210.095 274.788 210.095 280.969C210.095 280.969 216.605 319.638 210.095 354.246Z" fill="black"/>
<path d="M186.195 359.984H163.816C157.306 325.376 163.816 286.706 163.816 286.706C163.816 280.526 168.827 275.518 175.004 275.518C181.181 275.518 186.195 280.526 186.195 286.706C186.195 286.706 192.705 325.376 186.195 359.984Z" fill="black"/>
<path d="M169.688 349.956H147.309C140.799 315.348 147.309 276.678 147.309 276.678C147.309 270.498 152.32 265.49 158.497 265.49C164.674 265.49 169.688 270.498 169.688 276.678C169.688 276.678 176.198 315.348 169.688 349.956Z" fill="black"/>
<path d="M148.378 359.984H125.999C119.489 325.376 125.999 286.706 125.999 286.706C125.999 280.526 131.009 275.518 137.187 275.518C143.364 275.518 148.378 280.526 148.378 286.706C148.378 286.706 154.888 325.376 148.378 359.984Z" fill="black"/>
<path d="M126.744 359.984H104.365C97.8547 325.376 104.365 286.706 104.365 286.706C104.365 280.526 109.376 275.518 115.553 275.518C121.73 275.518 126.744 280.526 126.744 286.706C126.744 286.706 133.254 325.376 126.744 359.984Z" fill="black"/>
<path d="M106.398 354.246H84.0193C77.5093 319.638 84.0193 280.969 84.0193 280.969C84.0193 274.788 89.0301 269.781 95.2074 269.781C101.385 269.781 106.398 274.788 106.398 280.969C106.398 280.969 112.909 319.638 106.398 354.246Z" fill="black"/>
<path d="M82.4986 359.984H60.1194C53.6094 325.376 60.1194 286.706 60.1194 286.706C60.1194 280.526 65.1302 275.518 71.3075 275.518C77.4847 275.518 82.4986 280.526 82.4986 286.706C82.4986 286.706 89.0086 325.376 82.4986 359.984Z" fill="black"/>
<path d="M65.9912 349.956H43.6121C37.102 315.348 43.6121 276.678 43.6121 276.678C43.6121 270.498 48.6229 265.49 54.8001 265.49C60.9774 265.49 65.9912 270.498 65.9912 276.678C65.9912 276.678 72.5013 315.348 65.9912 349.956Z" fill="black"/>
<path d="M44.6809 359.984H22.3018C15.7917 325.376 22.3018 286.706 22.3018 286.706C22.3018 280.526 27.3126 275.518 33.4898 275.518C39.6671 275.518 44.6809 280.526 44.6809 286.706C44.6809 286.706 51.191 325.376 44.6809 359.984Z" fill="black"/>
<path d="M26.0454 354.97H3.66631C-2.84375 320.362 3.66631 281.692 3.66631 281.692C3.66631 275.512 8.67711 270.504 14.8543 270.504C21.0316 270.504 26.0454 275.512 26.0454 281.692C26.0454 281.692 32.5555 320.362 26.0454 354.97Z" fill="black"/>
<path d="M23.0374 139.451C29.0803 140.874 34.7049 143.543 40.308 146.147C45.9112 148.752 51.4136 151.051 57.1969 152.938C62.965 154.822 68.8583 156.312 74.8279 157.402C80.77 158.49 86.7823 159.186 92.816 159.482C98.8498 159.778 104.954 159.671 111 159.155C117.094 158.633 123.146 157.686 129.113 156.346C135.419 154.932 141.626 153.128 147.813 151.268C153.981 149.411 160.134 147.5 166.363 145.851C172.708 144.172 179.132 142.837 185.609 141.793C192.107 140.749 198.647 139.976 205.197 139.344C206.803 139.188 208.406 139.042 210.012 138.901C210.596 138.849 210.602 137.933 210.012 137.985C203.447 138.559 196.892 139.24 190.363 140.156C183.884 141.066 177.432 142.211 171.065 143.72C164.772 145.21 158.573 147.057 152.384 148.926C146.194 150.795 140.063 152.679 133.825 154.27C127.788 155.809 121.678 157.033 115.491 157.775C109.305 158.517 103.442 158.804 97.3994 158.712C91.3504 158.621 85.3075 158.126 79.3257 157.225C73.3439 156.325 67.4323 155.03 61.6276 153.344C55.8137 151.653 50.1128 149.57 44.586 147.1C38.9492 144.581 33.4407 141.726 27.5658 139.781C26.1581 139.314 24.7291 138.904 23.2848 138.565C22.7107 138.431 22.4664 139.314 23.0405 139.448L23.0374 139.451Z" fill="#0A487C"/>
<path d="M270.741 137.674C278.038 138.171 285.275 139.326 292.426 140.843C299.578 142.361 306.61 144.217 313.642 146.141C320.729 148.08 327.801 150.086 334.931 151.869C342.061 153.653 349.087 155.176 356.281 156.205C363.885 157.292 371.534 157.711 379.213 157.521C386.893 157.332 395.189 156.572 403.15 155.769C411.012 154.975 418.875 154.202 426.6 152.495C434.033 150.853 441.309 148.596 448.613 146.474C455.957 144.339 463.355 142.364 470.931 141.234C478.751 140.068 486.663 139.665 494.556 139.408C496.474 139.344 498.391 139.292 500.309 139.237C500.898 139.222 500.898 138.306 500.309 138.321C492.391 138.544 484.464 138.767 476.583 139.6C472.708 140.01 468.852 140.571 465.032 141.338C461.212 142.104 457.639 143.002 453.984 144C446.619 146.013 439.346 148.352 431.953 150.263C428.277 151.213 424.573 152.059 420.829 152.703C417.086 153.347 412.963 153.839 409.012 154.254C401.015 155.094 393.006 155.937 384.975 156.373C376.944 156.81 369.366 156.773 361.597 155.955C354.327 155.189 347.13 153.814 340.015 152.156C332.901 150.498 325.829 148.55 318.772 146.602C311.715 144.654 304.656 142.706 297.526 141.042C290.439 139.387 283.275 138.019 276.035 137.228C274.273 137.035 272.512 136.88 270.744 136.758C270.154 136.718 270.157 137.634 270.744 137.674H270.741Z" fill="#0A487C"/>
<path d="M66.632 131.368C70.9649 133.109 75.4139 134.553 79.9422 135.683C84.4461 136.81 89.0233 137.628 93.6341 138.153C98.2724 138.678 102.947 138.898 107.616 138.807C112.285 138.715 116.935 138.312 121.546 137.604C126.139 136.898 130.682 135.887 135.134 134.565C135.699 134.397 136.261 134.223 136.826 134.046C137.391 133.869 137.147 132.984 136.582 133.164C132.172 134.556 127.672 135.646 123.116 136.428C118.554 137.21 113.943 137.68 109.317 137.845C104.697 138.01 100.065 137.872 95.4632 137.43C90.8554 136.987 86.2813 136.239 81.7743 135.185C77.2674 134.132 72.8428 132.782 68.5252 131.13C67.9755 130.919 67.4259 130.703 66.8793 130.483C66.3328 130.263 66.0946 131.148 66.6351 131.365L66.632 131.368Z" fill="#0A487C"/>
<path d="M335.398 126.629C341.988 129.655 348.559 132.736 355.185 135.677C361.509 138.483 367.943 141.103 374.627 142.92C380.951 144.639 387.464 145.564 394.023 145.399C400.246 145.24 406.45 144.178 412.371 142.269C418.292 140.361 423.953 137.613 429.077 134.083C429.706 133.649 430.326 133.206 430.936 132.751C431.404 132.403 430.949 131.609 430.475 131.961C425.526 135.64 420.035 138.577 414.234 140.669C408.432 142.761 402.337 144.028 396.181 144.391C389.787 144.77 383.412 144.129 377.189 142.629C370.489 141.017 364.037 138.535 357.729 135.796C351.219 132.968 344.794 129.936 338.345 126.974L335.863 125.835C335.331 125.591 334.864 126.379 335.402 126.626L335.398 126.629Z" fill="#0A487C"/>
</svg>
