<svg width="1209" height="843" viewBox="0 0 1209 843" fill="none" xmlns="http://www.w3.org/2000/svg">
<path d="M765.011 842.966C765.011 842.966 796.184 843.342 795.808 806.455C795.808 806.455 790.093 784.795 829.65 783.631C864.723 782.605 989.791 783.392 1017.64 783.597C1021.51 783.597 1025.21 782.16 1028.05 779.525C1034.03 773.948 1043.34 763.34 1042.56 751.672C1041.73 739.182 1030.75 732.167 1024.9 729.293C1022.81 728.266 1020.52 727.719 1018.19 727.719H987.361C984.555 727.719 981.852 726.966 979.491 725.529C972.819 721.491 960.329 711.705 960.055 695.04C959.679 672.217 977.541 673.38 977.541 673.38H1111.33C1113.52 673.38 1115.65 672.935 1117.63 672.012C1126.05 668.145 1148.39 655.963 1153.63 633.345C1155.06 627.083 1161.87 622.053 1168.27 622.053H1175.97C1177.72 622.053 1179.46 621.745 1181.14 621.163C1188.53 618.494 1207.59 609.426 1206.05 586.706C1204.51 563.985 1188.15 556.765 1181.69 554.712C1180.22 554.232 1178.68 554.027 1177.14 554.027H1173.54C1163.24 554.027 1155.71 543.899 1159.14 534.215C1160.78 529.595 1161.7 524.052 1161.22 517.516C1161.22 517.516 1159 486.001 1132.58 482.648C1131.9 482.58 1131.21 482.545 1130.56 482.545H1075.78C1074.58 482.545 1073.39 482.408 1072.19 482.1C1064.15 480.15 1034.17 471.082 1036.12 443.742C1037.83 419.994 1052.48 408.737 1059.6 404.63C1061.85 403.33 1064.42 402.68 1067.02 402.68H1175.63C1178.2 402.68 1180.69 402.064 1182.92 400.798C1190.48 396.589 1206.7 384.852 1208.72 360.455C1210.91 334.107 1189.8 324.56 1182.37 322.062C1180.83 321.549 1179.26 321.309 1177.65 321.309H1147.3C1145.07 321.309 1142.88 320.83 1140.9 319.872C1133.51 316.382 1115.88 306.595 1115.61 292.771C1115.41 283.122 1115.44 276.586 1115.47 272.685C1115.51 269.468 1114.55 266.355 1112.67 263.72C1107.6 256.602 1096.76 243.257 1086.7 242.984C1076.19 242.676 1051.73 242.847 1040.98 242.949C1037.35 242.949 1033.86 241.717 1031.09 239.356C1024.04 233.3 1011.25 219.955 1009.88 201.922C1008.44 182.965 992.255 169.209 984.419 163.632C981.886 161.818 978.807 160.86 975.693 160.86H946.505C943.562 160.86 940.722 160.039 938.258 158.43C931.449 154.016 919.027 143.306 919.027 123.973C919.027 104.639 932.099 92.2865 939.216 87.0169C941.817 85.0665 944.965 84.0399 948.25 84.0399H1049.81C1052.68 84.0399 1055.52 83.2187 1057.95 81.6789C1066.82 75.9644 1087.35 60.3267 1085.57 38.8035C1083.79 17.2802 1060.04 4.61946 1051.62 1.1292C1049.81 0.3764 1047.86 0 1045.91 0H512.72C509.88 0 507.109 0.787019 504.713 2.29262C498.075 6.39881 485.688 15.9799 484.867 30.42C484.046 44.8601 468.1 64.3645 459.922 73.3296C457.047 76.5119 452.975 78.3255 448.698 78.3255H248.145C245.784 78.3255 243.457 78.873 241.37 79.9338C232.371 84.4163 210.026 98.5827 216.459 126.984C224.432 162.331 241.541 156.275 241.541 156.275H274.117C276.444 156.275 278.736 156.822 280.858 157.849C289.72 162.194 311.757 175.95 308.096 203.427C303.545 237.646 283.766 236.14 283.766 236.14H154.319C154.319 236.14 115.55 235.9 114.968 254.173C114.455 271.145 147.886 268.887 152.642 268.476C153.053 268.442 153.463 268.442 153.874 268.442H177.142C186.963 268.442 194.286 277.647 191.89 287.125C188.914 298.862 181.488 313.199 163.318 320.967C161.539 321.72 159.623 322.062 157.672 322.062C143.301 322.062 79.9285 322.062 64.6672 322.062C62.135 322.062 59.7055 322.678 57.4813 323.875C49.7822 328.05 33.4944 339.89 35.6843 364.835C38.5244 397.342 61.348 397.924 61.348 397.924H114.112C117.5 397.924 120.751 399.053 123.42 401.106C129.819 406.102 139.913 417.531 138.339 439.533C136.697 462.733 125.097 471.185 118.869 474.093C116.884 475.017 114.728 475.462 112.538 475.462H69.663C67.302 475.462 65.0093 475.975 62.8878 477.036C54.7781 481.142 37.8059 495.172 39.1062 540.477V540.785C39.1062 547.594 34.5551 553.445 28.0537 555.362C15.564 559.091 -2.70851 568.194 0.336913 589.511C4.88794 621.437 19.1569 616.304 19.1569 616.304H33.0837C41.4672 616.304 48.2424 623.08 48.2424 631.463V632.798C48.2424 634.064 48.4135 635.33 48.7215 636.596C50.6377 643.918 58.7474 668.932 81.0919 673.141C81.9816 673.312 82.9055 673.38 83.8294 673.38C90.3308 673.38 118.184 673.38 127.081 673.38C129.1 673.38 131.085 673.757 132.967 674.578C138.852 677.11 150.931 683.954 150.931 697.333C150.931 708.283 157.056 716.837 161.71 721.765C164.55 724.776 168.519 726.419 172.66 726.419H289.72C293.998 726.419 298.035 728.198 300.91 731.346C305.563 736.479 311.757 745.239 311.757 755.504C311.757 765.77 305.187 773.879 300.328 778.328C297.522 780.894 293.861 782.331 290.063 782.331H257.589C254.647 782.331 251.807 783.187 249.343 784.761C242.328 789.243 229.394 799.714 231.926 814.838C234.218 828.526 242.602 836.499 247.906 840.263C250.438 842.076 253.449 843 256.563 843C305.119 843 766.209 843 765.148 843L765.011 842.966Z" fill="#A3D6F8"/>
<path d="M289.104 23.7815H167.048C158.071 23.7815 150.794 31.0585 150.794 40.0351C150.794 49.0118 158.071 56.2888 167.048 56.2888H289.104C298.081 56.2888 305.358 49.0118 305.358 40.0351C305.358 31.0585 298.081 23.7815 289.104 23.7815Z" fill="#A3D6F8"/>
<path d="M248.316 185.771H179.88C172.32 185.771 166.192 191.899 166.192 199.458C166.192 207.017 172.32 213.145 179.88 213.145H248.316C255.875 213.145 262.003 207.017 262.003 199.458C262.003 191.899 255.875 185.771 248.316 185.771Z" fill="#A3D6F8"/>
<path d="M152.608 277.373H131.666C125.846 277.373 121.127 282.092 121.127 287.912V287.946C121.127 293.767 125.846 298.486 131.666 298.486H152.608C158.428 298.486 163.147 293.767 163.147 287.946V287.912C163.147 282.092 158.428 277.373 152.608 277.373Z" fill="#A3D6F8"/>
<path d="M275.86 743.699H210.504C207.555 743.699 205.166 746.081 205.166 749.02C205.166 751.959 207.555 754.341 210.504 754.341H275.86C278.808 754.341 281.198 751.959 281.198 749.02C281.198 746.081 278.808 743.699 275.86 743.699Z" fill="#A3D6F8"/>
<path d="M180.052 784.008H169.239C165.875 784.008 163.148 786.735 163.148 790.099C163.148 793.463 165.875 796.19 169.239 796.19H180.052C183.416 796.19 186.143 793.463 186.143 790.099C186.143 786.735 183.416 784.008 180.052 784.008Z" fill="#A3D6F8"/>
<path d="M897.127 793.897H840.462C834.792 793.897 830.196 798.493 830.196 804.162C830.196 809.832 834.792 814.428 840.462 814.428H897.127C902.797 814.428 907.393 809.832 907.393 804.162C907.393 798.493 902.797 793.897 897.127 793.897Z" fill="#A3D6F8"/>
<path d="M1073.52 684.022H1035.88C1029.8 684.022 1024.87 688.955 1024.87 695.04C1024.87 701.125 1029.8 706.059 1035.88 706.059H1073.52C1079.61 706.059 1084.54 701.125 1084.54 695.04C1084.54 688.955 1079.61 684.022 1073.52 684.022Z" fill="#A3D6F8"/>
<path d="M1101.1 732.304H1086.29C1081.77 732.304 1078.11 735.966 1078.11 740.482C1078.11 744.999 1081.77 748.661 1086.29 748.661H1101.1C1105.62 748.661 1109.28 744.999 1109.28 740.482C1109.28 735.966 1105.62 732.304 1101.1 732.304Z" fill="#A3D6F8"/>
<path d="M1141.99 427.762H1121.43C1114.93 427.762 1109.66 433.032 1109.66 439.533V439.567C1109.66 446.068 1114.93 451.338 1121.43 451.338H1141.99C1148.49 451.338 1153.76 446.068 1153.76 439.567V439.533C1153.76 433.032 1148.49 427.762 1141.99 427.762Z" fill="#A3D6F8"/>
<path d="M1092.65 100.772H1009.4C1000.42 100.772 993.144 108.049 993.144 117.026C993.144 126.003 1000.42 133.28 1009.4 133.28H1092.65C1101.63 133.28 1108.9 126.003 1108.9 117.026C1108.9 108.049 1101.63 100.772 1092.65 100.772Z" fill="#A3D6F8"/>
<path d="M1061.39 507.941C1061.39 523.277 1048.93 535.714 1033.6 535.714H727.189V535.686C726.821 535.7 726.44 535.714 726.058 535.714C710.708 535.714 698.266 523.277 698.266 507.941C698.266 492.605 710.703 480.149 726.058 480.149C726.44 480.149 726.821 480.163 727.189 480.177V480.149H1033.6C1048.93 480.149 1061.39 492.586 1061.39 507.941Z" fill="#BBBBBB" fill-opacity="0.56"/>
<path d="M1041.03 698.23C1041.03 713.566 1028.57 726.004 1013.24 726.004H801.116V725.975C800.749 725.99 800.367 726.004 799.985 726.004C784.635 726.004 772.193 713.566 772.193 698.23C772.193 682.895 784.63 670.438 799.985 670.438C800.367 670.438 800.749 670.452 801.116 670.467V670.438H1013.24C1028.57 670.438 1041.03 682.876 1041.03 698.23Z" fill="#BBBBBB" fill-opacity="0.56"/>
<path d="M984.488 603.071C984.488 618.421 972.05 630.859 956.7 630.859H754.982V630.831C754.614 630.845 754.232 630.859 753.85 630.859C738.5 630.859 726.063 618.421 726.063 603.071C726.063 587.721 738.5 575.298 753.85 575.298C754.232 575.298 754.614 575.312 754.982 575.326V575.298H956.7C972.05 575.298 984.488 587.736 984.488 603.071Z" fill="#BBBBBB" fill-opacity="0.56"/>
<path d="M1077.63 412.777C1077.63 428.127 1065.19 440.565 1049.84 440.565H848.123V440.536C847.756 440.551 847.374 440.565 846.992 440.565C831.642 440.565 819.205 428.127 819.205 412.777C819.205 397.427 831.642 385.004 846.992 385.004C847.374 385.004 847.756 385.018 848.123 385.032V385.004H1049.84C1065.19 385.004 1077.63 397.441 1077.63 412.777Z" fill="#BBBBBB" fill-opacity="0.56"/>
<path d="M771.387 535.714C771.34 535.714 771.288 535.719 771.241 535.724H771.59C771.524 535.724 771.453 535.714 771.387 535.714Z" fill="#BBBBBB" fill-opacity="0.56"/>
<path d="M771.241 575.289C771.288 575.289 771.34 575.298 771.387 575.298C771.453 575.298 771.524 575.293 771.59 575.289H771.241Z" fill="#BBBBBB" fill-opacity="0.56"/>
<path d="M875.859 575.26C875.595 575.289 875.331 575.289 875.049 575.289C864.124 575.289 855.273 566.438 855.273 555.513C855.273 544.589 864.124 535.724 875.049 535.724C875.327 535.724 875.591 535.724 875.859 535.752V535.724H886.313C886.265 535.724 886.218 535.714 886.166 535.714H772.198V535.724H778.773C789.711 535.724 798.562 544.574 798.562 555.513C798.562 566.452 789.711 575.289 778.773 575.289H772.198V575.298H886.166C886.214 575.298 886.261 575.293 886.313 575.289H875.859V575.26Z" fill="#BBBBBB" fill-opacity="0.56"/>
<path d="M862.743 630.86C862.705 630.86 862.672 630.865 862.635 630.869H862.894C862.842 630.869 862.79 630.86 862.743 630.86Z" fill="#BBBBBB" fill-opacity="0.56"/>
<path d="M862.635 670.435C862.672 670.435 862.705 670.444 862.743 670.444C862.79 670.444 862.842 670.439 862.894 670.435H862.635Z" fill="#BBBBBB" fill-opacity="0.56"/>
<path d="M940.615 670.406C940.417 670.434 940.219 670.434 940.012 670.434C931.868 670.434 925.27 661.584 925.27 650.659C925.27 639.734 931.868 630.869 940.012 630.869C940.219 630.869 940.417 630.869 940.615 630.898V630.869H948.406C948.368 630.869 948.335 630.86 948.297 630.86H863.342V630.869H868.243C876.397 630.869 882.995 639.72 882.995 650.659C882.995 661.598 876.397 670.434 868.243 670.434H863.342V670.444H948.297C948.335 670.444 948.368 670.439 948.406 670.434H940.615V670.406Z" fill="#BBBBBB" fill-opacity="0.56"/>
<path d="M925.68 440.566C925.642 440.566 925.609 440.57 925.572 440.575H925.831C925.779 440.575 925.727 440.566 925.68 440.566Z" fill="#BBBBBB" fill-opacity="0.56"/>
<path d="M925.572 480.14C925.609 480.14 925.642 480.15 925.68 480.15C925.727 480.15 925.779 480.145 925.831 480.14H925.572Z" fill="#BBBBBB" fill-opacity="0.56"/>
<path d="M1003.55 480.112C1003.35 480.14 1003.16 480.14 1002.95 480.14C994.805 480.14 988.207 471.289 988.207 460.365C988.207 449.44 994.805 440.575 1002.95 440.575C1003.16 440.575 1003.35 440.575 1003.55 440.603V440.575H1011.34C1011.3 440.575 1011.27 440.566 1011.23 440.566H926.279V440.575H931.18C939.334 440.575 945.932 449.426 945.932 460.365C945.932 471.303 939.334 480.14 931.18 480.14H926.279V480.15H1011.23C1011.27 480.15 1011.3 480.145 1011.34 480.14H1003.55V480.112Z" fill="#BBBBBB" fill-opacity="0.56"/>
<path d="M698.231 766.231C698.231 781.567 685.775 794.004 670.439 794.004H458.319V793.976C457.952 793.99 457.57 794.004 457.188 794.004C441.838 794.004 429.396 781.567 429.396 766.231C429.396 750.895 441.833 738.438 457.188 738.438C457.57 738.438 457.952 738.453 458.319 738.467V738.438H670.439C685.775 738.438 698.231 750.876 698.231 766.231Z" fill="#BBBBBB" fill-opacity="0.63"/>
<path d="M684.266 670.997C684.266 686.468 669.779 699.004 651.9 699.004H416.949V698.975C416.52 698.99 416.076 699.004 415.631 699.004C397.752 699.004 383.266 686.468 383.266 670.997C383.266 655.525 397.752 643.004 415.631 643.004C416.076 643.004 416.52 643.018 416.949 643.032V643.004H651.9C669.779 643.004 684.266 655.54 684.266 670.997Z" fill="#BBBBBB" fill-opacity="0.63"/>
<path d="M441.374 699.004C441.336 699.004 441.303 699.009 441.266 699.013H441.525C441.473 699.013 441.421 699.004 441.374 699.004Z" fill="#BBBBBB" fill-opacity="0.63"/>
<path d="M441.266 738.579C441.303 738.579 441.336 738.588 441.374 738.588C441.421 738.588 441.473 738.583 441.525 738.579H441.266Z" fill="#BBBBBB" fill-opacity="0.63"/>
<path d="M519.246 738.55C519.048 738.578 518.85 738.578 518.643 738.578C510.499 738.578 503.901 729.728 503.901 718.803C503.901 707.878 510.499 699.013 518.643 699.013C518.85 699.013 519.048 699.013 519.246 699.042V699.013H527.036C526.999 699.013 526.966 699.004 526.928 699.004H441.973V699.013H446.874C455.028 699.013 461.626 707.864 461.626 718.803C461.626 729.742 455.028 738.578 446.874 738.578H441.973V738.588H526.928C526.966 738.588 526.999 738.583 527.036 738.578H519.246V738.55Z" fill="#BBBBBB" fill-opacity="0.63"/>
<path d="M1021.68 303.23C1021.68 318.566 999.51 331.003 972.219 331.003H594.737V330.975C594.082 330.989 593.403 331.003 592.724 331.003C565.407 331.003 543.266 318.566 543.266 303.23C543.266 287.894 565.399 275.438 592.724 275.438C593.403 275.438 594.082 275.452 594.737 275.466V275.438H972.219C999.51 275.438 1021.68 287.875 1021.68 303.23Z" fill="#BBBBBB" fill-opacity="0.67"/>
<path d="M1007.71 207.997C1007.71 223.468 993.223 236.004 975.344 236.004H740.392V235.975C739.964 235.99 739.52 236.004 739.075 236.004C721.196 236.004 706.709 223.468 706.709 207.997C706.709 192.525 721.196 180.004 739.075 180.004C739.52 180.004 739.964 180.018 740.392 180.032V180.004H975.344C993.223 180.004 1007.71 192.54 1007.71 207.997Z" fill="#BBBBBB" fill-opacity="0.67"/>
<path d="M824.494 236.207C824.456 236.207 824.423 236.211 824.386 236.216H824.645C824.593 236.216 824.541 236.207 824.494 236.207Z" fill="#BBBBBB" fill-opacity="0.67"/>
<path d="M824.386 276.041C824.424 276.041 824.457 276.05 824.495 276.05C824.542 276.05 824.594 276.046 824.645 276.041H824.386Z" fill="#BBBBBB" fill-opacity="0.67"/>
<path d="M902.366 276.013C902.168 276.041 901.97 276.041 901.762 276.041C893.618 276.041 887.02 267.132 887.02 256.136C887.02 245.14 893.618 236.216 901.762 236.216C901.97 236.216 902.168 236.216 902.366 236.245V236.216H910.156C910.118 236.216 910.085 236.207 910.048 236.207L825.092 236.207V236.216H829.994C838.147 236.216 844.745 245.125 844.745 256.136C844.745 267.146 838.147 276.041 829.994 276.041H825.092V276.051H910.048C910.085 276.051 910.118 276.046 910.156 276.041H902.366V276.013Z" fill="#BBBBBB" fill-opacity="0.67"/>
<path d="M280.699 466.354C280.699 451.662 290.82 439.747 303.281 439.747L475.638 439.747L475.638 439.774C475.937 439.76 476.247 439.747 476.557 439.747C489.03 439.747 499.14 451.662 499.14 466.354C499.14 481.047 489.034 492.98 476.557 492.98C476.247 492.98 475.937 492.967 475.638 492.953L475.638 492.98L303.281 492.98C290.82 492.98 280.699 481.065 280.699 466.354Z" fill="#BBBBBB" fill-opacity="0.51"/>
<path d="M187.371 557.52C187.371 542.814 204.503 530.899 225.646 530.899L503.5 530.899L503.5 530.926C504.007 530.912 504.533 530.899 505.059 530.899C526.202 530.899 543.334 542.814 543.334 557.52C543.334 572.226 526.202 584.128 505.059 584.128C504.533 584.128 504.007 584.114 503.5 584.101L503.5 584.128L225.646 584.128C204.503 584.128 187.371 572.212 187.371 557.52Z" fill="#BBBBBB" fill-opacity="0.51"/>
<path d="M469.826 530.915C469.862 530.915 469.894 530.91 469.93 530.905L469.681 530.905C469.731 530.905 469.781 530.915 469.826 530.915Z" fill="#BBBBBB" fill-opacity="0.51"/>
<path d="M469.93 493.001C469.894 493.001 469.862 492.992 469.826 492.992C469.781 492.992 469.731 492.996 469.681 493.001L469.93 493.001Z" fill="#BBBBBB" fill-opacity="0.51"/>
<path d="M395.223 493.028C395.413 493.001 395.602 493.001 395.801 493.001C403.603 493.001 409.924 501.48 409.924 511.946C409.924 522.412 403.603 530.905 395.801 530.905C395.602 530.905 395.413 530.905 395.223 530.878L395.223 530.905L387.759 530.905C387.796 530.905 387.827 530.914 387.863 530.914L469.253 530.914L469.253 530.905L464.558 530.905C456.746 530.905 450.425 522.426 450.425 511.946C450.425 501.466 456.746 493.001 464.558 493.001L469.253 493.001L469.253 492.991L387.863 492.991C387.827 492.991 387.796 492.996 387.759 493.001L395.223 493.001L395.223 493.028Z" fill="#BBBBBB" fill-opacity="0.51"/>
<path d="M504.344 154.747C504.344 143.257 514.134 133.939 526.187 133.939L766.999 133.939L766.999 133.96C767.288 133.95 767.588 133.939 767.888 133.939C779.952 133.939 789.73 143.257 789.73 154.747C789.73 166.236 779.956 175.569 767.888 175.569C767.588 175.569 767.288 175.558 766.999 175.547L766.999 175.569L526.187 175.569C514.134 175.569 504.344 166.251 504.344 154.747Z" fill="#BBBBBB" fill-opacity="0.68"/>
<path d="M491.581 226.043C491.581 214.543 501.356 205.225 513.419 205.225L671.955 205.225L671.955 205.246C672.244 205.235 672.544 205.225 672.844 205.225C684.908 205.225 694.683 214.543 694.683 226.043C694.683 237.543 684.908 246.851 672.844 246.851C672.544 246.851 672.244 246.84 671.955 246.829L671.955 246.851L513.419 246.851C501.356 246.851 491.581 237.533 491.581 226.043Z" fill="#BBBBBB" fill-opacity="0.68"/>
<path d="M732.264 133.938C732.301 133.938 732.341 133.935 732.378 133.931L732.104 133.931C732.156 133.931 732.212 133.938 732.264 133.938Z" fill="#BBBBBB" fill-opacity="0.68"/>
<path d="M732.379 104.289C732.342 104.289 732.301 104.282 732.264 104.282C732.212 104.282 732.157 104.286 732.105 104.289L732.379 104.289Z" fill="#BBBBBB" fill-opacity="0.68"/>
<path d="M660.461 62.6563C660.491 62.6563 660.517 62.6529 660.546 62.6495L660.343 62.6495C660.383 62.6495 660.424 62.6563 660.461 62.6563Z" fill="#BBBBBB" fill-opacity="0.68"/>
<path d="M660.546 33.0068C660.516 33.0068 660.49 33.0001 660.461 33.0001C660.424 33.0001 660.383 33.0034 660.342 33.0068L660.546 33.0068Z" fill="#BBBBBB" fill-opacity="0.68"/>
<path d="M610.997 205.225C611.027 205.225 611.053 205.221 611.083 205.218L610.879 205.218C610.92 205.218 610.96 205.225 610.997 205.225Z" fill="#BBBBBB" fill-opacity="0.68"/>
<path d="M611.083 175.575C611.053 175.575 611.027 175.568 610.998 175.568C610.961 175.568 610.92 175.572 610.879 175.575L611.083 175.575Z" fill="#BBBBBB" fill-opacity="0.68"/>
<path d="M549.797 175.597C549.952 175.576 550.108 175.576 550.271 175.576C556.672 175.576 561.857 182.207 561.857 190.391C561.857 198.576 556.672 205.218 550.271 205.218C550.108 205.218 549.952 205.218 549.797 205.196L549.797 205.218L543.674 205.218C543.704 205.218 543.73 205.225 543.759 205.225L610.528 205.225L610.528 205.218L606.676 205.218C600.268 205.218 595.082 198.587 595.082 190.391C595.082 182.196 600.268 175.576 606.676 175.576L610.528 175.576L610.528 175.568L543.759 175.568C543.73 175.568 543.704 175.572 543.674 175.576L549.797 175.576L549.797 175.597Z" fill="#BBBBBB" fill-opacity="0.68"/>
<path d="M418.387 110.541C418.387 123.302 408.597 133.651 396.544 133.651L155.732 133.651V133.627C155.443 133.639 155.143 133.651 154.843 133.651C142.779 133.651 133 123.302 133 110.541C133 97.7801 142.775 87.4155 154.843 87.4155C155.143 87.4155 155.443 87.4273 155.732 87.4391V87.4155L396.544 87.4155C408.597 87.4155 418.387 97.7645 418.387 110.541Z" fill="#BBBBBB" fill-opacity="0.82"/>
<path d="M465.64 268.878C465.64 281.638 452.919 291.987 437.258 291.987H220.638V291.964C220.263 291.975 219.873 291.987 219.483 291.987C203.808 291.987 191.102 281.638 191.102 268.878C191.102 256.117 203.803 245.752 219.483 245.752C219.873 245.752 220.263 245.764 220.638 245.776V245.752H437.258C452.919 245.752 465.64 256.101 465.64 268.878Z" fill="#BBBBBB" fill-opacity="0.82"/>
<path d="M359.368 190.114C359.368 202.886 349.593 213.235 337.529 213.235H178.993V213.211C178.705 213.223 178.404 213.235 178.104 213.235C166.04 213.235 156.266 202.886 156.266 190.114C156.266 177.341 166.04 167.004 178.104 167.004C178.404 167.004 178.705 167.016 178.993 167.027V167.004H337.529C349.593 167.004 359.368 177.353 359.368 190.114Z" fill="#BBBBBB" fill-opacity="0.82"/>
<path d="M233.779 133.284C233.742 133.284 233.702 133.288 233.665 133.292H233.939C233.887 133.292 233.831 133.284 233.779 133.284Z" fill="#BBBBBB" fill-opacity="0.82"/>
<path d="M233.665 166.422C233.702 166.422 233.742 166.429 233.779 166.429C233.831 166.429 233.887 166.426 233.939 166.422H233.665Z" fill="#BBBBBB" fill-opacity="0.82"/>
<path d="M315.886 166.398C315.679 166.422 315.471 166.422 315.249 166.422C306.663 166.422 299.707 159.01 299.707 149.863C299.707 140.715 306.663 133.292 315.249 133.292C315.468 133.292 315.675 133.292 315.886 133.315V133.292L324.102 133.292C324.065 133.292 324.028 133.284 323.987 133.284L234.417 133.284V133.292H239.584C248.181 133.292 255.137 140.703 255.137 149.863C255.137 159.022 248.181 166.422 239.584 166.422H234.417V166.43L323.987 166.43C324.024 166.43 324.061 166.426 324.102 166.422H315.886V166.398Z" fill="#BBBBBB" fill-opacity="0.82"/>
<path d="M262.269 212.819C262.24 212.819 262.214 212.823 262.184 212.827H262.388C262.347 212.827 262.306 212.819 262.269 212.819Z" fill="#BBBBBB" fill-opacity="0.82"/>
<path d="M262.184 245.749C262.214 245.749 262.24 245.756 262.269 245.756C262.306 245.756 262.347 245.753 262.388 245.749H262.184Z" fill="#BBBBBB" fill-opacity="0.82"/>
<path d="M323.471 245.725C323.315 245.749 323.16 245.749 322.997 245.749C316.596 245.749 311.41 238.384 311.41 229.294C311.41 220.204 316.596 212.827 322.997 212.827C323.16 212.827 323.315 212.827 323.471 212.851V212.827H329.593C329.564 212.827 329.538 212.819 329.508 212.819H262.74V212.827H266.592C273 212.827 278.185 220.192 278.185 229.294C278.185 238.396 273 245.749 266.592 245.749H262.74V245.756H329.508C329.538 245.756 329.564 245.752 329.593 245.749H323.471V245.725Z" fill="#BBBBBB" fill-opacity="0.82"/>
</svg>
