<svg width="604" height="758" viewBox="0 0 604 758" fill="none" xmlns="http://www.w3.org/2000/svg">
<path d="M604 152.226V757.551H405.167V346.892V152.226H604Z" fill="#684163"/>
<path d="M418.49 0H405.167V103.249H418.49V0Z" fill="#BA8720"/>
<path d="M405.167 346.892V757.551H0V152.226L405.167 346.892Z" fill="#51364F"/>
<path d="M405.167 152.226V346.892L0 152.226H74.7752H330.399H405.167Z" fill="#2D202D"/>
<path d="M405.167 0V103.249H330.399H74.7752H0V0H405.167Z" fill="#F3B426"/>
<path d="M74.7744 103.249V152.226" stroke="black" stroke-width="3.49" stroke-miterlimit="10"/>
<path d="M330.399 103.249V152.226" stroke="black" stroke-width="3.49" stroke-miterlimit="10"/>
<path d="M47.7457 33.2846H33.7244V76.706H28.0358V33.2846H14.0459V28.1375H47.7457V33.2846Z" fill="black"/>
<path d="M81.107 76.706H55.3633V28.1375H80.0242V33.2846H61.0597V49.4401H78.604V54.5559H61.0597V71.5588H81.1148V76.706H81.107Z" fill="black"/>
<path d="M125.274 76.706H118.503L110.374 63.0927C109.628 61.8294 108.907 60.7466 108.208 59.86C107.51 58.9655 106.788 58.2437 106.058 57.6787C105.321 57.1138 104.536 56.7058 103.689 56.439C102.841 56.1801 101.884 56.0467 100.825 56.0467H96.1485V76.706H90.46V28.1375H104.96C107.086 28.1375 109.04 28.4042 110.837 28.9299C112.634 29.4635 114.187 30.2716 115.513 31.3544C116.839 32.4372 117.867 33.7868 118.612 35.4031C119.358 37.0195 119.727 38.9104 119.727 41.076C119.727 42.7708 119.476 44.3243 118.966 45.7367C118.456 47.149 117.734 48.4044 116.8 49.5107C115.866 50.6171 114.736 51.5586 113.41 52.3354C112.092 53.1122 110.601 53.7164 108.954 54.1479V54.2813C109.77 54.6422 110.476 55.0581 111.072 55.521C111.668 55.9839 112.241 56.5332 112.783 57.1609C113.324 57.7964 113.858 58.5104 114.391 59.3108C114.925 60.1111 115.513 61.0448 116.172 62.104L125.282 76.706H125.274ZM96.1407 33.2846V50.8995H103.861C105.282 50.8995 106.6 50.6877 107.808 50.2561C109.016 49.8246 110.06 49.2126 110.939 48.4123C111.818 47.6119 112.508 46.6312 113.002 45.4621C113.497 44.3008 113.748 42.9983 113.748 41.5468C113.748 38.9496 112.908 36.9253 111.221 35.4659C109.542 34.0065 107.102 33.2846 103.924 33.2846H96.1328H96.1407Z" fill="black"/>
<path d="M181.461 76.7058H175.804V44.1202C175.804 41.5466 175.961 38.3924 176.275 34.6732H176.142C175.6 36.8624 175.114 38.4316 174.682 39.381L158.087 76.7058H155.31L138.746 39.6478C138.275 38.565 137.789 36.9016 137.287 34.6654H137.153C137.334 36.6113 137.428 39.7812 137.428 44.1829V76.698H131.943V28.1294H139.46L154.36 62.0019C155.514 64.599 156.259 66.537 156.596 67.8238H156.8C157.773 65.1561 158.55 63.171 159.139 61.8606L174.345 28.1216H181.461V76.6901V76.7058Z" fill="black"/>
<path d="M199.925 76.706H194.236V28.1375H199.925V76.706Z" fill="black"/>
<path d="M251.851 76.7058H244.876L219.878 37.9922C219.242 37.0193 218.724 36.0071 218.316 34.94H218.112C218.293 35.9757 218.387 38.2041 218.387 41.6094V76.698H212.698V28.1294H220.082L244.397 66.231C245.417 67.8081 246.069 68.8988 246.359 69.4794H246.492C246.265 68.0827 246.155 65.6975 246.155 62.3314V28.1216H251.843V76.6901L251.851 76.7058Z" fill="black"/>
<path d="M302.176 76.706H295.876L290.729 63.0927H270.132L265.291 76.706H258.959L277.586 28.1375H283.479L302.176 76.706ZM288.869 57.9769L281.25 37.2784C280.999 36.6036 280.756 35.5208 280.505 34.03H280.372C280.144 35.411 279.885 36.4938 279.595 37.2784L272.039 57.9769H288.869Z" fill="black"/>
<path d="M334.526 76.706H309.324V28.1375H315.013V71.5588H334.519V76.706H334.526Z" fill="black"/>
<path d="M360.169 75.5212V69.6286C363.488 71.7707 366.862 72.8456 370.298 72.8456C373.735 72.8456 376.497 71.8727 378.6 69.9346C380.703 67.9966 381.746 65.4152 381.746 62.2139C381.746 59.0126 380.671 56.5489 378.529 54.7599C376.387 52.971 373.311 52.0843 369.318 52.0843C367.96 52.0843 365.426 52.2177 361.699 52.4923V28.1375H385.206V33.1512H366.948V47.3766C368.439 47.2902 369.812 47.2432 371.083 47.2432C376.277 47.2432 380.295 48.5456 383.143 51.1585C385.991 53.7634 387.411 57.3413 387.411 61.8765C387.411 66.4117 385.881 70.3583 382.821 73.2222C379.761 76.094 375.563 77.522 370.236 77.522C365.74 77.522 362.389 76.8551 360.177 75.5212H360.169Z" fill="black"/>
<path d="M493.422 205.997C493.422 213.404 487.411 219.414 480.005 219.414H450.644C443.237 219.414 437.227 213.411 437.227 205.997C437.227 198.582 443.229 192.58 450.644 192.58H480.005C487.411 192.58 493.422 198.59 493.422 205.997Z" fill="#492F48"/>
<path d="M554.741 249.559C554.741 256.966 548.731 262.976 541.324 262.976H511.963C504.556 262.976 498.546 256.974 498.546 249.559C498.546 242.145 504.548 236.142 511.963 236.142H541.324C548.731 236.142 554.741 242.152 554.741 249.559Z" fill="#492F48"/>
<path d="M511.296 296.143C511.296 303.549 505.285 309.56 497.878 309.56H450.644C443.237 309.56 437.227 303.557 437.227 296.143C437.227 288.728 443.229 282.725 450.644 282.725H497.878C505.285 282.725 511.296 288.736 511.296 296.143Z" fill="#492F48"/>
<path d="M90.8445 623.066C90.8445 630.473 84.8343 636.483 77.4274 636.483H48.0666C40.6597 636.483 34.6494 630.481 34.6494 623.066C34.6494 615.651 40.6518 609.649 48.0666 609.649H77.4274C84.8343 609.649 90.8445 615.659 90.8445 623.066Z" fill="#492F48"/>
<path d="M152.164 666.621C152.164 674.028 146.154 680.038 138.747 680.038H109.386C101.979 680.038 95.9688 674.035 95.9688 666.621C95.9688 659.206 101.971 653.204 109.386 653.204H138.747C146.154 653.204 152.164 659.214 152.164 666.621Z" fill="#492F48"/>
<path d="M108.718 713.212C108.718 720.619 102.708 726.629 95.3012 726.629H48.0666C40.6597 726.629 34.6494 720.627 34.6494 713.212C34.6494 705.797 40.6518 699.795 48.0666 699.795H95.3012C102.708 699.795 108.718 705.805 108.718 713.212Z" fill="#492F48"/>
</svg>
