<svg width="469" height="498" viewBox="0 0 469 498" fill="none" xmlns="http://www.w3.org/2000/svg">
<path d="M330.299 220.323C300.072 187.533 256.743 167 208.618 167C181.753 167 156.389 173.4 133.962 184.756C107.272 198.271 84.7377 218.821 68.785 243.935C68.785 243.935 68.7793 243.946 68.768 243.969C52.5317 269.582 43.1211 299.945 43.1211 332.509C43.1211 365.072 51.7324 392.805 66.6988 417.703C95.6507 465.811 148.373 498 208.618 498C300.038 498 374.127 423.911 374.127 332.509C374.127 289.231 357.516 249.808 330.299 220.323ZM105.594 235.091H115.906C117.958 235.091 119.62 236.752 119.62 238.787C119.62 240.823 117.958 242.501 115.906 242.501H105.594C103.559 242.501 101.898 240.84 101.898 238.787C101.898 236.735 103.559 235.091 105.594 235.091ZM285.871 307.111C287.923 307.111 289.584 308.772 289.584 310.824C289.584 312.877 287.923 314.538 285.871 314.538H275.559C273.506 314.538 271.862 312.877 271.862 310.824C271.862 308.772 273.506 307.111 275.559 307.111H285.871ZM281.273 324.271C283.325 324.271 284.986 325.932 284.986 327.968C284.986 330.003 283.325 331.681 281.273 331.681H256.142C254.09 331.681 252.429 330.02 252.429 327.968C252.429 325.915 254.09 324.271 256.142 324.271H281.273ZM271.862 405.577C273.898 405.577 275.559 407.238 275.559 409.29C275.559 411.343 273.898 413.004 271.862 413.004H236.527C234.475 413.004 232.814 411.343 232.814 409.29C232.814 407.238 234.475 405.577 236.527 405.577H271.862ZM242.1 392.453H216.045C214.01 392.453 212.349 390.792 212.349 388.74C212.349 386.688 214.01 385.044 216.045 385.044H242.1C244.152 385.044 245.813 386.705 245.813 388.74C245.813 390.775 244.152 392.453 242.1 392.453ZM101.898 257.184C103.933 257.184 105.594 258.845 105.594 260.88C105.594 262.915 103.933 264.593 101.898 264.593H91.586C89.5338 264.593 87.8727 262.932 87.8727 260.88C87.8727 258.828 89.5338 257.184 91.586 257.184H101.898ZM176.412 336.21C174.377 336.21 172.716 334.549 172.716 332.514C172.716 330.479 174.377 328.801 176.412 328.801H202.467C204.52 328.801 206.181 330.462 206.181 332.514C206.181 334.566 204.52 336.21 202.467 336.21H176.412ZM170.505 293.936H131.434C129.382 293.936 127.721 292.275 127.721 290.223C127.721 288.171 129.382 286.51 131.434 286.51H170.505C172.557 286.51 174.218 288.171 174.218 290.223C174.218 292.275 172.557 293.936 170.505 293.936ZM141.071 249.916H130.759C128.707 249.916 127.046 248.272 127.046 246.22C127.046 244.167 128.707 242.506 130.759 242.506H141.071C143.123 242.506 144.768 244.167 144.768 246.22C144.768 248.272 143.123 249.916 141.071 249.916ZM123.985 425.952C123.985 428.004 122.324 429.665 120.271 429.665H94.2164C92.1812 429.665 90.5202 428.004 90.5202 425.952C90.5202 423.9 92.1812 422.239 94.2164 422.239H120.271C122.324 422.239 123.985 423.9 123.985 425.952ZM186.299 403.718H212.354C214.406 403.718 216.05 405.379 216.05 407.431C216.05 409.483 214.406 411.127 212.354 411.127H186.299C184.247 411.127 182.586 409.466 182.586 407.431C182.586 405.396 184.247 403.718 186.299 403.718ZM201.186 423.491H227.241C229.293 423.491 230.937 425.152 230.937 427.205C230.937 429.257 229.293 430.918 227.241 430.918H201.186C199.134 430.918 197.473 429.257 197.473 427.205C197.473 425.152 199.134 423.491 201.186 423.491ZM235.252 367.458H209.219C207.167 367.458 205.506 365.797 205.506 363.745C205.506 361.693 207.167 360.032 209.219 360.032H235.252C237.304 360.032 238.965 361.693 238.965 363.745C238.965 365.797 237.304 367.458 235.252 367.458ZM219.191 285.359H202.796C200.761 285.359 199.1 283.698 199.1 281.646C199.1 279.593 200.761 277.949 202.796 277.949H219.191C221.243 277.949 222.904 279.61 222.904 281.646C222.904 283.681 221.243 285.359 219.191 285.359ZM213.516 300.393C215.552 300.393 217.213 302.037 217.213 304.089C217.213 306.142 215.552 307.803 213.516 307.803H187.461C185.409 307.803 183.748 306.142 183.748 304.089C183.748 302.037 185.409 300.393 187.461 300.393H213.516ZM187.235 276.107H161.179C159.144 276.107 157.483 274.446 157.483 272.394C157.483 270.341 159.144 268.68 161.179 268.68H187.235C189.287 268.68 190.948 270.341 190.948 272.394C190.948 274.446 189.287 276.107 187.235 276.107ZM182.779 229.467C180.726 229.467 179.065 227.806 179.065 225.771C179.065 223.736 180.726 222.058 182.779 222.058H208.811C210.863 222.058 212.524 223.719 212.524 225.771C212.524 227.823 210.863 229.467 208.811 229.467H182.779ZM111.904 393.247C113.956 393.247 115.617 394.908 115.617 396.96C115.617 399.012 113.956 400.673 111.904 400.673H74.7602C72.708 400.673 71.0469 399.012 71.0469 396.96C71.0469 394.908 72.708 393.247 74.7602 393.247H111.904ZM169.564 445.884C169.564 443.849 171.225 442.188 173.277 442.188H199.31C201.362 442.188 203.023 443.849 203.023 445.884C203.023 447.919 201.362 449.598 199.31 449.598H173.277C171.225 449.598 169.564 447.936 169.564 445.884ZM293.847 404.37C291.812 404.37 290.151 402.709 290.151 400.673C290.151 398.638 291.812 396.96 293.847 396.96H304.159C306.211 396.96 307.872 398.621 307.872 400.673C307.872 402.726 306.211 404.37 304.159 404.37H293.847ZM294.465 352.94C292.413 352.94 290.752 351.279 290.752 349.244C290.752 347.208 292.413 345.53 294.465 345.53H318.995C321.047 345.53 322.691 347.191 322.691 349.244C322.691 351.296 321.047 352.94 318.995 352.94H294.465ZM315.282 378.638C315.282 380.69 313.621 382.334 311.569 382.334H301.274C299.221 382.334 297.56 380.69 297.56 378.638C297.56 376.586 299.221 374.924 301.274 374.924H311.569C313.621 374.924 315.282 376.586 315.282 378.638ZM328.689 252.552H338.984C341.036 252.552 342.697 254.213 342.697 256.265C342.697 258.317 341.036 259.978 338.984 259.978H328.689C326.637 259.978 324.976 258.317 324.976 256.265C324.976 254.213 326.637 252.552 328.689 252.552ZM322.164 276.623H332.459C334.511 276.623 336.172 278.284 336.172 280.336C336.172 282.388 334.511 284.032 332.459 284.032H322.164C320.112 284.032 318.451 282.388 318.451 280.336C318.451 278.284 320.112 276.623 322.164 276.623ZM313.836 327.968C313.836 330.02 312.192 331.681 310.14 331.681H299.828C297.776 331.681 296.115 330.02 296.115 327.968C296.115 325.915 297.776 324.271 299.828 324.271H310.14C312.192 324.271 313.836 325.932 313.836 327.968ZM308.689 297.967C308.689 300.019 307.028 301.68 304.975 301.68H294.68C292.628 301.68 290.967 300.019 290.967 297.967C290.967 295.915 292.628 294.254 294.68 294.254H304.975C307.028 294.254 308.689 295.915 308.689 297.967ZM287.271 231.752H297.566C299.618 231.752 301.279 233.413 301.279 235.465C301.279 237.518 299.618 239.179 297.566 239.179H287.271C285.219 239.179 283.558 237.518 283.558 235.465C283.558 233.413 285.219 231.752 287.271 231.752ZM232.355 187.023H258.41C260.462 187.023 262.123 188.684 262.123 190.719C262.123 192.755 260.462 194.433 258.41 194.433H232.355C230.302 194.433 228.641 192.772 228.641 190.719C228.641 188.667 230.302 187.023 232.355 187.023ZM225.348 259.219C225.348 261.254 223.704 262.915 221.651 262.915H195.596C193.544 262.915 191.883 261.254 191.883 259.219C191.883 257.184 193.544 255.506 195.596 255.506H221.651C223.704 255.506 225.348 257.167 225.348 259.219ZM59.8222 361.109C57.77 361.109 56.1089 359.448 56.1089 357.396C56.1089 355.344 57.77 353.682 59.8222 353.682H85.8545C87.9067 353.682 89.5678 355.344 89.5678 357.396C89.5678 359.448 87.9067 361.109 85.8545 361.109H59.8222ZM172.376 482.195H146.321C144.269 482.195 142.608 480.534 142.608 478.481C142.608 476.429 144.269 474.768 146.321 474.768H172.376C174.411 474.768 176.072 476.429 176.072 478.481C176.072 480.534 174.411 482.195 172.376 482.195ZM222.235 490.982H198.414C196.362 490.982 194.718 489.321 194.718 487.268C194.718 485.216 196.362 483.555 198.414 483.555H222.235C224.288 483.555 225.949 485.216 225.949 487.268C225.949 489.321 224.288 490.982 222.235 490.982ZM259.98 482.195H240.223C238.171 482.195 236.527 480.534 236.527 478.481C236.527 476.429 238.171 474.768 240.223 474.768H259.98C262.032 474.768 263.693 476.429 263.693 478.481C263.693 480.534 262.032 482.195 259.98 482.195ZM291.268 466.361H280.973C278.92 466.361 277.259 464.7 277.259 462.648C277.259 460.595 278.92 458.934 280.973 458.934H291.268C293.32 458.934 294.981 460.595 294.981 462.648C294.981 464.7 293.32 466.361 291.268 466.361ZM321.881 441.088H311.569C309.533 441.088 307.872 439.427 307.872 437.375C307.872 435.323 309.533 433.662 311.569 433.662H321.881C323.933 433.662 325.594 435.323 325.594 437.375C325.594 439.427 323.933 441.088 321.881 441.088ZM342.431 421.088H332.119C330.067 421.088 328.406 419.427 328.406 417.374C328.406 415.322 330.067 413.678 332.119 413.678H342.431C344.466 413.678 346.127 415.339 346.127 417.374C346.127 419.41 344.466 421.088 342.431 421.088ZM361.162 370.31C359.569 370.31 358.208 369.301 357.698 367.889C357.165 369.306 355.804 370.31 354.211 370.31C352.176 370.31 350.515 368.649 350.515 366.597C350.515 364.544 352.176 362.9 354.211 362.9C355.804 362.9 357.165 363.909 357.698 365.304C358.208 363.909 359.574 362.9 361.162 362.9C363.214 362.9 364.875 364.561 364.875 366.597C364.875 368.632 363.214 370.31 361.162 370.31Z" fill="#0A6AA5"/>
<path d="M353.735 298.641C353.701 297.332 353.627 296.039 353.542 294.752C352.692 281.26 350.198 268.187 346.275 255.755C342.329 243.249 336.955 231.367 330.305 220.329C300.072 187.533 256.743 167 208.618 167C181.753 167 156.389 173.4 133.962 184.756C107.272 198.271 84.7377 218.821 68.785 243.935C68.785 243.935 68.7793 243.946 68.768 243.969C52.5317 269.582 43.1211 299.945 43.1211 332.508C43.1211 365.072 51.7324 392.805 66.6988 417.703C96.9432 450.476 140.278 471.027 188.38 471.027C278.614 471.027 351.961 398.814 353.837 309.033C353.871 307.865 353.888 306.68 353.888 305.512C353.888 303.211 353.837 300.915 353.729 298.63L353.735 298.641ZM313.836 327.968C313.836 330.02 312.192 331.681 310.14 331.681H299.828C297.776 331.681 296.115 330.02 296.115 327.968C296.115 325.915 297.776 324.271 299.828 324.271H310.14C312.192 324.271 313.836 325.932 313.836 327.968ZM308.689 297.967C308.689 300.019 307.028 301.68 304.975 301.68H294.68C292.628 301.68 290.967 300.019 290.967 297.967C290.967 295.915 292.628 294.254 294.68 294.254H304.975C307.028 294.254 308.689 295.915 308.689 297.967ZM287.271 231.752H297.566C299.618 231.752 301.279 233.413 301.279 235.465C301.279 237.518 299.618 239.179 297.566 239.179H287.271C285.219 239.179 283.558 237.518 283.558 235.465C283.558 233.413 285.219 231.752 287.271 231.752ZM232.355 187.023H258.41C260.462 187.023 262.123 188.684 262.123 190.719C262.123 192.755 260.462 194.433 258.41 194.433H232.355C230.302 194.433 228.641 192.772 228.641 190.719C228.641 188.667 230.302 187.023 232.355 187.023ZM105.594 235.091H115.906C117.958 235.091 119.62 236.752 119.62 238.787C119.62 240.823 117.958 242.501 115.906 242.501H105.594C103.559 242.501 101.898 240.84 101.898 238.787C101.898 236.735 103.559 235.091 105.594 235.091ZM101.898 257.184C103.933 257.184 105.594 258.845 105.594 260.88C105.594 262.915 103.933 264.593 101.898 264.593H91.586C89.5338 264.593 87.8727 262.932 87.8727 260.88C87.8727 258.828 89.5338 257.184 91.586 257.184H101.898ZM131.434 293.936C129.382 293.936 127.721 292.275 127.721 290.223C127.721 288.171 129.382 286.51 131.434 286.51H170.505C172.557 286.51 174.218 288.171 174.218 290.223C174.218 292.275 172.557 293.936 170.505 293.936H131.434ZM141.071 249.916H130.759C128.707 249.916 127.046 248.272 127.046 246.22C127.046 244.167 128.707 242.506 130.759 242.506H141.071C143.123 242.506 144.768 244.167 144.768 246.22C144.768 248.272 143.123 249.916 141.071 249.916ZM176.412 336.21C174.377 336.21 172.716 334.549 172.716 332.514C172.716 330.479 174.377 328.801 176.412 328.801H202.467C204.52 328.801 206.181 330.462 206.181 332.514C206.181 334.566 204.52 336.21 202.467 336.21H176.412ZM209.219 360.032H235.252C237.304 360.032 238.965 361.693 238.965 363.745C238.965 365.797 237.304 367.458 235.252 367.458H209.219C207.167 367.458 205.506 365.797 205.506 363.745C205.506 361.693 207.167 360.032 209.219 360.032ZM219.191 285.359H202.796C200.761 285.359 199.1 283.698 199.1 281.646C199.1 279.593 200.761 277.949 202.796 277.949H219.191C221.243 277.949 222.904 279.61 222.904 281.646C222.904 283.681 221.243 285.359 219.191 285.359ZM213.516 300.393C215.552 300.393 217.213 302.037 217.213 304.089C217.213 306.142 215.552 307.803 213.516 307.803H187.461C185.409 307.803 183.748 306.142 183.748 304.089C183.748 302.037 185.409 300.393 187.461 300.393H213.516ZM187.235 276.107H161.179C159.144 276.107 157.483 274.446 157.483 272.394C157.483 270.341 159.144 268.68 161.179 268.68H187.235C189.287 268.68 190.948 270.341 190.948 272.394C190.948 274.446 189.287 276.107 187.235 276.107ZM182.779 229.467C180.726 229.467 179.065 227.806 179.065 225.771C179.065 223.736 180.726 222.058 182.779 222.058H208.811C210.863 222.058 212.524 223.719 212.524 225.771C212.524 227.823 210.863 229.467 208.811 229.467H182.779ZM186.299 403.718H212.354C214.406 403.718 216.05 405.379 216.05 407.431C216.05 409.483 214.406 411.127 212.354 411.127H186.299C184.247 411.127 182.586 409.466 182.586 407.431C182.586 405.396 184.247 403.718 186.299 403.718ZM212.349 388.734C212.349 386.699 214.01 385.038 216.045 385.038H242.1C244.152 385.038 245.813 386.699 245.813 388.734C245.813 390.77 244.152 392.448 242.1 392.448H216.045C214.01 392.448 212.349 390.787 212.349 388.734ZM225.348 259.219C225.348 261.254 223.704 262.915 221.651 262.915H195.596C193.544 262.915 191.883 261.254 191.883 259.219C191.883 257.184 193.544 255.506 195.596 255.506H221.651C223.704 255.506 225.348 257.167 225.348 259.219ZM59.8222 361.109C57.77 361.109 56.1089 359.448 56.1089 357.396C56.1089 355.344 57.77 353.682 59.8222 353.682H85.8545C87.9067 353.682 89.5678 355.344 89.5678 357.396C89.5678 359.448 87.9067 361.109 85.8545 361.109H59.8222ZM71.0526 396.96C71.0526 394.908 72.7136 393.247 74.7658 393.247H111.91C113.962 393.247 115.623 394.908 115.623 396.96C115.623 399.012 113.962 400.673 111.91 400.673H74.7658C72.7136 400.673 71.0526 399.012 71.0526 396.96ZM120.271 429.665H94.2164C92.1812 429.665 90.5202 428.004 90.5202 425.952C90.5202 423.9 92.1812 422.239 94.2164 422.239H120.271C122.324 422.239 123.985 423.9 123.985 425.952C123.985 428.004 122.324 429.665 120.271 429.665ZM199.315 449.597H173.283C171.231 449.597 169.57 447.936 169.57 445.884C169.57 443.832 171.231 442.188 173.283 442.188H199.315C201.368 442.188 203.029 443.849 203.029 445.884C203.029 447.919 201.368 449.597 199.315 449.597ZM227.241 430.918H201.186C199.134 430.918 197.473 429.257 197.473 427.205C197.473 425.152 199.134 423.491 201.186 423.491H227.241C229.293 423.491 230.937 425.152 230.937 427.205C230.937 429.257 229.293 430.918 227.241 430.918ZM271.862 413.004H236.527C234.475 413.004 232.814 411.343 232.814 409.29C232.814 407.238 234.475 405.577 236.527 405.577H271.862C273.898 405.577 275.559 407.238 275.559 409.29C275.559 411.343 273.898 413.004 271.862 413.004ZM281.273 331.681H256.142C254.09 331.681 252.429 330.02 252.429 327.968C252.429 325.915 254.09 324.271 256.142 324.271H281.273C283.325 324.271 284.986 325.932 284.986 327.968C284.986 330.003 283.325 331.681 281.273 331.681ZM285.871 314.543H275.559C273.506 314.543 271.862 312.882 271.862 310.83C271.862 308.778 273.506 307.117 275.559 307.117H285.871C287.923 307.117 289.584 308.778 289.584 310.83C289.584 312.882 287.923 314.543 285.871 314.543ZM304.159 404.37H293.847C291.812 404.37 290.151 402.709 290.151 400.673C290.151 398.638 291.812 396.96 293.847 396.96H304.159C306.211 396.96 307.872 398.621 307.872 400.673C307.872 402.726 306.211 404.37 304.159 404.37ZM311.569 382.334H301.274C299.221 382.334 297.56 380.69 297.56 378.638C297.56 376.586 299.221 374.924 301.274 374.924H311.569C313.621 374.924 315.282 376.586 315.282 378.638C315.282 380.69 313.621 382.334 311.569 382.334ZM319.001 352.94H294.471C292.418 352.94 290.757 351.279 290.757 349.244C290.757 347.208 292.418 345.53 294.471 345.53H319.001C321.053 345.53 322.697 347.191 322.697 349.244C322.697 351.296 321.053 352.94 319.001 352.94ZM332.459 284.032H322.164C320.112 284.032 318.451 282.388 318.451 280.336C318.451 278.284 320.112 276.623 322.164 276.623H332.459C334.511 276.623 336.172 278.284 336.172 280.336C336.172 282.388 334.511 284.032 332.459 284.032ZM338.984 259.978H328.689C326.637 259.978 324.976 258.317 324.976 256.265C324.976 254.213 326.637 252.552 328.689 252.552H338.984C341.036 252.552 342.697 254.213 342.697 256.265C342.697 258.317 341.036 259.978 338.984 259.978Z" fill="#087AD0"/>
<path d="M245.371 272.093V272.076C245.354 270.29 245.28 268.505 245.161 266.736C245.036 264.984 244.877 263.249 244.651 261.52C244.418 259.644 244.118 257.773 243.766 255.931C240.529 239.02 232.604 223.759 221.373 211.593C216.402 206.219 210.795 201.423 204.678 197.392C202.609 196.014 200.466 194.722 198.295 193.52C191.044 189.54 183.192 186.519 174.893 184.642C174.116 184.466 173.317 184.291 172.523 184.149H172.506C169.252 183.497 165.964 183.015 162.602 182.732C159.983 182.499 157.37 182.38 154.694 182.38C147.568 182.38 140.618 183.213 133.968 184.767C107.278 198.282 84.7432 218.832 68.7905 243.946C68.7905 243.946 68.7848 243.958 68.7734 243.98C65.6781 253.107 64.0171 262.887 64.0171 273.074C64.0171 277.246 64.3005 281.368 64.8504 285.421C65.2756 288.465 65.8255 291.47 66.5285 294.407C68.7224 303.46 72.2599 311.986 76.9256 319.753C84.8112 332.826 95.9056 343.773 109.115 351.483C112.193 353.269 115.356 354.879 118.627 356.273L118.644 356.29C125.101 359.102 131.944 361.171 139.07 362.407C140.272 362.617 141.491 362.815 142.732 362.974C143.951 363.133 145.175 363.274 146.411 363.382C149.132 363.632 151.893 363.756 154.688 363.756C157.676 363.756 160.646 363.615 163.566 363.314C164.802 363.206 166.043 363.065 167.262 362.872C168.481 362.713 169.683 362.521 170.89 362.288C174.779 361.596 178.6 360.644 182.297 359.459C185.392 358.484 188.436 357.339 191.39 356.029C206.532 349.306 219.474 338.608 228.902 325.201V325.184C238.522 311.55 244.447 295.155 245.28 277.411V277.394C245.348 275.959 245.388 274.531 245.388 273.08C245.388 272.745 245.388 272.428 245.371 272.104V272.093ZM208.811 222.058C210.863 222.058 212.524 223.719 212.524 225.771C212.524 227.823 210.863 229.467 208.811 229.467H182.778C180.726 229.467 179.065 227.806 179.065 225.771C179.065 223.736 180.726 222.058 182.778 222.058H208.811ZM105.594 235.091H115.906C117.958 235.091 119.619 236.752 119.619 238.787C119.619 240.823 117.958 242.501 115.906 242.501H105.594C103.559 242.501 101.898 240.84 101.898 238.787C101.898 236.735 103.559 235.091 105.594 235.091ZM101.898 257.184C103.933 257.184 105.594 258.845 105.594 260.88C105.594 262.915 103.933 264.593 101.898 264.593H91.5858C89.5336 264.593 87.8725 262.932 87.8725 260.88C87.8725 258.828 89.5336 257.184 91.5858 257.184H101.898ZM144.767 246.22C144.767 248.272 143.123 249.916 141.071 249.916H130.759C128.707 249.916 127.046 248.272 127.046 246.22C127.046 244.167 128.707 242.506 130.759 242.506H141.071C143.123 242.506 144.767 244.167 144.767 246.22ZM131.434 293.936C129.381 293.936 127.72 292.275 127.72 290.223C127.72 288.171 129.381 286.51 131.434 286.51H170.505C172.557 286.51 174.218 288.171 174.218 290.223C174.218 292.275 172.557 293.936 170.505 293.936H131.434ZM161.179 276.107C159.144 276.107 157.483 274.446 157.483 272.394C157.483 270.341 159.144 268.68 161.179 268.68H187.234C189.287 268.68 190.948 270.341 190.948 272.394C190.948 274.446 189.287 276.107 187.234 276.107H161.179ZM202.461 336.21H176.406C174.371 336.21 172.71 334.549 172.71 332.514C172.71 330.479 174.371 328.801 176.406 328.801H202.461C204.514 328.801 206.175 330.462 206.175 332.514C206.175 334.566 204.514 336.21 202.461 336.21ZM213.516 307.803H187.461C185.409 307.803 183.748 306.142 183.748 304.089C183.748 302.037 185.409 300.393 187.461 300.393H213.516C215.551 300.393 217.212 302.037 217.212 304.089C217.212 306.142 215.551 307.803 213.516 307.803ZM219.191 285.359H202.796C200.761 285.359 199.1 283.698 199.1 281.646C199.1 279.593 200.761 277.949 202.796 277.949H219.191C221.243 277.949 222.904 279.61 222.904 281.646C222.904 283.681 221.243 285.359 219.191 285.359ZM221.651 262.915H195.596C193.544 262.915 191.883 261.254 191.883 259.219C191.883 257.184 193.544 255.505 195.596 255.505H221.651C223.703 255.505 225.347 257.167 225.347 259.219C225.347 261.271 223.703 262.915 221.651 262.915Z" fill="#189DEF"/>
<path d="M340.061 284.174C343.582 284.049 343.208 291.85 348.854 292.876C350.713 293.228 352.142 293.919 353.542 294.753C355.186 295.688 356.813 296.788 359.115 297.598C359.733 295.246 359.098 293.568 358.707 291.533C356.428 279.684 352.148 267.286 346.274 255.755C340.719 244.825 333.734 234.672 325.69 226.503C320.492 220.329 314.494 215.431 308.161 210.533C304.556 207.755 301.302 204.75 297.339 202.965L294.102 207.619C286.126 202.296 273.535 197.358 266.811 206.241C264.918 208.736 263.223 211.457 259.753 213.016C256.108 214.66 259.379 221.026 258.551 222.495C259.685 223.169 259.169 225.499 261.596 226.083C264.3 226.735 264.107 223.713 266.301 223.94C268.654 224.19 265.876 228.288 271.573 228.872C273.45 229.082 275.462 228.731 276.012 226.644C276.613 224.275 276.063 221.956 275.604 219.802C275.57 219.643 275.57 219.45 275.587 219.292C273.251 216.179 272.191 211.083 276.721 208.594C278.915 207.375 281.511 207.284 283.195 209.178C283.002 211.015 282.169 212.642 281.5 214.291C279.765 218.481 285.746 217.812 286.432 221.242C287.05 224.428 280.451 230.068 277.888 231.764C277.271 233.016 277.837 234.417 277.837 235.993L277.888 262.949C277.888 263.816 277.854 264.559 277.395 265.035V265.052C278.438 266.838 279.748 272.796 283.495 271.969C284.714 271.685 285.139 270.291 285.139 268.822C285.105 263.748 278.858 261.129 279.124 257.819C290.247 258.136 288.32 268.289 292.214 268.289C296.795 268.306 293.524 261.305 297.078 260.88C299.873 260.545 300.723 264.559 301.466 266.838C303.802 274.089 309.851 269.508 314.856 272.995C316.926 274.446 317.192 279.027 314.607 280.211C311.495 281.663 307.464 281.203 304.261 280.319C289.068 276.107 287.475 291.158 277.271 280.693C277.146 280.869 277.038 281.067 276.953 281.26C276.579 281.969 276.386 282.745 276.244 283.562C276.193 283.879 276.154 284.197 276.103 284.514C276.069 284.69 276.052 284.849 276.012 285.024C275.961 285.359 275.904 285.699 275.836 286.034C275.746 286.459 275.644 286.901 275.485 287.326C275.417 287.519 275.343 287.717 275.252 287.893C275.218 288.001 275.162 288.103 275.111 288.193C275.077 288.301 275.003 288.386 274.952 288.494C274.901 288.562 274.844 288.653 274.759 288.726C274.691 288.794 274.617 288.868 274.527 288.936C274.476 288.97 274.402 289.027 274.334 289.078C274.102 289.237 273.841 289.378 273.54 289.486C273.331 289.577 273.098 289.645 272.888 289.696C272.747 289.747 272.605 289.786 272.463 289.803C272.146 289.871 271.828 289.911 271.545 289.911C271.171 289.928 270.836 289.877 270.609 289.735C270.485 289.645 270.377 289.577 270.258 289.503C269.124 288.794 268.064 288.069 266.913 287.451C266.703 287.326 266.471 287.201 266.222 287.077C265.83 286.884 265.428 286.685 265.003 286.51C262.384 285.416 259.713 285.234 257.202 285.801C256.743 285.926 256.284 286.051 255.841 286.209C254.923 286.51 254.039 286.935 253.205 287.428C252.797 287.678 252.389 287.938 251.986 288.222C251.777 288.364 251.578 288.522 251.386 288.681C250.994 288.998 250.609 289.333 250.252 289.673C250.059 289.849 249.878 290.025 249.702 290.223C249.35 290.597 249.01 290.966 248.676 291.34C248.341 291.731 248.024 292.099 247.701 292.491C247.293 293.001 246.907 293.517 246.55 294.027C246.198 294.537 245.858 295.053 245.541 295.563L245.524 295.58C245.257 296.005 245.014 296.448 244.781 296.89C244.407 297.525 244.089 298.182 243.789 298.834C243.579 299.327 243.364 299.826 243.171 300.32C243.046 300.637 242.922 300.938 242.82 301.255C242.627 301.822 242.428 302.389 242.253 302.956C241.935 303.982 241.669 305.025 241.459 306.085C241.368 306.459 241.3 306.828 241.227 307.219C241.034 308.137 240.892 309.078 240.767 310.031C240.716 310.297 240.677 310.564 240.66 310.824C240.569 311.391 240.501 311.958 240.45 312.542C240.382 313.319 240.291 314.101 240.218 314.895C240.149 315.887 240.076 316.873 240.008 317.899C239.883 319.685 239.849 322.038 239.883 324.566C239.883 325.008 239.9 325.451 239.917 325.893C239.934 327.151 239.985 328.438 240.059 329.697C240.076 330.031 240.093 330.349 240.127 330.689C240.144 331.023 240.161 331.341 240.195 331.664C240.212 332.015 240.246 332.372 240.286 332.724C240.32 333.183 240.376 333.642 240.427 334.068C240.461 334.419 240.518 334.776 240.552 335.111C240.586 335.377 240.62 335.621 240.66 335.87C240.784 336.738 240.926 337.514 241.085 338.206C241.119 338.455 241.193 338.699 241.244 338.915C241.278 339.022 241.312 339.124 241.351 339.215C241.385 339.323 241.419 339.425 241.459 339.516C241.493 339.623 241.527 339.708 241.55 339.799C241.567 339.89 241.584 339.958 241.584 340.031C241.601 340.082 241.584 340.139 241.567 340.207C241.567 340.258 241.533 340.315 241.499 340.332C241.482 340.366 241.448 340.4 241.391 340.44C241.34 340.474 241.266 340.508 241.198 340.547C244.685 342.883 249.209 343.359 253.597 341.965C255.258 341.432 257.083 341.273 258.744 340.655C262.882 339.096 267.304 338.376 271.516 340.071C277.815 342.617 278.257 350.1 277.939 355.565C278.132 356.591 277.922 357.883 278.574 358.96L285.876 364.919C288.405 366.988 287.22 371.869 285.343 373.904C284.476 374.879 278.62 387.363 279.085 389.024L282.872 396.433C285.015 400.645 283.404 411.535 288.779 421.196C290.939 425.033 294.879 426.961 299.357 425.459C307.708 422.647 307.441 414.404 313.649 409.682C319.891 404.925 315.61 397.816 321.183 391.183C323.57 388.321 326.739 385.769 328.326 382.249C332.674 372.538 326.166 363.076 338.02 352.639C343.344 347.951 347.233 341.8 348.157 334.651C348.366 333.2 347.697 331.908 347.04 331.023C345.521 328.88 343.06 330.49 341.025 328.846C340.299 328.245 340.248 327.027 340.583 326.017C341.875 321.913 344.971 319.158 348.225 316.482C350.736 314.447 352.737 311.901 353.865 309.056C354.891 306.561 355.26 303.84 354.75 301.006C354.608 300.155 354.291 299.271 353.758 298.653C353.281 298.052 352.607 297.7 351.756 297.837L350.146 301.442C348.61 301.567 345.742 301.266 344.789 299.583C342.862 296.187 341.303 292.967 339.092 289.645C338.1 288.176 337.731 284.248 340.084 284.18L340.061 284.174ZM322.164 276.623H332.459C334.511 276.623 336.172 278.284 336.172 280.336C336.172 282.388 334.511 284.032 332.459 284.032H322.164C320.112 284.032 318.451 282.388 318.451 280.336C318.451 278.284 320.112 276.623 322.164 276.623ZM297.56 239.179H287.265C285.213 239.179 283.552 237.518 283.552 235.465C283.552 233.413 285.213 231.752 287.265 231.752H297.56C299.612 231.752 301.273 233.413 301.273 235.465C301.273 237.518 299.612 239.179 297.56 239.179ZM311.126 258.402C307.821 257.926 306.563 261.339 304.567 261.339C303.717 261.339 300.27 255.982 304.25 253.153C306.495 251.56 309.165 250.233 311.909 249.666C317.425 248.465 317.266 254.457 320.202 258.261C320.786 259.02 320.996 260.154 320.594 260.738C318.825 263.216 314.494 258.901 311.132 258.402H311.126ZM310.14 324.271C312.192 324.271 313.836 325.932 313.836 327.968C313.836 330.003 312.192 331.681 310.14 331.681H299.828C297.776 331.681 296.115 330.02 296.115 327.968C296.115 325.915 297.776 324.271 299.828 324.271H310.14ZM294.68 294.254H304.975C307.028 294.254 308.689 295.915 308.689 297.967C308.689 300.019 307.028 301.68 304.975 301.68H294.68C292.628 301.68 290.967 300.019 290.967 297.967C290.967 295.915 292.628 294.254 294.68 294.254ZM281.273 331.681H256.142C254.09 331.681 252.429 330.02 252.429 327.968C252.429 325.915 254.09 324.271 256.142 324.271H281.273C283.325 324.271 284.986 325.932 284.986 327.968C284.986 330.003 283.325 331.681 281.273 331.681ZM285.871 314.543H275.559C273.506 314.543 271.862 312.882 271.862 310.83C271.862 308.778 273.506 307.117 275.559 307.117H285.871C287.923 307.117 289.584 308.778 289.584 310.83C289.584 312.882 287.923 314.543 285.871 314.543ZM304.159 404.37H293.847C291.812 404.37 290.151 402.709 290.151 400.673C290.151 398.638 291.812 396.96 293.847 396.96H304.159C306.211 396.96 307.872 398.621 307.872 400.673C307.872 402.726 306.211 404.37 304.159 404.37ZM311.568 382.334H301.273C299.221 382.334 297.56 380.69 297.56 378.638C297.56 376.586 299.221 374.925 301.273 374.925H311.568C313.621 374.925 315.282 376.586 315.282 378.638C315.282 380.69 313.621 382.334 311.568 382.334ZM319.001 352.94H294.471C292.418 352.94 290.757 351.279 290.757 349.244C290.757 347.208 292.418 345.53 294.471 345.53H319.001C321.053 345.53 322.697 347.191 322.697 349.244C322.697 351.296 321.053 352.94 319.001 352.94ZM327.243 312.826C325.191 306.686 321.178 296.873 317.323 291.799C316.812 291.124 316.506 290.382 316.948 289.837C319.636 286.391 328.179 302.661 329.296 304.73C331.382 308.551 338.672 318.897 335.293 322.202C332.039 325.405 327.867 314.634 327.243 312.826ZM328.689 259.978C326.637 259.978 324.976 258.317 324.976 256.265C324.976 254.213 326.637 252.552 328.689 252.552H338.984C341.036 252.552 342.697 254.213 342.697 256.265C342.697 258.317 341.036 259.978 338.984 259.978H328.689Z" fill="#6CE22E"/>
<path d="M334.483 404.778C333.752 405.645 332.374 405.713 331.813 405.43C329.54 404.262 332.618 395.877 333.293 392.686C334.472 387.147 337.238 382.459 341.456 378.728C343.021 377.351 344.489 374.964 346.796 374.924C348.106 374.902 348.259 377.617 347.936 378.83C345.379 388.354 340.889 397.164 334.477 404.772L334.483 404.778Z" fill="#6CE22E"/>
<path d="M274.663 273.658C274.323 275.002 275.718 275.744 276.069 276.855L277.26 280.659C275.763 282.887 276.403 286.017 274.947 288.471C274.363 289.458 271.556 290.285 270.598 289.696C268.722 288.539 267.032 287.337 264.992 286.481C259.476 284.174 253.744 285.965 249.685 290.2C242.026 298.182 240.7 306.947 239.991 317.877C239.64 323.33 239.94 334.181 241.244 338.898C241.425 339.555 241.919 340.241 241.176 340.525C239.736 339.561 238.302 338.801 236.782 337.441C229.52 330.944 230.813 329.572 227.593 321.675C228.613 317.293 225.575 304.435 237.621 292.576C240.932 289.316 242.956 285.183 242.956 280.688C243.75 279.537 244.532 277.377 246.097 276.997C248.308 276.458 250.445 277.615 252.565 276.974C257.559 275.472 264.442 270.631 267.701 270.517C270.576 270.421 272.526 272.422 274.674 273.652L274.663 273.658Z" fill="#EFFC7C"/>
<path d="M277.877 231.752C277.259 233.005 277.826 234.405 277.832 235.976L277.877 262.932C277.877 263.822 277.843 264.565 277.39 265.024C274.714 260.551 272.707 255.744 266.443 257.422C254.147 260.715 254.821 274.191 247.877 273.034C244.997 272.552 243.302 270.398 241.346 268.839C241.198 267.768 240.501 266.781 239.639 266.186C238.041 257.575 241.057 258.544 242.338 255.908L248.268 255.987C249.498 256.946 251.318 257.274 253.069 256.889C256.051 256.237 251.08 251.078 250.535 249.973C249.934 245.103 254.77 246.548 256.879 241.94C256.482 242.807 261.545 235.233 261.261 235.522C265.524 233.714 270.366 234.224 273.115 233.334C274.799 232.79 276.233 231.854 277.877 231.752Z" fill="#EFFC7C"/>
<path d="M254.73 240.273C252.514 242.665 250.207 241.157 248.262 242.427C247.741 240.981 247.763 239.128 246.533 238.113C246.533 237.943 246.437 237.739 246.488 237.574C246.907 236.191 245.79 235.08 245.909 232.875C244.243 234.065 244.668 238.368 241.629 238.459C240.722 238.487 239.985 237.518 239.214 237.036C238.772 235.239 238.449 233.107 240.133 231.678C240.864 231.061 241.896 230.856 242.332 230.102C243.336 229.983 244.146 230.754 245.291 231.866C245.989 229.87 243.812 228.572 243.676 226.86L243.619 226.1C243.596 225.783 243.075 225.675 242.78 225.72C243.222 224.399 242.729 221.735 244.679 221.213C250.235 219.734 251.425 228.923 255.042 233.487C256.737 235.624 256.482 238.379 254.725 240.273H254.73Z" fill="#EFFC7C"/>
<path d="M235.268 214.892C230.818 217.273 229.288 216.548 225.767 214.405C226.09 212.63 224.979 210.278 227.632 209.427C230.971 208.362 236.674 209.654 236.51 212.438C236.465 213.175 236.045 214.478 235.268 214.892Z" fill="#EFFC7C"/>
<path d="M190.766 369.919L187.019 376.705C186.537 377.583 186.583 378.632 186.265 379.375C185.948 380.117 185.993 381.07 185.528 381.801C184.479 384.233 184.179 387.073 182.314 389.449C180.454 391.813 177.937 395.248 174.972 396.376C161.69 401.445 173.158 411.83 160.408 419.693C154.626 423.259 155.669 427.295 153.237 432.375C151.842 435.283 151.1 438.089 151.871 441.287C152.914 445.601 154.892 449.394 157.086 453.248C158.061 454.966 159.184 456.548 159.065 458.952C147.817 452.069 141.36 444.819 137.046 432.42C136.842 431.836 136.445 431.553 136.014 431.519C135.64 430.039 135.776 428.384 134.881 427.035C134.864 426.479 135.056 425.691 134.438 425.419C134.495 425.289 134.438 425.022 134.41 424.88C133.713 421.088 133.157 417.233 132.182 413.565L132.12 412.488C132.108 412.318 131.712 400.469 131.105 401.711L131.173 399.557C131.264 396.558 129.778 384.386 127.715 382.198C127.108 373.196 123.486 372.158 120.079 363.286C115.419 351.149 122.346 337.957 134.915 335.394C147.517 332.826 150.454 343.212 156.604 348.127C171.928 360.366 188.72 355.293 190.761 369.936L190.766 369.919Z" fill="#6CE22E"/>
<path d="M191.39 356.018C186.225 349.419 173.668 351.704 166.435 345.372C161.06 340.666 158.492 331.664 152.885 328.092C146.202 323.795 138.135 321.443 130.107 320.966C120.096 320.348 120.487 321.975 112.794 324.629C113.128 326.664 108.638 325.337 107.612 323.977C106.11 321.958 107.119 319.645 107.403 317.576C107.51 316.658 107.879 315.173 107.561 314.18C106.977 312.429 104.817 312.519 103.633 311.686C102.289 311.896 101.087 311.403 100.061 310.609C98.984 309.793 97.8672 307.797 99.052 306.505L104.166 300.932C104.131 299.872 103.672 298.313 102.397 298.012C97.7425 296.878 94.7208 302.735 91.7843 303.409C89.0631 304.044 86.6197 301.023 85.8431 299.271C85.5086 298.545 84.0233 297.944 84.7093 296.584C84.7773 296.459 84.6752 296.193 84.6923 296.051C83.3827 294.407 84.5505 292.23 85.0097 290.427C86.5857 284.31 91.1266 281.232 97.2492 280.631C99.086 280.455 101.121 278.42 103.474 279.537C104.817 280.172 105.895 281.697 105.895 283.091C106.019 283.301 106.246 283.499 106.32 283.743C107.238 286.765 108.763 289.458 110.09 292.304L110.073 292.836C110.708 292.887 111.116 293.386 111.649 294.055C114.812 292.162 110.657 285.353 112.743 279.854C112.885 279.503 113.202 279.061 113.451 278.76C113.009 278.25 113.644 277.485 114.177 276.94C118.44 272.592 125.742 271.283 131.95 261.923C132.443 261.18 133.044 260.528 133.752 260.347C133.894 259.655 134.727 259.128 134.971 258.488C136.247 255.301 139.393 252.546 142.999 252.422C146.445 252.28 149.699 251.645 151.933 248.3C152.358 247.665 153.56 247.484 153.277 246.248C153.118 245.647 152.443 245.131 152.092 244.445L148.271 242.801C147.194 242.342 146.043 240.358 146.854 239.615C151.859 239.224 156.65 238.357 161.287 237.336C163.107 236.928 165.034 237.002 166.576 235.76C166.435 234.008 167.16 231.463 165.284 230.119C163.322 228.725 162.347 227.007 161.78 224.921C157.058 221.032 154.297 225.964 151.009 225.981C147.863 225.998 154.756 221.684 152.001 218.481C150.465 216.729 147.579 216.803 145.493 217.421C143.974 217.88 142.664 220.091 142.681 221.65C142.715 223.611 141.797 224.535 141.304 225.93C139.501 230.953 135.538 234.774 130.657 237.211C130.64 235.375 131.349 234.383 130.782 233.039C129.472 230.017 124.625 230.686 120.362 227.733C116.615 225.131 122.505 218.129 124.483 217.937C124.274 216.378 132.568 212.738 133.877 212.171C137.063 210.828 139.909 208.843 142.579 205.964C141.219 204.371 139.025 204.104 136.989 204.569L127.811 206.604C126.11 206.995 124.274 207.029 123.021 206.071L122.488 206.105C120.651 206.213 119.625 204.195 119.767 202.46C119.483 202.426 119.024 202.528 118.775 202.369L105.844 212.698L102.13 215.935C99.3014 218.413 97.0338 221.066 94.3467 223.804C78.9608 239.456 68.6998 259.122 65.321 280.931C65.0716 282.49 64.8959 283.976 64.8448 285.421C64.7371 288.091 65.0206 290.654 65.9616 293.381C66.1204 293.857 66.1941 294.265 66.5285 294.407C66.5966 294.458 66.7043 294.475 66.812 294.475C67.2372 294.509 68.1046 294.582 68.1046 293.8C68.1046 291.499 67.3279 280.784 69.6409 281.135L72.1863 293.483C73.1047 297.939 74.59 301.726 76.9086 305.597C83.1899 316.068 90.5257 309.787 92.6686 314.351C96.773 316.029 103.015 319.674 103.088 324.629C103.298 324.646 103.514 325.037 103.672 325.178C109.245 329.969 112.885 328.784 113.417 332.146C113.451 332.378 113.792 332.554 113.877 332.781C114.018 333.257 113.718 333.897 113.894 334.357C114.971 337.327 111.751 345.411 110.231 347.798C109.523 348.966 109.279 350.202 109.115 351.477C108.956 352.77 108.905 354.096 108.531 355.349C108.831 360.355 110.492 364.652 113.519 368.632C116.105 370.191 118.117 372.68 120.419 374.698C120.577 374.857 120.753 375.049 120.952 375.174C122.21 376.058 123.854 376.977 123.973 378.604L124.007 379.08C125.51 379.698 126.609 380.99 127.72 382.175C127.12 373.173 123.491 372.147 120.079 363.269C119.846 362.685 119.67 362.101 119.495 361.517C118.984 359.782 118.718 358.014 118.644 356.285C118.593 354.692 118.712 353.099 118.996 351.562C119.047 351.245 119.121 350.927 119.189 350.61C119.257 350.292 119.347 349.992 119.438 349.675C119.529 349.357 119.614 349.057 119.721 348.756C119.829 348.439 119.931 348.138 120.056 347.838C120.198 347.486 120.339 347.146 120.515 346.795C120.657 346.46 120.833 346.12 121.008 345.786C121.15 345.502 121.309 345.219 121.485 344.935C121.66 344.635 121.836 344.334 122.034 344.034C122.051 344.034 122.051 344.017 122.051 344.017C122.284 343.665 122.528 343.325 122.794 342.974C122.919 342.798 123.061 342.639 123.185 342.48C123.31 342.305 123.452 342.146 123.593 341.987C123.803 341.738 124.019 341.511 124.245 341.279C124.512 340.978 124.795 340.695 125.096 340.445C125.203 340.338 125.288 340.236 125.396 340.145C125.714 339.861 126.048 339.578 126.388 339.311C126.655 339.102 126.921 338.903 127.182 338.711C127.431 338.535 127.692 338.359 127.959 338.2C128.225 338.025 128.508 337.849 128.792 337.69C129.109 337.514 129.41 337.339 129.727 337.18C130.26 336.913 130.804 336.67 131.371 336.454C131.655 336.33 131.938 336.222 132.222 336.137C132.789 335.927 133.39 335.746 133.99 335.604C134.291 335.513 134.591 335.445 134.909 335.394C136.961 334.969 138.764 334.901 140.357 335.094C140.907 335.145 141.434 335.252 141.933 335.377C142.126 335.411 142.341 335.485 142.534 335.536C142.727 335.587 142.908 335.661 143.101 335.729C143.31 335.797 143.543 335.887 143.753 335.978C143.962 336.069 144.161 336.171 144.371 336.261C144.563 336.369 144.779 336.471 144.971 336.579C145.164 336.687 145.363 336.789 145.538 336.913C145.731 337.038 145.913 337.146 146.105 337.265C146.281 337.39 146.457 337.531 146.638 337.656C146.814 337.798 146.99 337.94 147.171 338.081C147.438 338.274 147.681 338.506 147.914 338.716C148.163 338.949 148.39 339.175 148.639 339.408C148.815 339.567 148.974 339.742 149.133 339.901C149.308 340.077 149.467 340.253 149.626 340.434C149.943 340.785 150.244 341.143 150.561 341.494C150.703 341.67 150.862 341.846 151.02 342.044C151.321 342.395 151.621 342.77 151.922 343.138C152.063 343.314 152.222 343.49 152.364 343.688C152.664 344.039 152.965 344.414 153.265 344.765C153.725 345.298 154.184 345.808 154.643 346.301C154.802 346.46 154.943 346.619 155.102 346.778C155.261 346.919 155.42 347.078 155.578 347.254C155.913 347.537 156.23 347.821 156.587 348.121H156.604C157.472 348.813 158.339 349.448 159.207 350.032C159.49 350.224 159.79 350.423 160.074 350.599C160.834 351.092 161.61 351.551 162.376 351.976C163.351 352.509 164.32 352.985 165.278 353.427C165.754 353.637 166.23 353.853 166.712 354.045C167.189 354.255 167.665 354.454 168.13 354.629C168.521 354.788 168.923 354.93 169.314 355.088L170.375 355.463C170.766 355.604 171.151 355.729 171.525 355.854C173.135 356.404 174.711 356.88 176.214 357.339C177.166 357.64 178.107 357.94 179.009 358.24C179.292 358.331 179.575 358.416 179.842 358.524C180.352 358.7 180.868 358.898 181.361 359.091C181.679 359.199 181.996 359.34 182.297 359.465C182.705 359.641 183.13 359.816 183.515 360.032C183.907 360.225 184.292 360.423 184.666 360.65C184.916 360.792 185.16 360.933 185.392 361.092C185.641 361.251 185.868 361.409 186.084 361.568C186.9 362.169 187.643 362.861 188.278 363.671C188.453 363.904 188.629 364.131 188.788 364.38C188.98 364.664 189.162 364.981 189.338 365.298C189.638 365.848 189.888 366.432 190.097 367.067V367.084C190.165 367.26 190.222 367.436 190.273 367.634C190.364 367.901 190.432 368.184 190.505 368.467C190.613 368.927 190.698 369.42 190.772 369.936C191.747 368.15 193.317 366.631 193.725 364.505C193.794 360.633 192.909 357.963 191.39 356.035V356.018ZM130.759 242.506H141.071C143.123 242.506 144.767 244.167 144.767 246.22C144.767 248.272 143.123 249.916 141.071 249.916H130.759C128.707 249.916 127.046 248.272 127.046 246.22C127.046 244.167 128.707 242.506 130.759 242.506ZM105.594 235.091H115.906C117.958 235.091 119.619 236.752 119.619 238.787C119.619 240.823 117.958 242.501 115.906 242.501H105.594C103.559 242.501 101.898 240.84 101.898 238.787C101.898 236.735 103.559 235.091 105.594 235.091ZM92.9634 237.659C93.3716 240.806 88.4905 248.64 89.8681 248.873C92.4702 250.058 95.6336 249.74 98.6212 249.615C99.0293 249.615 99.4375 249.598 99.823 249.598C100.123 249.598 100.424 249.598 100.724 249.615C101.025 249.598 101.325 249.615 101.626 249.632C101.66 249.615 101.694 249.632 101.716 249.632C102.952 249.723 104.177 249.882 105.379 250.109C105.486 250.126 105.571 250.143 105.662 250.177C106.121 250.267 106.564 250.369 107.023 250.511C107.998 250.795 108.933 251.129 109.818 251.554C110.277 251.764 110.702 251.996 111.127 252.246C111.745 252.597 112.346 253.006 112.913 253.465C113.287 253.765 113.639 254.083 113.973 254.417C114.307 254.752 114.625 255.109 114.925 255.494C115.226 255.868 115.509 256.254 115.759 256.679C115.883 256.889 116.008 257.104 116.133 257.314C116.484 257.966 116.785 258.675 117.017 259.417C117.085 259.667 117.176 259.927 117.227 260.194C117.295 260.443 117.369 260.704 117.403 260.988C117.454 261.254 117.511 261.537 117.545 261.804C117.596 262.087 117.613 262.371 117.652 262.671H117.635C117.017 263.164 116.275 263.697 115.441 264.247C115.107 264.457 114.75 264.689 114.381 264.899C113.831 265.217 113.264 265.551 112.663 265.891C111.671 266.441 110.594 266.985 109.46 267.501C107.76 268.295 105.94 269.06 104.086 269.729C103.468 269.939 102.85 270.154 102.21 270.364C94.8852 272.717 87.232 273.528 83.5131 269.905C75.5027 262.087 85.707 243.13 92.9578 237.642L92.9634 237.659Z" fill="#EFFC7C"/>
<path d="M222.253 180.651C219.271 183.435 213.936 182.346 213.76 186.796C213.63 190.028 212.054 192.925 209.299 194.784C205.466 197.364 201.118 199.047 196.821 200.136C195.704 198.815 200.087 193.815 197.535 189.648C195.376 186.122 191.299 184.665 187.354 184.302C180.868 183.712 181.475 185.141 179.071 183.82L182.853 181.541C182.393 180.963 181.146 180.254 181.475 179.353C181.843 178.894 183.38 179.415 183.442 178.627C183.782 178.605 184.134 178.565 184.48 178.565C185.591 178.565 186.849 178.865 187.711 178.026L188.777 178.06C190.2 178.106 191.634 177.856 193.238 177.652C197.201 177.142 221.005 177.607 222.264 180.657L222.253 180.651Z" fill="#6CE22E"/>
<path d="M136.496 193.14C136.672 193.117 136.859 193.208 137.041 193.219L137.693 193.253C137.834 193.571 137.953 193.9 138.05 194.24C135.567 198.452 134.869 197.449 132.698 200.005C131.632 200.691 130.107 201.077 128.679 201.547C127.692 200.89 128.418 199.053 128.957 197.97C128.974 197.794 128.928 197.607 128.957 197.432C131.122 195.754 133.265 194.138 135.89 193.276C136.083 193.214 136.304 193.168 136.502 193.146L136.496 193.14Z" fill="#EFFC7C"/>
<path d="M148.968 189.886C147.704 191.343 146.286 192.913 144.036 193.089C142.76 193.185 141.695 192.284 141.235 191.394L141.303 190.47C141.802 190.3 142.21 189.954 142.42 189.467C142.585 189.472 142.8 189.467 142.959 189.433C143.231 189.364 143.429 189.115 143.497 188.854L143.979 188.843C145.277 188.815 146.678 188.083 148.22 188.474C149.013 188.679 148.77 189.518 148.968 189.886Z" fill="#EFFC7C"/>
<path d="M179.06 183.826C181.458 185.147 180.857 183.713 187.342 184.308C191.288 184.671 195.364 186.122 197.524 189.654C200.081 193.82 195.693 198.821 196.81 200.142C195.676 200.431 194.786 201.604 194.049 202.341C193.278 202.727 192.303 203.492 191.492 203.753C188.828 204.592 186.877 207.069 186.067 209.745C185.834 210.505 185.126 211.157 185.007 211.99C184.922 212.585 184.627 213.135 184.315 213.64C182.762 214.847 181.254 215.431 179.162 214.864C177.484 214.411 176.441 212.976 175.403 211.429C175.131 208.18 177.847 203.475 179.632 200.731C181.254 198.248 182.042 194.716 179.315 192.199C177.121 190.17 173.663 189.659 170.891 189.949C170.437 189.994 169.995 189.988 169.388 190.181C168.969 190.317 168.753 189.784 168.725 189.274C170.04 186.972 172.648 186.111 174.802 184.659L179.06 183.832V183.826Z" fill="#EFFC7C"/>
<path d="M117.018 259.429C116.768 258.686 116.468 257.977 116.133 257.325C116.008 257.116 115.884 256.9 115.759 256.69C115.51 256.265 115.226 255.874 114.926 255.506C114.625 255.114 114.308 254.763 113.973 254.428C113.639 254.094 113.282 253.776 112.913 253.476C112.346 253.017 111.745 252.609 111.127 252.257C110.702 252.008 110.277 251.781 109.818 251.566C108.933 251.14 107.998 250.806 107.023 250.522C106.564 250.381 106.122 250.273 105.662 250.188C105.572 250.154 105.487 250.137 105.379 250.12C104.194 249.87 102.958 249.712 101.717 249.644C101.7 249.644 101.666 249.627 101.626 249.644C101.025 249.61 100.424 249.593 99.8233 249.593C99.4321 249.593 99.0296 249.61 98.6214 249.627C95.6338 249.751 92.4648 250.069 89.8684 248.884C88.4908 248.652 93.3719 240.817 92.9637 237.671C85.713 243.153 75.5086 262.116 83.519 269.933C87.2323 273.562 94.8912 272.745 102.216 270.393C102.851 270.183 103.474 269.967 104.092 269.758C105.952 269.083 107.771 268.323 109.466 267.53C110.6 267.019 111.677 266.47 112.669 265.92C113.27 265.585 113.837 265.245 114.387 264.928C114.761 264.718 115.113 264.485 115.447 264.276C116.281 263.726 117.023 263.198 117.641 262.7C117.55 261.532 117.341 260.455 117.023 259.446L117.018 259.429ZM101.898 264.593H91.5861C89.5339 264.593 87.8729 262.932 87.8729 260.88C87.8729 258.828 89.5339 257.184 91.5861 257.184H101.898C103.933 257.184 105.594 258.845 105.594 260.88C105.594 262.915 103.933 264.593 101.898 264.593Z" fill="#6CE22E"/>
<path d="M163.453 200.153C165.431 202.364 167.489 205.283 166.219 208.129C164.513 209.014 162.426 208.503 160.142 208.713C159.7 210.522 161.038 211.31 161.423 212.523C161.327 212.761 161.389 213.339 161.366 213.6C158.107 216.582 155.113 213.175 151.831 212.863C150.465 211.74 149.115 210.969 147.755 210.289V209.348C149.291 207.279 158.101 205.125 155.374 200.997C154.342 199.433 152.404 198.509 150.527 199.563L144.609 202.885C143.974 201.689 144.138 200.567 144.042 199.586C143.685 195.788 137.868 202.715 136.196 200.652C135.776 200.136 135.833 199.336 136.332 198.843L139.013 196.196C147.505 195.72 157.081 193.038 163.447 200.158L163.453 200.153Z" fill="#EFFC7C"/>
<path d="M174.694 182.8C171.463 184.903 167.869 186.53 164.677 189.013C162.874 190.413 153.158 193.095 151.094 192.483C149.79 190.328 151.944 187.324 154.269 186.111C160.8 182.692 167.801 180.918 175.052 180.901C175.494 181.468 174.802 182.341 174.694 182.8Z" fill="#6CE22E"/>
<path d="M116.444 307.837C115.651 306.215 114.092 304.906 114.982 303.08C115.214 301.601 115.77 300.41 116.892 300.337C118.02 300.263 119.018 300.444 119.704 301.261C120.555 302.27 119.925 306.459 118.718 307.111C118.083 307.457 117.306 307.99 116.45 307.831L116.444 307.837Z" fill="#EFFC7C"/>
<path d="M130.567 307.916C128.469 308.216 125.963 308.851 124.727 306.839C124.812 306.334 124.081 305.439 124.325 304.787C125.578 302.888 128.31 303.352 129.983 304.656C130.686 305.206 131.196 305.722 131.167 306.465C131.145 306.986 130.89 307.491 130.567 307.916Z" fill="#EFFC7C"/>
<path d="M167.376 245.018C165.862 247.319 160.8 248.85 158.833 246.492C158.198 245.732 157.727 244.593 158.045 243.334C158.668 240.874 160.845 238.697 163.436 238.413C165.256 238.215 166.35 239.627 167.115 240.641C167.96 241.758 168.209 243.742 167.37 245.018H167.376Z" fill="#EFFC7C"/>
<path d="M112.346 300.983C110.64 302.48 108.95 300.444 108.434 299.498C107.76 298.273 107.284 295.626 109.274 295.042C111.762 294.31 114.234 299.333 112.346 300.989V300.983Z" fill="#EFFC7C"/>
<path d="M176.072 478.476C176.072 480.528 174.411 482.189 172.376 482.189H146.321C144.269 482.189 142.608 480.528 142.608 478.476C142.608 476.423 144.269 474.762 146.321 474.762H172.376C174.411 474.762 176.072 476.423 176.072 478.476Z" fill="#0C6591"/>
<path d="M203.029 445.884C203.029 447.936 201.368 449.597 199.315 449.597H173.283C171.231 449.597 169.57 447.936 169.57 445.884C169.57 443.832 171.231 442.188 173.283 442.188H199.315C201.368 442.188 203.029 443.849 203.029 445.884Z" fill="#218BCC"/>
<path d="M230.937 427.205C230.937 429.257 229.293 430.918 227.241 430.918H201.186C199.134 430.918 197.473 429.257 197.473 427.205C197.473 425.152 199.134 423.491 201.186 423.491H227.241C229.293 423.491 230.937 425.152 230.937 427.205Z" fill="#218BCC"/>
<path d="M123.985 425.952C123.985 428.004 122.323 429.665 120.271 429.665H94.2162C92.1811 429.665 90.52 428.004 90.52 425.952C90.52 423.9 92.1811 422.239 94.2162 422.239H120.271C122.323 422.239 123.985 423.9 123.985 425.952Z" fill="#218BCC"/>
<path d="M262.117 190.719C262.117 192.772 260.456 194.433 258.404 194.433H232.349C230.297 194.433 228.636 192.772 228.636 190.719C228.636 188.667 230.297 187.023 232.349 187.023H258.404C260.456 187.023 262.117 188.684 262.117 190.719Z" fill="#218BCC"/>
<path d="M274.169 197.619C276.217 197.619 277.877 195.959 277.877 193.911C277.877 191.863 276.217 190.203 274.169 190.203C272.122 190.203 270.462 191.863 270.462 193.911C270.462 195.959 272.122 197.619 274.169 197.619Z" fill="#218BCC"/>
<path d="M115.623 396.96C115.623 399.013 113.962 400.674 111.91 400.674H74.766C72.7138 400.674 71.0527 399.013 71.0527 396.96C71.0527 394.908 72.7138 393.247 74.766 393.247H111.91C113.962 393.247 115.623 394.908 115.623 396.96Z" fill="#218BCC"/>
<path d="M89.5677 357.396C89.5677 359.448 87.9067 361.109 85.8545 361.109H59.8221C57.7699 361.109 56.1089 359.448 56.1089 357.396C56.1089 355.344 57.7699 353.683 59.8221 353.683H85.8545C87.9067 353.683 89.5677 355.344 89.5677 357.396Z" fill="#218BCC"/>
<path d="M216.045 407.431C216.045 409.466 214.401 411.127 212.348 411.127H186.293C184.241 411.127 182.58 409.466 182.58 407.431C182.58 405.396 184.241 403.718 186.293 403.718H212.348C214.401 403.718 216.045 405.379 216.045 407.431Z" fill="#218BCC"/>
<path d="M245.813 388.734C245.813 390.787 244.152 392.448 242.099 392.448H216.044C214.009 392.448 212.348 390.787 212.348 388.734C212.348 386.682 214.009 385.038 216.044 385.038H242.099C244.152 385.038 245.813 386.699 245.813 388.734Z" fill="#218BCC"/>
<path d="M238.965 363.745C238.965 365.797 237.304 367.458 235.251 367.458H209.219C207.167 367.458 205.506 365.797 205.506 363.745C205.506 361.693 207.167 360.032 209.219 360.032H235.251C237.304 360.032 238.965 361.693 238.965 363.745Z" fill="#218BCC"/>
<path d="M206.175 332.508C206.175 334.544 204.514 336.205 202.462 336.205H176.407C174.371 336.205 172.71 334.544 172.71 332.508C172.71 330.473 174.371 328.795 176.407 328.795H202.462C204.514 328.795 206.175 330.456 206.175 332.508Z" fill="#2EAEEF"/>
<path d="M217.213 304.09C217.213 306.142 215.552 307.803 213.516 307.803H187.461C185.409 307.803 183.748 306.142 183.748 304.09C183.748 302.037 185.409 300.393 187.461 300.393H213.516C215.552 300.393 217.213 302.037 217.213 304.09Z" fill="#2EAEEF"/>
<path d="M174.218 290.223C174.218 292.275 172.557 293.936 170.505 293.936H131.434C129.382 293.936 127.721 292.275 127.721 290.223C127.721 288.171 129.382 286.51 131.434 286.51H170.505C172.557 286.51 174.218 288.171 174.218 290.223Z" fill="#2EAEEF"/>
<path d="M157.478 315.671C159.525 315.671 161.185 314.011 161.185 311.964C161.185 309.916 159.525 308.256 157.478 308.256C155.43 308.256 153.77 309.916 153.77 311.964C153.77 314.011 155.43 315.671 157.478 315.671Z" fill="#2EAEEF"/>
<path d="M213.511 246.197C215.558 246.197 217.218 244.537 217.218 242.489C217.218 240.442 215.558 238.782 213.511 238.782C211.463 238.782 209.803 240.442 209.803 242.489C209.803 244.537 211.463 246.197 213.511 246.197Z" fill="#2EAEEF"/>
<path d="M145.102 267.462C147.15 267.462 148.81 265.802 148.81 263.754C148.81 261.706 147.15 260.046 145.102 260.046C143.054 260.046 141.395 261.706 141.395 263.754C141.395 265.802 143.054 267.462 145.102 267.462Z" fill="#2EAEEF"/>
<path d="M212.524 225.771C212.524 227.807 210.863 229.468 208.811 229.468H182.779C180.726 229.468 179.065 227.807 179.065 225.771C179.065 223.736 180.726 222.058 182.779 222.058H208.811C210.863 222.058 212.524 223.719 212.524 225.771Z" fill="#2EAEEF"/>
<path d="M225.348 259.219C225.348 261.254 223.704 262.915 221.652 262.915H195.597C193.544 262.915 191.883 261.254 191.883 259.219C191.883 257.184 193.544 255.506 195.597 255.506H221.652C223.704 255.506 225.348 257.167 225.348 259.219Z" fill="#2EAEEF"/>
<path d="M190.948 272.394C190.948 274.446 189.287 276.107 187.235 276.107H161.18C159.144 276.107 157.483 274.446 157.483 272.394C157.483 270.341 159.144 268.68 161.18 268.68H187.235C189.287 268.68 190.948 270.341 190.948 272.394Z" fill="#2EAEEF"/>
<path d="M222.91 281.646C222.91 283.698 221.249 285.359 219.197 285.359H202.802C200.767 285.359 199.105 283.698 199.105 281.646C199.105 279.593 200.767 277.949 202.802 277.949H219.197C221.249 277.949 222.91 279.61 222.91 281.646Z" fill="#2EAEEF"/>
<path d="M275.559 409.29C275.559 411.343 273.898 413.004 271.863 413.004H236.527C234.475 413.004 232.814 411.343 232.814 409.29C232.814 407.238 234.475 405.577 236.527 405.577H271.863C273.898 405.577 275.559 407.238 275.559 409.29Z" fill="#218BCC"/>
<path d="M271.035 433.537C273.082 433.537 274.742 431.877 274.742 429.829C274.742 427.782 273.082 426.122 271.035 426.122C268.987 426.122 267.327 427.782 267.327 429.829C267.327 431.877 268.987 433.537 271.035 433.537Z" fill="#218BCC"/>
<path d="M244.282 445.89C246.33 445.89 247.99 444.23 247.99 442.182C247.99 440.135 246.33 438.475 244.282 438.475C242.235 438.475 240.575 440.135 240.575 442.182C240.575 444.23 242.235 445.89 244.282 445.89Z" fill="#218BCC"/>
<path d="M59.8165 332.401C61.8641 332.401 63.524 330.741 63.524 328.693C63.524 326.646 61.8641 324.986 59.8165 324.986C57.7688 324.986 56.1089 326.646 56.1089 328.693C56.1089 330.741 57.7688 332.401 59.8165 332.401Z" fill="#218BCC"/>
<path d="M261.919 372.697C263.967 372.697 265.627 371.037 265.627 368.989C265.627 366.941 263.967 365.281 261.919 365.281C259.871 365.281 258.211 366.941 258.211 368.989C258.211 371.037 259.871 372.697 261.919 372.697Z" fill="#218BCC"/>
<path d="M247.525 208.77C249.573 208.77 251.233 207.11 251.233 205.062C251.233 203.015 249.573 201.355 247.525 201.355C245.477 201.355 243.817 203.015 243.817 205.062C243.817 207.11 245.477 208.77 247.525 208.77Z" fill="#218BCC"/>
<path d="M225.949 487.268C225.949 489.321 224.288 490.982 222.235 490.982H198.414C196.362 490.982 194.718 489.321 194.718 487.268C194.718 485.216 196.362 483.555 198.414 483.555H222.235C224.288 483.555 225.949 485.216 225.949 487.268Z" fill="#0C6591"/>
<path d="M263.694 478.476C263.694 480.528 262.032 482.189 259.98 482.189H240.224C238.171 482.189 236.527 480.528 236.527 478.476C236.527 476.423 238.171 474.762 240.224 474.762H259.98C262.032 474.762 263.694 476.423 263.694 478.476Z" fill="#0C6591"/>
<path d="M294.981 462.648C294.981 464.7 293.32 466.361 291.268 466.361H280.973C278.92 466.361 277.259 464.7 277.259 462.648C277.259 460.595 278.92 458.934 280.973 458.934H291.268C293.32 458.934 294.981 460.595 294.981 462.648Z" fill="#0C6591"/>
<path d="M325.594 437.375C325.594 439.427 323.933 441.088 321.88 441.088H311.568C309.533 441.088 307.872 439.427 307.872 437.375C307.872 435.323 309.533 433.662 311.568 433.662H321.88C323.933 433.662 325.594 435.323 325.594 437.375Z" fill="#0C6591"/>
<path d="M307.872 400.673C307.872 402.709 306.211 404.37 304.159 404.37H293.847C291.812 404.37 290.151 402.709 290.151 400.673C290.151 398.638 291.812 396.96 293.847 396.96H304.159C306.211 396.96 307.872 398.621 307.872 400.673Z" fill="#65C130"/>
<path d="M315.282 378.638C315.282 380.69 313.621 382.334 311.568 382.334H301.273C299.221 382.334 297.56 380.69 297.56 378.638C297.56 376.586 299.221 374.925 301.273 374.925H311.568C313.621 374.925 315.282 376.586 315.282 378.638Z" fill="#65C130"/>
<path d="M338.718 342.458C340.765 342.458 342.425 340.798 342.425 338.75C342.425 336.702 340.765 335.042 338.718 335.042C336.67 335.042 335.01 336.702 335.01 338.75C335.01 340.798 336.67 342.458 338.718 342.458Z" fill="#65C130"/>
<path d="M135.141 352.945C137.189 352.945 138.849 351.285 138.849 349.238C138.849 347.19 137.189 345.53 135.141 345.53C133.094 345.53 131.434 347.19 131.434 349.238C131.434 351.285 133.094 352.945 135.141 352.945Z" fill="#65C130"/>
<path d="M146.434 434.62C148.482 434.62 150.142 432.96 150.142 430.912C150.142 428.865 148.482 427.205 146.434 427.205C144.386 427.205 142.727 428.865 142.727 430.912C142.727 432.96 144.386 434.62 146.434 434.62Z" fill="#65C130"/>
<path d="M340.781 310.824C342.829 310.824 344.489 309.164 344.489 307.117C344.489 305.069 342.829 303.409 340.781 303.409C338.734 303.409 337.074 305.069 337.074 307.117C337.074 309.164 338.734 310.824 340.781 310.824Z" fill="#65C130"/>
<path d="M302.368 223.787C304.415 223.787 306.075 222.127 306.075 220.08C306.075 218.032 304.415 216.372 302.368 216.372C300.32 216.372 298.66 218.032 298.66 220.08C298.66 222.127 300.32 223.787 302.368 223.787Z" fill="#65C130"/>
<path d="M205.506 190.442C207.554 190.442 209.213 188.782 209.213 186.734C209.213 184.686 207.554 183.026 205.506 183.026C203.458 183.026 201.798 184.686 201.798 186.734C201.798 188.782 203.458 190.442 205.506 190.442Z" fill="#65C130"/>
<path d="M320.803 246.735C322.851 246.735 324.511 245.076 324.511 243.028C324.511 240.98 322.851 239.32 320.803 239.32C318.756 239.32 317.096 240.98 317.096 243.028C317.096 245.076 318.756 246.735 320.803 246.735Z" fill="#65C130"/>
<path d="M267.866 285.16C269.913 285.16 271.573 283.501 271.573 281.453C271.573 279.405 269.913 277.745 267.866 277.745C265.818 277.745 264.158 279.405 264.158 281.453C264.158 283.501 265.818 285.16 267.866 285.16Z" fill="#D3D86C"/>
<path d="M269.51 247.682C271.557 247.682 273.217 246.022 273.217 243.975C273.217 241.927 271.557 240.267 269.51 240.267C267.462 240.267 265.802 241.927 265.802 243.975C265.802 246.022 267.462 247.682 269.51 247.682Z" fill="#D3D86C"/>
<path d="M247.525 267.575C249.573 267.575 251.233 265.915 251.233 263.867C251.233 261.82 249.573 260.16 247.525 260.16C245.477 260.16 243.817 261.82 243.817 263.867C243.817 265.915 245.477 267.575 247.525 267.575Z" fill="#D3D86C"/>
<path d="M124.279 332.503C126.327 332.503 127.987 330.843 127.987 328.795C127.987 326.748 126.327 325.088 124.279 325.088C122.232 325.088 120.572 326.748 120.572 328.795C120.572 330.843 122.232 332.503 124.279 332.503Z" fill="#D3D86C"/>
<path d="M78.4678 285.359C80.5155 285.359 82.1754 283.699 82.1754 281.651C82.1754 279.604 80.5155 277.944 78.4678 277.944C76.4202 277.944 74.7603 279.604 74.7603 281.651C74.7603 283.699 76.4202 285.359 78.4678 285.359Z" fill="#D3D86C"/>
<path d="M109.308 224.258C111.355 224.258 113.015 222.598 113.015 220.55C113.015 218.502 111.355 216.843 109.308 216.843C107.26 216.843 105.6 218.502 105.6 220.55C105.6 222.598 107.26 224.258 109.308 224.258Z" fill="#D3D86C"/>
<path d="M187.234 198.14C189.282 198.14 190.942 196.48 190.942 194.433C190.942 192.385 189.282 190.725 187.234 190.725C185.187 190.725 183.527 192.385 183.527 194.433C183.527 196.48 185.187 198.14 187.234 198.14Z" fill="#D3D86C"/>
<path d="M284.986 327.967C284.986 330.02 283.325 331.681 281.273 331.681H256.142C254.09 331.681 252.429 330.02 252.429 327.967C252.429 325.915 254.09 324.271 256.142 324.271H281.273C283.325 324.271 284.986 325.932 284.986 327.967Z" fill="#65C130"/>
<path d="M313.836 327.967C313.836 330.02 312.192 331.681 310.14 331.681H299.828C297.776 331.681 296.115 330.02 296.115 327.967C296.115 325.915 297.776 324.271 299.828 324.271H310.14C312.192 324.271 313.836 325.932 313.836 327.967Z" fill="#65C130"/>
<path d="M322.697 349.244C322.697 351.279 321.053 352.94 319.001 352.94H294.471C292.418 352.94 290.757 351.279 290.757 349.244C290.757 347.208 292.418 345.53 294.471 345.53H319.001C321.053 345.53 322.697 347.191 322.697 349.244Z" fill="#65C130"/>
<path d="M142.126 418.168C144.174 418.168 145.834 416.508 145.834 414.461C145.834 412.413 144.174 410.753 142.126 410.753C140.078 410.753 138.418 412.413 138.418 414.461C138.418 416.508 140.078 418.168 142.126 418.168Z" fill="#65C130"/>
<path d="M152.426 418.168C154.474 418.168 156.134 416.508 156.134 414.461C156.134 412.413 154.474 410.753 152.426 410.753C150.379 410.753 148.719 412.413 148.719 414.461C148.719 416.508 150.379 418.168 152.426 418.168Z" fill="#65C130"/>
<path d="M152.432 410.747H142.126V418.162H152.432V410.747Z" fill="#65C130"/>
<path d="M149.541 396.132C151.589 396.132 153.249 394.472 153.249 392.425C153.249 390.377 151.589 388.717 149.541 388.717C147.493 388.717 145.833 390.377 145.833 392.425C145.833 394.472 147.493 396.132 149.541 396.132Z" fill="#65C130"/>
<path d="M159.847 396.132C161.895 396.132 163.555 394.472 163.555 392.425C163.555 390.377 161.895 388.717 159.847 388.717C157.8 388.717 156.14 390.377 156.14 392.425C156.14 394.472 157.8 396.132 159.847 396.132Z" fill="#65C130"/>
<path d="M159.847 388.717H149.541V396.132H159.847V388.717Z" fill="#65C130"/>
<path d="M142.727 366.733C144.774 366.733 146.434 365.073 146.434 363.025C146.434 360.978 144.774 359.318 142.727 359.318C140.679 359.318 139.019 360.978 139.019 363.025C139.019 365.073 140.679 366.733 142.727 366.733Z" fill="#65C130"/>
<path d="M167.262 366.733C169.31 366.733 170.97 365.073 170.97 363.025C170.97 360.978 169.31 359.318 167.262 359.318C165.215 359.318 163.555 360.978 163.555 363.025C163.555 365.073 165.215 366.733 167.262 366.733Z" fill="#65C130"/>
<path d="M167.262 359.318H142.727V366.733H167.262V359.318Z" fill="#65C130"/>
<path d="M289.584 310.83C289.584 312.882 287.923 314.543 285.871 314.543H275.559C273.506 314.543 271.862 312.882 271.862 310.83C271.862 308.778 273.506 307.117 275.559 307.117H285.871C287.923 307.117 289.584 308.778 289.584 310.83Z" fill="#65C130"/>
<path d="M308.689 297.967C308.689 300.019 307.028 301.68 304.976 301.68H294.681C292.628 301.68 290.967 300.019 290.967 297.967C290.967 295.915 292.628 294.254 294.681 294.254H304.976C307.028 294.254 308.689 295.915 308.689 297.967Z" fill="#65C130"/>
<path d="M105.594 260.88C105.594 262.932 103.933 264.593 101.898 264.593H91.5858C89.5336 264.593 87.8726 262.932 87.8726 260.88C87.8726 258.828 89.5336 257.184 91.5858 257.184H101.898C103.933 257.184 105.594 258.845 105.594 260.88Z" fill="#65C130"/>
<path d="M119.619 238.788C119.619 240.84 117.958 242.501 115.906 242.501H105.594C103.559 242.501 101.898 240.84 101.898 238.788C101.898 236.735 103.559 235.091 105.594 235.091H115.906C117.958 235.091 119.619 236.752 119.619 238.788Z" fill="#D3D86C"/>
<path d="M144.767 246.22C144.767 248.272 143.123 249.916 141.071 249.916H130.759C128.707 249.916 127.046 248.272 127.046 246.22C127.046 244.167 128.707 242.506 130.759 242.506H141.071C143.123 242.506 144.767 244.167 144.767 246.22Z" fill="#D3D86C"/>
<path d="M336.172 280.336C336.172 282.388 334.511 284.032 332.459 284.032H322.164C320.112 284.032 318.451 282.388 318.451 280.336C318.451 278.284 320.112 276.623 322.164 276.623H332.459C334.511 276.623 336.172 278.284 336.172 280.336Z" fill="#65C130"/>
<path d="M301.279 235.465C301.279 237.518 299.618 239.179 297.566 239.179H287.271C285.219 239.179 283.558 237.518 283.558 235.465C283.558 233.413 285.219 231.752 287.271 231.752H297.566C299.618 231.752 301.279 233.413 301.279 235.465Z" fill="#65C130"/>
<path d="M342.698 256.265C342.698 258.317 341.037 259.978 338.984 259.978H328.689C326.637 259.978 324.976 258.317 324.976 256.265C324.976 254.213 326.637 252.552 328.689 252.552H338.984C341.037 252.552 342.698 254.213 342.698 256.265Z" fill="#65C130"/>
<path d="M346.127 417.369C346.127 419.421 344.466 421.082 342.431 421.082H332.119C330.067 421.082 328.406 419.421 328.406 417.369C328.406 415.317 330.067 413.673 332.119 413.673H342.431C344.466 413.673 346.127 415.334 346.127 417.369Z" fill="#0C6591"/>
<path d="M363.616 322.724C365.664 322.724 367.324 321.064 367.324 319.016C367.324 316.969 365.664 315.309 363.616 315.309C361.569 315.309 359.909 316.969 359.909 319.016C359.909 321.064 361.569 322.724 363.616 322.724Z" fill="#0C6591"/>
<path d="M361.638 347.945C363.685 347.945 365.345 346.285 365.345 344.238C365.345 342.19 363.685 340.53 361.638 340.53C359.59 340.53 357.93 342.19 357.93 344.238C357.93 346.285 359.59 347.945 361.638 347.945Z" fill="#0C6591"/>
<path d="M364.881 366.591C364.881 368.643 363.22 370.304 361.167 370.304C359.574 370.304 358.214 369.295 357.704 367.884C357.171 369.301 355.81 370.304 354.217 370.304C352.182 370.304 350.521 368.643 350.521 366.591C350.521 364.539 352.182 362.895 354.217 362.895C355.81 362.895 357.171 363.904 357.704 365.298C358.214 363.904 359.58 362.895 361.167 362.895C363.22 362.895 364.881 364.556 364.881 366.591Z" fill="#0C6591"/>
<path d="M361.162 370.31H354.211C355.804 370.31 357.165 369.301 357.698 367.889C358.208 369.306 359.574 370.31 361.162 370.31Z" fill="#0C6591"/>
<path d="M354.211 362.895H361.162C359.569 362.895 358.208 363.904 357.698 365.298C357.165 363.904 355.804 362.895 354.211 362.895Z" fill="#0C6591"/>
<circle cx="237.775" cy="34.5053" r="22" transform="rotate(3.92311 237.775 34.5053)" stroke="black" stroke-width="5"/>
<line x1="238.593" y1="59.119" x2="231.649" y2="160.381" stroke="black" stroke-width="5"/>
<line x1="231.607" y1="159.566" x2="213.686" y2="208.956" stroke="black" stroke-width="5"/>
<line y1="-2.5" x2="52.5405" y2="-2.5" transform="matrix(0.20957 0.977794 0.977794 -0.20957 233.747 159.021)" stroke="black" stroke-width="5"/>
<line x1="236.542" y1="82.6195" x2="263.031" y2="127.537" stroke="black" stroke-width="5"/>
<line y1="-2.5" x2="52.1464" y2="-2.5" transform="matrix(-0.620806 0.783964 0.783964 0.620806 239.377 84.2314)" stroke="black" stroke-width="5"/>
<circle cx="32.457" cy="91.734" r="22" transform="rotate(-24.514 32.457 91.734)" stroke="black" stroke-width="5"/>
<line x1="44.8972" y1="112.988" x2="87.0112" y2="205.339" stroke="black" stroke-width="5"/>
<line x1="86.5868" y1="204.642" x2="94.3471" y2="256.607" stroke="black" stroke-width="5"/>
<line y1="-2.5" x2="52.5405" y2="-2.5" transform="matrix(0.649903 0.760017 0.760017 -0.649903 88.2085 203.145)" stroke="black" stroke-width="5"/>
<line x1="54.284" y1="134.63" x2="98.9662" y2="161.514" stroke="black" stroke-width="5"/>
<line y1="-2.5" x2="52.1464" y2="-2.5" transform="matrix(-0.172581 0.984995 0.984995 0.172581 57.5444 134.698)" stroke="black" stroke-width="5"/>
<path d="M324.991 38.9725C337.075 41.7762 344.389 52.704 342.004 62.9829C339.619 73.2617 328.241 79.8527 316.156 77.049C304.072 74.2453 296.758 63.3175 299.143 53.0386C301.527 42.7597 312.906 36.1688 324.991 38.9725Z" stroke="black" stroke-width="5"/>
<line x1="318.027" y1="80.0491" x2="297.387" y2="169.011" stroke="black" stroke-width="5"/>
<line y1="-2.5" x2="47.6949" y2="-2.5" transform="matrix(-0.511459 0.859308 -0.886629 -0.462482 295.256 167.131)" stroke="black" stroke-width="5"/>
<line y1="-2.5" x2="47.6949" y2="-2.5" transform="matrix(0.0808401 0.996727 0.999692 -0.0248369 299.64 168.148)" stroke="black" stroke-width="5"/>
<line y1="-2.5" x2="48.6529" y2="-2.5" transform="matrix(0.410924 0.911669 -0.947636 0.319351 310.508 101.396)" stroke="black" stroke-width="5"/>
<line y1="-2.5" x2="48.6529" y2="-2.5" transform="matrix(-0.77037 0.637597 0.710211 0.703989 315.378 102.526)" stroke="black" stroke-width="5"/>
<path d="M124.703 7.22643C136.443 5.30734 148.169 14.4075 150.43 28.237C152.691 42.0667 144.473 54.4269 132.733 56.346C120.993 58.2651 109.267 49.165 107.006 35.3354C104.746 21.5058 112.964 9.14552 124.703 7.22643Z" stroke="black" stroke-width="5"/>
<line x1="135.603" y1="58.4102" x2="153.907" y2="170.38" stroke="black" stroke-width="5"/>
<line y1="-2.5" x2="58.2812" y2="-2.5" transform="matrix(-0.0892813 0.996006 -0.988989 -0.147985 151.169 169.129)" stroke="black" stroke-width="5"/>
<line y1="-2.5" x2="58.2812" y2="-2.5" transform="matrix(0.401788 0.915732 0.890388 -0.455202 155.61 168.403)" stroke="black" stroke-width="5"/>
<line y1="-2.5" x2="56.396" y2="-2.5" transform="matrix(0.65373 0.756728 -0.684967 0.728574 137.645 86.3926)" stroke="black" stroke-width="5"/>
<line y1="-2.5" x2="56.396" y2="-2.5" transform="matrix(-0.37874 0.925503 0.88131 0.472539 142.579 85.5859)" stroke="black" stroke-width="5"/>
<path d="M441.686 66.0965C451.776 72.3968 454.589 86.9708 447.167 98.8572C439.745 110.744 425.416 114.614 415.326 108.314C405.235 102.014 402.423 87.4399 409.845 75.5535C417.267 63.6672 431.596 59.7962 441.686 66.0965Z" stroke="black" stroke-width="5"/>
<line x1="416.122" y1="111.759" x2="356.032" y2="207.996" stroke="black" stroke-width="5"/>
<line y1="-2.5" x2="58.2812" y2="-2.5" transform="matrix(-0.72401 0.689789 -0.645798 -0.763509 354.799 205.25)" stroke="black" stroke-width="5"/>
<line y1="-2.5" x2="58.2812" y2="-2.5" transform="matrix(-0.301942 0.953326 0.969504 0.245076 358.617 207.633)" stroke="black" stroke-width="5"/>
<line y1="-2.5" x2="56.396" y2="-2.5" transform="matrix(-0.00769496 0.99997 -0.995392 0.0958927 399.201 134.139)" stroke="black" stroke-width="5"/>
<line y1="-2.5" x2="56.396" y2="-2.5" transform="matrix(-0.89509 0.445886 0.350803 0.936449 403.442 136.787)" stroke="black" stroke-width="5"/>
</svg>
